%TF.GenerationSoftware,KiCad,Pcbnew,9.0.1*%
%TF.CreationDate,2025-05-21T12:17:01+01:00*%
%TF.ProjectId,ZED-X20P_Tilt_panelized,5a45442d-5832-4305-905f-54696c745f70,v10*%
%TF.SameCoordinates,Original*%
%TF.FileFunction,Paste,Top*%
%TF.FilePolarity,Positive*%
%FSLAX46Y46*%
G04 Gerber Fmt 4.6, Leading zero omitted, Abs format (unit mm)*
G04 Created by KiCad (PCBNEW 9.0.1) date 2025-05-21 12:17:01*
%MOMM*%
%LPD*%
G01*
G04 APERTURE LIST*
G04 Aperture macros list*
%AMRoundRect*
0 Rectangle with rounded corners*
0 $1 Rounding radius*
0 $2 $3 $4 $5 $6 $7 $8 $9 X,Y pos of 4 corners*
0 Add a 4 corners polygon primitive as box body*
4,1,4,$2,$3,$4,$5,$6,$7,$8,$9,$2,$3,0*
0 Add four circle primitives for the rounded corners*
1,1,$1+$1,$2,$3*
1,1,$1+$1,$4,$5*
1,1,$1+$1,$6,$7*
1,1,$1+$1,$8,$9*
0 Add four rect primitives between the rounded corners*
20,1,$1+$1,$2,$3,$4,$5,0*
20,1,$1+$1,$4,$5,$6,$7,0*
20,1,$1+$1,$6,$7,$8,$9,0*
20,1,$1+$1,$8,$9,$2,$3,0*%
G04 Aperture macros list end*
%ADD10RoundRect,0.200000X0.200000X0.275000X-0.200000X0.275000X-0.200000X-0.275000X0.200000X-0.275000X0*%
%ADD11RoundRect,0.140000X-0.140000X-0.170000X0.140000X-0.170000X0.140000X0.170000X-0.140000X0.170000X0*%
%ADD12RoundRect,0.225000X0.225000X0.250000X-0.225000X0.250000X-0.225000X-0.250000X0.225000X-0.250000X0*%
%ADD13RoundRect,0.225000X-0.225000X-0.250000X0.225000X-0.250000X0.225000X0.250000X-0.225000X0.250000X0*%
%ADD14RoundRect,0.140000X0.140000X0.170000X-0.140000X0.170000X-0.140000X-0.170000X0.140000X-0.170000X0*%
%ADD15RoundRect,0.140000X-0.170000X0.140000X-0.170000X-0.140000X0.170000X-0.140000X0.170000X0.140000X0*%
%ADD16RoundRect,0.225000X0.250000X-0.225000X0.250000X0.225000X-0.250000X0.225000X-0.250000X-0.225000X0*%
%ADD17RoundRect,0.135000X0.135000X0.185000X-0.135000X0.185000X-0.135000X-0.185000X0.135000X-0.185000X0*%
%ADD18R,0.700000X0.300000*%
%ADD19R,1.368000X0.765000*%
%ADD20R,0.765000X1.368000*%
%ADD21R,0.880000X0.880000*%
%ADD22R,1.050000X1.000000*%
%ADD23R,2.200000X0.850000*%
G04 APERTURE END LIST*
D10*
%TO.C,R4*%
X42735000Y26670000D03*
X41085000Y26670000D03*
%TD*%
%TO.C,R4*%
X42735000Y61170000D03*
X41085000Y61170000D03*
%TD*%
%TO.C,R4*%
X42735000Y95670000D03*
X41085000Y95670000D03*
%TD*%
%TO.C,R4*%
X42735000Y130170000D03*
X41085000Y130170000D03*
%TD*%
%TO.C,R4*%
X42735000Y164670000D03*
X41085000Y164670000D03*
%TD*%
%TO.C,R4*%
X87235000Y95670000D03*
X85585000Y95670000D03*
%TD*%
%TO.C,R4*%
X87235000Y130170000D03*
X85585000Y130170000D03*
%TD*%
%TO.C,R4*%
X87235000Y26670000D03*
X85585000Y26670000D03*
%TD*%
%TO.C,R4*%
X131735000Y95670000D03*
X130085000Y95670000D03*
%TD*%
%TO.C,R4*%
X131735000Y164670000D03*
X130085000Y164670000D03*
%TD*%
%TO.C,R4*%
X87235000Y61170000D03*
X85585000Y61170000D03*
%TD*%
%TO.C,R4*%
X131735000Y61170000D03*
X130085000Y61170000D03*
%TD*%
%TO.C,R4*%
X131735000Y26670000D03*
X130085000Y26670000D03*
%TD*%
%TO.C,R4*%
X131735000Y130170000D03*
X130085000Y130170000D03*
%TD*%
%TO.C,R4*%
X87235000Y164670000D03*
X85585000Y164670000D03*
%TD*%
D11*
%TO.C,C8*%
X10270000Y20250000D03*
X11230000Y20250000D03*
%TD*%
%TO.C,C8*%
X10270000Y123750000D03*
X11230000Y123750000D03*
%TD*%
%TO.C,C8*%
X10270000Y54750000D03*
X11230000Y54750000D03*
%TD*%
%TO.C,C8*%
X10270000Y89250000D03*
X11230000Y89250000D03*
%TD*%
%TO.C,C8*%
X99270000Y89250000D03*
X100230000Y89250000D03*
%TD*%
%TO.C,C8*%
X10270000Y158250000D03*
X11230000Y158250000D03*
%TD*%
%TO.C,C8*%
X54770000Y54750000D03*
X55730000Y54750000D03*
%TD*%
%TO.C,C8*%
X54770000Y89250000D03*
X55730000Y89250000D03*
%TD*%
%TO.C,C8*%
X54770000Y123750000D03*
X55730000Y123750000D03*
%TD*%
%TO.C,C8*%
X54770000Y158250000D03*
X55730000Y158250000D03*
%TD*%
%TO.C,C8*%
X54770000Y20250000D03*
X55730000Y20250000D03*
%TD*%
%TO.C,C8*%
X99270000Y20250000D03*
X100230000Y20250000D03*
%TD*%
%TO.C,C8*%
X99270000Y54750000D03*
X100230000Y54750000D03*
%TD*%
%TO.C,C8*%
X99270000Y123750000D03*
X100230000Y123750000D03*
%TD*%
%TO.C,C8*%
X99270000Y158250000D03*
X100230000Y158250000D03*
%TD*%
D12*
%TO.C,C9*%
X12025000Y15250000D03*
X10475000Y15250000D03*
%TD*%
%TO.C,C9*%
X12025000Y84250000D03*
X10475000Y84250000D03*
%TD*%
%TO.C,C9*%
X12025000Y153250000D03*
X10475000Y153250000D03*
%TD*%
%TO.C,C9*%
X12025000Y49750000D03*
X10475000Y49750000D03*
%TD*%
%TO.C,C9*%
X12025000Y118750000D03*
X10475000Y118750000D03*
%TD*%
%TO.C,C9*%
X56525000Y15250000D03*
X54975000Y15250000D03*
%TD*%
%TO.C,C9*%
X56525000Y49750000D03*
X54975000Y49750000D03*
%TD*%
%TO.C,C9*%
X101025000Y118750000D03*
X99475000Y118750000D03*
%TD*%
%TO.C,C9*%
X101025000Y84250000D03*
X99475000Y84250000D03*
%TD*%
%TO.C,C9*%
X56525000Y84250000D03*
X54975000Y84250000D03*
%TD*%
%TO.C,C9*%
X56525000Y118750000D03*
X54975000Y118750000D03*
%TD*%
%TO.C,C9*%
X101025000Y49750000D03*
X99475000Y49750000D03*
%TD*%
%TO.C,C9*%
X56525000Y153250000D03*
X54975000Y153250000D03*
%TD*%
%TO.C,C9*%
X101025000Y15250000D03*
X99475000Y15250000D03*
%TD*%
%TO.C,C9*%
X101025000Y153250000D03*
X99475000Y153250000D03*
%TD*%
D11*
%TO.C,C6*%
X10770000Y5250000D03*
X11730000Y5250000D03*
%TD*%
%TO.C,C6*%
X10770000Y39750000D03*
X11730000Y39750000D03*
%TD*%
%TO.C,C6*%
X55270000Y143250000D03*
X56230000Y143250000D03*
%TD*%
%TO.C,C6*%
X55270000Y108750000D03*
X56230000Y108750000D03*
%TD*%
%TO.C,C6*%
X99770000Y74250000D03*
X100730000Y74250000D03*
%TD*%
%TO.C,C6*%
X55270000Y5250000D03*
X56230000Y5250000D03*
%TD*%
%TO.C,C6*%
X10770000Y143250000D03*
X11730000Y143250000D03*
%TD*%
%TO.C,C6*%
X55270000Y74250000D03*
X56230000Y74250000D03*
%TD*%
%TO.C,C6*%
X10770000Y108750000D03*
X11730000Y108750000D03*
%TD*%
%TO.C,C6*%
X10770000Y74250000D03*
X11730000Y74250000D03*
%TD*%
%TO.C,C6*%
X55270000Y39750000D03*
X56230000Y39750000D03*
%TD*%
%TO.C,C6*%
X99770000Y5250000D03*
X100730000Y5250000D03*
%TD*%
%TO.C,C6*%
X99770000Y39750000D03*
X100730000Y39750000D03*
%TD*%
%TO.C,C6*%
X99770000Y143250000D03*
X100730000Y143250000D03*
%TD*%
%TO.C,C6*%
X99770000Y108750000D03*
X100730000Y108750000D03*
%TD*%
D13*
%TO.C,C1*%
X31975000Y14250000D03*
X33525000Y14250000D03*
%TD*%
%TO.C,C1*%
X31975000Y83250000D03*
X33525000Y83250000D03*
%TD*%
%TO.C,C1*%
X31975000Y48750000D03*
X33525000Y48750000D03*
%TD*%
%TO.C,C1*%
X31975000Y152250000D03*
X33525000Y152250000D03*
%TD*%
%TO.C,C1*%
X76475000Y152250000D03*
X78025000Y152250000D03*
%TD*%
%TO.C,C1*%
X76475000Y83250000D03*
X78025000Y83250000D03*
%TD*%
%TO.C,C1*%
X76475000Y48750000D03*
X78025000Y48750000D03*
%TD*%
%TO.C,C1*%
X76475000Y117750000D03*
X78025000Y117750000D03*
%TD*%
%TO.C,C1*%
X31975000Y117750000D03*
X33525000Y117750000D03*
%TD*%
%TO.C,C1*%
X76475000Y14250000D03*
X78025000Y14250000D03*
%TD*%
%TO.C,C1*%
X120975000Y48750000D03*
X122525000Y48750000D03*
%TD*%
%TO.C,C1*%
X120975000Y83250000D03*
X122525000Y83250000D03*
%TD*%
%TO.C,C1*%
X120975000Y117750000D03*
X122525000Y117750000D03*
%TD*%
%TO.C,C1*%
X120975000Y14250000D03*
X122525000Y14250000D03*
%TD*%
%TO.C,C1*%
X120975000Y152250000D03*
X122525000Y152250000D03*
%TD*%
D14*
%TO.C,C10*%
X11730000Y17500000D03*
X10770000Y17500000D03*
%TD*%
%TO.C,C10*%
X11730000Y52000000D03*
X10770000Y52000000D03*
%TD*%
%TO.C,C10*%
X100730000Y17500000D03*
X99770000Y17500000D03*
%TD*%
%TO.C,C10*%
X11730000Y86500000D03*
X10770000Y86500000D03*
%TD*%
%TO.C,C10*%
X11730000Y121000000D03*
X10770000Y121000000D03*
%TD*%
%TO.C,C10*%
X11730000Y155500000D03*
X10770000Y155500000D03*
%TD*%
%TO.C,C10*%
X56230000Y52000000D03*
X55270000Y52000000D03*
%TD*%
%TO.C,C10*%
X56230000Y17500000D03*
X55270000Y17500000D03*
%TD*%
%TO.C,C10*%
X56230000Y86500000D03*
X55270000Y86500000D03*
%TD*%
%TO.C,C10*%
X56230000Y121000000D03*
X55270000Y121000000D03*
%TD*%
%TO.C,C10*%
X56230000Y155500000D03*
X55270000Y155500000D03*
%TD*%
%TO.C,C10*%
X100730000Y86500000D03*
X99770000Y86500000D03*
%TD*%
%TO.C,C10*%
X100730000Y121000000D03*
X99770000Y121000000D03*
%TD*%
%TO.C,C10*%
X100730000Y52000000D03*
X99770000Y52000000D03*
%TD*%
%TO.C,C10*%
X100730000Y155500000D03*
X99770000Y155500000D03*
%TD*%
D10*
%TO.C,R3*%
X38925000Y26670000D03*
X37275000Y26670000D03*
%TD*%
%TO.C,R3*%
X38925000Y95670000D03*
X37275000Y95670000D03*
%TD*%
%TO.C,R3*%
X83425000Y61170000D03*
X81775000Y61170000D03*
%TD*%
%TO.C,R3*%
X38925000Y61170000D03*
X37275000Y61170000D03*
%TD*%
%TO.C,R3*%
X38925000Y164670000D03*
X37275000Y164670000D03*
%TD*%
%TO.C,R3*%
X83425000Y26670000D03*
X81775000Y26670000D03*
%TD*%
%TO.C,R3*%
X38925000Y130170000D03*
X37275000Y130170000D03*
%TD*%
%TO.C,R3*%
X83425000Y95670000D03*
X81775000Y95670000D03*
%TD*%
%TO.C,R3*%
X83425000Y130170000D03*
X81775000Y130170000D03*
%TD*%
%TO.C,R3*%
X83425000Y164670000D03*
X81775000Y164670000D03*
%TD*%
%TO.C,R3*%
X127925000Y130170000D03*
X126275000Y130170000D03*
%TD*%
%TO.C,R3*%
X127925000Y164670000D03*
X126275000Y164670000D03*
%TD*%
%TO.C,R3*%
X127925000Y95670000D03*
X126275000Y95670000D03*
%TD*%
%TO.C,R3*%
X127925000Y26670000D03*
X126275000Y26670000D03*
%TD*%
%TO.C,R3*%
X127925000Y61170000D03*
X126275000Y61170000D03*
%TD*%
D15*
%TO.C,D1*%
X10000000Y23980000D03*
X10000000Y23020000D03*
%TD*%
%TO.C,D1*%
X54500000Y58480000D03*
X54500000Y57520000D03*
%TD*%
%TO.C,D1*%
X10000000Y58480000D03*
X10000000Y57520000D03*
%TD*%
%TO.C,D1*%
X10000000Y92980000D03*
X10000000Y92020000D03*
%TD*%
%TO.C,D1*%
X10000000Y127480000D03*
X10000000Y126520000D03*
%TD*%
%TO.C,D1*%
X10000000Y161980000D03*
X10000000Y161020000D03*
%TD*%
%TO.C,D1*%
X54500000Y23980000D03*
X54500000Y23020000D03*
%TD*%
%TO.C,D1*%
X99000000Y92980000D03*
X99000000Y92020000D03*
%TD*%
%TO.C,D1*%
X54500000Y92980000D03*
X54500000Y92020000D03*
%TD*%
%TO.C,D1*%
X54500000Y161980000D03*
X54500000Y161020000D03*
%TD*%
%TO.C,D1*%
X54500000Y127480000D03*
X54500000Y126520000D03*
%TD*%
%TO.C,D1*%
X99000000Y23980000D03*
X99000000Y23020000D03*
%TD*%
%TO.C,D1*%
X99000000Y58480000D03*
X99000000Y57520000D03*
%TD*%
%TO.C,D1*%
X99000000Y127480000D03*
X99000000Y126520000D03*
%TD*%
%TO.C,D1*%
X99000000Y161980000D03*
X99000000Y161020000D03*
%TD*%
D11*
%TO.C,C3*%
X32270000Y16500000D03*
X33230000Y16500000D03*
%TD*%
%TO.C,C3*%
X32270000Y85500000D03*
X33230000Y85500000D03*
%TD*%
%TO.C,C3*%
X76770000Y16500000D03*
X77730000Y16500000D03*
%TD*%
%TO.C,C3*%
X32270000Y51000000D03*
X33230000Y51000000D03*
%TD*%
%TO.C,C3*%
X32270000Y120000000D03*
X33230000Y120000000D03*
%TD*%
%TO.C,C3*%
X32270000Y154500000D03*
X33230000Y154500000D03*
%TD*%
%TO.C,C3*%
X121270000Y51000000D03*
X122230000Y51000000D03*
%TD*%
%TO.C,C3*%
X121270000Y85500000D03*
X122230000Y85500000D03*
%TD*%
%TO.C,C3*%
X76770000Y85500000D03*
X77730000Y85500000D03*
%TD*%
%TO.C,C3*%
X76770000Y51000000D03*
X77730000Y51000000D03*
%TD*%
%TO.C,C3*%
X76770000Y154500000D03*
X77730000Y154500000D03*
%TD*%
%TO.C,C3*%
X121270000Y120000000D03*
X122230000Y120000000D03*
%TD*%
%TO.C,C3*%
X76770000Y120000000D03*
X77730000Y120000000D03*
%TD*%
%TO.C,C3*%
X121270000Y16500000D03*
X122230000Y16500000D03*
%TD*%
%TO.C,C3*%
X121270000Y154500000D03*
X122230000Y154500000D03*
%TD*%
D16*
%TO.C,L1*%
X11250000Y21475000D03*
X11250000Y23025000D03*
%TD*%
%TO.C,L1*%
X11250000Y124975000D03*
X11250000Y126525000D03*
%TD*%
%TO.C,L1*%
X11250000Y55975000D03*
X11250000Y57525000D03*
%TD*%
%TO.C,L1*%
X11250000Y90475000D03*
X11250000Y92025000D03*
%TD*%
%TO.C,L1*%
X100250000Y90475000D03*
X100250000Y92025000D03*
%TD*%
%TO.C,L1*%
X11250000Y159475000D03*
X11250000Y161025000D03*
%TD*%
%TO.C,L1*%
X55750000Y21475000D03*
X55750000Y23025000D03*
%TD*%
%TO.C,L1*%
X55750000Y124975000D03*
X55750000Y126525000D03*
%TD*%
%TO.C,L1*%
X55750000Y55975000D03*
X55750000Y57525000D03*
%TD*%
%TO.C,L1*%
X55750000Y90475000D03*
X55750000Y92025000D03*
%TD*%
%TO.C,L1*%
X55750000Y159475000D03*
X55750000Y161025000D03*
%TD*%
%TO.C,L1*%
X100250000Y21475000D03*
X100250000Y23025000D03*
%TD*%
%TO.C,L1*%
X100250000Y55975000D03*
X100250000Y57525000D03*
%TD*%
%TO.C,L1*%
X100250000Y124975000D03*
X100250000Y126525000D03*
%TD*%
%TO.C,L1*%
X100250000Y159475000D03*
X100250000Y161025000D03*
%TD*%
D14*
%TO.C,C7*%
X11730000Y16500000D03*
X10770000Y16500000D03*
%TD*%
%TO.C,C7*%
X100730000Y51000000D03*
X99770000Y51000000D03*
%TD*%
%TO.C,C7*%
X100730000Y154500000D03*
X99770000Y154500000D03*
%TD*%
%TO.C,C7*%
X100730000Y120000000D03*
X99770000Y120000000D03*
%TD*%
%TO.C,C7*%
X56230000Y120000000D03*
X55270000Y120000000D03*
%TD*%
%TO.C,C7*%
X100730000Y16500000D03*
X99770000Y16500000D03*
%TD*%
%TO.C,C7*%
X56230000Y154500000D03*
X55270000Y154500000D03*
%TD*%
%TO.C,C7*%
X100730000Y85500000D03*
X99770000Y85500000D03*
%TD*%
%TO.C,C7*%
X56230000Y16500000D03*
X55270000Y16500000D03*
%TD*%
%TO.C,C7*%
X11730000Y85500000D03*
X10770000Y85500000D03*
%TD*%
%TO.C,C7*%
X56230000Y51000000D03*
X55270000Y51000000D03*
%TD*%
%TO.C,C7*%
X56230000Y85500000D03*
X55270000Y85500000D03*
%TD*%
%TO.C,C7*%
X11730000Y51000000D03*
X10770000Y51000000D03*
%TD*%
%TO.C,C7*%
X11730000Y120000000D03*
X10770000Y120000000D03*
%TD*%
%TO.C,C7*%
X11730000Y154500000D03*
X10770000Y154500000D03*
%TD*%
D17*
%TO.C,R2*%
X12260000Y19250000D03*
X11240000Y19250000D03*
%TD*%
%TO.C,R2*%
X56760000Y88250000D03*
X55740000Y88250000D03*
%TD*%
%TO.C,R2*%
X101260000Y157250000D03*
X100240000Y157250000D03*
%TD*%
%TO.C,R2*%
X101260000Y122750000D03*
X100240000Y122750000D03*
%TD*%
%TO.C,R2*%
X56760000Y53750000D03*
X55740000Y53750000D03*
%TD*%
%TO.C,R2*%
X101260000Y53750000D03*
X100240000Y53750000D03*
%TD*%
%TO.C,R2*%
X101260000Y88250000D03*
X100240000Y88250000D03*
%TD*%
%TO.C,R2*%
X56760000Y157250000D03*
X55740000Y157250000D03*
%TD*%
%TO.C,R2*%
X56760000Y122750000D03*
X55740000Y122750000D03*
%TD*%
%TO.C,R2*%
X101260000Y19250000D03*
X100240000Y19250000D03*
%TD*%
%TO.C,R2*%
X12260000Y53750000D03*
X11240000Y53750000D03*
%TD*%
%TO.C,R2*%
X12260000Y88250000D03*
X11240000Y88250000D03*
%TD*%
%TO.C,R2*%
X12260000Y122750000D03*
X11240000Y122750000D03*
%TD*%
%TO.C,R2*%
X12260000Y157250000D03*
X11240000Y157250000D03*
%TD*%
%TO.C,R2*%
X56760000Y19250000D03*
X55740000Y19250000D03*
%TD*%
D18*
%TO.C,U5*%
X12050000Y6600000D03*
X12050000Y7250000D03*
X12050000Y7900000D03*
X10450000Y7900000D03*
X10450000Y6600000D03*
%TD*%
%TO.C,U5*%
X12050000Y75600000D03*
X12050000Y76250000D03*
X12050000Y76900000D03*
X10450000Y76900000D03*
X10450000Y75600000D03*
%TD*%
%TO.C,U5*%
X56550000Y6600000D03*
X56550000Y7250000D03*
X56550000Y7900000D03*
X54950000Y7900000D03*
X54950000Y6600000D03*
%TD*%
%TO.C,U5*%
X56550000Y110100000D03*
X56550000Y110750000D03*
X56550000Y111400000D03*
X54950000Y111400000D03*
X54950000Y110100000D03*
%TD*%
%TO.C,U5*%
X101050000Y6600000D03*
X101050000Y7250000D03*
X101050000Y7900000D03*
X99450000Y7900000D03*
X99450000Y6600000D03*
%TD*%
%TO.C,U5*%
X12050000Y144600000D03*
X12050000Y145250000D03*
X12050000Y145900000D03*
X10450000Y145900000D03*
X10450000Y144600000D03*
%TD*%
%TO.C,U5*%
X56550000Y41100000D03*
X56550000Y41750000D03*
X56550000Y42400000D03*
X54950000Y42400000D03*
X54950000Y41100000D03*
%TD*%
%TO.C,U5*%
X12050000Y41100000D03*
X12050000Y41750000D03*
X12050000Y42400000D03*
X10450000Y42400000D03*
X10450000Y41100000D03*
%TD*%
%TO.C,U5*%
X12050000Y110100000D03*
X12050000Y110750000D03*
X12050000Y111400000D03*
X10450000Y111400000D03*
X10450000Y110100000D03*
%TD*%
%TO.C,U5*%
X56550000Y75600000D03*
X56550000Y76250000D03*
X56550000Y76900000D03*
X54950000Y76900000D03*
X54950000Y75600000D03*
%TD*%
%TO.C,U5*%
X56550000Y144600000D03*
X56550000Y145250000D03*
X56550000Y145900000D03*
X54950000Y145900000D03*
X54950000Y144600000D03*
%TD*%
%TO.C,U5*%
X101050000Y75600000D03*
X101050000Y76250000D03*
X101050000Y76900000D03*
X99450000Y76900000D03*
X99450000Y75600000D03*
%TD*%
%TO.C,U5*%
X101050000Y144600000D03*
X101050000Y145250000D03*
X101050000Y145900000D03*
X99450000Y145900000D03*
X99450000Y144600000D03*
%TD*%
%TO.C,U5*%
X101050000Y110100000D03*
X101050000Y110750000D03*
X101050000Y111400000D03*
X99450000Y111400000D03*
X99450000Y110100000D03*
%TD*%
%TO.C,U5*%
X101050000Y41100000D03*
X101050000Y41750000D03*
X101050000Y42400000D03*
X99450000Y42400000D03*
X99450000Y41100000D03*
%TD*%
D19*
%TO.C,U1*%
X14550000Y24150000D03*
X14550000Y23050000D03*
X14550000Y21950000D03*
X14550000Y20850000D03*
X14550000Y19750000D03*
X14550000Y18650000D03*
X14550000Y17550000D03*
X14550000Y16450000D03*
X14550000Y15350000D03*
X14550000Y14250000D03*
X14550000Y13150000D03*
X14550000Y12050000D03*
X14550000Y10950000D03*
X14550000Y9850000D03*
D20*
X15400000Y7050000D03*
X16500000Y7050000D03*
X17600000Y7050000D03*
X18700000Y7050000D03*
X19800000Y7050000D03*
X20900000Y7050000D03*
X22000000Y7050000D03*
X23100000Y7050000D03*
X24200000Y7050000D03*
X25300000Y7050000D03*
X26400000Y7050000D03*
X27500000Y7050000D03*
X28600000Y7050000D03*
D19*
X29450000Y9850000D03*
X29450000Y10950000D03*
X29450000Y12050000D03*
X29450000Y13150000D03*
X29450000Y14250000D03*
X29450000Y15350000D03*
X29450000Y16450000D03*
X29450000Y17550000D03*
X29450000Y18650000D03*
X29450000Y19750000D03*
X29450000Y20850000D03*
X29450000Y21950000D03*
X29450000Y23050000D03*
X29450000Y24150000D03*
D20*
X28600000Y26950000D03*
X27500000Y26950000D03*
X26400000Y26950000D03*
X25300000Y26950000D03*
X24200000Y26950000D03*
X23100000Y26950000D03*
X22000000Y26950000D03*
X20900000Y26950000D03*
X19800000Y26950000D03*
X18700000Y26950000D03*
X17600000Y26950000D03*
X16500000Y26950000D03*
X15400000Y26950000D03*
D21*
X20950000Y18050000D03*
X20950000Y20150000D03*
X20950000Y22250000D03*
X20950000Y24350000D03*
X18900000Y18050000D03*
X18900000Y20150000D03*
X18900000Y22250000D03*
X18900000Y24350000D03*
X16850000Y18050000D03*
X16850000Y20150000D03*
X16850000Y22250000D03*
X16850000Y24350000D03*
X27150000Y18050000D03*
X27150000Y20150000D03*
X27150000Y22250000D03*
X27150000Y24350000D03*
X25100000Y18050000D03*
X25100000Y20150000D03*
X25100000Y22250000D03*
X25100000Y24350000D03*
X23050000Y18050000D03*
X23050000Y20150000D03*
X23050000Y22250000D03*
X23050000Y24350000D03*
X23050000Y15950000D03*
X23050000Y13850000D03*
X23050000Y11750000D03*
X23050000Y9650000D03*
X25100000Y15950000D03*
X25100000Y13850000D03*
X25100000Y11750000D03*
X25100000Y9650000D03*
X27150000Y15950000D03*
X27150000Y13850000D03*
X27150000Y11750000D03*
X27150000Y9650000D03*
X16850000Y15950000D03*
X16850000Y13850000D03*
X16850000Y11750000D03*
X16850000Y9650000D03*
X18900000Y15950000D03*
X18900000Y13850000D03*
X18900000Y11750000D03*
X18900000Y9650000D03*
X20950000Y15950000D03*
X20950000Y13850000D03*
X20950000Y11750000D03*
X20950000Y9650000D03*
%TD*%
D19*
%TO.C,U1*%
X59050000Y24150000D03*
X59050000Y23050000D03*
X59050000Y21950000D03*
X59050000Y20850000D03*
X59050000Y19750000D03*
X59050000Y18650000D03*
X59050000Y17550000D03*
X59050000Y16450000D03*
X59050000Y15350000D03*
X59050000Y14250000D03*
X59050000Y13150000D03*
X59050000Y12050000D03*
X59050000Y10950000D03*
X59050000Y9850000D03*
D20*
X59900000Y7050000D03*
X61000000Y7050000D03*
X62100000Y7050000D03*
X63200000Y7050000D03*
X64300000Y7050000D03*
X65400000Y7050000D03*
X66500000Y7050000D03*
X67600000Y7050000D03*
X68700000Y7050000D03*
X69800000Y7050000D03*
X70900000Y7050000D03*
X72000000Y7050000D03*
X73100000Y7050000D03*
D19*
X73950000Y9850000D03*
X73950000Y10950000D03*
X73950000Y12050000D03*
X73950000Y13150000D03*
X73950000Y14250000D03*
X73950000Y15350000D03*
X73950000Y16450000D03*
X73950000Y17550000D03*
X73950000Y18650000D03*
X73950000Y19750000D03*
X73950000Y20850000D03*
X73950000Y21950000D03*
X73950000Y23050000D03*
X73950000Y24150000D03*
D20*
X73100000Y26950000D03*
X72000000Y26950000D03*
X70900000Y26950000D03*
X69800000Y26950000D03*
X68700000Y26950000D03*
X67600000Y26950000D03*
X66500000Y26950000D03*
X65400000Y26950000D03*
X64300000Y26950000D03*
X63200000Y26950000D03*
X62100000Y26950000D03*
X61000000Y26950000D03*
X59900000Y26950000D03*
D21*
X65450000Y18050000D03*
X65450000Y20150000D03*
X65450000Y22250000D03*
X65450000Y24350000D03*
X63400000Y18050000D03*
X63400000Y20150000D03*
X63400000Y22250000D03*
X63400000Y24350000D03*
X61350000Y18050000D03*
X61350000Y20150000D03*
X61350000Y22250000D03*
X61350000Y24350000D03*
X71650000Y18050000D03*
X71650000Y20150000D03*
X71650000Y22250000D03*
X71650000Y24350000D03*
X69600000Y18050000D03*
X69600000Y20150000D03*
X69600000Y22250000D03*
X69600000Y24350000D03*
X67550000Y18050000D03*
X67550000Y20150000D03*
X67550000Y22250000D03*
X67550000Y24350000D03*
X67550000Y15950000D03*
X67550000Y13850000D03*
X67550000Y11750000D03*
X67550000Y9650000D03*
X69600000Y15950000D03*
X69600000Y13850000D03*
X69600000Y11750000D03*
X69600000Y9650000D03*
X71650000Y15950000D03*
X71650000Y13850000D03*
X71650000Y11750000D03*
X71650000Y9650000D03*
X61350000Y15950000D03*
X61350000Y13850000D03*
X61350000Y11750000D03*
X61350000Y9650000D03*
X63400000Y15950000D03*
X63400000Y13850000D03*
X63400000Y11750000D03*
X63400000Y9650000D03*
X65450000Y15950000D03*
X65450000Y13850000D03*
X65450000Y11750000D03*
X65450000Y9650000D03*
%TD*%
D19*
%TO.C,U1*%
X14550000Y162150000D03*
X14550000Y161050000D03*
X14550000Y159950000D03*
X14550000Y158850000D03*
X14550000Y157750000D03*
X14550000Y156650000D03*
X14550000Y155550000D03*
X14550000Y154450000D03*
X14550000Y153350000D03*
X14550000Y152250000D03*
X14550000Y151150000D03*
X14550000Y150050000D03*
X14550000Y148950000D03*
X14550000Y147850000D03*
D20*
X15400000Y145050000D03*
X16500000Y145050000D03*
X17600000Y145050000D03*
X18700000Y145050000D03*
X19800000Y145050000D03*
X20900000Y145050000D03*
X22000000Y145050000D03*
X23100000Y145050000D03*
X24200000Y145050000D03*
X25300000Y145050000D03*
X26400000Y145050000D03*
X27500000Y145050000D03*
X28600000Y145050000D03*
D19*
X29450000Y147850000D03*
X29450000Y148950000D03*
X29450000Y150050000D03*
X29450000Y151150000D03*
X29450000Y152250000D03*
X29450000Y153350000D03*
X29450000Y154450000D03*
X29450000Y155550000D03*
X29450000Y156650000D03*
X29450000Y157750000D03*
X29450000Y158850000D03*
X29450000Y159950000D03*
X29450000Y161050000D03*
X29450000Y162150000D03*
D20*
X28600000Y164950000D03*
X27500000Y164950000D03*
X26400000Y164950000D03*
X25300000Y164950000D03*
X24200000Y164950000D03*
X23100000Y164950000D03*
X22000000Y164950000D03*
X20900000Y164950000D03*
X19800000Y164950000D03*
X18700000Y164950000D03*
X17600000Y164950000D03*
X16500000Y164950000D03*
X15400000Y164950000D03*
D21*
X20950000Y156050000D03*
X20950000Y158150000D03*
X20950000Y160250000D03*
X20950000Y162350000D03*
X18900000Y156050000D03*
X18900000Y158150000D03*
X18900000Y160250000D03*
X18900000Y162350000D03*
X16850000Y156050000D03*
X16850000Y158150000D03*
X16850000Y160250000D03*
X16850000Y162350000D03*
X27150000Y156050000D03*
X27150000Y158150000D03*
X27150000Y160250000D03*
X27150000Y162350000D03*
X25100000Y156050000D03*
X25100000Y158150000D03*
X25100000Y160250000D03*
X25100000Y162350000D03*
X23050000Y156050000D03*
X23050000Y158150000D03*
X23050000Y160250000D03*
X23050000Y162350000D03*
X23050000Y153950000D03*
X23050000Y151850000D03*
X23050000Y149750000D03*
X23050000Y147650000D03*
X25100000Y153950000D03*
X25100000Y151850000D03*
X25100000Y149750000D03*
X25100000Y147650000D03*
X27150000Y153950000D03*
X27150000Y151850000D03*
X27150000Y149750000D03*
X27150000Y147650000D03*
X16850000Y153950000D03*
X16850000Y151850000D03*
X16850000Y149750000D03*
X16850000Y147650000D03*
X18900000Y153950000D03*
X18900000Y151850000D03*
X18900000Y149750000D03*
X18900000Y147650000D03*
X20950000Y153950000D03*
X20950000Y151850000D03*
X20950000Y149750000D03*
X20950000Y147650000D03*
%TD*%
D19*
%TO.C,U1*%
X14550000Y58650000D03*
X14550000Y57550000D03*
X14550000Y56450000D03*
X14550000Y55350000D03*
X14550000Y54250000D03*
X14550000Y53150000D03*
X14550000Y52050000D03*
X14550000Y50950000D03*
X14550000Y49850000D03*
X14550000Y48750000D03*
X14550000Y47650000D03*
X14550000Y46550000D03*
X14550000Y45450000D03*
X14550000Y44350000D03*
D20*
X15400000Y41550000D03*
X16500000Y41550000D03*
X17600000Y41550000D03*
X18700000Y41550000D03*
X19800000Y41550000D03*
X20900000Y41550000D03*
X22000000Y41550000D03*
X23100000Y41550000D03*
X24200000Y41550000D03*
X25300000Y41550000D03*
X26400000Y41550000D03*
X27500000Y41550000D03*
X28600000Y41550000D03*
D19*
X29450000Y44350000D03*
X29450000Y45450000D03*
X29450000Y46550000D03*
X29450000Y47650000D03*
X29450000Y48750000D03*
X29450000Y49850000D03*
X29450000Y50950000D03*
X29450000Y52050000D03*
X29450000Y53150000D03*
X29450000Y54250000D03*
X29450000Y55350000D03*
X29450000Y56450000D03*
X29450000Y57550000D03*
X29450000Y58650000D03*
D20*
X28600000Y61450000D03*
X27500000Y61450000D03*
X26400000Y61450000D03*
X25300000Y61450000D03*
X24200000Y61450000D03*
X23100000Y61450000D03*
X22000000Y61450000D03*
X20900000Y61450000D03*
X19800000Y61450000D03*
X18700000Y61450000D03*
X17600000Y61450000D03*
X16500000Y61450000D03*
X15400000Y61450000D03*
D21*
X20950000Y52550000D03*
X20950000Y54650000D03*
X20950000Y56750000D03*
X20950000Y58850000D03*
X18900000Y52550000D03*
X18900000Y54650000D03*
X18900000Y56750000D03*
X18900000Y58850000D03*
X16850000Y52550000D03*
X16850000Y54650000D03*
X16850000Y56750000D03*
X16850000Y58850000D03*
X27150000Y52550000D03*
X27150000Y54650000D03*
X27150000Y56750000D03*
X27150000Y58850000D03*
X25100000Y52550000D03*
X25100000Y54650000D03*
X25100000Y56750000D03*
X25100000Y58850000D03*
X23050000Y52550000D03*
X23050000Y54650000D03*
X23050000Y56750000D03*
X23050000Y58850000D03*
X23050000Y50450000D03*
X23050000Y48350000D03*
X23050000Y46250000D03*
X23050000Y44150000D03*
X25100000Y50450000D03*
X25100000Y48350000D03*
X25100000Y46250000D03*
X25100000Y44150000D03*
X27150000Y50450000D03*
X27150000Y48350000D03*
X27150000Y46250000D03*
X27150000Y44150000D03*
X16850000Y50450000D03*
X16850000Y48350000D03*
X16850000Y46250000D03*
X16850000Y44150000D03*
X18900000Y50450000D03*
X18900000Y48350000D03*
X18900000Y46250000D03*
X18900000Y44150000D03*
X20950000Y50450000D03*
X20950000Y48350000D03*
X20950000Y46250000D03*
X20950000Y44150000D03*
%TD*%
D19*
%TO.C,U1*%
X14550000Y93150000D03*
X14550000Y92050000D03*
X14550000Y90950000D03*
X14550000Y89850000D03*
X14550000Y88750000D03*
X14550000Y87650000D03*
X14550000Y86550000D03*
X14550000Y85450000D03*
X14550000Y84350000D03*
X14550000Y83250000D03*
X14550000Y82150000D03*
X14550000Y81050000D03*
X14550000Y79950000D03*
X14550000Y78850000D03*
D20*
X15400000Y76050000D03*
X16500000Y76050000D03*
X17600000Y76050000D03*
X18700000Y76050000D03*
X19800000Y76050000D03*
X20900000Y76050000D03*
X22000000Y76050000D03*
X23100000Y76050000D03*
X24200000Y76050000D03*
X25300000Y76050000D03*
X26400000Y76050000D03*
X27500000Y76050000D03*
X28600000Y76050000D03*
D19*
X29450000Y78850000D03*
X29450000Y79950000D03*
X29450000Y81050000D03*
X29450000Y82150000D03*
X29450000Y83250000D03*
X29450000Y84350000D03*
X29450000Y85450000D03*
X29450000Y86550000D03*
X29450000Y87650000D03*
X29450000Y88750000D03*
X29450000Y89850000D03*
X29450000Y90950000D03*
X29450000Y92050000D03*
X29450000Y93150000D03*
D20*
X28600000Y95950000D03*
X27500000Y95950000D03*
X26400000Y95950000D03*
X25300000Y95950000D03*
X24200000Y95950000D03*
X23100000Y95950000D03*
X22000000Y95950000D03*
X20900000Y95950000D03*
X19800000Y95950000D03*
X18700000Y95950000D03*
X17600000Y95950000D03*
X16500000Y95950000D03*
X15400000Y95950000D03*
D21*
X20950000Y87050000D03*
X20950000Y89150000D03*
X20950000Y91250000D03*
X20950000Y93350000D03*
X18900000Y87050000D03*
X18900000Y89150000D03*
X18900000Y91250000D03*
X18900000Y93350000D03*
X16850000Y87050000D03*
X16850000Y89150000D03*
X16850000Y91250000D03*
X16850000Y93350000D03*
X27150000Y87050000D03*
X27150000Y89150000D03*
X27150000Y91250000D03*
X27150000Y93350000D03*
X25100000Y87050000D03*
X25100000Y89150000D03*
X25100000Y91250000D03*
X25100000Y93350000D03*
X23050000Y87050000D03*
X23050000Y89150000D03*
X23050000Y91250000D03*
X23050000Y93350000D03*
X23050000Y84950000D03*
X23050000Y82850000D03*
X23050000Y80750000D03*
X23050000Y78650000D03*
X25100000Y84950000D03*
X25100000Y82850000D03*
X25100000Y80750000D03*
X25100000Y78650000D03*
X27150000Y84950000D03*
X27150000Y82850000D03*
X27150000Y80750000D03*
X27150000Y78650000D03*
X16850000Y84950000D03*
X16850000Y82850000D03*
X16850000Y80750000D03*
X16850000Y78650000D03*
X18900000Y84950000D03*
X18900000Y82850000D03*
X18900000Y80750000D03*
X18900000Y78650000D03*
X20950000Y84950000D03*
X20950000Y82850000D03*
X20950000Y80750000D03*
X20950000Y78650000D03*
%TD*%
D19*
%TO.C,U1*%
X14550000Y127650000D03*
X14550000Y126550000D03*
X14550000Y125450000D03*
X14550000Y124350000D03*
X14550000Y123250000D03*
X14550000Y122150000D03*
X14550000Y121050000D03*
X14550000Y119950000D03*
X14550000Y118850000D03*
X14550000Y117750000D03*
X14550000Y116650000D03*
X14550000Y115550000D03*
X14550000Y114450000D03*
X14550000Y113350000D03*
D20*
X15400000Y110550000D03*
X16500000Y110550000D03*
X17600000Y110550000D03*
X18700000Y110550000D03*
X19800000Y110550000D03*
X20900000Y110550000D03*
X22000000Y110550000D03*
X23100000Y110550000D03*
X24200000Y110550000D03*
X25300000Y110550000D03*
X26400000Y110550000D03*
X27500000Y110550000D03*
X28600000Y110550000D03*
D19*
X29450000Y113350000D03*
X29450000Y114450000D03*
X29450000Y115550000D03*
X29450000Y116650000D03*
X29450000Y117750000D03*
X29450000Y118850000D03*
X29450000Y119950000D03*
X29450000Y121050000D03*
X29450000Y122150000D03*
X29450000Y123250000D03*
X29450000Y124350000D03*
X29450000Y125450000D03*
X29450000Y126550000D03*
X29450000Y127650000D03*
D20*
X28600000Y130450000D03*
X27500000Y130450000D03*
X26400000Y130450000D03*
X25300000Y130450000D03*
X24200000Y130450000D03*
X23100000Y130450000D03*
X22000000Y130450000D03*
X20900000Y130450000D03*
X19800000Y130450000D03*
X18700000Y130450000D03*
X17600000Y130450000D03*
X16500000Y130450000D03*
X15400000Y130450000D03*
D21*
X20950000Y121550000D03*
X20950000Y123650000D03*
X20950000Y125750000D03*
X20950000Y127850000D03*
X18900000Y121550000D03*
X18900000Y123650000D03*
X18900000Y125750000D03*
X18900000Y127850000D03*
X16850000Y121550000D03*
X16850000Y123650000D03*
X16850000Y125750000D03*
X16850000Y127850000D03*
X27150000Y121550000D03*
X27150000Y123650000D03*
X27150000Y125750000D03*
X27150000Y127850000D03*
X25100000Y121550000D03*
X25100000Y123650000D03*
X25100000Y125750000D03*
X25100000Y127850000D03*
X23050000Y121550000D03*
X23050000Y123650000D03*
X23050000Y125750000D03*
X23050000Y127850000D03*
X23050000Y119450000D03*
X23050000Y117350000D03*
X23050000Y115250000D03*
X23050000Y113150000D03*
X25100000Y119450000D03*
X25100000Y117350000D03*
X25100000Y115250000D03*
X25100000Y113150000D03*
X27150000Y119450000D03*
X27150000Y117350000D03*
X27150000Y115250000D03*
X27150000Y113150000D03*
X16850000Y119450000D03*
X16850000Y117350000D03*
X16850000Y115250000D03*
X16850000Y113150000D03*
X18900000Y119450000D03*
X18900000Y117350000D03*
X18900000Y115250000D03*
X18900000Y113150000D03*
X20950000Y119450000D03*
X20950000Y117350000D03*
X20950000Y115250000D03*
X20950000Y113150000D03*
%TD*%
D19*
%TO.C,U1*%
X103550000Y24150000D03*
X103550000Y23050000D03*
X103550000Y21950000D03*
X103550000Y20850000D03*
X103550000Y19750000D03*
X103550000Y18650000D03*
X103550000Y17550000D03*
X103550000Y16450000D03*
X103550000Y15350000D03*
X103550000Y14250000D03*
X103550000Y13150000D03*
X103550000Y12050000D03*
X103550000Y10950000D03*
X103550000Y9850000D03*
D20*
X104400000Y7050000D03*
X105500000Y7050000D03*
X106600000Y7050000D03*
X107700000Y7050000D03*
X108800000Y7050000D03*
X109900000Y7050000D03*
X111000000Y7050000D03*
X112100000Y7050000D03*
X113200000Y7050000D03*
X114300000Y7050000D03*
X115400000Y7050000D03*
X116500000Y7050000D03*
X117600000Y7050000D03*
D19*
X118450000Y9850000D03*
X118450000Y10950000D03*
X118450000Y12050000D03*
X118450000Y13150000D03*
X118450000Y14250000D03*
X118450000Y15350000D03*
X118450000Y16450000D03*
X118450000Y17550000D03*
X118450000Y18650000D03*
X118450000Y19750000D03*
X118450000Y20850000D03*
X118450000Y21950000D03*
X118450000Y23050000D03*
X118450000Y24150000D03*
D20*
X117600000Y26950000D03*
X116500000Y26950000D03*
X115400000Y26950000D03*
X114300000Y26950000D03*
X113200000Y26950000D03*
X112100000Y26950000D03*
X111000000Y26950000D03*
X109900000Y26950000D03*
X108800000Y26950000D03*
X107700000Y26950000D03*
X106600000Y26950000D03*
X105500000Y26950000D03*
X104400000Y26950000D03*
D21*
X109950000Y18050000D03*
X109950000Y20150000D03*
X109950000Y22250000D03*
X109950000Y24350000D03*
X107900000Y18050000D03*
X107900000Y20150000D03*
X107900000Y22250000D03*
X107900000Y24350000D03*
X105850000Y18050000D03*
X105850000Y20150000D03*
X105850000Y22250000D03*
X105850000Y24350000D03*
X116150000Y18050000D03*
X116150000Y20150000D03*
X116150000Y22250000D03*
X116150000Y24350000D03*
X114100000Y18050000D03*
X114100000Y20150000D03*
X114100000Y22250000D03*
X114100000Y24350000D03*
X112050000Y18050000D03*
X112050000Y20150000D03*
X112050000Y22250000D03*
X112050000Y24350000D03*
X112050000Y15950000D03*
X112050000Y13850000D03*
X112050000Y11750000D03*
X112050000Y9650000D03*
X114100000Y15950000D03*
X114100000Y13850000D03*
X114100000Y11750000D03*
X114100000Y9650000D03*
X116150000Y15950000D03*
X116150000Y13850000D03*
X116150000Y11750000D03*
X116150000Y9650000D03*
X105850000Y15950000D03*
X105850000Y13850000D03*
X105850000Y11750000D03*
X105850000Y9650000D03*
X107900000Y15950000D03*
X107900000Y13850000D03*
X107900000Y11750000D03*
X107900000Y9650000D03*
X109950000Y15950000D03*
X109950000Y13850000D03*
X109950000Y11750000D03*
X109950000Y9650000D03*
%TD*%
D19*
%TO.C,U1*%
X103550000Y127650000D03*
X103550000Y126550000D03*
X103550000Y125450000D03*
X103550000Y124350000D03*
X103550000Y123250000D03*
X103550000Y122150000D03*
X103550000Y121050000D03*
X103550000Y119950000D03*
X103550000Y118850000D03*
X103550000Y117750000D03*
X103550000Y116650000D03*
X103550000Y115550000D03*
X103550000Y114450000D03*
X103550000Y113350000D03*
D20*
X104400000Y110550000D03*
X105500000Y110550000D03*
X106600000Y110550000D03*
X107700000Y110550000D03*
X108800000Y110550000D03*
X109900000Y110550000D03*
X111000000Y110550000D03*
X112100000Y110550000D03*
X113200000Y110550000D03*
X114300000Y110550000D03*
X115400000Y110550000D03*
X116500000Y110550000D03*
X117600000Y110550000D03*
D19*
X118450000Y113350000D03*
X118450000Y114450000D03*
X118450000Y115550000D03*
X118450000Y116650000D03*
X118450000Y117750000D03*
X118450000Y118850000D03*
X118450000Y119950000D03*
X118450000Y121050000D03*
X118450000Y122150000D03*
X118450000Y123250000D03*
X118450000Y124350000D03*
X118450000Y125450000D03*
X118450000Y126550000D03*
X118450000Y127650000D03*
D20*
X117600000Y130450000D03*
X116500000Y130450000D03*
X115400000Y130450000D03*
X114300000Y130450000D03*
X113200000Y130450000D03*
X112100000Y130450000D03*
X111000000Y130450000D03*
X109900000Y130450000D03*
X108800000Y130450000D03*
X107700000Y130450000D03*
X106600000Y130450000D03*
X105500000Y130450000D03*
X104400000Y130450000D03*
D21*
X109950000Y121550000D03*
X109950000Y123650000D03*
X109950000Y125750000D03*
X109950000Y127850000D03*
X107900000Y121550000D03*
X107900000Y123650000D03*
X107900000Y125750000D03*
X107900000Y127850000D03*
X105850000Y121550000D03*
X105850000Y123650000D03*
X105850000Y125750000D03*
X105850000Y127850000D03*
X116150000Y121550000D03*
X116150000Y123650000D03*
X116150000Y125750000D03*
X116150000Y127850000D03*
X114100000Y121550000D03*
X114100000Y123650000D03*
X114100000Y125750000D03*
X114100000Y127850000D03*
X112050000Y121550000D03*
X112050000Y123650000D03*
X112050000Y125750000D03*
X112050000Y127850000D03*
X112050000Y119450000D03*
X112050000Y117350000D03*
X112050000Y115250000D03*
X112050000Y113150000D03*
X114100000Y119450000D03*
X114100000Y117350000D03*
X114100000Y115250000D03*
X114100000Y113150000D03*
X116150000Y119450000D03*
X116150000Y117350000D03*
X116150000Y115250000D03*
X116150000Y113150000D03*
X105850000Y119450000D03*
X105850000Y117350000D03*
X105850000Y115250000D03*
X105850000Y113150000D03*
X107900000Y119450000D03*
X107900000Y117350000D03*
X107900000Y115250000D03*
X107900000Y113150000D03*
X109950000Y119450000D03*
X109950000Y117350000D03*
X109950000Y115250000D03*
X109950000Y113150000D03*
%TD*%
D19*
%TO.C,U1*%
X103550000Y58650000D03*
X103550000Y57550000D03*
X103550000Y56450000D03*
X103550000Y55350000D03*
X103550000Y54250000D03*
X103550000Y53150000D03*
X103550000Y52050000D03*
X103550000Y50950000D03*
X103550000Y49850000D03*
X103550000Y48750000D03*
X103550000Y47650000D03*
X103550000Y46550000D03*
X103550000Y45450000D03*
X103550000Y44350000D03*
D20*
X104400000Y41550000D03*
X105500000Y41550000D03*
X106600000Y41550000D03*
X107700000Y41550000D03*
X108800000Y41550000D03*
X109900000Y41550000D03*
X111000000Y41550000D03*
X112100000Y41550000D03*
X113200000Y41550000D03*
X114300000Y41550000D03*
X115400000Y41550000D03*
X116500000Y41550000D03*
X117600000Y41550000D03*
D19*
X118450000Y44350000D03*
X118450000Y45450000D03*
X118450000Y46550000D03*
X118450000Y47650000D03*
X118450000Y48750000D03*
X118450000Y49850000D03*
X118450000Y50950000D03*
X118450000Y52050000D03*
X118450000Y53150000D03*
X118450000Y54250000D03*
X118450000Y55350000D03*
X118450000Y56450000D03*
X118450000Y57550000D03*
X118450000Y58650000D03*
D20*
X117600000Y61450000D03*
X116500000Y61450000D03*
X115400000Y61450000D03*
X114300000Y61450000D03*
X113200000Y61450000D03*
X112100000Y61450000D03*
X111000000Y61450000D03*
X109900000Y61450000D03*
X108800000Y61450000D03*
X107700000Y61450000D03*
X106600000Y61450000D03*
X105500000Y61450000D03*
X104400000Y61450000D03*
D21*
X109950000Y52550000D03*
X109950000Y54650000D03*
X109950000Y56750000D03*
X109950000Y58850000D03*
X107900000Y52550000D03*
X107900000Y54650000D03*
X107900000Y56750000D03*
X107900000Y58850000D03*
X105850000Y52550000D03*
X105850000Y54650000D03*
X105850000Y56750000D03*
X105850000Y58850000D03*
X116150000Y52550000D03*
X116150000Y54650000D03*
X116150000Y56750000D03*
X116150000Y58850000D03*
X114100000Y52550000D03*
X114100000Y54650000D03*
X114100000Y56750000D03*
X114100000Y58850000D03*
X112050000Y52550000D03*
X112050000Y54650000D03*
X112050000Y56750000D03*
X112050000Y58850000D03*
X112050000Y50450000D03*
X112050000Y48350000D03*
X112050000Y46250000D03*
X112050000Y44150000D03*
X114100000Y50450000D03*
X114100000Y48350000D03*
X114100000Y46250000D03*
X114100000Y44150000D03*
X116150000Y50450000D03*
X116150000Y48350000D03*
X116150000Y46250000D03*
X116150000Y44150000D03*
X105850000Y50450000D03*
X105850000Y48350000D03*
X105850000Y46250000D03*
X105850000Y44150000D03*
X107900000Y50450000D03*
X107900000Y48350000D03*
X107900000Y46250000D03*
X107900000Y44150000D03*
X109950000Y50450000D03*
X109950000Y48350000D03*
X109950000Y46250000D03*
X109950000Y44150000D03*
%TD*%
D19*
%TO.C,U1*%
X59050000Y58650000D03*
X59050000Y57550000D03*
X59050000Y56450000D03*
X59050000Y55350000D03*
X59050000Y54250000D03*
X59050000Y53150000D03*
X59050000Y52050000D03*
X59050000Y50950000D03*
X59050000Y49850000D03*
X59050000Y48750000D03*
X59050000Y47650000D03*
X59050000Y46550000D03*
X59050000Y45450000D03*
X59050000Y44350000D03*
D20*
X59900000Y41550000D03*
X61000000Y41550000D03*
X62100000Y41550000D03*
X63200000Y41550000D03*
X64300000Y41550000D03*
X65400000Y41550000D03*
X66500000Y41550000D03*
X67600000Y41550000D03*
X68700000Y41550000D03*
X69800000Y41550000D03*
X70900000Y41550000D03*
X72000000Y41550000D03*
X73100000Y41550000D03*
D19*
X73950000Y44350000D03*
X73950000Y45450000D03*
X73950000Y46550000D03*
X73950000Y47650000D03*
X73950000Y48750000D03*
X73950000Y49850000D03*
X73950000Y50950000D03*
X73950000Y52050000D03*
X73950000Y53150000D03*
X73950000Y54250000D03*
X73950000Y55350000D03*
X73950000Y56450000D03*
X73950000Y57550000D03*
X73950000Y58650000D03*
D20*
X73100000Y61450000D03*
X72000000Y61450000D03*
X70900000Y61450000D03*
X69800000Y61450000D03*
X68700000Y61450000D03*
X67600000Y61450000D03*
X66500000Y61450000D03*
X65400000Y61450000D03*
X64300000Y61450000D03*
X63200000Y61450000D03*
X62100000Y61450000D03*
X61000000Y61450000D03*
X59900000Y61450000D03*
D21*
X65450000Y52550000D03*
X65450000Y54650000D03*
X65450000Y56750000D03*
X65450000Y58850000D03*
X63400000Y52550000D03*
X63400000Y54650000D03*
X63400000Y56750000D03*
X63400000Y58850000D03*
X61350000Y52550000D03*
X61350000Y54650000D03*
X61350000Y56750000D03*
X61350000Y58850000D03*
X71650000Y52550000D03*
X71650000Y54650000D03*
X71650000Y56750000D03*
X71650000Y58850000D03*
X69600000Y52550000D03*
X69600000Y54650000D03*
X69600000Y56750000D03*
X69600000Y58850000D03*
X67550000Y52550000D03*
X67550000Y54650000D03*
X67550000Y56750000D03*
X67550000Y58850000D03*
X67550000Y50450000D03*
X67550000Y48350000D03*
X67550000Y46250000D03*
X67550000Y44150000D03*
X69600000Y50450000D03*
X69600000Y48350000D03*
X69600000Y46250000D03*
X69600000Y44150000D03*
X71650000Y50450000D03*
X71650000Y48350000D03*
X71650000Y46250000D03*
X71650000Y44150000D03*
X61350000Y50450000D03*
X61350000Y48350000D03*
X61350000Y46250000D03*
X61350000Y44150000D03*
X63400000Y50450000D03*
X63400000Y48350000D03*
X63400000Y46250000D03*
X63400000Y44150000D03*
X65450000Y50450000D03*
X65450000Y48350000D03*
X65450000Y46250000D03*
X65450000Y44150000D03*
%TD*%
D19*
%TO.C,U1*%
X103550000Y162150000D03*
X103550000Y161050000D03*
X103550000Y159950000D03*
X103550000Y158850000D03*
X103550000Y157750000D03*
X103550000Y156650000D03*
X103550000Y155550000D03*
X103550000Y154450000D03*
X103550000Y153350000D03*
X103550000Y152250000D03*
X103550000Y151150000D03*
X103550000Y150050000D03*
X103550000Y148950000D03*
X103550000Y147850000D03*
D20*
X104400000Y145050000D03*
X105500000Y145050000D03*
X106600000Y145050000D03*
X107700000Y145050000D03*
X108800000Y145050000D03*
X109900000Y145050000D03*
X111000000Y145050000D03*
X112100000Y145050000D03*
X113200000Y145050000D03*
X114300000Y145050000D03*
X115400000Y145050000D03*
X116500000Y145050000D03*
X117600000Y145050000D03*
D19*
X118450000Y147850000D03*
X118450000Y148950000D03*
X118450000Y150050000D03*
X118450000Y151150000D03*
X118450000Y152250000D03*
X118450000Y153350000D03*
X118450000Y154450000D03*
X118450000Y155550000D03*
X118450000Y156650000D03*
X118450000Y157750000D03*
X118450000Y158850000D03*
X118450000Y159950000D03*
X118450000Y161050000D03*
X118450000Y162150000D03*
D20*
X117600000Y164950000D03*
X116500000Y164950000D03*
X115400000Y164950000D03*
X114300000Y164950000D03*
X113200000Y164950000D03*
X112100000Y164950000D03*
X111000000Y164950000D03*
X109900000Y164950000D03*
X108800000Y164950000D03*
X107700000Y164950000D03*
X106600000Y164950000D03*
X105500000Y164950000D03*
X104400000Y164950000D03*
D21*
X109950000Y156050000D03*
X109950000Y158150000D03*
X109950000Y160250000D03*
X109950000Y162350000D03*
X107900000Y156050000D03*
X107900000Y158150000D03*
X107900000Y160250000D03*
X107900000Y162350000D03*
X105850000Y156050000D03*
X105850000Y158150000D03*
X105850000Y160250000D03*
X105850000Y162350000D03*
X116150000Y156050000D03*
X116150000Y158150000D03*
X116150000Y160250000D03*
X116150000Y162350000D03*
X114100000Y156050000D03*
X114100000Y158150000D03*
X114100000Y160250000D03*
X114100000Y162350000D03*
X112050000Y156050000D03*
X112050000Y158150000D03*
X112050000Y160250000D03*
X112050000Y162350000D03*
X112050000Y153950000D03*
X112050000Y151850000D03*
X112050000Y149750000D03*
X112050000Y147650000D03*
X114100000Y153950000D03*
X114100000Y151850000D03*
X114100000Y149750000D03*
X114100000Y147650000D03*
X116150000Y153950000D03*
X116150000Y151850000D03*
X116150000Y149750000D03*
X116150000Y147650000D03*
X105850000Y153950000D03*
X105850000Y151850000D03*
X105850000Y149750000D03*
X105850000Y147650000D03*
X107900000Y153950000D03*
X107900000Y151850000D03*
X107900000Y149750000D03*
X107900000Y147650000D03*
X109950000Y153950000D03*
X109950000Y151850000D03*
X109950000Y149750000D03*
X109950000Y147650000D03*
%TD*%
D19*
%TO.C,U1*%
X59050000Y93150000D03*
X59050000Y92050000D03*
X59050000Y90950000D03*
X59050000Y89850000D03*
X59050000Y88750000D03*
X59050000Y87650000D03*
X59050000Y86550000D03*
X59050000Y85450000D03*
X59050000Y84350000D03*
X59050000Y83250000D03*
X59050000Y82150000D03*
X59050000Y81050000D03*
X59050000Y79950000D03*
X59050000Y78850000D03*
D20*
X59900000Y76050000D03*
X61000000Y76050000D03*
X62100000Y76050000D03*
X63200000Y76050000D03*
X64300000Y76050000D03*
X65400000Y76050000D03*
X66500000Y76050000D03*
X67600000Y76050000D03*
X68700000Y76050000D03*
X69800000Y76050000D03*
X70900000Y76050000D03*
X72000000Y76050000D03*
X73100000Y76050000D03*
D19*
X73950000Y78850000D03*
X73950000Y79950000D03*
X73950000Y81050000D03*
X73950000Y82150000D03*
X73950000Y83250000D03*
X73950000Y84350000D03*
X73950000Y85450000D03*
X73950000Y86550000D03*
X73950000Y87650000D03*
X73950000Y88750000D03*
X73950000Y89850000D03*
X73950000Y90950000D03*
X73950000Y92050000D03*
X73950000Y93150000D03*
D20*
X73100000Y95950000D03*
X72000000Y95950000D03*
X70900000Y95950000D03*
X69800000Y95950000D03*
X68700000Y95950000D03*
X67600000Y95950000D03*
X66500000Y95950000D03*
X65400000Y95950000D03*
X64300000Y95950000D03*
X63200000Y95950000D03*
X62100000Y95950000D03*
X61000000Y95950000D03*
X59900000Y95950000D03*
D21*
X65450000Y87050000D03*
X65450000Y89150000D03*
X65450000Y91250000D03*
X65450000Y93350000D03*
X63400000Y87050000D03*
X63400000Y89150000D03*
X63400000Y91250000D03*
X63400000Y93350000D03*
X61350000Y87050000D03*
X61350000Y89150000D03*
X61350000Y91250000D03*
X61350000Y93350000D03*
X71650000Y87050000D03*
X71650000Y89150000D03*
X71650000Y91250000D03*
X71650000Y93350000D03*
X69600000Y87050000D03*
X69600000Y89150000D03*
X69600000Y91250000D03*
X69600000Y93350000D03*
X67550000Y87050000D03*
X67550000Y89150000D03*
X67550000Y91250000D03*
X67550000Y93350000D03*
X67550000Y84950000D03*
X67550000Y82850000D03*
X67550000Y80750000D03*
X67550000Y78650000D03*
X69600000Y84950000D03*
X69600000Y82850000D03*
X69600000Y80750000D03*
X69600000Y78650000D03*
X71650000Y84950000D03*
X71650000Y82850000D03*
X71650000Y80750000D03*
X71650000Y78650000D03*
X61350000Y84950000D03*
X61350000Y82850000D03*
X61350000Y80750000D03*
X61350000Y78650000D03*
X63400000Y84950000D03*
X63400000Y82850000D03*
X63400000Y80750000D03*
X63400000Y78650000D03*
X65450000Y84950000D03*
X65450000Y82850000D03*
X65450000Y80750000D03*
X65450000Y78650000D03*
%TD*%
D19*
%TO.C,U1*%
X59050000Y127650000D03*
X59050000Y126550000D03*
X59050000Y125450000D03*
X59050000Y124350000D03*
X59050000Y123250000D03*
X59050000Y122150000D03*
X59050000Y121050000D03*
X59050000Y119950000D03*
X59050000Y118850000D03*
X59050000Y117750000D03*
X59050000Y116650000D03*
X59050000Y115550000D03*
X59050000Y114450000D03*
X59050000Y113350000D03*
D20*
X59900000Y110550000D03*
X61000000Y110550000D03*
X62100000Y110550000D03*
X63200000Y110550000D03*
X64300000Y110550000D03*
X65400000Y110550000D03*
X66500000Y110550000D03*
X67600000Y110550000D03*
X68700000Y110550000D03*
X69800000Y110550000D03*
X70900000Y110550000D03*
X72000000Y110550000D03*
X73100000Y110550000D03*
D19*
X73950000Y113350000D03*
X73950000Y114450000D03*
X73950000Y115550000D03*
X73950000Y116650000D03*
X73950000Y117750000D03*
X73950000Y118850000D03*
X73950000Y119950000D03*
X73950000Y121050000D03*
X73950000Y122150000D03*
X73950000Y123250000D03*
X73950000Y124350000D03*
X73950000Y125450000D03*
X73950000Y126550000D03*
X73950000Y127650000D03*
D20*
X73100000Y130450000D03*
X72000000Y130450000D03*
X70900000Y130450000D03*
X69800000Y130450000D03*
X68700000Y130450000D03*
X67600000Y130450000D03*
X66500000Y130450000D03*
X65400000Y130450000D03*
X64300000Y130450000D03*
X63200000Y130450000D03*
X62100000Y130450000D03*
X61000000Y130450000D03*
X59900000Y130450000D03*
D21*
X65450000Y121550000D03*
X65450000Y123650000D03*
X65450000Y125750000D03*
X65450000Y127850000D03*
X63400000Y121550000D03*
X63400000Y123650000D03*
X63400000Y125750000D03*
X63400000Y127850000D03*
X61350000Y121550000D03*
X61350000Y123650000D03*
X61350000Y125750000D03*
X61350000Y127850000D03*
X71650000Y121550000D03*
X71650000Y123650000D03*
X71650000Y125750000D03*
X71650000Y127850000D03*
X69600000Y121550000D03*
X69600000Y123650000D03*
X69600000Y125750000D03*
X69600000Y127850000D03*
X67550000Y121550000D03*
X67550000Y123650000D03*
X67550000Y125750000D03*
X67550000Y127850000D03*
X67550000Y119450000D03*
X67550000Y117350000D03*
X67550000Y115250000D03*
X67550000Y113150000D03*
X69600000Y119450000D03*
X69600000Y117350000D03*
X69600000Y115250000D03*
X69600000Y113150000D03*
X71650000Y119450000D03*
X71650000Y117350000D03*
X71650000Y115250000D03*
X71650000Y113150000D03*
X61350000Y119450000D03*
X61350000Y117350000D03*
X61350000Y115250000D03*
X61350000Y113150000D03*
X63400000Y119450000D03*
X63400000Y117350000D03*
X63400000Y115250000D03*
X63400000Y113150000D03*
X65450000Y119450000D03*
X65450000Y117350000D03*
X65450000Y115250000D03*
X65450000Y113150000D03*
%TD*%
D19*
%TO.C,U1*%
X59050000Y162150000D03*
X59050000Y161050000D03*
X59050000Y159950000D03*
X59050000Y158850000D03*
X59050000Y157750000D03*
X59050000Y156650000D03*
X59050000Y155550000D03*
X59050000Y154450000D03*
X59050000Y153350000D03*
X59050000Y152250000D03*
X59050000Y151150000D03*
X59050000Y150050000D03*
X59050000Y148950000D03*
X59050000Y147850000D03*
D20*
X59900000Y145050000D03*
X61000000Y145050000D03*
X62100000Y145050000D03*
X63200000Y145050000D03*
X64300000Y145050000D03*
X65400000Y145050000D03*
X66500000Y145050000D03*
X67600000Y145050000D03*
X68700000Y145050000D03*
X69800000Y145050000D03*
X70900000Y145050000D03*
X72000000Y145050000D03*
X73100000Y145050000D03*
D19*
X73950000Y147850000D03*
X73950000Y148950000D03*
X73950000Y150050000D03*
X73950000Y151150000D03*
X73950000Y152250000D03*
X73950000Y153350000D03*
X73950000Y154450000D03*
X73950000Y155550000D03*
X73950000Y156650000D03*
X73950000Y157750000D03*
X73950000Y158850000D03*
X73950000Y159950000D03*
X73950000Y161050000D03*
X73950000Y162150000D03*
D20*
X73100000Y164950000D03*
X72000000Y164950000D03*
X70900000Y164950000D03*
X69800000Y164950000D03*
X68700000Y164950000D03*
X67600000Y164950000D03*
X66500000Y164950000D03*
X65400000Y164950000D03*
X64300000Y164950000D03*
X63200000Y164950000D03*
X62100000Y164950000D03*
X61000000Y164950000D03*
X59900000Y164950000D03*
D21*
X65450000Y156050000D03*
X65450000Y158150000D03*
X65450000Y160250000D03*
X65450000Y162350000D03*
X63400000Y156050000D03*
X63400000Y158150000D03*
X63400000Y160250000D03*
X63400000Y162350000D03*
X61350000Y156050000D03*
X61350000Y158150000D03*
X61350000Y160250000D03*
X61350000Y162350000D03*
X71650000Y156050000D03*
X71650000Y158150000D03*
X71650000Y160250000D03*
X71650000Y162350000D03*
X69600000Y156050000D03*
X69600000Y158150000D03*
X69600000Y160250000D03*
X69600000Y162350000D03*
X67550000Y156050000D03*
X67550000Y158150000D03*
X67550000Y160250000D03*
X67550000Y162350000D03*
X67550000Y153950000D03*
X67550000Y151850000D03*
X67550000Y149750000D03*
X67550000Y147650000D03*
X69600000Y153950000D03*
X69600000Y151850000D03*
X69600000Y149750000D03*
X69600000Y147650000D03*
X71650000Y153950000D03*
X71650000Y151850000D03*
X71650000Y149750000D03*
X71650000Y147650000D03*
X61350000Y153950000D03*
X61350000Y151850000D03*
X61350000Y149750000D03*
X61350000Y147650000D03*
X63400000Y153950000D03*
X63400000Y151850000D03*
X63400000Y149750000D03*
X63400000Y147650000D03*
X65450000Y153950000D03*
X65450000Y151850000D03*
X65450000Y149750000D03*
X65450000Y147650000D03*
%TD*%
D19*
%TO.C,U1*%
X103550000Y93150000D03*
X103550000Y92050000D03*
X103550000Y90950000D03*
X103550000Y89850000D03*
X103550000Y88750000D03*
X103550000Y87650000D03*
X103550000Y86550000D03*
X103550000Y85450000D03*
X103550000Y84350000D03*
X103550000Y83250000D03*
X103550000Y82150000D03*
X103550000Y81050000D03*
X103550000Y79950000D03*
X103550000Y78850000D03*
D20*
X104400000Y76050000D03*
X105500000Y76050000D03*
X106600000Y76050000D03*
X107700000Y76050000D03*
X108800000Y76050000D03*
X109900000Y76050000D03*
X111000000Y76050000D03*
X112100000Y76050000D03*
X113200000Y76050000D03*
X114300000Y76050000D03*
X115400000Y76050000D03*
X116500000Y76050000D03*
X117600000Y76050000D03*
D19*
X118450000Y78850000D03*
X118450000Y79950000D03*
X118450000Y81050000D03*
X118450000Y82150000D03*
X118450000Y83250000D03*
X118450000Y84350000D03*
X118450000Y85450000D03*
X118450000Y86550000D03*
X118450000Y87650000D03*
X118450000Y88750000D03*
X118450000Y89850000D03*
X118450000Y90950000D03*
X118450000Y92050000D03*
X118450000Y93150000D03*
D20*
X117600000Y95950000D03*
X116500000Y95950000D03*
X115400000Y95950000D03*
X114300000Y95950000D03*
X113200000Y95950000D03*
X112100000Y95950000D03*
X111000000Y95950000D03*
X109900000Y95950000D03*
X108800000Y95950000D03*
X107700000Y95950000D03*
X106600000Y95950000D03*
X105500000Y95950000D03*
X104400000Y95950000D03*
D21*
X109950000Y87050000D03*
X109950000Y89150000D03*
X109950000Y91250000D03*
X109950000Y93350000D03*
X107900000Y87050000D03*
X107900000Y89150000D03*
X107900000Y91250000D03*
X107900000Y93350000D03*
X105850000Y87050000D03*
X105850000Y89150000D03*
X105850000Y91250000D03*
X105850000Y93350000D03*
X116150000Y87050000D03*
X116150000Y89150000D03*
X116150000Y91250000D03*
X116150000Y93350000D03*
X114100000Y87050000D03*
X114100000Y89150000D03*
X114100000Y91250000D03*
X114100000Y93350000D03*
X112050000Y87050000D03*
X112050000Y89150000D03*
X112050000Y91250000D03*
X112050000Y93350000D03*
X112050000Y84950000D03*
X112050000Y82850000D03*
X112050000Y80750000D03*
X112050000Y78650000D03*
X114100000Y84950000D03*
X114100000Y82850000D03*
X114100000Y80750000D03*
X114100000Y78650000D03*
X116150000Y84950000D03*
X116150000Y82850000D03*
X116150000Y80750000D03*
X116150000Y78650000D03*
X105850000Y84950000D03*
X105850000Y82850000D03*
X105850000Y80750000D03*
X105850000Y78650000D03*
X107900000Y84950000D03*
X107900000Y82850000D03*
X107900000Y80750000D03*
X107900000Y78650000D03*
X109950000Y84950000D03*
X109950000Y82850000D03*
X109950000Y80750000D03*
X109950000Y78650000D03*
%TD*%
D22*
%TO.C,J4*%
X4025000Y17000000D03*
D23*
X2500000Y18375000D03*
X2500000Y15625000D03*
%TD*%
D22*
%TO.C,J4*%
X48525000Y120500000D03*
D23*
X47000000Y121875000D03*
X47000000Y119125000D03*
%TD*%
D22*
%TO.C,J4*%
X4025000Y51500000D03*
D23*
X2500000Y52875000D03*
X2500000Y50125000D03*
%TD*%
D22*
%TO.C,J4*%
X4025000Y86000000D03*
D23*
X2500000Y87375000D03*
X2500000Y84625000D03*
%TD*%
D22*
%TO.C,J4*%
X4025000Y155000000D03*
D23*
X2500000Y156375000D03*
X2500000Y153625000D03*
%TD*%
D22*
%TO.C,J4*%
X4025000Y120500000D03*
D23*
X2500000Y121875000D03*
X2500000Y119125000D03*
%TD*%
D22*
%TO.C,J4*%
X48525000Y17000000D03*
D23*
X47000000Y18375000D03*
X47000000Y15625000D03*
%TD*%
D22*
%TO.C,J4*%
X48525000Y51500000D03*
D23*
X47000000Y52875000D03*
X47000000Y50125000D03*
%TD*%
D22*
%TO.C,J4*%
X48525000Y86000000D03*
D23*
X47000000Y87375000D03*
X47000000Y84625000D03*
%TD*%
D22*
%TO.C,J4*%
X93025000Y120500000D03*
D23*
X91500000Y121875000D03*
X91500000Y119125000D03*
%TD*%
D22*
%TO.C,J4*%
X48525000Y155000000D03*
D23*
X47000000Y156375000D03*
X47000000Y153625000D03*
%TD*%
D22*
%TO.C,J4*%
X93025000Y51500000D03*
D23*
X91500000Y52875000D03*
X91500000Y50125000D03*
%TD*%
D22*
%TO.C,J4*%
X93025000Y17000000D03*
D23*
X91500000Y18375000D03*
X91500000Y15625000D03*
%TD*%
D22*
%TO.C,J4*%
X93025000Y86000000D03*
D23*
X91500000Y87375000D03*
X91500000Y84625000D03*
%TD*%
D22*
%TO.C,J4*%
X93025000Y155000000D03*
D23*
X91500000Y156375000D03*
X91500000Y153625000D03*
%TD*%
D11*
%TO.C,C2*%
X32270000Y15500000D03*
X33230000Y15500000D03*
%TD*%
%TO.C,C2*%
X32270000Y153500000D03*
X33230000Y153500000D03*
%TD*%
%TO.C,C2*%
X76770000Y15500000D03*
X77730000Y15500000D03*
%TD*%
%TO.C,C2*%
X32270000Y50000000D03*
X33230000Y50000000D03*
%TD*%
%TO.C,C2*%
X32270000Y84500000D03*
X33230000Y84500000D03*
%TD*%
%TO.C,C2*%
X32270000Y119000000D03*
X33230000Y119000000D03*
%TD*%
%TO.C,C2*%
X76770000Y50000000D03*
X77730000Y50000000D03*
%TD*%
%TO.C,C2*%
X76770000Y84500000D03*
X77730000Y84500000D03*
%TD*%
%TO.C,C2*%
X121270000Y119000000D03*
X122230000Y119000000D03*
%TD*%
%TO.C,C2*%
X76770000Y119000000D03*
X77730000Y119000000D03*
%TD*%
%TO.C,C2*%
X76770000Y153500000D03*
X77730000Y153500000D03*
%TD*%
%TO.C,C2*%
X121270000Y84500000D03*
X122230000Y84500000D03*
%TD*%
%TO.C,C2*%
X121270000Y153500000D03*
X122230000Y153500000D03*
%TD*%
%TO.C,C2*%
X121270000Y50000000D03*
X122230000Y50000000D03*
%TD*%
%TO.C,C2*%
X121270000Y15500000D03*
X122230000Y15500000D03*
%TD*%
%TO.C,C4*%
X32270000Y18500000D03*
X33230000Y18500000D03*
%TD*%
%TO.C,C4*%
X76770000Y53000000D03*
X77730000Y53000000D03*
%TD*%
%TO.C,C4*%
X32270000Y122000000D03*
X33230000Y122000000D03*
%TD*%
%TO.C,C4*%
X32270000Y53000000D03*
X33230000Y53000000D03*
%TD*%
%TO.C,C4*%
X32270000Y156500000D03*
X33230000Y156500000D03*
%TD*%
%TO.C,C4*%
X76770000Y18500000D03*
X77730000Y18500000D03*
%TD*%
%TO.C,C4*%
X32270000Y87500000D03*
X33230000Y87500000D03*
%TD*%
%TO.C,C4*%
X121270000Y53000000D03*
X122230000Y53000000D03*
%TD*%
%TO.C,C4*%
X121270000Y18500000D03*
X122230000Y18500000D03*
%TD*%
%TO.C,C4*%
X121270000Y87500000D03*
X122230000Y87500000D03*
%TD*%
%TO.C,C4*%
X121270000Y122000000D03*
X122230000Y122000000D03*
%TD*%
%TO.C,C4*%
X121270000Y156500000D03*
X122230000Y156500000D03*
%TD*%
%TO.C,C4*%
X76770000Y122000000D03*
X77730000Y122000000D03*
%TD*%
%TO.C,C4*%
X76770000Y87500000D03*
X77730000Y87500000D03*
%TD*%
%TO.C,C4*%
X76770000Y156500000D03*
X77730000Y156500000D03*
%TD*%
M02*
