%TF.GenerationSoftware,KiCad,Pcbnew,9.0.1*%
%TF.CreationDate,2025-06-11T15:37:50+01:00*%
%TF.ProjectId,SparkFun_GNSS_Flex_Module_LG290P-Tilt_panelized,53706172-6b46-4756-9e5f-474e53535f46,v10*%
%TF.SameCoordinates,Original*%
%TF.FileFunction,Soldermask,Bot*%
%TF.FilePolarity,Negative*%
%FSLAX46Y46*%
G04 Gerber Fmt 4.6, Leading zero omitted, Abs format (unit mm)*
G04 Created by KiCad (PCBNEW 9.0.1) date 2025-06-11 15:37:50*
%MOMM*%
%LPD*%
G01*
G04 APERTURE LIST*
G04 Aperture macros list*
%AMRoundRect*
0 Rectangle with rounded corners*
0 $1 Rounding radius*
0 $2 $3 $4 $5 $6 $7 $8 $9 X,Y pos of 4 corners*
0 Add a 4 corners polygon primitive as box body*
4,1,4,$2,$3,$4,$5,$6,$7,$8,$9,$2,$3,0*
0 Add four circle primitives for the rounded corners*
1,1,$1+$1,$2,$3*
1,1,$1+$1,$4,$5*
1,1,$1+$1,$6,$7*
1,1,$1+$1,$8,$9*
0 Add four rect primitives between the rounded corners*
20,1,$1+$1,$2,$3,$4,$5,0*
20,1,$1+$1,$4,$5,$6,$7,0*
20,1,$1+$1,$6,$7,$8,$9,0*
20,1,$1+$1,$8,$9,$2,$3,0*%
G04 Aperture macros list end*
%ADD10C,3.200000*%
%ADD11C,0.600000*%
%ADD12C,3.000000*%
%ADD13RoundRect,0.050000X0.400000X-0.800000X0.400000X0.800000X-0.400000X0.800000X-0.400000X-0.800000X0*%
%ADD14RoundRect,0.050000X1.500000X-1.500000X1.500000X1.500000X-1.500000X1.500000X-1.500000X-1.500000X0*%
%ADD15C,1.300000*%
%ADD16RoundRect,0.050000X-0.425000X1.050000X-0.425000X-1.050000X0.425000X-1.050000X0.425000X1.050000X0*%
G04 APERTURE END LIST*
D10*
%TO.C,ST4*%
X66000000Y41500000D03*
%TD*%
%TO.C,ST4*%
X100500000Y41500000D03*
%TD*%
%TO.C,ST4*%
X100500000Y86000000D03*
%TD*%
%TO.C,ST4*%
X31500000Y86000000D03*
%TD*%
%TO.C,ST4*%
X31500000Y130500000D03*
%TD*%
%TO.C,ST4*%
X66000000Y86000000D03*
%TD*%
%TO.C,ST4*%
X66000000Y130500000D03*
%TD*%
%TO.C,ST4*%
X135000000Y41500000D03*
%TD*%
%TO.C,ST4*%
X169500000Y130500000D03*
%TD*%
%TO.C,ST4*%
X100500000Y130500000D03*
%TD*%
%TO.C,ST4*%
X135000000Y86000000D03*
%TD*%
%TO.C,ST4*%
X169500000Y41500000D03*
%TD*%
%TO.C,ST4*%
X135000000Y130500000D03*
%TD*%
%TO.C,ST4*%
X169500000Y86000000D03*
%TD*%
%TO.C,ST4*%
X31500000Y41500000D03*
%TD*%
%TO.C,ST3*%
X37000000Y86000000D03*
%TD*%
%TO.C,ST3*%
X37000000Y41500000D03*
%TD*%
%TO.C,ST3*%
X140500000Y86000000D03*
%TD*%
%TO.C,ST3*%
X106000000Y41500000D03*
%TD*%
%TO.C,ST3*%
X140500000Y41500000D03*
%TD*%
%TO.C,ST3*%
X37000000Y130500000D03*
%TD*%
%TO.C,ST3*%
X106000000Y86000000D03*
%TD*%
%TO.C,ST3*%
X71500000Y86000000D03*
%TD*%
%TO.C,ST3*%
X106000000Y130500000D03*
%TD*%
%TO.C,ST3*%
X71500000Y41500000D03*
%TD*%
%TO.C,ST3*%
X71500000Y130500000D03*
%TD*%
%TO.C,ST3*%
X140500000Y130500000D03*
%TD*%
%TO.C,ST3*%
X2500000Y41500000D03*
%TD*%
%TO.C,ST3*%
X2500000Y86000000D03*
%TD*%
%TO.C,ST3*%
X2500000Y130500000D03*
%TD*%
%TO.C,ST1*%
X2500000Y2500000D03*
%TD*%
%TO.C,ST1*%
X2500000Y47000000D03*
%TD*%
%TO.C,ST1*%
X2500000Y91500000D03*
%TD*%
%TO.C,ST1*%
X37000000Y91500000D03*
%TD*%
%TO.C,ST1*%
X71500000Y47000000D03*
%TD*%
%TO.C,ST1*%
X106000000Y2500000D03*
%TD*%
%TO.C,ST1*%
X37000000Y2500000D03*
%TD*%
%TO.C,ST1*%
X37000000Y47000000D03*
%TD*%
%TO.C,ST1*%
X71500000Y2500000D03*
%TD*%
%TO.C,ST1*%
X71500000Y91500000D03*
%TD*%
%TO.C,ST1*%
X140500000Y47000000D03*
%TD*%
%TO.C,ST1*%
X106000000Y47000000D03*
%TD*%
%TO.C,ST1*%
X140500000Y91500000D03*
%TD*%
%TO.C,ST1*%
X106000000Y91500000D03*
%TD*%
%TO.C,ST1*%
X140500000Y2500000D03*
%TD*%
%TO.C,ST2*%
X31460000Y2540000D03*
%TD*%
%TO.C,ST2*%
X65960000Y47040000D03*
%TD*%
%TO.C,ST2*%
X100460000Y47040000D03*
%TD*%
%TO.C,ST2*%
X65960000Y2540000D03*
%TD*%
%TO.C,ST2*%
X169460000Y2540000D03*
%TD*%
%TO.C,ST2*%
X100460000Y2540000D03*
%TD*%
%TO.C,ST2*%
X100460000Y91540000D03*
%TD*%
%TO.C,ST2*%
X134960000Y2540000D03*
%TD*%
%TO.C,ST2*%
X31460000Y47040000D03*
%TD*%
%TO.C,ST2*%
X31460000Y91540000D03*
%TD*%
%TO.C,ST2*%
X65960000Y91540000D03*
%TD*%
%TO.C,ST2*%
X134960000Y47040000D03*
%TD*%
%TO.C,ST2*%
X134960000Y91540000D03*
%TD*%
%TO.C,ST2*%
X169460000Y91540000D03*
%TD*%
%TO.C,ST2*%
X169460000Y47040000D03*
%TD*%
D11*
%TO.C,FID3*%
X5500000Y1000000D03*
%TD*%
%TO.C,FID3*%
X40000000Y45500000D03*
%TD*%
%TO.C,FID3*%
X109000000Y1000000D03*
%TD*%
%TO.C,FID3*%
X74500000Y90000000D03*
%TD*%
%TO.C,FID3*%
X40000000Y90000000D03*
%TD*%
%TO.C,FID3*%
X5500000Y90000000D03*
%TD*%
%TO.C,FID3*%
X5500000Y45500000D03*
%TD*%
%TO.C,FID3*%
X40000000Y1000000D03*
%TD*%
%TO.C,FID3*%
X74500000Y1000000D03*
%TD*%
%TO.C,FID3*%
X74500000Y45500000D03*
%TD*%
%TO.C,FID3*%
X109000000Y45500000D03*
%TD*%
%TO.C,FID3*%
X143500000Y1000000D03*
%TD*%
%TO.C,FID3*%
X143500000Y45500000D03*
%TD*%
%TO.C,FID3*%
X143500000Y90000000D03*
%TD*%
%TO.C,FID3*%
X109000000Y90000000D03*
%TD*%
%TO.C,FID2*%
X28500000Y43000000D03*
%TD*%
%TO.C,FID2*%
X28500000Y87500000D03*
%TD*%
%TO.C,FID2*%
X63000000Y43000000D03*
%TD*%
%TO.C,FID2*%
X63000000Y132000000D03*
%TD*%
%TO.C,FID2*%
X132000000Y43000000D03*
%TD*%
%TO.C,FID2*%
X132000000Y132000000D03*
%TD*%
%TO.C,FID2*%
X63000000Y87500000D03*
%TD*%
%TO.C,FID2*%
X28500000Y132000000D03*
%TD*%
%TO.C,FID2*%
X166500000Y87500000D03*
%TD*%
%TO.C,FID2*%
X97500000Y87500000D03*
%TD*%
%TO.C,FID2*%
X97500000Y132000000D03*
%TD*%
%TO.C,FID2*%
X97500000Y43000000D03*
%TD*%
%TO.C,FID2*%
X132000000Y87500000D03*
%TD*%
%TO.C,FID2*%
X166500000Y43000000D03*
%TD*%
%TO.C,FID2*%
X166500000Y132000000D03*
%TD*%
D12*
%TO.C,*%
X2000000Y135087500D03*
%TD*%
%TO.C,*%
X2000000Y-2087500D03*
%TD*%
D13*
%TO.C,U2*%
X22715000Y14600000D03*
X21445000Y14600000D03*
X20175000Y14600000D03*
X18905000Y14600000D03*
X17635000Y14600000D03*
X16365000Y14600000D03*
X15095000Y14600000D03*
X13825000Y14600000D03*
X12555000Y14600000D03*
X11285000Y14600000D03*
X11285000Y29400000D03*
X12555000Y29400000D03*
X13825000Y29400000D03*
X15095000Y29400000D03*
X16365000Y29400000D03*
X17635000Y29400000D03*
X18905000Y29400000D03*
X20175000Y29400000D03*
X21445000Y29400000D03*
X22715000Y29400000D03*
D14*
X18520000Y22520000D03*
%TD*%
D13*
%TO.C,U2*%
X57215000Y14600000D03*
X55945000Y14600000D03*
X54675000Y14600000D03*
X53405000Y14600000D03*
X52135000Y14600000D03*
X50865000Y14600000D03*
X49595000Y14600000D03*
X48325000Y14600000D03*
X47055000Y14600000D03*
X45785000Y14600000D03*
X45785000Y29400000D03*
X47055000Y29400000D03*
X48325000Y29400000D03*
X49595000Y29400000D03*
X50865000Y29400000D03*
X52135000Y29400000D03*
X53405000Y29400000D03*
X54675000Y29400000D03*
X55945000Y29400000D03*
X57215000Y29400000D03*
D14*
X53020000Y22520000D03*
%TD*%
D13*
%TO.C,U2*%
X22715000Y59100000D03*
X21445000Y59100000D03*
X20175000Y59100000D03*
X18905000Y59100000D03*
X17635000Y59100000D03*
X16365000Y59100000D03*
X15095000Y59100000D03*
X13825000Y59100000D03*
X12555000Y59100000D03*
X11285000Y59100000D03*
X11285000Y73900000D03*
X12555000Y73900000D03*
X13825000Y73900000D03*
X15095000Y73900000D03*
X16365000Y73900000D03*
X17635000Y73900000D03*
X18905000Y73900000D03*
X20175000Y73900000D03*
X21445000Y73900000D03*
X22715000Y73900000D03*
D14*
X18520000Y67020000D03*
%TD*%
D13*
%TO.C,U2*%
X22715000Y103600000D03*
X21445000Y103600000D03*
X20175000Y103600000D03*
X18905000Y103600000D03*
X17635000Y103600000D03*
X16365000Y103600000D03*
X15095000Y103600000D03*
X13825000Y103600000D03*
X12555000Y103600000D03*
X11285000Y103600000D03*
X11285000Y118400000D03*
X12555000Y118400000D03*
X13825000Y118400000D03*
X15095000Y118400000D03*
X16365000Y118400000D03*
X17635000Y118400000D03*
X18905000Y118400000D03*
X20175000Y118400000D03*
X21445000Y118400000D03*
X22715000Y118400000D03*
D14*
X18520000Y111520000D03*
%TD*%
D13*
%TO.C,U2*%
X160715000Y14600000D03*
X159445000Y14600000D03*
X158175000Y14600000D03*
X156905000Y14600000D03*
X155635000Y14600000D03*
X154365000Y14600000D03*
X153095000Y14600000D03*
X151825000Y14600000D03*
X150555000Y14600000D03*
X149285000Y14600000D03*
X149285000Y29400000D03*
X150555000Y29400000D03*
X151825000Y29400000D03*
X153095000Y29400000D03*
X154365000Y29400000D03*
X155635000Y29400000D03*
X156905000Y29400000D03*
X158175000Y29400000D03*
X159445000Y29400000D03*
X160715000Y29400000D03*
D14*
X156520000Y22520000D03*
%TD*%
D13*
%TO.C,U2*%
X57215000Y59100000D03*
X55945000Y59100000D03*
X54675000Y59100000D03*
X53405000Y59100000D03*
X52135000Y59100000D03*
X50865000Y59100000D03*
X49595000Y59100000D03*
X48325000Y59100000D03*
X47055000Y59100000D03*
X45785000Y59100000D03*
X45785000Y73900000D03*
X47055000Y73900000D03*
X48325000Y73900000D03*
X49595000Y73900000D03*
X50865000Y73900000D03*
X52135000Y73900000D03*
X53405000Y73900000D03*
X54675000Y73900000D03*
X55945000Y73900000D03*
X57215000Y73900000D03*
D14*
X53020000Y67020000D03*
%TD*%
D13*
%TO.C,U2*%
X91715000Y14600000D03*
X90445000Y14600000D03*
X89175000Y14600000D03*
X87905000Y14600000D03*
X86635000Y14600000D03*
X85365000Y14600000D03*
X84095000Y14600000D03*
X82825000Y14600000D03*
X81555000Y14600000D03*
X80285000Y14600000D03*
X80285000Y29400000D03*
X81555000Y29400000D03*
X82825000Y29400000D03*
X84095000Y29400000D03*
X85365000Y29400000D03*
X86635000Y29400000D03*
X87905000Y29400000D03*
X89175000Y29400000D03*
X90445000Y29400000D03*
X91715000Y29400000D03*
D14*
X87520000Y22520000D03*
%TD*%
D13*
%TO.C,U2*%
X91715000Y59100000D03*
X90445000Y59100000D03*
X89175000Y59100000D03*
X87905000Y59100000D03*
X86635000Y59100000D03*
X85365000Y59100000D03*
X84095000Y59100000D03*
X82825000Y59100000D03*
X81555000Y59100000D03*
X80285000Y59100000D03*
X80285000Y73900000D03*
X81555000Y73900000D03*
X82825000Y73900000D03*
X84095000Y73900000D03*
X85365000Y73900000D03*
X86635000Y73900000D03*
X87905000Y73900000D03*
X89175000Y73900000D03*
X90445000Y73900000D03*
X91715000Y73900000D03*
D14*
X87520000Y67020000D03*
%TD*%
D13*
%TO.C,U2*%
X91715000Y103600000D03*
X90445000Y103600000D03*
X89175000Y103600000D03*
X87905000Y103600000D03*
X86635000Y103600000D03*
X85365000Y103600000D03*
X84095000Y103600000D03*
X82825000Y103600000D03*
X81555000Y103600000D03*
X80285000Y103600000D03*
X80285000Y118400000D03*
X81555000Y118400000D03*
X82825000Y118400000D03*
X84095000Y118400000D03*
X85365000Y118400000D03*
X86635000Y118400000D03*
X87905000Y118400000D03*
X89175000Y118400000D03*
X90445000Y118400000D03*
X91715000Y118400000D03*
D14*
X87520000Y111520000D03*
%TD*%
D13*
%TO.C,U2*%
X126215000Y103600000D03*
X124945000Y103600000D03*
X123675000Y103600000D03*
X122405000Y103600000D03*
X121135000Y103600000D03*
X119865000Y103600000D03*
X118595000Y103600000D03*
X117325000Y103600000D03*
X116055000Y103600000D03*
X114785000Y103600000D03*
X114785000Y118400000D03*
X116055000Y118400000D03*
X117325000Y118400000D03*
X118595000Y118400000D03*
X119865000Y118400000D03*
X121135000Y118400000D03*
X122405000Y118400000D03*
X123675000Y118400000D03*
X124945000Y118400000D03*
X126215000Y118400000D03*
D14*
X122020000Y111520000D03*
%TD*%
D13*
%TO.C,U2*%
X57215000Y103600000D03*
X55945000Y103600000D03*
X54675000Y103600000D03*
X53405000Y103600000D03*
X52135000Y103600000D03*
X50865000Y103600000D03*
X49595000Y103600000D03*
X48325000Y103600000D03*
X47055000Y103600000D03*
X45785000Y103600000D03*
X45785000Y118400000D03*
X47055000Y118400000D03*
X48325000Y118400000D03*
X49595000Y118400000D03*
X50865000Y118400000D03*
X52135000Y118400000D03*
X53405000Y118400000D03*
X54675000Y118400000D03*
X55945000Y118400000D03*
X57215000Y118400000D03*
D14*
X53020000Y111520000D03*
%TD*%
D13*
%TO.C,U2*%
X126215000Y14600000D03*
X124945000Y14600000D03*
X123675000Y14600000D03*
X122405000Y14600000D03*
X121135000Y14600000D03*
X119865000Y14600000D03*
X118595000Y14600000D03*
X117325000Y14600000D03*
X116055000Y14600000D03*
X114785000Y14600000D03*
X114785000Y29400000D03*
X116055000Y29400000D03*
X117325000Y29400000D03*
X118595000Y29400000D03*
X119865000Y29400000D03*
X121135000Y29400000D03*
X122405000Y29400000D03*
X123675000Y29400000D03*
X124945000Y29400000D03*
X126215000Y29400000D03*
D14*
X122020000Y22520000D03*
%TD*%
D13*
%TO.C,U2*%
X126215000Y59100000D03*
X124945000Y59100000D03*
X123675000Y59100000D03*
X122405000Y59100000D03*
X121135000Y59100000D03*
X119865000Y59100000D03*
X118595000Y59100000D03*
X117325000Y59100000D03*
X116055000Y59100000D03*
X114785000Y59100000D03*
X114785000Y73900000D03*
X116055000Y73900000D03*
X117325000Y73900000D03*
X118595000Y73900000D03*
X119865000Y73900000D03*
X121135000Y73900000D03*
X122405000Y73900000D03*
X123675000Y73900000D03*
X124945000Y73900000D03*
X126215000Y73900000D03*
D14*
X122020000Y67020000D03*
%TD*%
D13*
%TO.C,U2*%
X160715000Y103600000D03*
X159445000Y103600000D03*
X158175000Y103600000D03*
X156905000Y103600000D03*
X155635000Y103600000D03*
X154365000Y103600000D03*
X153095000Y103600000D03*
X151825000Y103600000D03*
X150555000Y103600000D03*
X149285000Y103600000D03*
X149285000Y118400000D03*
X150555000Y118400000D03*
X151825000Y118400000D03*
X153095000Y118400000D03*
X154365000Y118400000D03*
X155635000Y118400000D03*
X156905000Y118400000D03*
X158175000Y118400000D03*
X159445000Y118400000D03*
X160715000Y118400000D03*
D14*
X156520000Y111520000D03*
%TD*%
D13*
%TO.C,U2*%
X160715000Y59100000D03*
X159445000Y59100000D03*
X158175000Y59100000D03*
X156905000Y59100000D03*
X155635000Y59100000D03*
X154365000Y59100000D03*
X153095000Y59100000D03*
X151825000Y59100000D03*
X150555000Y59100000D03*
X149285000Y59100000D03*
X149285000Y73900000D03*
X150555000Y73900000D03*
X151825000Y73900000D03*
X153095000Y73900000D03*
X154365000Y73900000D03*
X155635000Y73900000D03*
X156905000Y73900000D03*
X158175000Y73900000D03*
X159445000Y73900000D03*
X160715000Y73900000D03*
D14*
X156520000Y67020000D03*
%TD*%
D12*
%TO.C,*%
X170000000Y135087500D03*
%TD*%
D15*
%TO.C,J1*%
X25000000Y93000000D03*
X9000000Y93000000D03*
D16*
X8000000Y90350000D03*
X8000000Y95650000D03*
X10000000Y90350000D03*
X10000000Y95650000D03*
X12000000Y90350000D03*
X12000000Y95650000D03*
X14000000Y90350000D03*
X14000000Y95650000D03*
X16000000Y90350000D03*
X16000000Y95650000D03*
X18000000Y90350000D03*
X18000000Y95650000D03*
X20000000Y90350000D03*
X20000000Y95650000D03*
X22000000Y90350000D03*
X22000000Y95650000D03*
X24000000Y90350000D03*
X24000000Y95650000D03*
X26000000Y90350000D03*
X26000000Y95650000D03*
%TD*%
D15*
%TO.C,J1*%
X25000000Y48500000D03*
X9000000Y48500000D03*
D16*
X8000000Y45850000D03*
X8000000Y51150000D03*
X10000000Y45850000D03*
X10000000Y51150000D03*
X12000000Y45850000D03*
X12000000Y51150000D03*
X14000000Y45850000D03*
X14000000Y51150000D03*
X16000000Y45850000D03*
X16000000Y51150000D03*
X18000000Y45850000D03*
X18000000Y51150000D03*
X20000000Y45850000D03*
X20000000Y51150000D03*
X22000000Y45850000D03*
X22000000Y51150000D03*
X24000000Y45850000D03*
X24000000Y51150000D03*
X26000000Y45850000D03*
X26000000Y51150000D03*
%TD*%
D15*
%TO.C,J1*%
X128500000Y48500000D03*
X112500000Y48500000D03*
D16*
X111500000Y45850000D03*
X111500000Y51150000D03*
X113500000Y45850000D03*
X113500000Y51150000D03*
X115500000Y45850000D03*
X115500000Y51150000D03*
X117500000Y45850000D03*
X117500000Y51150000D03*
X119500000Y45850000D03*
X119500000Y51150000D03*
X121500000Y45850000D03*
X121500000Y51150000D03*
X123500000Y45850000D03*
X123500000Y51150000D03*
X125500000Y45850000D03*
X125500000Y51150000D03*
X127500000Y45850000D03*
X127500000Y51150000D03*
X129500000Y45850000D03*
X129500000Y51150000D03*
%TD*%
D15*
%TO.C,J1*%
X163000000Y4000000D03*
X147000000Y4000000D03*
D16*
X146000000Y1350000D03*
X146000000Y6650000D03*
X148000000Y1350000D03*
X148000000Y6650000D03*
X150000000Y1350000D03*
X150000000Y6650000D03*
X152000000Y1350000D03*
X152000000Y6650000D03*
X154000000Y1350000D03*
X154000000Y6650000D03*
X156000000Y1350000D03*
X156000000Y6650000D03*
X158000000Y1350000D03*
X158000000Y6650000D03*
X160000000Y1350000D03*
X160000000Y6650000D03*
X162000000Y1350000D03*
X162000000Y6650000D03*
X164000000Y1350000D03*
X164000000Y6650000D03*
%TD*%
D15*
%TO.C,J1*%
X94000000Y4000000D03*
X78000000Y4000000D03*
D16*
X77000000Y1350000D03*
X77000000Y6650000D03*
X79000000Y1350000D03*
X79000000Y6650000D03*
X81000000Y1350000D03*
X81000000Y6650000D03*
X83000000Y1350000D03*
X83000000Y6650000D03*
X85000000Y1350000D03*
X85000000Y6650000D03*
X87000000Y1350000D03*
X87000000Y6650000D03*
X89000000Y1350000D03*
X89000000Y6650000D03*
X91000000Y1350000D03*
X91000000Y6650000D03*
X93000000Y1350000D03*
X93000000Y6650000D03*
X95000000Y1350000D03*
X95000000Y6650000D03*
%TD*%
D15*
%TO.C,J1*%
X94000000Y48500000D03*
X78000000Y48500000D03*
D16*
X77000000Y45850000D03*
X77000000Y51150000D03*
X79000000Y45850000D03*
X79000000Y51150000D03*
X81000000Y45850000D03*
X81000000Y51150000D03*
X83000000Y45850000D03*
X83000000Y51150000D03*
X85000000Y45850000D03*
X85000000Y51150000D03*
X87000000Y45850000D03*
X87000000Y51150000D03*
X89000000Y45850000D03*
X89000000Y51150000D03*
X91000000Y45850000D03*
X91000000Y51150000D03*
X93000000Y45850000D03*
X93000000Y51150000D03*
X95000000Y45850000D03*
X95000000Y51150000D03*
%TD*%
D15*
%TO.C,J1*%
X59500000Y48500000D03*
X43500000Y48500000D03*
D16*
X42500000Y45850000D03*
X42500000Y51150000D03*
X44500000Y45850000D03*
X44500000Y51150000D03*
X46500000Y45850000D03*
X46500000Y51150000D03*
X48500000Y45850000D03*
X48500000Y51150000D03*
X50500000Y45850000D03*
X50500000Y51150000D03*
X52500000Y45850000D03*
X52500000Y51150000D03*
X54500000Y45850000D03*
X54500000Y51150000D03*
X56500000Y45850000D03*
X56500000Y51150000D03*
X58500000Y45850000D03*
X58500000Y51150000D03*
X60500000Y45850000D03*
X60500000Y51150000D03*
%TD*%
D15*
%TO.C,J1*%
X59500000Y4000000D03*
X43500000Y4000000D03*
D16*
X42500000Y1350000D03*
X42500000Y6650000D03*
X44500000Y1350000D03*
X44500000Y6650000D03*
X46500000Y1350000D03*
X46500000Y6650000D03*
X48500000Y1350000D03*
X48500000Y6650000D03*
X50500000Y1350000D03*
X50500000Y6650000D03*
X52500000Y1350000D03*
X52500000Y6650000D03*
X54500000Y1350000D03*
X54500000Y6650000D03*
X56500000Y1350000D03*
X56500000Y6650000D03*
X58500000Y1350000D03*
X58500000Y6650000D03*
X60500000Y1350000D03*
X60500000Y6650000D03*
%TD*%
D15*
%TO.C,J1*%
X94000000Y93000000D03*
X78000000Y93000000D03*
D16*
X77000000Y90350000D03*
X77000000Y95650000D03*
X79000000Y90350000D03*
X79000000Y95650000D03*
X81000000Y90350000D03*
X81000000Y95650000D03*
X83000000Y90350000D03*
X83000000Y95650000D03*
X85000000Y90350000D03*
X85000000Y95650000D03*
X87000000Y90350000D03*
X87000000Y95650000D03*
X89000000Y90350000D03*
X89000000Y95650000D03*
X91000000Y90350000D03*
X91000000Y95650000D03*
X93000000Y90350000D03*
X93000000Y95650000D03*
X95000000Y90350000D03*
X95000000Y95650000D03*
%TD*%
D15*
%TO.C,J1*%
X59500000Y93000000D03*
X43500000Y93000000D03*
D16*
X42500000Y90350000D03*
X42500000Y95650000D03*
X44500000Y90350000D03*
X44500000Y95650000D03*
X46500000Y90350000D03*
X46500000Y95650000D03*
X48500000Y90350000D03*
X48500000Y95650000D03*
X50500000Y90350000D03*
X50500000Y95650000D03*
X52500000Y90350000D03*
X52500000Y95650000D03*
X54500000Y90350000D03*
X54500000Y95650000D03*
X56500000Y90350000D03*
X56500000Y95650000D03*
X58500000Y90350000D03*
X58500000Y95650000D03*
X60500000Y90350000D03*
X60500000Y95650000D03*
%TD*%
D15*
%TO.C,J1*%
X128500000Y4000000D03*
X112500000Y4000000D03*
D16*
X111500000Y1350000D03*
X111500000Y6650000D03*
X113500000Y1350000D03*
X113500000Y6650000D03*
X115500000Y1350000D03*
X115500000Y6650000D03*
X117500000Y1350000D03*
X117500000Y6650000D03*
X119500000Y1350000D03*
X119500000Y6650000D03*
X121500000Y1350000D03*
X121500000Y6650000D03*
X123500000Y1350000D03*
X123500000Y6650000D03*
X125500000Y1350000D03*
X125500000Y6650000D03*
X127500000Y1350000D03*
X127500000Y6650000D03*
X129500000Y1350000D03*
X129500000Y6650000D03*
%TD*%
D15*
%TO.C,J1*%
X128500000Y93000000D03*
X112500000Y93000000D03*
D16*
X111500000Y90350000D03*
X111500000Y95650000D03*
X113500000Y90350000D03*
X113500000Y95650000D03*
X115500000Y90350000D03*
X115500000Y95650000D03*
X117500000Y90350000D03*
X117500000Y95650000D03*
X119500000Y90350000D03*
X119500000Y95650000D03*
X121500000Y90350000D03*
X121500000Y95650000D03*
X123500000Y90350000D03*
X123500000Y95650000D03*
X125500000Y90350000D03*
X125500000Y95650000D03*
X127500000Y90350000D03*
X127500000Y95650000D03*
X129500000Y90350000D03*
X129500000Y95650000D03*
%TD*%
D15*
%TO.C,J1*%
X163000000Y93000000D03*
X147000000Y93000000D03*
D16*
X146000000Y90350000D03*
X146000000Y95650000D03*
X148000000Y90350000D03*
X148000000Y95650000D03*
X150000000Y90350000D03*
X150000000Y95650000D03*
X152000000Y90350000D03*
X152000000Y95650000D03*
X154000000Y90350000D03*
X154000000Y95650000D03*
X156000000Y90350000D03*
X156000000Y95650000D03*
X158000000Y90350000D03*
X158000000Y95650000D03*
X160000000Y90350000D03*
X160000000Y95650000D03*
X162000000Y90350000D03*
X162000000Y95650000D03*
X164000000Y90350000D03*
X164000000Y95650000D03*
%TD*%
D15*
%TO.C,J1*%
X163000000Y48500000D03*
X147000000Y48500000D03*
D16*
X146000000Y45850000D03*
X146000000Y51150000D03*
X148000000Y45850000D03*
X148000000Y51150000D03*
X150000000Y45850000D03*
X150000000Y51150000D03*
X152000000Y45850000D03*
X152000000Y51150000D03*
X154000000Y45850000D03*
X154000000Y51150000D03*
X156000000Y45850000D03*
X156000000Y51150000D03*
X158000000Y45850000D03*
X158000000Y51150000D03*
X160000000Y45850000D03*
X160000000Y51150000D03*
X162000000Y45850000D03*
X162000000Y51150000D03*
X164000000Y45850000D03*
X164000000Y51150000D03*
%TD*%
D15*
%TO.C,J1*%
X25000000Y4000000D03*
X9000000Y4000000D03*
D16*
X8000000Y1350000D03*
X8000000Y6650000D03*
X10000000Y1350000D03*
X10000000Y6650000D03*
X12000000Y1350000D03*
X12000000Y6650000D03*
X14000000Y1350000D03*
X14000000Y6650000D03*
X16000000Y1350000D03*
X16000000Y6650000D03*
X18000000Y1350000D03*
X18000000Y6650000D03*
X20000000Y1350000D03*
X20000000Y6650000D03*
X22000000Y1350000D03*
X22000000Y6650000D03*
X24000000Y1350000D03*
X24000000Y6650000D03*
X26000000Y1350000D03*
X26000000Y6650000D03*
%TD*%
D15*
%TO.C,J3*%
X25000000Y84500000D03*
X9000000Y84500000D03*
D16*
X8000000Y81850000D03*
X8000000Y87150000D03*
X10000000Y81850000D03*
X10000000Y87150000D03*
X12000000Y81850000D03*
X12000000Y87150000D03*
X14000000Y81850000D03*
X14000000Y87150000D03*
X16000000Y81850000D03*
X16000000Y87150000D03*
X18000000Y81850000D03*
X18000000Y87150000D03*
X20000000Y81850000D03*
X20000000Y87150000D03*
X22000000Y81850000D03*
X22000000Y87150000D03*
X24000000Y81850000D03*
X24000000Y87150000D03*
X26000000Y81850000D03*
X26000000Y87150000D03*
%TD*%
D15*
%TO.C,J3*%
X94000000Y40000000D03*
X78000000Y40000000D03*
D16*
X77000000Y37350000D03*
X77000000Y42650000D03*
X79000000Y37350000D03*
X79000000Y42650000D03*
X81000000Y37350000D03*
X81000000Y42650000D03*
X83000000Y37350000D03*
X83000000Y42650000D03*
X85000000Y37350000D03*
X85000000Y42650000D03*
X87000000Y37350000D03*
X87000000Y42650000D03*
X89000000Y37350000D03*
X89000000Y42650000D03*
X91000000Y37350000D03*
X91000000Y42650000D03*
X93000000Y37350000D03*
X93000000Y42650000D03*
X95000000Y37350000D03*
X95000000Y42650000D03*
%TD*%
D15*
%TO.C,J3*%
X128500000Y84500000D03*
X112500000Y84500000D03*
D16*
X111500000Y81850000D03*
X111500000Y87150000D03*
X113500000Y81850000D03*
X113500000Y87150000D03*
X115500000Y81850000D03*
X115500000Y87150000D03*
X117500000Y81850000D03*
X117500000Y87150000D03*
X119500000Y81850000D03*
X119500000Y87150000D03*
X121500000Y81850000D03*
X121500000Y87150000D03*
X123500000Y81850000D03*
X123500000Y87150000D03*
X125500000Y81850000D03*
X125500000Y87150000D03*
X127500000Y81850000D03*
X127500000Y87150000D03*
X129500000Y81850000D03*
X129500000Y87150000D03*
%TD*%
D15*
%TO.C,J3*%
X25000000Y129000000D03*
X9000000Y129000000D03*
D16*
X8000000Y126350000D03*
X8000000Y131650000D03*
X10000000Y126350000D03*
X10000000Y131650000D03*
X12000000Y126350000D03*
X12000000Y131650000D03*
X14000000Y126350000D03*
X14000000Y131650000D03*
X16000000Y126350000D03*
X16000000Y131650000D03*
X18000000Y126350000D03*
X18000000Y131650000D03*
X20000000Y126350000D03*
X20000000Y131650000D03*
X22000000Y126350000D03*
X22000000Y131650000D03*
X24000000Y126350000D03*
X24000000Y131650000D03*
X26000000Y126350000D03*
X26000000Y131650000D03*
%TD*%
D15*
%TO.C,J3*%
X59500000Y84500000D03*
X43500000Y84500000D03*
D16*
X42500000Y81850000D03*
X42500000Y87150000D03*
X44500000Y81850000D03*
X44500000Y87150000D03*
X46500000Y81850000D03*
X46500000Y87150000D03*
X48500000Y81850000D03*
X48500000Y87150000D03*
X50500000Y81850000D03*
X50500000Y87150000D03*
X52500000Y81850000D03*
X52500000Y87150000D03*
X54500000Y81850000D03*
X54500000Y87150000D03*
X56500000Y81850000D03*
X56500000Y87150000D03*
X58500000Y81850000D03*
X58500000Y87150000D03*
X60500000Y81850000D03*
X60500000Y87150000D03*
%TD*%
D15*
%TO.C,J3*%
X94000000Y129000000D03*
X78000000Y129000000D03*
D16*
X77000000Y126350000D03*
X77000000Y131650000D03*
X79000000Y126350000D03*
X79000000Y131650000D03*
X81000000Y126350000D03*
X81000000Y131650000D03*
X83000000Y126350000D03*
X83000000Y131650000D03*
X85000000Y126350000D03*
X85000000Y131650000D03*
X87000000Y126350000D03*
X87000000Y131650000D03*
X89000000Y126350000D03*
X89000000Y131650000D03*
X91000000Y126350000D03*
X91000000Y131650000D03*
X93000000Y126350000D03*
X93000000Y131650000D03*
X95000000Y126350000D03*
X95000000Y131650000D03*
%TD*%
D15*
%TO.C,J3*%
X94000000Y84500000D03*
X78000000Y84500000D03*
D16*
X77000000Y81850000D03*
X77000000Y87150000D03*
X79000000Y81850000D03*
X79000000Y87150000D03*
X81000000Y81850000D03*
X81000000Y87150000D03*
X83000000Y81850000D03*
X83000000Y87150000D03*
X85000000Y81850000D03*
X85000000Y87150000D03*
X87000000Y81850000D03*
X87000000Y87150000D03*
X89000000Y81850000D03*
X89000000Y87150000D03*
X91000000Y81850000D03*
X91000000Y87150000D03*
X93000000Y81850000D03*
X93000000Y87150000D03*
X95000000Y81850000D03*
X95000000Y87150000D03*
%TD*%
D15*
%TO.C,J3*%
X59500000Y129000000D03*
X43500000Y129000000D03*
D16*
X42500000Y126350000D03*
X42500000Y131650000D03*
X44500000Y126350000D03*
X44500000Y131650000D03*
X46500000Y126350000D03*
X46500000Y131650000D03*
X48500000Y126350000D03*
X48500000Y131650000D03*
X50500000Y126350000D03*
X50500000Y131650000D03*
X52500000Y126350000D03*
X52500000Y131650000D03*
X54500000Y126350000D03*
X54500000Y131650000D03*
X56500000Y126350000D03*
X56500000Y131650000D03*
X58500000Y126350000D03*
X58500000Y131650000D03*
X60500000Y126350000D03*
X60500000Y131650000D03*
%TD*%
D15*
%TO.C,J3*%
X59500000Y40000000D03*
X43500000Y40000000D03*
D16*
X42500000Y37350000D03*
X42500000Y42650000D03*
X44500000Y37350000D03*
X44500000Y42650000D03*
X46500000Y37350000D03*
X46500000Y42650000D03*
X48500000Y37350000D03*
X48500000Y42650000D03*
X50500000Y37350000D03*
X50500000Y42650000D03*
X52500000Y37350000D03*
X52500000Y42650000D03*
X54500000Y37350000D03*
X54500000Y42650000D03*
X56500000Y37350000D03*
X56500000Y42650000D03*
X58500000Y37350000D03*
X58500000Y42650000D03*
X60500000Y37350000D03*
X60500000Y42650000D03*
%TD*%
D15*
%TO.C,J3*%
X128500000Y40000000D03*
X112500000Y40000000D03*
D16*
X111500000Y37350000D03*
X111500000Y42650000D03*
X113500000Y37350000D03*
X113500000Y42650000D03*
X115500000Y37350000D03*
X115500000Y42650000D03*
X117500000Y37350000D03*
X117500000Y42650000D03*
X119500000Y37350000D03*
X119500000Y42650000D03*
X121500000Y37350000D03*
X121500000Y42650000D03*
X123500000Y37350000D03*
X123500000Y42650000D03*
X125500000Y37350000D03*
X125500000Y42650000D03*
X127500000Y37350000D03*
X127500000Y42650000D03*
X129500000Y37350000D03*
X129500000Y42650000D03*
%TD*%
D15*
%TO.C,J3*%
X163000000Y84500000D03*
X147000000Y84500000D03*
D16*
X146000000Y81850000D03*
X146000000Y87150000D03*
X148000000Y81850000D03*
X148000000Y87150000D03*
X150000000Y81850000D03*
X150000000Y87150000D03*
X152000000Y81850000D03*
X152000000Y87150000D03*
X154000000Y81850000D03*
X154000000Y87150000D03*
X156000000Y81850000D03*
X156000000Y87150000D03*
X158000000Y81850000D03*
X158000000Y87150000D03*
X160000000Y81850000D03*
X160000000Y87150000D03*
X162000000Y81850000D03*
X162000000Y87150000D03*
X164000000Y81850000D03*
X164000000Y87150000D03*
%TD*%
D15*
%TO.C,J3*%
X163000000Y40000000D03*
X147000000Y40000000D03*
D16*
X146000000Y37350000D03*
X146000000Y42650000D03*
X148000000Y37350000D03*
X148000000Y42650000D03*
X150000000Y37350000D03*
X150000000Y42650000D03*
X152000000Y37350000D03*
X152000000Y42650000D03*
X154000000Y37350000D03*
X154000000Y42650000D03*
X156000000Y37350000D03*
X156000000Y42650000D03*
X158000000Y37350000D03*
X158000000Y42650000D03*
X160000000Y37350000D03*
X160000000Y42650000D03*
X162000000Y37350000D03*
X162000000Y42650000D03*
X164000000Y37350000D03*
X164000000Y42650000D03*
%TD*%
D15*
%TO.C,J3*%
X128500000Y129000000D03*
X112500000Y129000000D03*
D16*
X111500000Y126350000D03*
X111500000Y131650000D03*
X113500000Y126350000D03*
X113500000Y131650000D03*
X115500000Y126350000D03*
X115500000Y131650000D03*
X117500000Y126350000D03*
X117500000Y131650000D03*
X119500000Y126350000D03*
X119500000Y131650000D03*
X121500000Y126350000D03*
X121500000Y131650000D03*
X123500000Y126350000D03*
X123500000Y131650000D03*
X125500000Y126350000D03*
X125500000Y131650000D03*
X127500000Y126350000D03*
X127500000Y131650000D03*
X129500000Y126350000D03*
X129500000Y131650000D03*
%TD*%
D15*
%TO.C,J3*%
X163000000Y129000000D03*
X147000000Y129000000D03*
D16*
X146000000Y126350000D03*
X146000000Y131650000D03*
X148000000Y126350000D03*
X148000000Y131650000D03*
X150000000Y126350000D03*
X150000000Y131650000D03*
X152000000Y126350000D03*
X152000000Y131650000D03*
X154000000Y126350000D03*
X154000000Y131650000D03*
X156000000Y126350000D03*
X156000000Y131650000D03*
X158000000Y126350000D03*
X158000000Y131650000D03*
X160000000Y126350000D03*
X160000000Y131650000D03*
X162000000Y126350000D03*
X162000000Y131650000D03*
X164000000Y126350000D03*
X164000000Y131650000D03*
%TD*%
D15*
%TO.C,J3*%
X25000000Y40000000D03*
X9000000Y40000000D03*
D16*
X8000000Y37350000D03*
X8000000Y42650000D03*
X10000000Y37350000D03*
X10000000Y42650000D03*
X12000000Y37350000D03*
X12000000Y42650000D03*
X14000000Y37350000D03*
X14000000Y42650000D03*
X16000000Y37350000D03*
X16000000Y42650000D03*
X18000000Y37350000D03*
X18000000Y42650000D03*
X20000000Y37350000D03*
X20000000Y42650000D03*
X22000000Y37350000D03*
X22000000Y42650000D03*
X24000000Y37350000D03*
X24000000Y42650000D03*
X26000000Y37350000D03*
X26000000Y42650000D03*
%TD*%
M02*
