%TF.GenerationSoftware,KiCad,Pcbnew,8.0.7*%
%TF.CreationDate,2025-03-20T16:55:48+00:00*%
%TF.ProjectId,SparkFun_GNSS_Flex_Module_mosaic-X5_panelized,53706172-6b46-4756-9e5f-474e53535f46,v10*%
%TF.SameCoordinates,Original*%
%TF.FileFunction,Soldermask,Bot*%
%TF.FilePolarity,Negative*%
%FSLAX46Y46*%
G04 Gerber Fmt 4.6, Leading zero omitted, Abs format (unit mm)*
G04 Created by KiCad (PCBNEW 8.0.7) date 2025-03-20 16:55:48*
%MOMM*%
%LPD*%
G01*
G04 APERTURE LIST*
%TA.AperFunction,Profile*%
%ADD10C,0.100000*%
%TD*%
%ADD11C,0.500000*%
%ADD12C,0.250000*%
G04 APERTURE END LIST*
D10*
X-500000Y103500000D02*
X89000000Y103500000D01*
X95350000Y-6850000D02*
X-6850000Y-6850000D01*
X-6850000Y-6850000D02*
X-6850000Y109850000D01*
X0Y68500000D02*
X44000000Y68500000D01*
X44000000Y34500000D01*
X0Y34500000D01*
X0Y68500000D01*
X-6850000Y109850000D02*
X95350000Y109850000D01*
X0Y103000000D02*
X44000000Y103000000D01*
X44000000Y69000000D01*
X0Y69000000D01*
X0Y103000000D01*
X-500000Y-500000D02*
X-500000Y103500000D01*
X0Y34000000D02*
X44000000Y34000000D01*
X44000000Y0D01*
X0Y0D01*
X0Y34000000D01*
X95350000Y109850000D02*
X95350000Y-6850000D01*
X44500000Y68500000D02*
X88500000Y68500000D01*
X88500000Y34500000D01*
X44500000Y34500000D01*
X44500000Y68500000D01*
X44500000Y34000000D02*
X88500000Y34000000D01*
X88500000Y0D01*
X44500000Y0D01*
X44500000Y34000000D01*
X89000000Y103500000D02*
X89000000Y-500000D01*
X89000000Y-500000D02*
X-500000Y-500000D01*
X44500000Y103000000D02*
X88500000Y103000000D01*
X88500000Y69000000D01*
X44500000Y69000000D01*
X44500000Y103000000D01*
D11*
X-7100000Y-250000D02*
X95600000Y-250000D01*
X-7100000Y103250000D02*
X95600000Y103250000D01*
X88750000Y110100000D02*
X88750000Y-7100000D01*
X-7100000Y34250000D02*
X95600000Y34250000D01*
X44250000Y110100000D02*
X44250000Y-7100000D01*
X-7100000Y68750000D02*
X95600000Y68750000D01*
X-250000Y110100000D02*
X-250000Y-7100000D01*
D12*
X-23073997Y69837762D02*
X-22407331Y67837762D01*
X-22407331Y67837762D02*
X-21740664Y69837762D01*
X-21073997Y68599667D02*
X-19550187Y68599667D01*
X-18693045Y67933000D02*
X-18407331Y67837762D01*
X-18407331Y67837762D02*
X-17931140Y67837762D01*
X-17931140Y67837762D02*
X-17740664Y67933000D01*
X-17740664Y67933000D02*
X-17645426Y68028239D01*
X-17645426Y68028239D02*
X-17550188Y68218715D01*
X-17550188Y68218715D02*
X-17550188Y68409191D01*
X-17550188Y68409191D02*
X-17645426Y68599667D01*
X-17645426Y68599667D02*
X-17740664Y68694905D01*
X-17740664Y68694905D02*
X-17931140Y68790143D01*
X-17931140Y68790143D02*
X-18312093Y68885381D01*
X-18312093Y68885381D02*
X-18502569Y68980620D01*
X-18502569Y68980620D02*
X-18597807Y69075858D01*
X-18597807Y69075858D02*
X-18693045Y69266334D01*
X-18693045Y69266334D02*
X-18693045Y69456810D01*
X-18693045Y69456810D02*
X-18597807Y69647286D01*
X-18597807Y69647286D02*
X-18502569Y69742524D01*
X-18502569Y69742524D02*
X-18312093Y69837762D01*
X-18312093Y69837762D02*
X-17835902Y69837762D01*
X-17835902Y69837762D02*
X-17550188Y69742524D01*
X-15550188Y68028239D02*
X-15645426Y67933000D01*
X-15645426Y67933000D02*
X-15931140Y67837762D01*
X-15931140Y67837762D02*
X-16121616Y67837762D01*
X-16121616Y67837762D02*
X-16407331Y67933000D01*
X-16407331Y67933000D02*
X-16597807Y68123477D01*
X-16597807Y68123477D02*
X-16693045Y68313953D01*
X-16693045Y68313953D02*
X-16788283Y68694905D01*
X-16788283Y68694905D02*
X-16788283Y68980620D01*
X-16788283Y68980620D02*
X-16693045Y69361572D01*
X-16693045Y69361572D02*
X-16597807Y69552048D01*
X-16597807Y69552048D02*
X-16407331Y69742524D01*
X-16407331Y69742524D02*
X-16121616Y69837762D01*
X-16121616Y69837762D02*
X-15931140Y69837762D01*
X-15931140Y69837762D02*
X-15645426Y69742524D01*
X-15645426Y69742524D02*
X-15550188Y69647286D01*
X-14312093Y69837762D02*
X-13931140Y69837762D01*
X-13931140Y69837762D02*
X-13740664Y69742524D01*
X-13740664Y69742524D02*
X-13550188Y69552048D01*
X-13550188Y69552048D02*
X-13454950Y69171096D01*
X-13454950Y69171096D02*
X-13454950Y68504429D01*
X-13454950Y68504429D02*
X-13550188Y68123477D01*
X-13550188Y68123477D02*
X-13740664Y67933000D01*
X-13740664Y67933000D02*
X-13931140Y67837762D01*
X-13931140Y67837762D02*
X-14312093Y67837762D01*
X-14312093Y67837762D02*
X-14502569Y67933000D01*
X-14502569Y67933000D02*
X-14693045Y68123477D01*
X-14693045Y68123477D02*
X-14788283Y68504429D01*
X-14788283Y68504429D02*
X-14788283Y69171096D01*
X-14788283Y69171096D02*
X-14693045Y69552048D01*
X-14693045Y69552048D02*
X-14502569Y69742524D01*
X-14502569Y69742524D02*
X-14312093Y69837762D01*
X-11454950Y67837762D02*
X-12121617Y68790143D01*
X-12597807Y67837762D02*
X-12597807Y69837762D01*
X-12597807Y69837762D02*
X-11835902Y69837762D01*
X-11835902Y69837762D02*
X-11645426Y69742524D01*
X-11645426Y69742524D02*
X-11550188Y69647286D01*
X-11550188Y69647286D02*
X-11454950Y69456810D01*
X-11454950Y69456810D02*
X-11454950Y69171096D01*
X-11454950Y69171096D02*
X-11550188Y68980620D01*
X-11550188Y68980620D02*
X-11645426Y68885381D01*
X-11645426Y68885381D02*
X-11835902Y68790143D01*
X-11835902Y68790143D02*
X-12597807Y68790143D01*
X-10597807Y68885381D02*
X-9931140Y68885381D01*
X-9645426Y67837762D02*
X-10597807Y67837762D01*
X-10597807Y67837762D02*
X-10597807Y69837762D01*
X-10597807Y69837762D02*
X-9645426Y69837762D01*
X-23073997Y837762D02*
X-22407331Y-1162238D01*
X-22407331Y-1162238D02*
X-21740664Y837762D01*
X-21073997Y-400333D02*
X-19550187Y-400333D01*
X-18693045Y-1067000D02*
X-18407331Y-1162238D01*
X-18407331Y-1162238D02*
X-17931140Y-1162238D01*
X-17931140Y-1162238D02*
X-17740664Y-1067000D01*
X-17740664Y-1067000D02*
X-17645426Y-971761D01*
X-17645426Y-971761D02*
X-17550188Y-781285D01*
X-17550188Y-781285D02*
X-17550188Y-590809D01*
X-17550188Y-590809D02*
X-17645426Y-400333D01*
X-17645426Y-400333D02*
X-17740664Y-305095D01*
X-17740664Y-305095D02*
X-17931140Y-209857D01*
X-17931140Y-209857D02*
X-18312093Y-114619D01*
X-18312093Y-114619D02*
X-18502569Y-19380D01*
X-18502569Y-19380D02*
X-18597807Y75858D01*
X-18597807Y75858D02*
X-18693045Y266334D01*
X-18693045Y266334D02*
X-18693045Y456810D01*
X-18693045Y456810D02*
X-18597807Y647286D01*
X-18597807Y647286D02*
X-18502569Y742524D01*
X-18502569Y742524D02*
X-18312093Y837762D01*
X-18312093Y837762D02*
X-17835902Y837762D01*
X-17835902Y837762D02*
X-17550188Y742524D01*
X-15550188Y-971761D02*
X-15645426Y-1067000D01*
X-15645426Y-1067000D02*
X-15931140Y-1162238D01*
X-15931140Y-1162238D02*
X-16121616Y-1162238D01*
X-16121616Y-1162238D02*
X-16407331Y-1067000D01*
X-16407331Y-1067000D02*
X-16597807Y-876523D01*
X-16597807Y-876523D02*
X-16693045Y-686047D01*
X-16693045Y-686047D02*
X-16788283Y-305095D01*
X-16788283Y-305095D02*
X-16788283Y-19380D01*
X-16788283Y-19380D02*
X-16693045Y361572D01*
X-16693045Y361572D02*
X-16597807Y552048D01*
X-16597807Y552048D02*
X-16407331Y742524D01*
X-16407331Y742524D02*
X-16121616Y837762D01*
X-16121616Y837762D02*
X-15931140Y837762D01*
X-15931140Y837762D02*
X-15645426Y742524D01*
X-15645426Y742524D02*
X-15550188Y647286D01*
X-14312093Y837762D02*
X-13931140Y837762D01*
X-13931140Y837762D02*
X-13740664Y742524D01*
X-13740664Y742524D02*
X-13550188Y552048D01*
X-13550188Y552048D02*
X-13454950Y171096D01*
X-13454950Y171096D02*
X-13454950Y-495571D01*
X-13454950Y-495571D02*
X-13550188Y-876523D01*
X-13550188Y-876523D02*
X-13740664Y-1067000D01*
X-13740664Y-1067000D02*
X-13931140Y-1162238D01*
X-13931140Y-1162238D02*
X-14312093Y-1162238D01*
X-14312093Y-1162238D02*
X-14502569Y-1067000D01*
X-14502569Y-1067000D02*
X-14693045Y-876523D01*
X-14693045Y-876523D02*
X-14788283Y-495571D01*
X-14788283Y-495571D02*
X-14788283Y171096D01*
X-14788283Y171096D02*
X-14693045Y552048D01*
X-14693045Y552048D02*
X-14502569Y742524D01*
X-14502569Y742524D02*
X-14312093Y837762D01*
X-11454950Y-1162238D02*
X-12121617Y-209857D01*
X-12597807Y-1162238D02*
X-12597807Y837762D01*
X-12597807Y837762D02*
X-11835902Y837762D01*
X-11835902Y837762D02*
X-11645426Y742524D01*
X-11645426Y742524D02*
X-11550188Y647286D01*
X-11550188Y647286D02*
X-11454950Y456810D01*
X-11454950Y456810D02*
X-11454950Y171096D01*
X-11454950Y171096D02*
X-11550188Y-19380D01*
X-11550188Y-19380D02*
X-11645426Y-114619D01*
X-11645426Y-114619D02*
X-11835902Y-209857D01*
X-11835902Y-209857D02*
X-12597807Y-209857D01*
X-10597807Y-114619D02*
X-9931140Y-114619D01*
X-9645426Y-1162238D02*
X-10597807Y-1162238D01*
X-10597807Y-1162238D02*
X-10597807Y837762D01*
X-10597807Y837762D02*
X-9645426Y837762D01*
X87662238Y112454950D02*
X89662238Y113121616D01*
X89662238Y113121616D02*
X87662238Y113788283D01*
X88900333Y114454950D02*
X88900333Y115978759D01*
X89567000Y116835902D02*
X89662238Y117121616D01*
X89662238Y117121616D02*
X89662238Y117597807D01*
X89662238Y117597807D02*
X89567000Y117788283D01*
X89567000Y117788283D02*
X89471761Y117883521D01*
X89471761Y117883521D02*
X89281285Y117978759D01*
X89281285Y117978759D02*
X89090809Y117978759D01*
X89090809Y117978759D02*
X88900333Y117883521D01*
X88900333Y117883521D02*
X88805095Y117788283D01*
X88805095Y117788283D02*
X88709857Y117597807D01*
X88709857Y117597807D02*
X88614619Y117216854D01*
X88614619Y117216854D02*
X88519380Y117026378D01*
X88519380Y117026378D02*
X88424142Y116931140D01*
X88424142Y116931140D02*
X88233666Y116835902D01*
X88233666Y116835902D02*
X88043190Y116835902D01*
X88043190Y116835902D02*
X87852714Y116931140D01*
X87852714Y116931140D02*
X87757476Y117026378D01*
X87757476Y117026378D02*
X87662238Y117216854D01*
X87662238Y117216854D02*
X87662238Y117693045D01*
X87662238Y117693045D02*
X87757476Y117978759D01*
X89471761Y119978759D02*
X89567000Y119883521D01*
X89567000Y119883521D02*
X89662238Y119597807D01*
X89662238Y119597807D02*
X89662238Y119407331D01*
X89662238Y119407331D02*
X89567000Y119121616D01*
X89567000Y119121616D02*
X89376523Y118931140D01*
X89376523Y118931140D02*
X89186047Y118835902D01*
X89186047Y118835902D02*
X88805095Y118740664D01*
X88805095Y118740664D02*
X88519380Y118740664D01*
X88519380Y118740664D02*
X88138428Y118835902D01*
X88138428Y118835902D02*
X87947952Y118931140D01*
X87947952Y118931140D02*
X87757476Y119121616D01*
X87757476Y119121616D02*
X87662238Y119407331D01*
X87662238Y119407331D02*
X87662238Y119597807D01*
X87662238Y119597807D02*
X87757476Y119883521D01*
X87757476Y119883521D02*
X87852714Y119978759D01*
X87662238Y121216854D02*
X87662238Y121597807D01*
X87662238Y121597807D02*
X87757476Y121788283D01*
X87757476Y121788283D02*
X87947952Y121978759D01*
X87947952Y121978759D02*
X88328904Y122073997D01*
X88328904Y122073997D02*
X88995571Y122073997D01*
X88995571Y122073997D02*
X89376523Y121978759D01*
X89376523Y121978759D02*
X89567000Y121788283D01*
X89567000Y121788283D02*
X89662238Y121597807D01*
X89662238Y121597807D02*
X89662238Y121216854D01*
X89662238Y121216854D02*
X89567000Y121026378D01*
X89567000Y121026378D02*
X89376523Y120835902D01*
X89376523Y120835902D02*
X88995571Y120740664D01*
X88995571Y120740664D02*
X88328904Y120740664D01*
X88328904Y120740664D02*
X87947952Y120835902D01*
X87947952Y120835902D02*
X87757476Y121026378D01*
X87757476Y121026378D02*
X87662238Y121216854D01*
X89662238Y124073997D02*
X88709857Y123407330D01*
X89662238Y122931140D02*
X87662238Y122931140D01*
X87662238Y122931140D02*
X87662238Y123693045D01*
X87662238Y123693045D02*
X87757476Y123883521D01*
X87757476Y123883521D02*
X87852714Y123978759D01*
X87852714Y123978759D02*
X88043190Y124073997D01*
X88043190Y124073997D02*
X88328904Y124073997D01*
X88328904Y124073997D02*
X88519380Y123978759D01*
X88519380Y123978759D02*
X88614619Y123883521D01*
X88614619Y123883521D02*
X88709857Y123693045D01*
X88709857Y123693045D02*
X88709857Y122931140D01*
X88614619Y124931139D02*
X88614619Y125597806D01*
X89662238Y125883520D02*
X89662238Y124931139D01*
X89662238Y124931139D02*
X87662238Y124931139D01*
X87662238Y124931139D02*
X87662238Y125883520D01*
X-23073997Y104337762D02*
X-22407331Y102337762D01*
X-22407331Y102337762D02*
X-21740664Y104337762D01*
X-21073997Y103099667D02*
X-19550187Y103099667D01*
X-18693045Y102433000D02*
X-18407331Y102337762D01*
X-18407331Y102337762D02*
X-17931140Y102337762D01*
X-17931140Y102337762D02*
X-17740664Y102433000D01*
X-17740664Y102433000D02*
X-17645426Y102528239D01*
X-17645426Y102528239D02*
X-17550188Y102718715D01*
X-17550188Y102718715D02*
X-17550188Y102909191D01*
X-17550188Y102909191D02*
X-17645426Y103099667D01*
X-17645426Y103099667D02*
X-17740664Y103194905D01*
X-17740664Y103194905D02*
X-17931140Y103290143D01*
X-17931140Y103290143D02*
X-18312093Y103385381D01*
X-18312093Y103385381D02*
X-18502569Y103480620D01*
X-18502569Y103480620D02*
X-18597807Y103575858D01*
X-18597807Y103575858D02*
X-18693045Y103766334D01*
X-18693045Y103766334D02*
X-18693045Y103956810D01*
X-18693045Y103956810D02*
X-18597807Y104147286D01*
X-18597807Y104147286D02*
X-18502569Y104242524D01*
X-18502569Y104242524D02*
X-18312093Y104337762D01*
X-18312093Y104337762D02*
X-17835902Y104337762D01*
X-17835902Y104337762D02*
X-17550188Y104242524D01*
X-15550188Y102528239D02*
X-15645426Y102433000D01*
X-15645426Y102433000D02*
X-15931140Y102337762D01*
X-15931140Y102337762D02*
X-16121616Y102337762D01*
X-16121616Y102337762D02*
X-16407331Y102433000D01*
X-16407331Y102433000D02*
X-16597807Y102623477D01*
X-16597807Y102623477D02*
X-16693045Y102813953D01*
X-16693045Y102813953D02*
X-16788283Y103194905D01*
X-16788283Y103194905D02*
X-16788283Y103480620D01*
X-16788283Y103480620D02*
X-16693045Y103861572D01*
X-16693045Y103861572D02*
X-16597807Y104052048D01*
X-16597807Y104052048D02*
X-16407331Y104242524D01*
X-16407331Y104242524D02*
X-16121616Y104337762D01*
X-16121616Y104337762D02*
X-15931140Y104337762D01*
X-15931140Y104337762D02*
X-15645426Y104242524D01*
X-15645426Y104242524D02*
X-15550188Y104147286D01*
X-14312093Y104337762D02*
X-13931140Y104337762D01*
X-13931140Y104337762D02*
X-13740664Y104242524D01*
X-13740664Y104242524D02*
X-13550188Y104052048D01*
X-13550188Y104052048D02*
X-13454950Y103671096D01*
X-13454950Y103671096D02*
X-13454950Y103004429D01*
X-13454950Y103004429D02*
X-13550188Y102623477D01*
X-13550188Y102623477D02*
X-13740664Y102433000D01*
X-13740664Y102433000D02*
X-13931140Y102337762D01*
X-13931140Y102337762D02*
X-14312093Y102337762D01*
X-14312093Y102337762D02*
X-14502569Y102433000D01*
X-14502569Y102433000D02*
X-14693045Y102623477D01*
X-14693045Y102623477D02*
X-14788283Y103004429D01*
X-14788283Y103004429D02*
X-14788283Y103671096D01*
X-14788283Y103671096D02*
X-14693045Y104052048D01*
X-14693045Y104052048D02*
X-14502569Y104242524D01*
X-14502569Y104242524D02*
X-14312093Y104337762D01*
X-11454950Y102337762D02*
X-12121617Y103290143D01*
X-12597807Y102337762D02*
X-12597807Y104337762D01*
X-12597807Y104337762D02*
X-11835902Y104337762D01*
X-11835902Y104337762D02*
X-11645426Y104242524D01*
X-11645426Y104242524D02*
X-11550188Y104147286D01*
X-11550188Y104147286D02*
X-11454950Y103956810D01*
X-11454950Y103956810D02*
X-11454950Y103671096D01*
X-11454950Y103671096D02*
X-11550188Y103480620D01*
X-11550188Y103480620D02*
X-11645426Y103385381D01*
X-11645426Y103385381D02*
X-11835902Y103290143D01*
X-11835902Y103290143D02*
X-12597807Y103290143D01*
X-10597807Y103385381D02*
X-9931140Y103385381D01*
X-9645426Y102337762D02*
X-10597807Y102337762D01*
X-10597807Y102337762D02*
X-10597807Y104337762D01*
X-10597807Y104337762D02*
X-9645426Y104337762D01*
X-23073997Y35337762D02*
X-22407331Y33337762D01*
X-22407331Y33337762D02*
X-21740664Y35337762D01*
X-21073997Y34099667D02*
X-19550187Y34099667D01*
X-18693045Y33433000D02*
X-18407331Y33337762D01*
X-18407331Y33337762D02*
X-17931140Y33337762D01*
X-17931140Y33337762D02*
X-17740664Y33433000D01*
X-17740664Y33433000D02*
X-17645426Y33528239D01*
X-17645426Y33528239D02*
X-17550188Y33718715D01*
X-17550188Y33718715D02*
X-17550188Y33909191D01*
X-17550188Y33909191D02*
X-17645426Y34099667D01*
X-17645426Y34099667D02*
X-17740664Y34194905D01*
X-17740664Y34194905D02*
X-17931140Y34290143D01*
X-17931140Y34290143D02*
X-18312093Y34385381D01*
X-18312093Y34385381D02*
X-18502569Y34480620D01*
X-18502569Y34480620D02*
X-18597807Y34575858D01*
X-18597807Y34575858D02*
X-18693045Y34766334D01*
X-18693045Y34766334D02*
X-18693045Y34956810D01*
X-18693045Y34956810D02*
X-18597807Y35147286D01*
X-18597807Y35147286D02*
X-18502569Y35242524D01*
X-18502569Y35242524D02*
X-18312093Y35337762D01*
X-18312093Y35337762D02*
X-17835902Y35337762D01*
X-17835902Y35337762D02*
X-17550188Y35242524D01*
X-15550188Y33528239D02*
X-15645426Y33433000D01*
X-15645426Y33433000D02*
X-15931140Y33337762D01*
X-15931140Y33337762D02*
X-16121616Y33337762D01*
X-16121616Y33337762D02*
X-16407331Y33433000D01*
X-16407331Y33433000D02*
X-16597807Y33623477D01*
X-16597807Y33623477D02*
X-16693045Y33813953D01*
X-16693045Y33813953D02*
X-16788283Y34194905D01*
X-16788283Y34194905D02*
X-16788283Y34480620D01*
X-16788283Y34480620D02*
X-16693045Y34861572D01*
X-16693045Y34861572D02*
X-16597807Y35052048D01*
X-16597807Y35052048D02*
X-16407331Y35242524D01*
X-16407331Y35242524D02*
X-16121616Y35337762D01*
X-16121616Y35337762D02*
X-15931140Y35337762D01*
X-15931140Y35337762D02*
X-15645426Y35242524D01*
X-15645426Y35242524D02*
X-15550188Y35147286D01*
X-14312093Y35337762D02*
X-13931140Y35337762D01*
X-13931140Y35337762D02*
X-13740664Y35242524D01*
X-13740664Y35242524D02*
X-13550188Y35052048D01*
X-13550188Y35052048D02*
X-13454950Y34671096D01*
X-13454950Y34671096D02*
X-13454950Y34004429D01*
X-13454950Y34004429D02*
X-13550188Y33623477D01*
X-13550188Y33623477D02*
X-13740664Y33433000D01*
X-13740664Y33433000D02*
X-13931140Y33337762D01*
X-13931140Y33337762D02*
X-14312093Y33337762D01*
X-14312093Y33337762D02*
X-14502569Y33433000D01*
X-14502569Y33433000D02*
X-14693045Y33623477D01*
X-14693045Y33623477D02*
X-14788283Y34004429D01*
X-14788283Y34004429D02*
X-14788283Y34671096D01*
X-14788283Y34671096D02*
X-14693045Y35052048D01*
X-14693045Y35052048D02*
X-14502569Y35242524D01*
X-14502569Y35242524D02*
X-14312093Y35337762D01*
X-11454950Y33337762D02*
X-12121617Y34290143D01*
X-12597807Y33337762D02*
X-12597807Y35337762D01*
X-12597807Y35337762D02*
X-11835902Y35337762D01*
X-11835902Y35337762D02*
X-11645426Y35242524D01*
X-11645426Y35242524D02*
X-11550188Y35147286D01*
X-11550188Y35147286D02*
X-11454950Y34956810D01*
X-11454950Y34956810D02*
X-11454950Y34671096D01*
X-11454950Y34671096D02*
X-11550188Y34480620D01*
X-11550188Y34480620D02*
X-11645426Y34385381D01*
X-11645426Y34385381D02*
X-11835902Y34290143D01*
X-11835902Y34290143D02*
X-12597807Y34290143D01*
X-10597807Y34385381D02*
X-9931140Y34385381D01*
X-9645426Y33337762D02*
X-10597807Y33337762D01*
X-10597807Y33337762D02*
X-10597807Y35337762D01*
X-10597807Y35337762D02*
X-9645426Y35337762D01*
X43162238Y112454950D02*
X45162238Y113121616D01*
X45162238Y113121616D02*
X43162238Y113788283D01*
X44400333Y114454950D02*
X44400333Y115978759D01*
X45067000Y116835902D02*
X45162238Y117121616D01*
X45162238Y117121616D02*
X45162238Y117597807D01*
X45162238Y117597807D02*
X45067000Y117788283D01*
X45067000Y117788283D02*
X44971761Y117883521D01*
X44971761Y117883521D02*
X44781285Y117978759D01*
X44781285Y117978759D02*
X44590809Y117978759D01*
X44590809Y117978759D02*
X44400333Y117883521D01*
X44400333Y117883521D02*
X44305095Y117788283D01*
X44305095Y117788283D02*
X44209857Y117597807D01*
X44209857Y117597807D02*
X44114619Y117216854D01*
X44114619Y117216854D02*
X44019380Y117026378D01*
X44019380Y117026378D02*
X43924142Y116931140D01*
X43924142Y116931140D02*
X43733666Y116835902D01*
X43733666Y116835902D02*
X43543190Y116835902D01*
X43543190Y116835902D02*
X43352714Y116931140D01*
X43352714Y116931140D02*
X43257476Y117026378D01*
X43257476Y117026378D02*
X43162238Y117216854D01*
X43162238Y117216854D02*
X43162238Y117693045D01*
X43162238Y117693045D02*
X43257476Y117978759D01*
X44971761Y119978759D02*
X45067000Y119883521D01*
X45067000Y119883521D02*
X45162238Y119597807D01*
X45162238Y119597807D02*
X45162238Y119407331D01*
X45162238Y119407331D02*
X45067000Y119121616D01*
X45067000Y119121616D02*
X44876523Y118931140D01*
X44876523Y118931140D02*
X44686047Y118835902D01*
X44686047Y118835902D02*
X44305095Y118740664D01*
X44305095Y118740664D02*
X44019380Y118740664D01*
X44019380Y118740664D02*
X43638428Y118835902D01*
X43638428Y118835902D02*
X43447952Y118931140D01*
X43447952Y118931140D02*
X43257476Y119121616D01*
X43257476Y119121616D02*
X43162238Y119407331D01*
X43162238Y119407331D02*
X43162238Y119597807D01*
X43162238Y119597807D02*
X43257476Y119883521D01*
X43257476Y119883521D02*
X43352714Y119978759D01*
X43162238Y121216854D02*
X43162238Y121597807D01*
X43162238Y121597807D02*
X43257476Y121788283D01*
X43257476Y121788283D02*
X43447952Y121978759D01*
X43447952Y121978759D02*
X43828904Y122073997D01*
X43828904Y122073997D02*
X44495571Y122073997D01*
X44495571Y122073997D02*
X44876523Y121978759D01*
X44876523Y121978759D02*
X45067000Y121788283D01*
X45067000Y121788283D02*
X45162238Y121597807D01*
X45162238Y121597807D02*
X45162238Y121216854D01*
X45162238Y121216854D02*
X45067000Y121026378D01*
X45067000Y121026378D02*
X44876523Y120835902D01*
X44876523Y120835902D02*
X44495571Y120740664D01*
X44495571Y120740664D02*
X43828904Y120740664D01*
X43828904Y120740664D02*
X43447952Y120835902D01*
X43447952Y120835902D02*
X43257476Y121026378D01*
X43257476Y121026378D02*
X43162238Y121216854D01*
X45162238Y124073997D02*
X44209857Y123407330D01*
X45162238Y122931140D02*
X43162238Y122931140D01*
X43162238Y122931140D02*
X43162238Y123693045D01*
X43162238Y123693045D02*
X43257476Y123883521D01*
X43257476Y123883521D02*
X43352714Y123978759D01*
X43352714Y123978759D02*
X43543190Y124073997D01*
X43543190Y124073997D02*
X43828904Y124073997D01*
X43828904Y124073997D02*
X44019380Y123978759D01*
X44019380Y123978759D02*
X44114619Y123883521D01*
X44114619Y123883521D02*
X44209857Y123693045D01*
X44209857Y123693045D02*
X44209857Y122931140D01*
X44114619Y124931139D02*
X44114619Y125597806D01*
X45162238Y125883520D02*
X45162238Y124931139D01*
X45162238Y124931139D02*
X43162238Y124931139D01*
X43162238Y124931139D02*
X43162238Y125883520D01*
X-1337762Y112454950D02*
X662238Y113121616D01*
X662238Y113121616D02*
X-1337762Y113788283D01*
X-99667Y114454950D02*
X-99667Y115978759D01*
X567000Y116835902D02*
X662238Y117121616D01*
X662238Y117121616D02*
X662238Y117597807D01*
X662238Y117597807D02*
X567000Y117788283D01*
X567000Y117788283D02*
X471761Y117883521D01*
X471761Y117883521D02*
X281285Y117978759D01*
X281285Y117978759D02*
X90809Y117978759D01*
X90809Y117978759D02*
X-99667Y117883521D01*
X-99667Y117883521D02*
X-194905Y117788283D01*
X-194905Y117788283D02*
X-290143Y117597807D01*
X-290143Y117597807D02*
X-385381Y117216854D01*
X-385381Y117216854D02*
X-480620Y117026378D01*
X-480620Y117026378D02*
X-575858Y116931140D01*
X-575858Y116931140D02*
X-766334Y116835902D01*
X-766334Y116835902D02*
X-956810Y116835902D01*
X-956810Y116835902D02*
X-1147286Y116931140D01*
X-1147286Y116931140D02*
X-1242524Y117026378D01*
X-1242524Y117026378D02*
X-1337762Y117216854D01*
X-1337762Y117216854D02*
X-1337762Y117693045D01*
X-1337762Y117693045D02*
X-1242524Y117978759D01*
X471761Y119978759D02*
X567000Y119883521D01*
X567000Y119883521D02*
X662238Y119597807D01*
X662238Y119597807D02*
X662238Y119407331D01*
X662238Y119407331D02*
X567000Y119121616D01*
X567000Y119121616D02*
X376523Y118931140D01*
X376523Y118931140D02*
X186047Y118835902D01*
X186047Y118835902D02*
X-194905Y118740664D01*
X-194905Y118740664D02*
X-480620Y118740664D01*
X-480620Y118740664D02*
X-861572Y118835902D01*
X-861572Y118835902D02*
X-1052048Y118931140D01*
X-1052048Y118931140D02*
X-1242524Y119121616D01*
X-1242524Y119121616D02*
X-1337762Y119407331D01*
X-1337762Y119407331D02*
X-1337762Y119597807D01*
X-1337762Y119597807D02*
X-1242524Y119883521D01*
X-1242524Y119883521D02*
X-1147286Y119978759D01*
X-1337762Y121216854D02*
X-1337762Y121597807D01*
X-1337762Y121597807D02*
X-1242524Y121788283D01*
X-1242524Y121788283D02*
X-1052048Y121978759D01*
X-1052048Y121978759D02*
X-671096Y122073997D01*
X-671096Y122073997D02*
X-4429Y122073997D01*
X-4429Y122073997D02*
X376523Y121978759D01*
X376523Y121978759D02*
X567000Y121788283D01*
X567000Y121788283D02*
X662238Y121597807D01*
X662238Y121597807D02*
X662238Y121216854D01*
X662238Y121216854D02*
X567000Y121026378D01*
X567000Y121026378D02*
X376523Y120835902D01*
X376523Y120835902D02*
X-4429Y120740664D01*
X-4429Y120740664D02*
X-671096Y120740664D01*
X-671096Y120740664D02*
X-1052048Y120835902D01*
X-1052048Y120835902D02*
X-1242524Y121026378D01*
X-1242524Y121026378D02*
X-1337762Y121216854D01*
X662238Y124073997D02*
X-290143Y123407330D01*
X662238Y122931140D02*
X-1337762Y122931140D01*
X-1337762Y122931140D02*
X-1337762Y123693045D01*
X-1337762Y123693045D02*
X-1242524Y123883521D01*
X-1242524Y123883521D02*
X-1147286Y123978759D01*
X-1147286Y123978759D02*
X-956810Y124073997D01*
X-956810Y124073997D02*
X-671096Y124073997D01*
X-671096Y124073997D02*
X-480620Y123978759D01*
X-480620Y123978759D02*
X-385381Y123883521D01*
X-385381Y123883521D02*
X-290143Y123693045D01*
X-290143Y123693045D02*
X-290143Y122931140D01*
X-385381Y124931139D02*
X-385381Y125597806D01*
X662238Y125883520D02*
X662238Y124931139D01*
X662238Y124931139D02*
X-1337762Y124931139D01*
X-1337762Y124931139D02*
X-1337762Y125883520D01*
M02*
