%TF.GenerationSoftware,KiCad,Pcbnew,9.0.0*%
%TF.CreationDate,2025-04-03T11:10:05-06:00*%
%TF.ProjectId,SparkFun_GNSS_Flex_Module_LG580P_panelized,53706172-6b46-4756-9e5f-474e53535f46,v10*%
%TF.SameCoordinates,Original*%
%TF.FileFunction,Soldermask,Bot*%
%TF.FilePolarity,Negative*%
%FSLAX46Y46*%
G04 Gerber Fmt 4.6, Leading zero omitted, Abs format (unit mm)*
G04 Created by KiCad (PCBNEW 9.0.0) date 2025-04-03 11:10:05*
%MOMM*%
%LPD*%
G01*
G04 APERTURE LIST*
%TA.AperFunction,Profile*%
%ADD10C,0.100000*%
%TD*%
%ADD11C,0.250000*%
%ADD12C,0.500000*%
G04 APERTURE END LIST*
D10*
X-500000Y-500000D02*
X-500000Y89000000D01*
X103500000Y-500000D02*
X-500000Y-500000D01*
X103500000Y89000000D02*
X103500000Y-500000D01*
X-500000Y89000000D02*
X103500000Y89000000D01*
X-6850000Y-6850000D02*
X-6850000Y95350000D01*
X109850000Y-6850000D02*
X-6850000Y-6850000D01*
X109850000Y95350000D02*
X109850000Y-6850000D01*
X-6850000Y95350000D02*
X109850000Y95350000D01*
X69000000Y88500000D02*
X103000000Y88500000D01*
X103000000Y44500000D01*
X69000000Y44500000D01*
X69000000Y88500000D01*
X69000000Y44000000D02*
X103000000Y44000000D01*
X103000000Y0D01*
X69000000Y0D01*
X69000000Y44000000D01*
X34500000Y88500000D02*
X68500000Y88500000D01*
X68500000Y44500000D01*
X34500000Y44500000D01*
X34500000Y88500000D01*
X34500000Y44000000D02*
X68500000Y44000000D01*
X68500000Y0D01*
X34500000Y0D01*
X34500000Y44000000D01*
X0Y88500000D02*
X34000000Y88500000D01*
X34000000Y44500000D01*
X0Y44500000D01*
X0Y88500000D01*
X0Y44000000D02*
X34000000Y44000000D01*
X34000000Y0D01*
X0Y0D01*
X0Y44000000D01*
D11*
X-23073997Y837762D02*
X-22407331Y-1162238D01*
X-22407331Y-1162238D02*
X-21740664Y837762D01*
X-21073997Y-400333D02*
X-19550187Y-400333D01*
X-18693045Y-1067000D02*
X-18407331Y-1162238D01*
X-18407331Y-1162238D02*
X-17931140Y-1162238D01*
X-17931140Y-1162238D02*
X-17740664Y-1067000D01*
X-17740664Y-1067000D02*
X-17645426Y-971761D01*
X-17645426Y-971761D02*
X-17550188Y-781285D01*
X-17550188Y-781285D02*
X-17550188Y-590809D01*
X-17550188Y-590809D02*
X-17645426Y-400333D01*
X-17645426Y-400333D02*
X-17740664Y-305095D01*
X-17740664Y-305095D02*
X-17931140Y-209857D01*
X-17931140Y-209857D02*
X-18312093Y-114619D01*
X-18312093Y-114619D02*
X-18502569Y-19380D01*
X-18502569Y-19380D02*
X-18597807Y75858D01*
X-18597807Y75858D02*
X-18693045Y266334D01*
X-18693045Y266334D02*
X-18693045Y456810D01*
X-18693045Y456810D02*
X-18597807Y647286D01*
X-18597807Y647286D02*
X-18502569Y742524D01*
X-18502569Y742524D02*
X-18312093Y837762D01*
X-18312093Y837762D02*
X-17835902Y837762D01*
X-17835902Y837762D02*
X-17550188Y742524D01*
X-15550188Y-971761D02*
X-15645426Y-1067000D01*
X-15645426Y-1067000D02*
X-15931140Y-1162238D01*
X-15931140Y-1162238D02*
X-16121616Y-1162238D01*
X-16121616Y-1162238D02*
X-16407331Y-1067000D01*
X-16407331Y-1067000D02*
X-16597807Y-876523D01*
X-16597807Y-876523D02*
X-16693045Y-686047D01*
X-16693045Y-686047D02*
X-16788283Y-305095D01*
X-16788283Y-305095D02*
X-16788283Y-19380D01*
X-16788283Y-19380D02*
X-16693045Y361572D01*
X-16693045Y361572D02*
X-16597807Y552048D01*
X-16597807Y552048D02*
X-16407331Y742524D01*
X-16407331Y742524D02*
X-16121616Y837762D01*
X-16121616Y837762D02*
X-15931140Y837762D01*
X-15931140Y837762D02*
X-15645426Y742524D01*
X-15645426Y742524D02*
X-15550188Y647286D01*
X-14312093Y837762D02*
X-13931140Y837762D01*
X-13931140Y837762D02*
X-13740664Y742524D01*
X-13740664Y742524D02*
X-13550188Y552048D01*
X-13550188Y552048D02*
X-13454950Y171096D01*
X-13454950Y171096D02*
X-13454950Y-495571D01*
X-13454950Y-495571D02*
X-13550188Y-876523D01*
X-13550188Y-876523D02*
X-13740664Y-1067000D01*
X-13740664Y-1067000D02*
X-13931140Y-1162238D01*
X-13931140Y-1162238D02*
X-14312093Y-1162238D01*
X-14312093Y-1162238D02*
X-14502569Y-1067000D01*
X-14502569Y-1067000D02*
X-14693045Y-876523D01*
X-14693045Y-876523D02*
X-14788283Y-495571D01*
X-14788283Y-495571D02*
X-14788283Y171096D01*
X-14788283Y171096D02*
X-14693045Y552048D01*
X-14693045Y552048D02*
X-14502569Y742524D01*
X-14502569Y742524D02*
X-14312093Y837762D01*
X-11454950Y-1162238D02*
X-12121617Y-209857D01*
X-12597807Y-1162238D02*
X-12597807Y837762D01*
X-12597807Y837762D02*
X-11835902Y837762D01*
X-11835902Y837762D02*
X-11645426Y742524D01*
X-11645426Y742524D02*
X-11550188Y647286D01*
X-11550188Y647286D02*
X-11454950Y456810D01*
X-11454950Y456810D02*
X-11454950Y171096D01*
X-11454950Y171096D02*
X-11550188Y-19380D01*
X-11550188Y-19380D02*
X-11645426Y-114619D01*
X-11645426Y-114619D02*
X-11835902Y-209857D01*
X-11835902Y-209857D02*
X-12597807Y-209857D01*
X-10597807Y-114619D02*
X-9931140Y-114619D01*
X-9645426Y-1162238D02*
X-10597807Y-1162238D01*
X-10597807Y-1162238D02*
X-10597807Y837762D01*
X-10597807Y837762D02*
X-9645426Y837762D01*
D12*
X-7100000Y-250000D02*
X110100000Y-250000D01*
D11*
X-23073997Y45337762D02*
X-22407331Y43337762D01*
X-22407331Y43337762D02*
X-21740664Y45337762D01*
X-21073997Y44099667D02*
X-19550187Y44099667D01*
X-18693045Y43433000D02*
X-18407331Y43337762D01*
X-18407331Y43337762D02*
X-17931140Y43337762D01*
X-17931140Y43337762D02*
X-17740664Y43433000D01*
X-17740664Y43433000D02*
X-17645426Y43528239D01*
X-17645426Y43528239D02*
X-17550188Y43718715D01*
X-17550188Y43718715D02*
X-17550188Y43909191D01*
X-17550188Y43909191D02*
X-17645426Y44099667D01*
X-17645426Y44099667D02*
X-17740664Y44194905D01*
X-17740664Y44194905D02*
X-17931140Y44290143D01*
X-17931140Y44290143D02*
X-18312093Y44385381D01*
X-18312093Y44385381D02*
X-18502569Y44480620D01*
X-18502569Y44480620D02*
X-18597807Y44575858D01*
X-18597807Y44575858D02*
X-18693045Y44766334D01*
X-18693045Y44766334D02*
X-18693045Y44956810D01*
X-18693045Y44956810D02*
X-18597807Y45147286D01*
X-18597807Y45147286D02*
X-18502569Y45242524D01*
X-18502569Y45242524D02*
X-18312093Y45337762D01*
X-18312093Y45337762D02*
X-17835902Y45337762D01*
X-17835902Y45337762D02*
X-17550188Y45242524D01*
X-15550188Y43528239D02*
X-15645426Y43433000D01*
X-15645426Y43433000D02*
X-15931140Y43337762D01*
X-15931140Y43337762D02*
X-16121616Y43337762D01*
X-16121616Y43337762D02*
X-16407331Y43433000D01*
X-16407331Y43433000D02*
X-16597807Y43623477D01*
X-16597807Y43623477D02*
X-16693045Y43813953D01*
X-16693045Y43813953D02*
X-16788283Y44194905D01*
X-16788283Y44194905D02*
X-16788283Y44480620D01*
X-16788283Y44480620D02*
X-16693045Y44861572D01*
X-16693045Y44861572D02*
X-16597807Y45052048D01*
X-16597807Y45052048D02*
X-16407331Y45242524D01*
X-16407331Y45242524D02*
X-16121616Y45337762D01*
X-16121616Y45337762D02*
X-15931140Y45337762D01*
X-15931140Y45337762D02*
X-15645426Y45242524D01*
X-15645426Y45242524D02*
X-15550188Y45147286D01*
X-14312093Y45337762D02*
X-13931140Y45337762D01*
X-13931140Y45337762D02*
X-13740664Y45242524D01*
X-13740664Y45242524D02*
X-13550188Y45052048D01*
X-13550188Y45052048D02*
X-13454950Y44671096D01*
X-13454950Y44671096D02*
X-13454950Y44004429D01*
X-13454950Y44004429D02*
X-13550188Y43623477D01*
X-13550188Y43623477D02*
X-13740664Y43433000D01*
X-13740664Y43433000D02*
X-13931140Y43337762D01*
X-13931140Y43337762D02*
X-14312093Y43337762D01*
X-14312093Y43337762D02*
X-14502569Y43433000D01*
X-14502569Y43433000D02*
X-14693045Y43623477D01*
X-14693045Y43623477D02*
X-14788283Y44004429D01*
X-14788283Y44004429D02*
X-14788283Y44671096D01*
X-14788283Y44671096D02*
X-14693045Y45052048D01*
X-14693045Y45052048D02*
X-14502569Y45242524D01*
X-14502569Y45242524D02*
X-14312093Y45337762D01*
X-11454950Y43337762D02*
X-12121617Y44290143D01*
X-12597807Y43337762D02*
X-12597807Y45337762D01*
X-12597807Y45337762D02*
X-11835902Y45337762D01*
X-11835902Y45337762D02*
X-11645426Y45242524D01*
X-11645426Y45242524D02*
X-11550188Y45147286D01*
X-11550188Y45147286D02*
X-11454950Y44956810D01*
X-11454950Y44956810D02*
X-11454950Y44671096D01*
X-11454950Y44671096D02*
X-11550188Y44480620D01*
X-11550188Y44480620D02*
X-11645426Y44385381D01*
X-11645426Y44385381D02*
X-11835902Y44290143D01*
X-11835902Y44290143D02*
X-12597807Y44290143D01*
X-10597807Y44385381D02*
X-9931140Y44385381D01*
X-9645426Y43337762D02*
X-10597807Y43337762D01*
X-10597807Y43337762D02*
X-10597807Y45337762D01*
X-10597807Y45337762D02*
X-9645426Y45337762D01*
D12*
X-7100000Y44250000D02*
X110100000Y44250000D01*
D11*
X-23073997Y89837762D02*
X-22407331Y87837762D01*
X-22407331Y87837762D02*
X-21740664Y89837762D01*
X-21073997Y88599667D02*
X-19550187Y88599667D01*
X-18693045Y87933000D02*
X-18407331Y87837762D01*
X-18407331Y87837762D02*
X-17931140Y87837762D01*
X-17931140Y87837762D02*
X-17740664Y87933000D01*
X-17740664Y87933000D02*
X-17645426Y88028239D01*
X-17645426Y88028239D02*
X-17550188Y88218715D01*
X-17550188Y88218715D02*
X-17550188Y88409191D01*
X-17550188Y88409191D02*
X-17645426Y88599667D01*
X-17645426Y88599667D02*
X-17740664Y88694905D01*
X-17740664Y88694905D02*
X-17931140Y88790143D01*
X-17931140Y88790143D02*
X-18312093Y88885381D01*
X-18312093Y88885381D02*
X-18502569Y88980620D01*
X-18502569Y88980620D02*
X-18597807Y89075858D01*
X-18597807Y89075858D02*
X-18693045Y89266334D01*
X-18693045Y89266334D02*
X-18693045Y89456810D01*
X-18693045Y89456810D02*
X-18597807Y89647286D01*
X-18597807Y89647286D02*
X-18502569Y89742524D01*
X-18502569Y89742524D02*
X-18312093Y89837762D01*
X-18312093Y89837762D02*
X-17835902Y89837762D01*
X-17835902Y89837762D02*
X-17550188Y89742524D01*
X-15550188Y88028239D02*
X-15645426Y87933000D01*
X-15645426Y87933000D02*
X-15931140Y87837762D01*
X-15931140Y87837762D02*
X-16121616Y87837762D01*
X-16121616Y87837762D02*
X-16407331Y87933000D01*
X-16407331Y87933000D02*
X-16597807Y88123477D01*
X-16597807Y88123477D02*
X-16693045Y88313953D01*
X-16693045Y88313953D02*
X-16788283Y88694905D01*
X-16788283Y88694905D02*
X-16788283Y88980620D01*
X-16788283Y88980620D02*
X-16693045Y89361572D01*
X-16693045Y89361572D02*
X-16597807Y89552048D01*
X-16597807Y89552048D02*
X-16407331Y89742524D01*
X-16407331Y89742524D02*
X-16121616Y89837762D01*
X-16121616Y89837762D02*
X-15931140Y89837762D01*
X-15931140Y89837762D02*
X-15645426Y89742524D01*
X-15645426Y89742524D02*
X-15550188Y89647286D01*
X-14312093Y89837762D02*
X-13931140Y89837762D01*
X-13931140Y89837762D02*
X-13740664Y89742524D01*
X-13740664Y89742524D02*
X-13550188Y89552048D01*
X-13550188Y89552048D02*
X-13454950Y89171096D01*
X-13454950Y89171096D02*
X-13454950Y88504429D01*
X-13454950Y88504429D02*
X-13550188Y88123477D01*
X-13550188Y88123477D02*
X-13740664Y87933000D01*
X-13740664Y87933000D02*
X-13931140Y87837762D01*
X-13931140Y87837762D02*
X-14312093Y87837762D01*
X-14312093Y87837762D02*
X-14502569Y87933000D01*
X-14502569Y87933000D02*
X-14693045Y88123477D01*
X-14693045Y88123477D02*
X-14788283Y88504429D01*
X-14788283Y88504429D02*
X-14788283Y89171096D01*
X-14788283Y89171096D02*
X-14693045Y89552048D01*
X-14693045Y89552048D02*
X-14502569Y89742524D01*
X-14502569Y89742524D02*
X-14312093Y89837762D01*
X-11454950Y87837762D02*
X-12121617Y88790143D01*
X-12597807Y87837762D02*
X-12597807Y89837762D01*
X-12597807Y89837762D02*
X-11835902Y89837762D01*
X-11835902Y89837762D02*
X-11645426Y89742524D01*
X-11645426Y89742524D02*
X-11550188Y89647286D01*
X-11550188Y89647286D02*
X-11454950Y89456810D01*
X-11454950Y89456810D02*
X-11454950Y89171096D01*
X-11454950Y89171096D02*
X-11550188Y88980620D01*
X-11550188Y88980620D02*
X-11645426Y88885381D01*
X-11645426Y88885381D02*
X-11835902Y88790143D01*
X-11835902Y88790143D02*
X-12597807Y88790143D01*
X-10597807Y88885381D02*
X-9931140Y88885381D01*
X-9645426Y87837762D02*
X-10597807Y87837762D01*
X-10597807Y87837762D02*
X-10597807Y89837762D01*
X-10597807Y89837762D02*
X-9645426Y89837762D01*
D12*
X-7100000Y88750000D02*
X110100000Y88750000D01*
D11*
X102162238Y97954950D02*
X104162238Y98621616D01*
X104162238Y98621616D02*
X102162238Y99288283D01*
X103400333Y99954950D02*
X103400333Y101478759D01*
X104067000Y102335902D02*
X104162238Y102621616D01*
X104162238Y102621616D02*
X104162238Y103097807D01*
X104162238Y103097807D02*
X104067000Y103288283D01*
X104067000Y103288283D02*
X103971761Y103383521D01*
X103971761Y103383521D02*
X103781285Y103478759D01*
X103781285Y103478759D02*
X103590809Y103478759D01*
X103590809Y103478759D02*
X103400333Y103383521D01*
X103400333Y103383521D02*
X103305095Y103288283D01*
X103305095Y103288283D02*
X103209857Y103097807D01*
X103209857Y103097807D02*
X103114619Y102716854D01*
X103114619Y102716854D02*
X103019380Y102526378D01*
X103019380Y102526378D02*
X102924142Y102431140D01*
X102924142Y102431140D02*
X102733666Y102335902D01*
X102733666Y102335902D02*
X102543190Y102335902D01*
X102543190Y102335902D02*
X102352714Y102431140D01*
X102352714Y102431140D02*
X102257476Y102526378D01*
X102257476Y102526378D02*
X102162238Y102716854D01*
X102162238Y102716854D02*
X102162238Y103193045D01*
X102162238Y103193045D02*
X102257476Y103478759D01*
X103971761Y105478759D02*
X104067000Y105383521D01*
X104067000Y105383521D02*
X104162238Y105097807D01*
X104162238Y105097807D02*
X104162238Y104907331D01*
X104162238Y104907331D02*
X104067000Y104621616D01*
X104067000Y104621616D02*
X103876523Y104431140D01*
X103876523Y104431140D02*
X103686047Y104335902D01*
X103686047Y104335902D02*
X103305095Y104240664D01*
X103305095Y104240664D02*
X103019380Y104240664D01*
X103019380Y104240664D02*
X102638428Y104335902D01*
X102638428Y104335902D02*
X102447952Y104431140D01*
X102447952Y104431140D02*
X102257476Y104621616D01*
X102257476Y104621616D02*
X102162238Y104907331D01*
X102162238Y104907331D02*
X102162238Y105097807D01*
X102162238Y105097807D02*
X102257476Y105383521D01*
X102257476Y105383521D02*
X102352714Y105478759D01*
X102162238Y106716854D02*
X102162238Y107097807D01*
X102162238Y107097807D02*
X102257476Y107288283D01*
X102257476Y107288283D02*
X102447952Y107478759D01*
X102447952Y107478759D02*
X102828904Y107573997D01*
X102828904Y107573997D02*
X103495571Y107573997D01*
X103495571Y107573997D02*
X103876523Y107478759D01*
X103876523Y107478759D02*
X104067000Y107288283D01*
X104067000Y107288283D02*
X104162238Y107097807D01*
X104162238Y107097807D02*
X104162238Y106716854D01*
X104162238Y106716854D02*
X104067000Y106526378D01*
X104067000Y106526378D02*
X103876523Y106335902D01*
X103876523Y106335902D02*
X103495571Y106240664D01*
X103495571Y106240664D02*
X102828904Y106240664D01*
X102828904Y106240664D02*
X102447952Y106335902D01*
X102447952Y106335902D02*
X102257476Y106526378D01*
X102257476Y106526378D02*
X102162238Y106716854D01*
X104162238Y109573997D02*
X103209857Y108907330D01*
X104162238Y108431140D02*
X102162238Y108431140D01*
X102162238Y108431140D02*
X102162238Y109193045D01*
X102162238Y109193045D02*
X102257476Y109383521D01*
X102257476Y109383521D02*
X102352714Y109478759D01*
X102352714Y109478759D02*
X102543190Y109573997D01*
X102543190Y109573997D02*
X102828904Y109573997D01*
X102828904Y109573997D02*
X103019380Y109478759D01*
X103019380Y109478759D02*
X103114619Y109383521D01*
X103114619Y109383521D02*
X103209857Y109193045D01*
X103209857Y109193045D02*
X103209857Y108431140D01*
X103114619Y110431140D02*
X103114619Y111097807D01*
X104162238Y111383521D02*
X104162238Y110431140D01*
X104162238Y110431140D02*
X102162238Y110431140D01*
X102162238Y110431140D02*
X102162238Y111383521D01*
D12*
X103250000Y95600000D02*
X103250000Y-7100000D01*
D11*
X67662238Y97954950D02*
X69662238Y98621616D01*
X69662238Y98621616D02*
X67662238Y99288283D01*
X68900333Y99954950D02*
X68900333Y101478759D01*
X69567000Y102335902D02*
X69662238Y102621616D01*
X69662238Y102621616D02*
X69662238Y103097807D01*
X69662238Y103097807D02*
X69567000Y103288283D01*
X69567000Y103288283D02*
X69471761Y103383521D01*
X69471761Y103383521D02*
X69281285Y103478759D01*
X69281285Y103478759D02*
X69090809Y103478759D01*
X69090809Y103478759D02*
X68900333Y103383521D01*
X68900333Y103383521D02*
X68805095Y103288283D01*
X68805095Y103288283D02*
X68709857Y103097807D01*
X68709857Y103097807D02*
X68614619Y102716854D01*
X68614619Y102716854D02*
X68519380Y102526378D01*
X68519380Y102526378D02*
X68424142Y102431140D01*
X68424142Y102431140D02*
X68233666Y102335902D01*
X68233666Y102335902D02*
X68043190Y102335902D01*
X68043190Y102335902D02*
X67852714Y102431140D01*
X67852714Y102431140D02*
X67757476Y102526378D01*
X67757476Y102526378D02*
X67662238Y102716854D01*
X67662238Y102716854D02*
X67662238Y103193045D01*
X67662238Y103193045D02*
X67757476Y103478759D01*
X69471761Y105478759D02*
X69567000Y105383521D01*
X69567000Y105383521D02*
X69662238Y105097807D01*
X69662238Y105097807D02*
X69662238Y104907331D01*
X69662238Y104907331D02*
X69567000Y104621616D01*
X69567000Y104621616D02*
X69376523Y104431140D01*
X69376523Y104431140D02*
X69186047Y104335902D01*
X69186047Y104335902D02*
X68805095Y104240664D01*
X68805095Y104240664D02*
X68519380Y104240664D01*
X68519380Y104240664D02*
X68138428Y104335902D01*
X68138428Y104335902D02*
X67947952Y104431140D01*
X67947952Y104431140D02*
X67757476Y104621616D01*
X67757476Y104621616D02*
X67662238Y104907331D01*
X67662238Y104907331D02*
X67662238Y105097807D01*
X67662238Y105097807D02*
X67757476Y105383521D01*
X67757476Y105383521D02*
X67852714Y105478759D01*
X67662238Y106716854D02*
X67662238Y107097807D01*
X67662238Y107097807D02*
X67757476Y107288283D01*
X67757476Y107288283D02*
X67947952Y107478759D01*
X67947952Y107478759D02*
X68328904Y107573997D01*
X68328904Y107573997D02*
X68995571Y107573997D01*
X68995571Y107573997D02*
X69376523Y107478759D01*
X69376523Y107478759D02*
X69567000Y107288283D01*
X69567000Y107288283D02*
X69662238Y107097807D01*
X69662238Y107097807D02*
X69662238Y106716854D01*
X69662238Y106716854D02*
X69567000Y106526378D01*
X69567000Y106526378D02*
X69376523Y106335902D01*
X69376523Y106335902D02*
X68995571Y106240664D01*
X68995571Y106240664D02*
X68328904Y106240664D01*
X68328904Y106240664D02*
X67947952Y106335902D01*
X67947952Y106335902D02*
X67757476Y106526378D01*
X67757476Y106526378D02*
X67662238Y106716854D01*
X69662238Y109573997D02*
X68709857Y108907330D01*
X69662238Y108431140D02*
X67662238Y108431140D01*
X67662238Y108431140D02*
X67662238Y109193045D01*
X67662238Y109193045D02*
X67757476Y109383521D01*
X67757476Y109383521D02*
X67852714Y109478759D01*
X67852714Y109478759D02*
X68043190Y109573997D01*
X68043190Y109573997D02*
X68328904Y109573997D01*
X68328904Y109573997D02*
X68519380Y109478759D01*
X68519380Y109478759D02*
X68614619Y109383521D01*
X68614619Y109383521D02*
X68709857Y109193045D01*
X68709857Y109193045D02*
X68709857Y108431140D01*
X68614619Y110431140D02*
X68614619Y111097807D01*
X69662238Y111383521D02*
X69662238Y110431140D01*
X69662238Y110431140D02*
X67662238Y110431140D01*
X67662238Y110431140D02*
X67662238Y111383521D01*
D12*
X68750000Y95600000D02*
X68750000Y-7100000D01*
D11*
X33162238Y97954950D02*
X35162238Y98621616D01*
X35162238Y98621616D02*
X33162238Y99288283D01*
X34400333Y99954950D02*
X34400333Y101478759D01*
X35067000Y102335902D02*
X35162238Y102621616D01*
X35162238Y102621616D02*
X35162238Y103097807D01*
X35162238Y103097807D02*
X35067000Y103288283D01*
X35067000Y103288283D02*
X34971761Y103383521D01*
X34971761Y103383521D02*
X34781285Y103478759D01*
X34781285Y103478759D02*
X34590809Y103478759D01*
X34590809Y103478759D02*
X34400333Y103383521D01*
X34400333Y103383521D02*
X34305095Y103288283D01*
X34305095Y103288283D02*
X34209857Y103097807D01*
X34209857Y103097807D02*
X34114619Y102716854D01*
X34114619Y102716854D02*
X34019380Y102526378D01*
X34019380Y102526378D02*
X33924142Y102431140D01*
X33924142Y102431140D02*
X33733666Y102335902D01*
X33733666Y102335902D02*
X33543190Y102335902D01*
X33543190Y102335902D02*
X33352714Y102431140D01*
X33352714Y102431140D02*
X33257476Y102526378D01*
X33257476Y102526378D02*
X33162238Y102716854D01*
X33162238Y102716854D02*
X33162238Y103193045D01*
X33162238Y103193045D02*
X33257476Y103478759D01*
X34971761Y105478759D02*
X35067000Y105383521D01*
X35067000Y105383521D02*
X35162238Y105097807D01*
X35162238Y105097807D02*
X35162238Y104907331D01*
X35162238Y104907331D02*
X35067000Y104621616D01*
X35067000Y104621616D02*
X34876523Y104431140D01*
X34876523Y104431140D02*
X34686047Y104335902D01*
X34686047Y104335902D02*
X34305095Y104240664D01*
X34305095Y104240664D02*
X34019380Y104240664D01*
X34019380Y104240664D02*
X33638428Y104335902D01*
X33638428Y104335902D02*
X33447952Y104431140D01*
X33447952Y104431140D02*
X33257476Y104621616D01*
X33257476Y104621616D02*
X33162238Y104907331D01*
X33162238Y104907331D02*
X33162238Y105097807D01*
X33162238Y105097807D02*
X33257476Y105383521D01*
X33257476Y105383521D02*
X33352714Y105478759D01*
X33162238Y106716854D02*
X33162238Y107097807D01*
X33162238Y107097807D02*
X33257476Y107288283D01*
X33257476Y107288283D02*
X33447952Y107478759D01*
X33447952Y107478759D02*
X33828904Y107573997D01*
X33828904Y107573997D02*
X34495571Y107573997D01*
X34495571Y107573997D02*
X34876523Y107478759D01*
X34876523Y107478759D02*
X35067000Y107288283D01*
X35067000Y107288283D02*
X35162238Y107097807D01*
X35162238Y107097807D02*
X35162238Y106716854D01*
X35162238Y106716854D02*
X35067000Y106526378D01*
X35067000Y106526378D02*
X34876523Y106335902D01*
X34876523Y106335902D02*
X34495571Y106240664D01*
X34495571Y106240664D02*
X33828904Y106240664D01*
X33828904Y106240664D02*
X33447952Y106335902D01*
X33447952Y106335902D02*
X33257476Y106526378D01*
X33257476Y106526378D02*
X33162238Y106716854D01*
X35162238Y109573997D02*
X34209857Y108907330D01*
X35162238Y108431140D02*
X33162238Y108431140D01*
X33162238Y108431140D02*
X33162238Y109193045D01*
X33162238Y109193045D02*
X33257476Y109383521D01*
X33257476Y109383521D02*
X33352714Y109478759D01*
X33352714Y109478759D02*
X33543190Y109573997D01*
X33543190Y109573997D02*
X33828904Y109573997D01*
X33828904Y109573997D02*
X34019380Y109478759D01*
X34019380Y109478759D02*
X34114619Y109383521D01*
X34114619Y109383521D02*
X34209857Y109193045D01*
X34209857Y109193045D02*
X34209857Y108431140D01*
X34114619Y110431140D02*
X34114619Y111097807D01*
X35162238Y111383521D02*
X35162238Y110431140D01*
X35162238Y110431140D02*
X33162238Y110431140D01*
X33162238Y110431140D02*
X33162238Y111383521D01*
D12*
X34250000Y95600000D02*
X34250000Y-7100000D01*
D11*
X-1337762Y97954950D02*
X662238Y98621616D01*
X662238Y98621616D02*
X-1337762Y99288283D01*
X-99667Y99954950D02*
X-99667Y101478759D01*
X567000Y102335902D02*
X662238Y102621616D01*
X662238Y102621616D02*
X662238Y103097807D01*
X662238Y103097807D02*
X567000Y103288283D01*
X567000Y103288283D02*
X471761Y103383521D01*
X471761Y103383521D02*
X281285Y103478759D01*
X281285Y103478759D02*
X90809Y103478759D01*
X90809Y103478759D02*
X-99667Y103383521D01*
X-99667Y103383521D02*
X-194905Y103288283D01*
X-194905Y103288283D02*
X-290143Y103097807D01*
X-290143Y103097807D02*
X-385381Y102716854D01*
X-385381Y102716854D02*
X-480620Y102526378D01*
X-480620Y102526378D02*
X-575858Y102431140D01*
X-575858Y102431140D02*
X-766334Y102335902D01*
X-766334Y102335902D02*
X-956810Y102335902D01*
X-956810Y102335902D02*
X-1147286Y102431140D01*
X-1147286Y102431140D02*
X-1242524Y102526378D01*
X-1242524Y102526378D02*
X-1337762Y102716854D01*
X-1337762Y102716854D02*
X-1337762Y103193045D01*
X-1337762Y103193045D02*
X-1242524Y103478759D01*
X471761Y105478759D02*
X567000Y105383521D01*
X567000Y105383521D02*
X662238Y105097807D01*
X662238Y105097807D02*
X662238Y104907331D01*
X662238Y104907331D02*
X567000Y104621616D01*
X567000Y104621616D02*
X376523Y104431140D01*
X376523Y104431140D02*
X186047Y104335902D01*
X186047Y104335902D02*
X-194905Y104240664D01*
X-194905Y104240664D02*
X-480620Y104240664D01*
X-480620Y104240664D02*
X-861572Y104335902D01*
X-861572Y104335902D02*
X-1052048Y104431140D01*
X-1052048Y104431140D02*
X-1242524Y104621616D01*
X-1242524Y104621616D02*
X-1337762Y104907331D01*
X-1337762Y104907331D02*
X-1337762Y105097807D01*
X-1337762Y105097807D02*
X-1242524Y105383521D01*
X-1242524Y105383521D02*
X-1147286Y105478759D01*
X-1337762Y106716854D02*
X-1337762Y107097807D01*
X-1337762Y107097807D02*
X-1242524Y107288283D01*
X-1242524Y107288283D02*
X-1052048Y107478759D01*
X-1052048Y107478759D02*
X-671096Y107573997D01*
X-671096Y107573997D02*
X-4429Y107573997D01*
X-4429Y107573997D02*
X376523Y107478759D01*
X376523Y107478759D02*
X567000Y107288283D01*
X567000Y107288283D02*
X662238Y107097807D01*
X662238Y107097807D02*
X662238Y106716854D01*
X662238Y106716854D02*
X567000Y106526378D01*
X567000Y106526378D02*
X376523Y106335902D01*
X376523Y106335902D02*
X-4429Y106240664D01*
X-4429Y106240664D02*
X-671096Y106240664D01*
X-671096Y106240664D02*
X-1052048Y106335902D01*
X-1052048Y106335902D02*
X-1242524Y106526378D01*
X-1242524Y106526378D02*
X-1337762Y106716854D01*
X662238Y109573997D02*
X-290143Y108907330D01*
X662238Y108431140D02*
X-1337762Y108431140D01*
X-1337762Y108431140D02*
X-1337762Y109193045D01*
X-1337762Y109193045D02*
X-1242524Y109383521D01*
X-1242524Y109383521D02*
X-1147286Y109478759D01*
X-1147286Y109478759D02*
X-956810Y109573997D01*
X-956810Y109573997D02*
X-671096Y109573997D01*
X-671096Y109573997D02*
X-480620Y109478759D01*
X-480620Y109478759D02*
X-385381Y109383521D01*
X-385381Y109383521D02*
X-290143Y109193045D01*
X-290143Y109193045D02*
X-290143Y108431140D01*
X-385381Y110431140D02*
X-385381Y111097807D01*
X662238Y111383521D02*
X662238Y110431140D01*
X662238Y110431140D02*
X-1337762Y110431140D01*
X-1337762Y110431140D02*
X-1337762Y111383521D01*
D12*
X-250000Y95600000D02*
X-250000Y-7100000D01*
M02*
