%TF.GenerationSoftware,KiCad,Pcbnew,9.0.0*%
%TF.CreationDate,2025-04-03T11:10:05-06:00*%
%TF.ProjectId,SparkFun_GNSS_Flex_Module_LG580P_panelized,53706172-6b46-4756-9e5f-474e53535f46,v10*%
%TF.SameCoordinates,Original*%
%TF.FileFunction,Soldermask,Bot*%
%TF.FilePolarity,Negative*%
%FSLAX46Y46*%
G04 Gerber Fmt 4.6, Leading zero omitted, Abs format (unit mm)*
G04 Created by KiCad (PCBNEW 9.0.0) date 2025-04-03 11:10:05*
%MOMM*%
%LPD*%
G01*
G04 APERTURE LIST*
G04 Aperture macros list*
%AMRoundRect*
0 Rectangle with rounded corners*
0 $1 Rounding radius*
0 $2 $3 $4 $5 $6 $7 $8 $9 X,Y pos of 4 corners*
0 Add a 4 corners polygon primitive as box body*
4,1,4,$2,$3,$4,$5,$6,$7,$8,$9,$2,$3,0*
0 Add four circle primitives for the rounded corners*
1,1,$1+$1,$2,$3*
1,1,$1+$1,$4,$5*
1,1,$1+$1,$6,$7*
1,1,$1+$1,$8,$9*
0 Add four rect primitives between the rounded corners*
20,1,$1+$1,$2,$3,$4,$5,0*
20,1,$1+$1,$4,$5,$6,$7,0*
20,1,$1+$1,$6,$7,$8,$9,0*
20,1,$1+$1,$8,$9,$2,$3,0*%
G04 Aperture macros list end*
%ADD10C,1.100000*%
%ADD11C,1.600000*%
%ADD12C,1.300000*%
%ADD13RoundRect,0.050000X-0.425000X1.050000X-0.425000X-1.050000X0.425000X-1.050000X0.425000X1.050000X0*%
%ADD14C,0.600000*%
%ADD15C,3.200000*%
G04 APERTURE END LIST*
D10*
%TO.C,*%
X105087500Y86500000D03*
%TD*%
%TO.C,*%
X-2087500Y86500000D03*
%TD*%
D11*
%TO.C,*%
X-2087500Y2000000D03*
%TD*%
D12*
%TO.C,J3*%
X94000000Y84500000D03*
X78000000Y84500000D03*
D13*
X77000000Y81850000D03*
X77000000Y87150000D03*
X79000000Y81850000D03*
X79000000Y87150000D03*
X81000000Y81850000D03*
X81000000Y87150000D03*
X83000000Y81850000D03*
X83000000Y87150000D03*
X85000000Y81850000D03*
X85000000Y87150000D03*
X87000000Y81850000D03*
X87000000Y87150000D03*
X89000000Y81850000D03*
X89000000Y87150000D03*
X91000000Y81850000D03*
X91000000Y87150000D03*
X93000000Y81850000D03*
X93000000Y87150000D03*
X95000000Y81850000D03*
X95000000Y87150000D03*
%TD*%
D12*
%TO.C,J3*%
X94000000Y40000000D03*
X78000000Y40000000D03*
D13*
X77000000Y37350000D03*
X77000000Y42650000D03*
X79000000Y37350000D03*
X79000000Y42650000D03*
X81000000Y37350000D03*
X81000000Y42650000D03*
X83000000Y37350000D03*
X83000000Y42650000D03*
X85000000Y37350000D03*
X85000000Y42650000D03*
X87000000Y37350000D03*
X87000000Y42650000D03*
X89000000Y37350000D03*
X89000000Y42650000D03*
X91000000Y37350000D03*
X91000000Y42650000D03*
X93000000Y37350000D03*
X93000000Y42650000D03*
X95000000Y37350000D03*
X95000000Y42650000D03*
%TD*%
D12*
%TO.C,J3*%
X59500000Y84500000D03*
X43500000Y84500000D03*
D13*
X42500000Y81850000D03*
X42500000Y87150000D03*
X44500000Y81850000D03*
X44500000Y87150000D03*
X46500000Y81850000D03*
X46500000Y87150000D03*
X48500000Y81850000D03*
X48500000Y87150000D03*
X50500000Y81850000D03*
X50500000Y87150000D03*
X52500000Y81850000D03*
X52500000Y87150000D03*
X54500000Y81850000D03*
X54500000Y87150000D03*
X56500000Y81850000D03*
X56500000Y87150000D03*
X58500000Y81850000D03*
X58500000Y87150000D03*
X60500000Y81850000D03*
X60500000Y87150000D03*
%TD*%
D12*
%TO.C,J3*%
X59500000Y40000000D03*
X43500000Y40000000D03*
D13*
X42500000Y37350000D03*
X42500000Y42650000D03*
X44500000Y37350000D03*
X44500000Y42650000D03*
X46500000Y37350000D03*
X46500000Y42650000D03*
X48500000Y37350000D03*
X48500000Y42650000D03*
X50500000Y37350000D03*
X50500000Y42650000D03*
X52500000Y37350000D03*
X52500000Y42650000D03*
X54500000Y37350000D03*
X54500000Y42650000D03*
X56500000Y37350000D03*
X56500000Y42650000D03*
X58500000Y37350000D03*
X58500000Y42650000D03*
X60500000Y37350000D03*
X60500000Y42650000D03*
%TD*%
D12*
%TO.C,J3*%
X25000000Y84500000D03*
X9000000Y84500000D03*
D13*
X8000000Y81850000D03*
X8000000Y87150000D03*
X10000000Y81850000D03*
X10000000Y87150000D03*
X12000000Y81850000D03*
X12000000Y87150000D03*
X14000000Y81850000D03*
X14000000Y87150000D03*
X16000000Y81850000D03*
X16000000Y87150000D03*
X18000000Y81850000D03*
X18000000Y87150000D03*
X20000000Y81850000D03*
X20000000Y87150000D03*
X22000000Y81850000D03*
X22000000Y87150000D03*
X24000000Y81850000D03*
X24000000Y87150000D03*
X26000000Y81850000D03*
X26000000Y87150000D03*
%TD*%
D12*
%TO.C,J1*%
X94000000Y48500000D03*
X78000000Y48500000D03*
D13*
X77000000Y45850000D03*
X77000000Y51150000D03*
X79000000Y45850000D03*
X79000000Y51150000D03*
X81000000Y45850000D03*
X81000000Y51150000D03*
X83000000Y45850000D03*
X83000000Y51150000D03*
X85000000Y45850000D03*
X85000000Y51150000D03*
X87000000Y45850000D03*
X87000000Y51150000D03*
X89000000Y45850000D03*
X89000000Y51150000D03*
X91000000Y45850000D03*
X91000000Y51150000D03*
X93000000Y45850000D03*
X93000000Y51150000D03*
X95000000Y45850000D03*
X95000000Y51150000D03*
%TD*%
D12*
%TO.C,J1*%
X94000000Y4000000D03*
X78000000Y4000000D03*
D13*
X77000000Y1350000D03*
X77000000Y6650000D03*
X79000000Y1350000D03*
X79000000Y6650000D03*
X81000000Y1350000D03*
X81000000Y6650000D03*
X83000000Y1350000D03*
X83000000Y6650000D03*
X85000000Y1350000D03*
X85000000Y6650000D03*
X87000000Y1350000D03*
X87000000Y6650000D03*
X89000000Y1350000D03*
X89000000Y6650000D03*
X91000000Y1350000D03*
X91000000Y6650000D03*
X93000000Y1350000D03*
X93000000Y6650000D03*
X95000000Y1350000D03*
X95000000Y6650000D03*
%TD*%
D12*
%TO.C,J1*%
X59500000Y48500000D03*
X43500000Y48500000D03*
D13*
X42500000Y45850000D03*
X42500000Y51150000D03*
X44500000Y45850000D03*
X44500000Y51150000D03*
X46500000Y45850000D03*
X46500000Y51150000D03*
X48500000Y45850000D03*
X48500000Y51150000D03*
X50500000Y45850000D03*
X50500000Y51150000D03*
X52500000Y45850000D03*
X52500000Y51150000D03*
X54500000Y45850000D03*
X54500000Y51150000D03*
X56500000Y45850000D03*
X56500000Y51150000D03*
X58500000Y45850000D03*
X58500000Y51150000D03*
X60500000Y45850000D03*
X60500000Y51150000D03*
%TD*%
D12*
%TO.C,J1*%
X59500000Y4000000D03*
X43500000Y4000000D03*
D13*
X42500000Y1350000D03*
X42500000Y6650000D03*
X44500000Y1350000D03*
X44500000Y6650000D03*
X46500000Y1350000D03*
X46500000Y6650000D03*
X48500000Y1350000D03*
X48500000Y6650000D03*
X50500000Y1350000D03*
X50500000Y6650000D03*
X52500000Y1350000D03*
X52500000Y6650000D03*
X54500000Y1350000D03*
X54500000Y6650000D03*
X56500000Y1350000D03*
X56500000Y6650000D03*
X58500000Y1350000D03*
X58500000Y6650000D03*
X60500000Y1350000D03*
X60500000Y6650000D03*
%TD*%
D12*
%TO.C,J1*%
X25000000Y48500000D03*
X9000000Y48500000D03*
D13*
X8000000Y45850000D03*
X8000000Y51150000D03*
X10000000Y45850000D03*
X10000000Y51150000D03*
X12000000Y45850000D03*
X12000000Y51150000D03*
X14000000Y45850000D03*
X14000000Y51150000D03*
X16000000Y45850000D03*
X16000000Y51150000D03*
X18000000Y45850000D03*
X18000000Y51150000D03*
X20000000Y45850000D03*
X20000000Y51150000D03*
X22000000Y45850000D03*
X22000000Y51150000D03*
X24000000Y45850000D03*
X24000000Y51150000D03*
X26000000Y45850000D03*
X26000000Y51150000D03*
%TD*%
D14*
%TO.C,FID2*%
X97500000Y87500000D03*
%TD*%
%TO.C,FID2*%
X97500000Y43000000D03*
%TD*%
%TO.C,FID2*%
X63000000Y87500000D03*
%TD*%
%TO.C,FID2*%
X63000000Y43000000D03*
%TD*%
%TO.C,FID2*%
X28500000Y87500000D03*
%TD*%
%TO.C,FID3*%
X74500000Y45500000D03*
%TD*%
%TO.C,FID3*%
X74500000Y1000000D03*
%TD*%
%TO.C,FID3*%
X40000000Y45500000D03*
%TD*%
%TO.C,FID3*%
X40000000Y1000000D03*
%TD*%
%TO.C,FID3*%
X5500000Y45500000D03*
%TD*%
D15*
%TO.C,ST2*%
X100460000Y47040000D03*
%TD*%
%TO.C,ST2*%
X100460000Y2540000D03*
%TD*%
%TO.C,ST2*%
X65960000Y47040000D03*
%TD*%
%TO.C,ST2*%
X65960000Y2540000D03*
%TD*%
%TO.C,ST2*%
X31460000Y47040000D03*
%TD*%
%TO.C,ST1*%
X71500000Y47000000D03*
%TD*%
%TO.C,ST1*%
X71500000Y2500000D03*
%TD*%
%TO.C,ST1*%
X37000000Y47000000D03*
%TD*%
%TO.C,ST1*%
X37000000Y2500000D03*
%TD*%
%TO.C,ST1*%
X2500000Y47000000D03*
%TD*%
%TO.C,ST3*%
X71500000Y86000000D03*
%TD*%
%TO.C,ST3*%
X71500000Y41500000D03*
%TD*%
%TO.C,ST3*%
X37000000Y86000000D03*
%TD*%
%TO.C,ST3*%
X37000000Y41500000D03*
%TD*%
%TO.C,ST3*%
X2500000Y86000000D03*
%TD*%
%TO.C,ST4*%
X100500000Y86000000D03*
%TD*%
%TO.C,ST4*%
X100500000Y41500000D03*
%TD*%
%TO.C,ST4*%
X66000000Y86000000D03*
%TD*%
%TO.C,ST4*%
X66000000Y41500000D03*
%TD*%
%TO.C,ST4*%
X31500000Y86000000D03*
%TD*%
%TO.C,ST4*%
X31500000Y41500000D03*
%TD*%
%TO.C,ST3*%
X2500000Y41500000D03*
%TD*%
%TO.C,ST1*%
X2500000Y2500000D03*
%TD*%
%TO.C,ST2*%
X31460000Y2540000D03*
%TD*%
D14*
%TO.C,FID3*%
X5500000Y1000000D03*
%TD*%
%TO.C,FID2*%
X28500000Y43000000D03*
%TD*%
D12*
%TO.C,J1*%
X25000000Y4000000D03*
X9000000Y4000000D03*
D13*
X8000000Y1350000D03*
X8000000Y6650000D03*
X10000000Y1350000D03*
X10000000Y6650000D03*
X12000000Y1350000D03*
X12000000Y6650000D03*
X14000000Y1350000D03*
X14000000Y6650000D03*
X16000000Y1350000D03*
X16000000Y6650000D03*
X18000000Y1350000D03*
X18000000Y6650000D03*
X20000000Y1350000D03*
X20000000Y6650000D03*
X22000000Y1350000D03*
X22000000Y6650000D03*
X24000000Y1350000D03*
X24000000Y6650000D03*
X26000000Y1350000D03*
X26000000Y6650000D03*
%TD*%
D12*
%TO.C,J3*%
X25000000Y40000000D03*
X9000000Y40000000D03*
D13*
X8000000Y37350000D03*
X8000000Y42650000D03*
X10000000Y37350000D03*
X10000000Y42650000D03*
X12000000Y37350000D03*
X12000000Y42650000D03*
X14000000Y37350000D03*
X14000000Y42650000D03*
X16000000Y37350000D03*
X16000000Y42650000D03*
X18000000Y37350000D03*
X18000000Y42650000D03*
X20000000Y37350000D03*
X20000000Y42650000D03*
X22000000Y37350000D03*
X22000000Y42650000D03*
X24000000Y37350000D03*
X24000000Y42650000D03*
X26000000Y37350000D03*
X26000000Y42650000D03*
%TD*%
M02*
