%TF.GenerationSoftware,KiCad,Pcbnew,9.0.0*%
%TF.CreationDate,2025-04-03T11:10:05-06:00*%
%TF.ProjectId,SparkFun_GNSS_Flex_Module_LG580P_panelized,53706172-6b46-4756-9e5f-474e53535f46,v10*%
%TF.SameCoordinates,Original*%
%TF.FileFunction,Paste,Top*%
%TF.FilePolarity,Positive*%
%FSLAX46Y46*%
G04 Gerber Fmt 4.6, Leading zero omitted, Abs format (unit mm)*
G04 Created by KiCad (PCBNEW 9.0.0) date 2025-04-03 11:10:05*
%MOMM*%
%LPD*%
G01*
G04 APERTURE LIST*
G04 Aperture macros list*
%AMRoundRect*
0 Rectangle with rounded corners*
0 $1 Rounding radius*
0 $2 $3 $4 $5 $6 $7 $8 $9 X,Y pos of 4 corners*
0 Add a 4 corners polygon primitive as box body*
4,1,4,$2,$3,$4,$5,$6,$7,$8,$9,$2,$3,0*
0 Add four circle primitives for the rounded corners*
1,1,$1+$1,$2,$3*
1,1,$1+$1,$4,$5*
1,1,$1+$1,$6,$7*
1,1,$1+$1,$8,$9*
0 Add four rect primitives between the rounded corners*
20,1,$1+$1,$2,$3,$4,$5,0*
20,1,$1+$1,$4,$5,$6,$7,0*
20,1,$1+$1,$6,$7,$8,$9,0*
20,1,$1+$1,$8,$9,$2,$3,0*%
G04 Aperture macros list end*
%ADD10RoundRect,0.200000X0.275000X-0.200000X0.275000X0.200000X-0.275000X0.200000X-0.275000X-0.200000X0*%
%ADD11RoundRect,0.225000X0.250000X-0.225000X0.250000X0.225000X-0.250000X0.225000X-0.250000X-0.225000X0*%
%ADD12R,1.350000X0.720000*%
%ADD13R,0.720000X1.350000*%
%ADD14C,0.900000*%
%ADD15R,0.900000X0.900000*%
%ADD16RoundRect,0.140000X-0.140000X-0.170000X0.140000X-0.170000X0.140000X0.170000X-0.140000X0.170000X0*%
%ADD17RoundRect,0.140000X0.170000X-0.140000X0.170000X0.140000X-0.170000X0.140000X-0.170000X-0.140000X0*%
%ADD18R,1.000000X1.050000*%
%ADD19R,0.850000X2.200000*%
%ADD20RoundRect,0.200000X-0.275000X0.200000X-0.275000X-0.200000X0.275000X-0.200000X0.275000X0.200000X0*%
%ADD21RoundRect,0.140000X0.140000X0.170000X-0.140000X0.170000X-0.140000X-0.170000X0.140000X-0.170000X0*%
G04 APERTURE END LIST*
D10*
%TO.C,R4*%
X71000000Y75675000D03*
X71000000Y77325000D03*
%TD*%
%TO.C,R4*%
X71000000Y31175000D03*
X71000000Y32825000D03*
%TD*%
%TO.C,R4*%
X36500000Y75675000D03*
X36500000Y77325000D03*
%TD*%
%TO.C,R4*%
X36500000Y31175000D03*
X36500000Y32825000D03*
%TD*%
%TO.C,R4*%
X2000000Y75675000D03*
X2000000Y77325000D03*
%TD*%
D11*
%TO.C,C11*%
X72500000Y58225000D03*
X72500000Y59775000D03*
%TD*%
%TO.C,C11*%
X72500000Y13725000D03*
X72500000Y15275000D03*
%TD*%
%TO.C,C11*%
X38000000Y58225000D03*
X38000000Y59775000D03*
%TD*%
%TO.C,C11*%
X38000000Y13725000D03*
X38000000Y15275000D03*
%TD*%
%TO.C,C11*%
X3500000Y58225000D03*
X3500000Y59775000D03*
%TD*%
D12*
%TO.C,U2*%
X92950000Y58880000D03*
X92950000Y60150000D03*
X92950000Y61420000D03*
X92950000Y62690000D03*
X92950000Y63960000D03*
X92950000Y65230000D03*
X92950000Y66500000D03*
X92950000Y67770000D03*
X92950000Y69040000D03*
X92950000Y70310000D03*
X92950000Y71580000D03*
X92950000Y72850000D03*
X92950000Y74120000D03*
D13*
X92350000Y75950000D03*
X91080000Y75950000D03*
X89810000Y75950000D03*
X88540000Y75950000D03*
X87270000Y75950000D03*
X86000000Y75950000D03*
X84730000Y75950000D03*
X83460000Y75950000D03*
X82190000Y75950000D03*
X80920000Y75950000D03*
X79650000Y75950000D03*
D12*
X79050000Y74120000D03*
X79050000Y72850000D03*
X79050000Y71580000D03*
X79050000Y70310000D03*
X79050000Y69040000D03*
X79050000Y67770000D03*
X79050000Y66500000D03*
X79050000Y65230000D03*
X79050000Y63960000D03*
X79050000Y62690000D03*
X79050000Y61420000D03*
X79050000Y60150000D03*
X79050000Y58880000D03*
D13*
X79650000Y57050000D03*
X80920000Y57050000D03*
X82190000Y57050000D03*
X83460000Y57050000D03*
X84730000Y57050000D03*
X86000000Y57050000D03*
X87270000Y57050000D03*
X88540000Y57050000D03*
X89810000Y57050000D03*
X91080000Y57050000D03*
X92350000Y57050000D03*
D14*
X90200000Y60200000D03*
D15*
X90200000Y62300000D03*
X90200000Y64400000D03*
X90200000Y66500000D03*
X90200000Y68600000D03*
X90200000Y70700000D03*
X90200000Y72800000D03*
X88100000Y60200000D03*
X88100000Y62300000D03*
X88100000Y64400000D03*
X88100000Y66500000D03*
X88100000Y68600000D03*
X88100000Y70700000D03*
X88100000Y72800000D03*
X86000000Y60200000D03*
X86000000Y62300000D03*
X86000000Y64400000D03*
X86000000Y66500000D03*
X86000000Y68600000D03*
X86000000Y70700000D03*
X86000000Y72800000D03*
X83900000Y60200000D03*
X83900000Y62300000D03*
X83900000Y64400000D03*
X83900000Y66500000D03*
X83900000Y68600000D03*
X83900000Y70700000D03*
X83900000Y72800000D03*
X81900000Y60200000D03*
X81900000Y62300000D03*
X81900000Y64400000D03*
X81900000Y66500000D03*
X81900000Y68600000D03*
X81900000Y70700000D03*
X81900000Y72800000D03*
%TD*%
D12*
%TO.C,U2*%
X92950000Y14380000D03*
X92950000Y15650000D03*
X92950000Y16920000D03*
X92950000Y18190000D03*
X92950000Y19460000D03*
X92950000Y20730000D03*
X92950000Y22000000D03*
X92950000Y23270000D03*
X92950000Y24540000D03*
X92950000Y25810000D03*
X92950000Y27080000D03*
X92950000Y28350000D03*
X92950000Y29620000D03*
D13*
X92350000Y31450000D03*
X91080000Y31450000D03*
X89810000Y31450000D03*
X88540000Y31450000D03*
X87270000Y31450000D03*
X86000000Y31450000D03*
X84730000Y31450000D03*
X83460000Y31450000D03*
X82190000Y31450000D03*
X80920000Y31450000D03*
X79650000Y31450000D03*
D12*
X79050000Y29620000D03*
X79050000Y28350000D03*
X79050000Y27080000D03*
X79050000Y25810000D03*
X79050000Y24540000D03*
X79050000Y23270000D03*
X79050000Y22000000D03*
X79050000Y20730000D03*
X79050000Y19460000D03*
X79050000Y18190000D03*
X79050000Y16920000D03*
X79050000Y15650000D03*
X79050000Y14380000D03*
D13*
X79650000Y12550000D03*
X80920000Y12550000D03*
X82190000Y12550000D03*
X83460000Y12550000D03*
X84730000Y12550000D03*
X86000000Y12550000D03*
X87270000Y12550000D03*
X88540000Y12550000D03*
X89810000Y12550000D03*
X91080000Y12550000D03*
X92350000Y12550000D03*
D14*
X90200000Y15700000D03*
D15*
X90200000Y17800000D03*
X90200000Y19900000D03*
X90200000Y22000000D03*
X90200000Y24100000D03*
X90200000Y26200000D03*
X90200000Y28300000D03*
X88100000Y15700000D03*
X88100000Y17800000D03*
X88100000Y19900000D03*
X88100000Y22000000D03*
X88100000Y24100000D03*
X88100000Y26200000D03*
X88100000Y28300000D03*
X86000000Y15700000D03*
X86000000Y17800000D03*
X86000000Y19900000D03*
X86000000Y22000000D03*
X86000000Y24100000D03*
X86000000Y26200000D03*
X86000000Y28300000D03*
X83900000Y15700000D03*
X83900000Y17800000D03*
X83900000Y19900000D03*
X83900000Y22000000D03*
X83900000Y24100000D03*
X83900000Y26200000D03*
X83900000Y28300000D03*
X81900000Y15700000D03*
X81900000Y17800000D03*
X81900000Y19900000D03*
X81900000Y22000000D03*
X81900000Y24100000D03*
X81900000Y26200000D03*
X81900000Y28300000D03*
%TD*%
D12*
%TO.C,U2*%
X58450000Y58880000D03*
X58450000Y60150000D03*
X58450000Y61420000D03*
X58450000Y62690000D03*
X58450000Y63960000D03*
X58450000Y65230000D03*
X58450000Y66500000D03*
X58450000Y67770000D03*
X58450000Y69040000D03*
X58450000Y70310000D03*
X58450000Y71580000D03*
X58450000Y72850000D03*
X58450000Y74120000D03*
D13*
X57850000Y75950000D03*
X56580000Y75950000D03*
X55310000Y75950000D03*
X54040000Y75950000D03*
X52770000Y75950000D03*
X51500000Y75950000D03*
X50230000Y75950000D03*
X48960000Y75950000D03*
X47690000Y75950000D03*
X46420000Y75950000D03*
X45150000Y75950000D03*
D12*
X44550000Y74120000D03*
X44550000Y72850000D03*
X44550000Y71580000D03*
X44550000Y70310000D03*
X44550000Y69040000D03*
X44550000Y67770000D03*
X44550000Y66500000D03*
X44550000Y65230000D03*
X44550000Y63960000D03*
X44550000Y62690000D03*
X44550000Y61420000D03*
X44550000Y60150000D03*
X44550000Y58880000D03*
D13*
X45150000Y57050000D03*
X46420000Y57050000D03*
X47690000Y57050000D03*
X48960000Y57050000D03*
X50230000Y57050000D03*
X51500000Y57050000D03*
X52770000Y57050000D03*
X54040000Y57050000D03*
X55310000Y57050000D03*
X56580000Y57050000D03*
X57850000Y57050000D03*
D14*
X55700000Y60200000D03*
D15*
X55700000Y62300000D03*
X55700000Y64400000D03*
X55700000Y66500000D03*
X55700000Y68600000D03*
X55700000Y70700000D03*
X55700000Y72800000D03*
X53600000Y60200000D03*
X53600000Y62300000D03*
X53600000Y64400000D03*
X53600000Y66500000D03*
X53600000Y68600000D03*
X53600000Y70700000D03*
X53600000Y72800000D03*
X51500000Y60200000D03*
X51500000Y62300000D03*
X51500000Y64400000D03*
X51500000Y66500000D03*
X51500000Y68600000D03*
X51500000Y70700000D03*
X51500000Y72800000D03*
X49400000Y60200000D03*
X49400000Y62300000D03*
X49400000Y64400000D03*
X49400000Y66500000D03*
X49400000Y68600000D03*
X49400000Y70700000D03*
X49400000Y72800000D03*
X47400000Y60200000D03*
X47400000Y62300000D03*
X47400000Y64400000D03*
X47400000Y66500000D03*
X47400000Y68600000D03*
X47400000Y70700000D03*
X47400000Y72800000D03*
%TD*%
D12*
%TO.C,U2*%
X58450000Y14380000D03*
X58450000Y15650000D03*
X58450000Y16920000D03*
X58450000Y18190000D03*
X58450000Y19460000D03*
X58450000Y20730000D03*
X58450000Y22000000D03*
X58450000Y23270000D03*
X58450000Y24540000D03*
X58450000Y25810000D03*
X58450000Y27080000D03*
X58450000Y28350000D03*
X58450000Y29620000D03*
D13*
X57850000Y31450000D03*
X56580000Y31450000D03*
X55310000Y31450000D03*
X54040000Y31450000D03*
X52770000Y31450000D03*
X51500000Y31450000D03*
X50230000Y31450000D03*
X48960000Y31450000D03*
X47690000Y31450000D03*
X46420000Y31450000D03*
X45150000Y31450000D03*
D12*
X44550000Y29620000D03*
X44550000Y28350000D03*
X44550000Y27080000D03*
X44550000Y25810000D03*
X44550000Y24540000D03*
X44550000Y23270000D03*
X44550000Y22000000D03*
X44550000Y20730000D03*
X44550000Y19460000D03*
X44550000Y18190000D03*
X44550000Y16920000D03*
X44550000Y15650000D03*
X44550000Y14380000D03*
D13*
X45150000Y12550000D03*
X46420000Y12550000D03*
X47690000Y12550000D03*
X48960000Y12550000D03*
X50230000Y12550000D03*
X51500000Y12550000D03*
X52770000Y12550000D03*
X54040000Y12550000D03*
X55310000Y12550000D03*
X56580000Y12550000D03*
X57850000Y12550000D03*
D14*
X55700000Y15700000D03*
D15*
X55700000Y17800000D03*
X55700000Y19900000D03*
X55700000Y22000000D03*
X55700000Y24100000D03*
X55700000Y26200000D03*
X55700000Y28300000D03*
X53600000Y15700000D03*
X53600000Y17800000D03*
X53600000Y19900000D03*
X53600000Y22000000D03*
X53600000Y24100000D03*
X53600000Y26200000D03*
X53600000Y28300000D03*
X51500000Y15700000D03*
X51500000Y17800000D03*
X51500000Y19900000D03*
X51500000Y22000000D03*
X51500000Y24100000D03*
X51500000Y26200000D03*
X51500000Y28300000D03*
X49400000Y15700000D03*
X49400000Y17800000D03*
X49400000Y19900000D03*
X49400000Y22000000D03*
X49400000Y24100000D03*
X49400000Y26200000D03*
X49400000Y28300000D03*
X47400000Y15700000D03*
X47400000Y17800000D03*
X47400000Y19900000D03*
X47400000Y22000000D03*
X47400000Y24100000D03*
X47400000Y26200000D03*
X47400000Y28300000D03*
%TD*%
D12*
%TO.C,U2*%
X23950000Y58880000D03*
X23950000Y60150000D03*
X23950000Y61420000D03*
X23950000Y62690000D03*
X23950000Y63960000D03*
X23950000Y65230000D03*
X23950000Y66500000D03*
X23950000Y67770000D03*
X23950000Y69040000D03*
X23950000Y70310000D03*
X23950000Y71580000D03*
X23950000Y72850000D03*
X23950000Y74120000D03*
D13*
X23350000Y75950000D03*
X22080000Y75950000D03*
X20810000Y75950000D03*
X19540000Y75950000D03*
X18270000Y75950000D03*
X17000000Y75950000D03*
X15730000Y75950000D03*
X14460000Y75950000D03*
X13190000Y75950000D03*
X11920000Y75950000D03*
X10650000Y75950000D03*
D12*
X10050000Y74120000D03*
X10050000Y72850000D03*
X10050000Y71580000D03*
X10050000Y70310000D03*
X10050000Y69040000D03*
X10050000Y67770000D03*
X10050000Y66500000D03*
X10050000Y65230000D03*
X10050000Y63960000D03*
X10050000Y62690000D03*
X10050000Y61420000D03*
X10050000Y60150000D03*
X10050000Y58880000D03*
D13*
X10650000Y57050000D03*
X11920000Y57050000D03*
X13190000Y57050000D03*
X14460000Y57050000D03*
X15730000Y57050000D03*
X17000000Y57050000D03*
X18270000Y57050000D03*
X19540000Y57050000D03*
X20810000Y57050000D03*
X22080000Y57050000D03*
X23350000Y57050000D03*
D14*
X21200000Y60200000D03*
D15*
X21200000Y62300000D03*
X21200000Y64400000D03*
X21200000Y66500000D03*
X21200000Y68600000D03*
X21200000Y70700000D03*
X21200000Y72800000D03*
X19100000Y60200000D03*
X19100000Y62300000D03*
X19100000Y64400000D03*
X19100000Y66500000D03*
X19100000Y68600000D03*
X19100000Y70700000D03*
X19100000Y72800000D03*
X17000000Y60200000D03*
X17000000Y62300000D03*
X17000000Y64400000D03*
X17000000Y66500000D03*
X17000000Y68600000D03*
X17000000Y70700000D03*
X17000000Y72800000D03*
X14900000Y60200000D03*
X14900000Y62300000D03*
X14900000Y64400000D03*
X14900000Y66500000D03*
X14900000Y68600000D03*
X14900000Y70700000D03*
X14900000Y72800000D03*
X12900000Y60200000D03*
X12900000Y62300000D03*
X12900000Y64400000D03*
X12900000Y66500000D03*
X12900000Y68600000D03*
X12900000Y70700000D03*
X12900000Y72800000D03*
%TD*%
D11*
%TO.C,C7*%
X101000000Y58225000D03*
X101000000Y59775000D03*
%TD*%
%TO.C,C7*%
X101000000Y13725000D03*
X101000000Y15275000D03*
%TD*%
%TO.C,C7*%
X66500000Y58225000D03*
X66500000Y59775000D03*
%TD*%
%TO.C,C7*%
X66500000Y13725000D03*
X66500000Y15275000D03*
%TD*%
%TO.C,C7*%
X32000000Y58225000D03*
X32000000Y59775000D03*
%TD*%
D16*
%TO.C,D4*%
X75520000Y57000000D03*
X76480000Y57000000D03*
%TD*%
%TO.C,D4*%
X75520000Y12500000D03*
X76480000Y12500000D03*
%TD*%
%TO.C,D4*%
X41020000Y57000000D03*
X41980000Y57000000D03*
%TD*%
%TO.C,D4*%
X41020000Y12500000D03*
X41980000Y12500000D03*
%TD*%
%TO.C,D4*%
X6520000Y57000000D03*
X7480000Y57000000D03*
%TD*%
D17*
%TO.C,C2*%
X75500000Y76020000D03*
X75500000Y76980000D03*
%TD*%
%TO.C,C2*%
X75500000Y31520000D03*
X75500000Y32480000D03*
%TD*%
%TO.C,C2*%
X41000000Y76020000D03*
X41000000Y76980000D03*
%TD*%
%TO.C,C2*%
X41000000Y31520000D03*
X41000000Y32480000D03*
%TD*%
%TO.C,C2*%
X6500000Y76020000D03*
X6500000Y76980000D03*
%TD*%
D18*
%TO.C,J4*%
X90500000Y48525000D03*
D19*
X89125000Y47000000D03*
X91875000Y47000000D03*
%TD*%
D18*
%TO.C,J4*%
X90500000Y4025000D03*
D19*
X89125000Y2500000D03*
X91875000Y2500000D03*
%TD*%
D18*
%TO.C,J4*%
X56000000Y48525000D03*
D19*
X54625000Y47000000D03*
X57375000Y47000000D03*
%TD*%
D18*
%TO.C,J4*%
X56000000Y4025000D03*
D19*
X54625000Y2500000D03*
X57375000Y2500000D03*
%TD*%
D18*
%TO.C,J4*%
X21500000Y48525000D03*
D19*
X20125000Y47000000D03*
X22875000Y47000000D03*
%TD*%
D20*
%TO.C,R1*%
X72500000Y77325000D03*
X72500000Y75675000D03*
%TD*%
%TO.C,R1*%
X72500000Y32825000D03*
X72500000Y31175000D03*
%TD*%
%TO.C,R1*%
X38000000Y77325000D03*
X38000000Y75675000D03*
%TD*%
%TO.C,R1*%
X38000000Y32825000D03*
X38000000Y31175000D03*
%TD*%
%TO.C,R1*%
X3500000Y77325000D03*
X3500000Y75675000D03*
%TD*%
D16*
%TO.C,L3*%
X75520000Y58000000D03*
X76480000Y58000000D03*
%TD*%
%TO.C,L3*%
X75520000Y13500000D03*
X76480000Y13500000D03*
%TD*%
%TO.C,L3*%
X41020000Y58000000D03*
X41980000Y58000000D03*
%TD*%
%TO.C,L3*%
X41020000Y13500000D03*
X41980000Y13500000D03*
%TD*%
%TO.C,L3*%
X6520000Y58000000D03*
X7480000Y58000000D03*
%TD*%
D10*
%TO.C,R5*%
X74000000Y58175000D03*
X74000000Y59825000D03*
%TD*%
%TO.C,R5*%
X74000000Y13675000D03*
X74000000Y15325000D03*
%TD*%
%TO.C,R5*%
X39500000Y58175000D03*
X39500000Y59825000D03*
%TD*%
%TO.C,R5*%
X39500000Y13675000D03*
X39500000Y15325000D03*
%TD*%
%TO.C,R5*%
X5000000Y58175000D03*
X5000000Y59825000D03*
%TD*%
D17*
%TO.C,C3*%
X76500000Y76020000D03*
X76500000Y76980000D03*
%TD*%
%TO.C,C3*%
X76500000Y31520000D03*
X76500000Y32480000D03*
%TD*%
%TO.C,C3*%
X42000000Y76020000D03*
X42000000Y76980000D03*
%TD*%
%TO.C,C3*%
X42000000Y31520000D03*
X42000000Y32480000D03*
%TD*%
%TO.C,C3*%
X7500000Y76020000D03*
X7500000Y76980000D03*
%TD*%
D21*
%TO.C,D1*%
X96480000Y57000000D03*
X95520000Y57000000D03*
%TD*%
%TO.C,D1*%
X96480000Y12500000D03*
X95520000Y12500000D03*
%TD*%
%TO.C,D1*%
X61980000Y57000000D03*
X61020000Y57000000D03*
%TD*%
%TO.C,D1*%
X61980000Y12500000D03*
X61020000Y12500000D03*
%TD*%
%TO.C,D1*%
X27480000Y57000000D03*
X26520000Y57000000D03*
%TD*%
D10*
%TO.C,R2*%
X98000000Y58175000D03*
X98000000Y59825000D03*
%TD*%
%TO.C,R2*%
X98000000Y13675000D03*
X98000000Y15325000D03*
%TD*%
%TO.C,R2*%
X63500000Y58175000D03*
X63500000Y59825000D03*
%TD*%
%TO.C,R2*%
X63500000Y13675000D03*
X63500000Y15325000D03*
%TD*%
%TO.C,R2*%
X29000000Y58175000D03*
X29000000Y59825000D03*
%TD*%
D11*
%TO.C,C8*%
X99500000Y58225000D03*
X99500000Y59775000D03*
%TD*%
%TO.C,C8*%
X99500000Y13725000D03*
X99500000Y15275000D03*
%TD*%
%TO.C,C8*%
X65000000Y58225000D03*
X65000000Y59775000D03*
%TD*%
%TO.C,C8*%
X65000000Y13725000D03*
X65000000Y15275000D03*
%TD*%
%TO.C,C8*%
X30500000Y58225000D03*
X30500000Y59775000D03*
%TD*%
%TO.C,C10*%
X71000000Y58225000D03*
X71000000Y59775000D03*
%TD*%
%TO.C,C10*%
X71000000Y13725000D03*
X71000000Y15275000D03*
%TD*%
%TO.C,C10*%
X36500000Y58225000D03*
X36500000Y59775000D03*
%TD*%
%TO.C,C10*%
X36500000Y13725000D03*
X36500000Y15275000D03*
%TD*%
%TO.C,C10*%
X2000000Y58225000D03*
X2000000Y59775000D03*
%TD*%
D17*
%TO.C,C12*%
X76500000Y59020000D03*
X76500000Y59980000D03*
%TD*%
%TO.C,C12*%
X76500000Y14520000D03*
X76500000Y15480000D03*
%TD*%
%TO.C,C12*%
X42000000Y59020000D03*
X42000000Y59980000D03*
%TD*%
%TO.C,C12*%
X42000000Y14520000D03*
X42000000Y15480000D03*
%TD*%
%TO.C,C12*%
X7500000Y59020000D03*
X7500000Y59980000D03*
%TD*%
D11*
%TO.C,C1*%
X74000000Y75725000D03*
X74000000Y77275000D03*
%TD*%
%TO.C,C1*%
X74000000Y31225000D03*
X74000000Y32775000D03*
%TD*%
%TO.C,C1*%
X39500000Y75725000D03*
X39500000Y77275000D03*
%TD*%
%TO.C,C1*%
X39500000Y31225000D03*
X39500000Y32775000D03*
%TD*%
%TO.C,C1*%
X5000000Y75725000D03*
X5000000Y77275000D03*
%TD*%
D21*
%TO.C,L2*%
X96480000Y58000000D03*
X95520000Y58000000D03*
%TD*%
%TO.C,L2*%
X96480000Y13500000D03*
X95520000Y13500000D03*
%TD*%
%TO.C,L2*%
X61980000Y58000000D03*
X61020000Y58000000D03*
%TD*%
%TO.C,L2*%
X61980000Y13500000D03*
X61020000Y13500000D03*
%TD*%
%TO.C,L2*%
X27480000Y58000000D03*
X26520000Y58000000D03*
%TD*%
D18*
%TO.C,J6*%
X81500000Y48525000D03*
D19*
X80125000Y47000000D03*
X82875000Y47000000D03*
%TD*%
D18*
%TO.C,J6*%
X81500000Y4025000D03*
D19*
X80125000Y2500000D03*
X82875000Y2500000D03*
%TD*%
D18*
%TO.C,J6*%
X47000000Y48525000D03*
D19*
X45625000Y47000000D03*
X48375000Y47000000D03*
%TD*%
D18*
%TO.C,J6*%
X47000000Y4025000D03*
D19*
X45625000Y2500000D03*
X48375000Y2500000D03*
%TD*%
D18*
%TO.C,J6*%
X12500000Y48525000D03*
D19*
X11125000Y47000000D03*
X13875000Y47000000D03*
%TD*%
D17*
%TO.C,C9*%
X95500000Y59020000D03*
X95500000Y59980000D03*
%TD*%
%TO.C,C9*%
X95500000Y14520000D03*
X95500000Y15480000D03*
%TD*%
%TO.C,C9*%
X61000000Y59020000D03*
X61000000Y59980000D03*
%TD*%
%TO.C,C9*%
X61000000Y14520000D03*
X61000000Y15480000D03*
%TD*%
%TO.C,C9*%
X26500000Y59020000D03*
X26500000Y59980000D03*
%TD*%
%TO.C,C9*%
X26500000Y14520000D03*
X26500000Y15480000D03*
%TD*%
D18*
%TO.C,J6*%
X12500000Y4025000D03*
D19*
X11125000Y2500000D03*
X13875000Y2500000D03*
%TD*%
D21*
%TO.C,L2*%
X27480000Y13500000D03*
X26520000Y13500000D03*
%TD*%
D11*
%TO.C,C1*%
X5000000Y31225000D03*
X5000000Y32775000D03*
%TD*%
D17*
%TO.C,C12*%
X7500000Y14520000D03*
X7500000Y15480000D03*
%TD*%
D11*
%TO.C,C10*%
X2000000Y13725000D03*
X2000000Y15275000D03*
%TD*%
%TO.C,C8*%
X30500000Y13725000D03*
X30500000Y15275000D03*
%TD*%
D10*
%TO.C,R2*%
X29000000Y13675000D03*
X29000000Y15325000D03*
%TD*%
D21*
%TO.C,D1*%
X27480000Y12500000D03*
X26520000Y12500000D03*
%TD*%
D17*
%TO.C,C3*%
X7500000Y31520000D03*
X7500000Y32480000D03*
%TD*%
D10*
%TO.C,R5*%
X5000000Y13675000D03*
X5000000Y15325000D03*
%TD*%
D16*
%TO.C,L3*%
X6520000Y13500000D03*
X7480000Y13500000D03*
%TD*%
D20*
%TO.C,R1*%
X3500000Y32825000D03*
X3500000Y31175000D03*
%TD*%
D18*
%TO.C,J4*%
X21500000Y4025000D03*
D19*
X20125000Y2500000D03*
X22875000Y2500000D03*
%TD*%
D17*
%TO.C,C2*%
X6500000Y31520000D03*
X6500000Y32480000D03*
%TD*%
D16*
%TO.C,D4*%
X6520000Y12500000D03*
X7480000Y12500000D03*
%TD*%
D11*
%TO.C,C7*%
X32000000Y13725000D03*
X32000000Y15275000D03*
%TD*%
D12*
%TO.C,U2*%
X23950000Y14380000D03*
X23950000Y15650000D03*
X23950000Y16920000D03*
X23950000Y18190000D03*
X23950000Y19460000D03*
X23950000Y20730000D03*
X23950000Y22000000D03*
X23950000Y23270000D03*
X23950000Y24540000D03*
X23950000Y25810000D03*
X23950000Y27080000D03*
X23950000Y28350000D03*
X23950000Y29620000D03*
D13*
X23350000Y31450000D03*
X22080000Y31450000D03*
X20810000Y31450000D03*
X19540000Y31450000D03*
X18270000Y31450000D03*
X17000000Y31450000D03*
X15730000Y31450000D03*
X14460000Y31450000D03*
X13190000Y31450000D03*
X11920000Y31450000D03*
X10650000Y31450000D03*
D12*
X10050000Y29620000D03*
X10050000Y28350000D03*
X10050000Y27080000D03*
X10050000Y25810000D03*
X10050000Y24540000D03*
X10050000Y23270000D03*
X10050000Y22000000D03*
X10050000Y20730000D03*
X10050000Y19460000D03*
X10050000Y18190000D03*
X10050000Y16920000D03*
X10050000Y15650000D03*
X10050000Y14380000D03*
D13*
X10650000Y12550000D03*
X11920000Y12550000D03*
X13190000Y12550000D03*
X14460000Y12550000D03*
X15730000Y12550000D03*
X17000000Y12550000D03*
X18270000Y12550000D03*
X19540000Y12550000D03*
X20810000Y12550000D03*
X22080000Y12550000D03*
X23350000Y12550000D03*
D14*
X21200000Y15700000D03*
D15*
X21200000Y17800000D03*
X21200000Y19900000D03*
X21200000Y22000000D03*
X21200000Y24100000D03*
X21200000Y26200000D03*
X21200000Y28300000D03*
X19100000Y15700000D03*
X19100000Y17800000D03*
X19100000Y19900000D03*
X19100000Y22000000D03*
X19100000Y24100000D03*
X19100000Y26200000D03*
X19100000Y28300000D03*
X17000000Y15700000D03*
X17000000Y17800000D03*
X17000000Y19900000D03*
X17000000Y22000000D03*
X17000000Y24100000D03*
X17000000Y26200000D03*
X17000000Y28300000D03*
X14900000Y15700000D03*
X14900000Y17800000D03*
X14900000Y19900000D03*
X14900000Y22000000D03*
X14900000Y24100000D03*
X14900000Y26200000D03*
X14900000Y28300000D03*
X12900000Y15700000D03*
X12900000Y17800000D03*
X12900000Y19900000D03*
X12900000Y22000000D03*
X12900000Y24100000D03*
X12900000Y26200000D03*
X12900000Y28300000D03*
%TD*%
D11*
%TO.C,C11*%
X3500000Y13725000D03*
X3500000Y15275000D03*
%TD*%
D10*
%TO.C,R4*%
X2000000Y31175000D03*
X2000000Y32825000D03*
%TD*%
M02*
