%TF.GenerationSoftware,KiCad,Pcbnew,9.0.1*%
%TF.CreationDate,2025-04-16T09:37:59-06:00*%
%TF.ProjectId,SparkFun_GNSS_Flex_Module_DAN-F10N_panelized,53706172-6b46-4756-9e5f-474e53535f46,v10*%
%TF.SameCoordinates,Original*%
%TF.FileFunction,Soldermask,Bot*%
%TF.FilePolarity,Negative*%
%FSLAX46Y46*%
G04 Gerber Fmt 4.6, Leading zero omitted, Abs format (unit mm)*
G04 Created by KiCad (PCBNEW 9.0.1) date 2025-04-16 09:37:59*
%MOMM*%
%LPD*%
G01*
G04 APERTURE LIST*
%TA.AperFunction,Profile*%
%ADD10C,0.100000*%
%TD*%
%ADD11C,0.250000*%
%ADD12C,0.500000*%
G04 APERTURE END LIST*
D10*
X-500000Y-500000D02*
X-500000Y133500000D01*
X138000000Y-500000D02*
X-500000Y-500000D01*
X138000000Y133500000D02*
X138000000Y-500000D01*
X-500000Y133500000D02*
X138000000Y133500000D01*
X-6850000Y-6850000D02*
X-6850000Y139850000D01*
X144350000Y-6850000D02*
X-6850000Y-6850000D01*
X144350000Y139850000D02*
X144350000Y-6850000D01*
X-6850000Y139850000D02*
X144350000Y139850000D01*
X103500000Y133000000D02*
X137500000Y133000000D01*
X137500000Y89000000D01*
X103500000Y89000000D01*
X103500000Y133000000D01*
X103500000Y88500000D02*
X137500000Y88500000D01*
X137500000Y44500000D01*
X103500000Y44500000D01*
X103500000Y88500000D01*
X103500000Y44000000D02*
X137500000Y44000000D01*
X137500000Y0D01*
X103500000Y0D01*
X103500000Y44000000D01*
X69000000Y133000000D02*
X103000000Y133000000D01*
X103000000Y89000000D01*
X69000000Y89000000D01*
X69000000Y133000000D01*
X69000000Y88500000D02*
X103000000Y88500000D01*
X103000000Y44500000D01*
X69000000Y44500000D01*
X69000000Y88500000D01*
X69000000Y44000000D02*
X103000000Y44000000D01*
X103000000Y0D01*
X69000000Y0D01*
X69000000Y44000000D01*
X34500000Y133000000D02*
X68500000Y133000000D01*
X68500000Y89000000D01*
X34500000Y89000000D01*
X34500000Y133000000D01*
X34500000Y88500000D02*
X68500000Y88500000D01*
X68500000Y44500000D01*
X34500000Y44500000D01*
X34500000Y88500000D01*
X34500000Y44000000D02*
X68500000Y44000000D01*
X68500000Y0D01*
X34500000Y0D01*
X34500000Y44000000D01*
X0Y133000000D02*
X34000000Y133000000D01*
X34000000Y89000000D01*
X0Y89000000D01*
X0Y133000000D01*
X0Y88500000D02*
X34000000Y88500000D01*
X34000000Y44500000D01*
X0Y44500000D01*
X0Y88500000D01*
X0Y44000000D02*
X34000000Y44000000D01*
X34000000Y0D01*
X0Y0D01*
X0Y44000000D01*
D11*
X-23073997Y837762D02*
X-22407331Y-1162238D01*
X-22407331Y-1162238D02*
X-21740664Y837762D01*
X-21073997Y-400333D02*
X-19550187Y-400333D01*
X-18693045Y-1067000D02*
X-18407331Y-1162238D01*
X-18407331Y-1162238D02*
X-17931140Y-1162238D01*
X-17931140Y-1162238D02*
X-17740664Y-1067000D01*
X-17740664Y-1067000D02*
X-17645426Y-971761D01*
X-17645426Y-971761D02*
X-17550188Y-781285D01*
X-17550188Y-781285D02*
X-17550188Y-590809D01*
X-17550188Y-590809D02*
X-17645426Y-400333D01*
X-17645426Y-400333D02*
X-17740664Y-305095D01*
X-17740664Y-305095D02*
X-17931140Y-209857D01*
X-17931140Y-209857D02*
X-18312093Y-114619D01*
X-18312093Y-114619D02*
X-18502569Y-19380D01*
X-18502569Y-19380D02*
X-18597807Y75858D01*
X-18597807Y75858D02*
X-18693045Y266334D01*
X-18693045Y266334D02*
X-18693045Y456810D01*
X-18693045Y456810D02*
X-18597807Y647286D01*
X-18597807Y647286D02*
X-18502569Y742524D01*
X-18502569Y742524D02*
X-18312093Y837762D01*
X-18312093Y837762D02*
X-17835902Y837762D01*
X-17835902Y837762D02*
X-17550188Y742524D01*
X-15550188Y-971761D02*
X-15645426Y-1067000D01*
X-15645426Y-1067000D02*
X-15931140Y-1162238D01*
X-15931140Y-1162238D02*
X-16121616Y-1162238D01*
X-16121616Y-1162238D02*
X-16407331Y-1067000D01*
X-16407331Y-1067000D02*
X-16597807Y-876523D01*
X-16597807Y-876523D02*
X-16693045Y-686047D01*
X-16693045Y-686047D02*
X-16788283Y-305095D01*
X-16788283Y-305095D02*
X-16788283Y-19380D01*
X-16788283Y-19380D02*
X-16693045Y361572D01*
X-16693045Y361572D02*
X-16597807Y552048D01*
X-16597807Y552048D02*
X-16407331Y742524D01*
X-16407331Y742524D02*
X-16121616Y837762D01*
X-16121616Y837762D02*
X-15931140Y837762D01*
X-15931140Y837762D02*
X-15645426Y742524D01*
X-15645426Y742524D02*
X-15550188Y647286D01*
X-14312093Y837762D02*
X-13931140Y837762D01*
X-13931140Y837762D02*
X-13740664Y742524D01*
X-13740664Y742524D02*
X-13550188Y552048D01*
X-13550188Y552048D02*
X-13454950Y171096D01*
X-13454950Y171096D02*
X-13454950Y-495571D01*
X-13454950Y-495571D02*
X-13550188Y-876523D01*
X-13550188Y-876523D02*
X-13740664Y-1067000D01*
X-13740664Y-1067000D02*
X-13931140Y-1162238D01*
X-13931140Y-1162238D02*
X-14312093Y-1162238D01*
X-14312093Y-1162238D02*
X-14502569Y-1067000D01*
X-14502569Y-1067000D02*
X-14693045Y-876523D01*
X-14693045Y-876523D02*
X-14788283Y-495571D01*
X-14788283Y-495571D02*
X-14788283Y171096D01*
X-14788283Y171096D02*
X-14693045Y552048D01*
X-14693045Y552048D02*
X-14502569Y742524D01*
X-14502569Y742524D02*
X-14312093Y837762D01*
X-11454950Y-1162238D02*
X-12121617Y-209857D01*
X-12597807Y-1162238D02*
X-12597807Y837762D01*
X-12597807Y837762D02*
X-11835902Y837762D01*
X-11835902Y837762D02*
X-11645426Y742524D01*
X-11645426Y742524D02*
X-11550188Y647286D01*
X-11550188Y647286D02*
X-11454950Y456810D01*
X-11454950Y456810D02*
X-11454950Y171096D01*
X-11454950Y171096D02*
X-11550188Y-19380D01*
X-11550188Y-19380D02*
X-11645426Y-114619D01*
X-11645426Y-114619D02*
X-11835902Y-209857D01*
X-11835902Y-209857D02*
X-12597807Y-209857D01*
X-10597807Y-114619D02*
X-9931140Y-114619D01*
X-9645426Y-1162238D02*
X-10597807Y-1162238D01*
X-10597807Y-1162238D02*
X-10597807Y837762D01*
X-10597807Y837762D02*
X-9645426Y837762D01*
D12*
X-7100000Y-250000D02*
X144600000Y-250000D01*
D11*
X-23073997Y45337762D02*
X-22407331Y43337762D01*
X-22407331Y43337762D02*
X-21740664Y45337762D01*
X-21073997Y44099667D02*
X-19550187Y44099667D01*
X-18693045Y43433000D02*
X-18407331Y43337762D01*
X-18407331Y43337762D02*
X-17931140Y43337762D01*
X-17931140Y43337762D02*
X-17740664Y43433000D01*
X-17740664Y43433000D02*
X-17645426Y43528239D01*
X-17645426Y43528239D02*
X-17550188Y43718715D01*
X-17550188Y43718715D02*
X-17550188Y43909191D01*
X-17550188Y43909191D02*
X-17645426Y44099667D01*
X-17645426Y44099667D02*
X-17740664Y44194905D01*
X-17740664Y44194905D02*
X-17931140Y44290143D01*
X-17931140Y44290143D02*
X-18312093Y44385381D01*
X-18312093Y44385381D02*
X-18502569Y44480620D01*
X-18502569Y44480620D02*
X-18597807Y44575858D01*
X-18597807Y44575858D02*
X-18693045Y44766334D01*
X-18693045Y44766334D02*
X-18693045Y44956810D01*
X-18693045Y44956810D02*
X-18597807Y45147286D01*
X-18597807Y45147286D02*
X-18502569Y45242524D01*
X-18502569Y45242524D02*
X-18312093Y45337762D01*
X-18312093Y45337762D02*
X-17835902Y45337762D01*
X-17835902Y45337762D02*
X-17550188Y45242524D01*
X-15550188Y43528239D02*
X-15645426Y43433000D01*
X-15645426Y43433000D02*
X-15931140Y43337762D01*
X-15931140Y43337762D02*
X-16121616Y43337762D01*
X-16121616Y43337762D02*
X-16407331Y43433000D01*
X-16407331Y43433000D02*
X-16597807Y43623477D01*
X-16597807Y43623477D02*
X-16693045Y43813953D01*
X-16693045Y43813953D02*
X-16788283Y44194905D01*
X-16788283Y44194905D02*
X-16788283Y44480620D01*
X-16788283Y44480620D02*
X-16693045Y44861572D01*
X-16693045Y44861572D02*
X-16597807Y45052048D01*
X-16597807Y45052048D02*
X-16407331Y45242524D01*
X-16407331Y45242524D02*
X-16121616Y45337762D01*
X-16121616Y45337762D02*
X-15931140Y45337762D01*
X-15931140Y45337762D02*
X-15645426Y45242524D01*
X-15645426Y45242524D02*
X-15550188Y45147286D01*
X-14312093Y45337762D02*
X-13931140Y45337762D01*
X-13931140Y45337762D02*
X-13740664Y45242524D01*
X-13740664Y45242524D02*
X-13550188Y45052048D01*
X-13550188Y45052048D02*
X-13454950Y44671096D01*
X-13454950Y44671096D02*
X-13454950Y44004429D01*
X-13454950Y44004429D02*
X-13550188Y43623477D01*
X-13550188Y43623477D02*
X-13740664Y43433000D01*
X-13740664Y43433000D02*
X-13931140Y43337762D01*
X-13931140Y43337762D02*
X-14312093Y43337762D01*
X-14312093Y43337762D02*
X-14502569Y43433000D01*
X-14502569Y43433000D02*
X-14693045Y43623477D01*
X-14693045Y43623477D02*
X-14788283Y44004429D01*
X-14788283Y44004429D02*
X-14788283Y44671096D01*
X-14788283Y44671096D02*
X-14693045Y45052048D01*
X-14693045Y45052048D02*
X-14502569Y45242524D01*
X-14502569Y45242524D02*
X-14312093Y45337762D01*
X-11454950Y43337762D02*
X-12121617Y44290143D01*
X-12597807Y43337762D02*
X-12597807Y45337762D01*
X-12597807Y45337762D02*
X-11835902Y45337762D01*
X-11835902Y45337762D02*
X-11645426Y45242524D01*
X-11645426Y45242524D02*
X-11550188Y45147286D01*
X-11550188Y45147286D02*
X-11454950Y44956810D01*
X-11454950Y44956810D02*
X-11454950Y44671096D01*
X-11454950Y44671096D02*
X-11550188Y44480620D01*
X-11550188Y44480620D02*
X-11645426Y44385381D01*
X-11645426Y44385381D02*
X-11835902Y44290143D01*
X-11835902Y44290143D02*
X-12597807Y44290143D01*
X-10597807Y44385381D02*
X-9931140Y44385381D01*
X-9645426Y43337762D02*
X-10597807Y43337762D01*
X-10597807Y43337762D02*
X-10597807Y45337762D01*
X-10597807Y45337762D02*
X-9645426Y45337762D01*
D12*
X-7100000Y44250000D02*
X144600000Y44250000D01*
D11*
X-23073997Y89837762D02*
X-22407331Y87837762D01*
X-22407331Y87837762D02*
X-21740664Y89837762D01*
X-21073997Y88599667D02*
X-19550187Y88599667D01*
X-18693045Y87933000D02*
X-18407331Y87837762D01*
X-18407331Y87837762D02*
X-17931140Y87837762D01*
X-17931140Y87837762D02*
X-17740664Y87933000D01*
X-17740664Y87933000D02*
X-17645426Y88028239D01*
X-17645426Y88028239D02*
X-17550188Y88218715D01*
X-17550188Y88218715D02*
X-17550188Y88409191D01*
X-17550188Y88409191D02*
X-17645426Y88599667D01*
X-17645426Y88599667D02*
X-17740664Y88694905D01*
X-17740664Y88694905D02*
X-17931140Y88790143D01*
X-17931140Y88790143D02*
X-18312093Y88885381D01*
X-18312093Y88885381D02*
X-18502569Y88980620D01*
X-18502569Y88980620D02*
X-18597807Y89075858D01*
X-18597807Y89075858D02*
X-18693045Y89266334D01*
X-18693045Y89266334D02*
X-18693045Y89456810D01*
X-18693045Y89456810D02*
X-18597807Y89647286D01*
X-18597807Y89647286D02*
X-18502569Y89742524D01*
X-18502569Y89742524D02*
X-18312093Y89837762D01*
X-18312093Y89837762D02*
X-17835902Y89837762D01*
X-17835902Y89837762D02*
X-17550188Y89742524D01*
X-15550188Y88028239D02*
X-15645426Y87933000D01*
X-15645426Y87933000D02*
X-15931140Y87837762D01*
X-15931140Y87837762D02*
X-16121616Y87837762D01*
X-16121616Y87837762D02*
X-16407331Y87933000D01*
X-16407331Y87933000D02*
X-16597807Y88123477D01*
X-16597807Y88123477D02*
X-16693045Y88313953D01*
X-16693045Y88313953D02*
X-16788283Y88694905D01*
X-16788283Y88694905D02*
X-16788283Y88980620D01*
X-16788283Y88980620D02*
X-16693045Y89361572D01*
X-16693045Y89361572D02*
X-16597807Y89552048D01*
X-16597807Y89552048D02*
X-16407331Y89742524D01*
X-16407331Y89742524D02*
X-16121616Y89837762D01*
X-16121616Y89837762D02*
X-15931140Y89837762D01*
X-15931140Y89837762D02*
X-15645426Y89742524D01*
X-15645426Y89742524D02*
X-15550188Y89647286D01*
X-14312093Y89837762D02*
X-13931140Y89837762D01*
X-13931140Y89837762D02*
X-13740664Y89742524D01*
X-13740664Y89742524D02*
X-13550188Y89552048D01*
X-13550188Y89552048D02*
X-13454950Y89171096D01*
X-13454950Y89171096D02*
X-13454950Y88504429D01*
X-13454950Y88504429D02*
X-13550188Y88123477D01*
X-13550188Y88123477D02*
X-13740664Y87933000D01*
X-13740664Y87933000D02*
X-13931140Y87837762D01*
X-13931140Y87837762D02*
X-14312093Y87837762D01*
X-14312093Y87837762D02*
X-14502569Y87933000D01*
X-14502569Y87933000D02*
X-14693045Y88123477D01*
X-14693045Y88123477D02*
X-14788283Y88504429D01*
X-14788283Y88504429D02*
X-14788283Y89171096D01*
X-14788283Y89171096D02*
X-14693045Y89552048D01*
X-14693045Y89552048D02*
X-14502569Y89742524D01*
X-14502569Y89742524D02*
X-14312093Y89837762D01*
X-11454950Y87837762D02*
X-12121617Y88790143D01*
X-12597807Y87837762D02*
X-12597807Y89837762D01*
X-12597807Y89837762D02*
X-11835902Y89837762D01*
X-11835902Y89837762D02*
X-11645426Y89742524D01*
X-11645426Y89742524D02*
X-11550188Y89647286D01*
X-11550188Y89647286D02*
X-11454950Y89456810D01*
X-11454950Y89456810D02*
X-11454950Y89171096D01*
X-11454950Y89171096D02*
X-11550188Y88980620D01*
X-11550188Y88980620D02*
X-11645426Y88885381D01*
X-11645426Y88885381D02*
X-11835902Y88790143D01*
X-11835902Y88790143D02*
X-12597807Y88790143D01*
X-10597807Y88885381D02*
X-9931140Y88885381D01*
X-9645426Y87837762D02*
X-10597807Y87837762D01*
X-10597807Y87837762D02*
X-10597807Y89837762D01*
X-10597807Y89837762D02*
X-9645426Y89837762D01*
D12*
X-7100000Y88750000D02*
X144600000Y88750000D01*
D11*
X-23073997Y134337761D02*
X-22407331Y132337761D01*
X-22407331Y132337761D02*
X-21740664Y134337761D01*
X-21073997Y133099666D02*
X-19550187Y133099666D01*
X-18693045Y132433000D02*
X-18407331Y132337761D01*
X-18407331Y132337761D02*
X-17931140Y132337761D01*
X-17931140Y132337761D02*
X-17740664Y132433000D01*
X-17740664Y132433000D02*
X-17645426Y132528238D01*
X-17645426Y132528238D02*
X-17550188Y132718714D01*
X-17550188Y132718714D02*
X-17550188Y132909190D01*
X-17550188Y132909190D02*
X-17645426Y133099666D01*
X-17645426Y133099666D02*
X-17740664Y133194904D01*
X-17740664Y133194904D02*
X-17931140Y133290142D01*
X-17931140Y133290142D02*
X-18312093Y133385380D01*
X-18312093Y133385380D02*
X-18502569Y133480619D01*
X-18502569Y133480619D02*
X-18597807Y133575857D01*
X-18597807Y133575857D02*
X-18693045Y133766333D01*
X-18693045Y133766333D02*
X-18693045Y133956809D01*
X-18693045Y133956809D02*
X-18597807Y134147285D01*
X-18597807Y134147285D02*
X-18502569Y134242523D01*
X-18502569Y134242523D02*
X-18312093Y134337761D01*
X-18312093Y134337761D02*
X-17835902Y134337761D01*
X-17835902Y134337761D02*
X-17550188Y134242523D01*
X-15550188Y132528238D02*
X-15645426Y132433000D01*
X-15645426Y132433000D02*
X-15931140Y132337761D01*
X-15931140Y132337761D02*
X-16121616Y132337761D01*
X-16121616Y132337761D02*
X-16407331Y132433000D01*
X-16407331Y132433000D02*
X-16597807Y132623476D01*
X-16597807Y132623476D02*
X-16693045Y132813952D01*
X-16693045Y132813952D02*
X-16788283Y133194904D01*
X-16788283Y133194904D02*
X-16788283Y133480619D01*
X-16788283Y133480619D02*
X-16693045Y133861571D01*
X-16693045Y133861571D02*
X-16597807Y134052047D01*
X-16597807Y134052047D02*
X-16407331Y134242523D01*
X-16407331Y134242523D02*
X-16121616Y134337761D01*
X-16121616Y134337761D02*
X-15931140Y134337761D01*
X-15931140Y134337761D02*
X-15645426Y134242523D01*
X-15645426Y134242523D02*
X-15550188Y134147285D01*
X-14312093Y134337761D02*
X-13931140Y134337761D01*
X-13931140Y134337761D02*
X-13740664Y134242523D01*
X-13740664Y134242523D02*
X-13550188Y134052047D01*
X-13550188Y134052047D02*
X-13454950Y133671095D01*
X-13454950Y133671095D02*
X-13454950Y133004428D01*
X-13454950Y133004428D02*
X-13550188Y132623476D01*
X-13550188Y132623476D02*
X-13740664Y132433000D01*
X-13740664Y132433000D02*
X-13931140Y132337761D01*
X-13931140Y132337761D02*
X-14312093Y132337761D01*
X-14312093Y132337761D02*
X-14502569Y132433000D01*
X-14502569Y132433000D02*
X-14693045Y132623476D01*
X-14693045Y132623476D02*
X-14788283Y133004428D01*
X-14788283Y133004428D02*
X-14788283Y133671095D01*
X-14788283Y133671095D02*
X-14693045Y134052047D01*
X-14693045Y134052047D02*
X-14502569Y134242523D01*
X-14502569Y134242523D02*
X-14312093Y134337761D01*
X-11454950Y132337761D02*
X-12121617Y133290142D01*
X-12597807Y132337761D02*
X-12597807Y134337761D01*
X-12597807Y134337761D02*
X-11835902Y134337761D01*
X-11835902Y134337761D02*
X-11645426Y134242523D01*
X-11645426Y134242523D02*
X-11550188Y134147285D01*
X-11550188Y134147285D02*
X-11454950Y133956809D01*
X-11454950Y133956809D02*
X-11454950Y133671095D01*
X-11454950Y133671095D02*
X-11550188Y133480619D01*
X-11550188Y133480619D02*
X-11645426Y133385380D01*
X-11645426Y133385380D02*
X-11835902Y133290142D01*
X-11835902Y133290142D02*
X-12597807Y133290142D01*
X-10597807Y133385380D02*
X-9931140Y133385380D01*
X-9645426Y132337761D02*
X-10597807Y132337761D01*
X-10597807Y132337761D02*
X-10597807Y134337761D01*
X-10597807Y134337761D02*
X-9645426Y134337761D01*
D12*
X-7100000Y133250000D02*
X144600000Y133250000D01*
D11*
X136662238Y142454949D02*
X138662238Y143121615D01*
X138662238Y143121615D02*
X136662238Y143788282D01*
X137900333Y144454949D02*
X137900333Y145978759D01*
X138567000Y146835901D02*
X138662238Y147121615D01*
X138662238Y147121615D02*
X138662238Y147597806D01*
X138662238Y147597806D02*
X138567000Y147788282D01*
X138567000Y147788282D02*
X138471761Y147883520D01*
X138471761Y147883520D02*
X138281285Y147978758D01*
X138281285Y147978758D02*
X138090809Y147978758D01*
X138090809Y147978758D02*
X137900333Y147883520D01*
X137900333Y147883520D02*
X137805095Y147788282D01*
X137805095Y147788282D02*
X137709857Y147597806D01*
X137709857Y147597806D02*
X137614619Y147216853D01*
X137614619Y147216853D02*
X137519380Y147026377D01*
X137519380Y147026377D02*
X137424142Y146931139D01*
X137424142Y146931139D02*
X137233666Y146835901D01*
X137233666Y146835901D02*
X137043190Y146835901D01*
X137043190Y146835901D02*
X136852714Y146931139D01*
X136852714Y146931139D02*
X136757476Y147026377D01*
X136757476Y147026377D02*
X136662238Y147216853D01*
X136662238Y147216853D02*
X136662238Y147693044D01*
X136662238Y147693044D02*
X136757476Y147978758D01*
X138471761Y149978758D02*
X138567000Y149883520D01*
X138567000Y149883520D02*
X138662238Y149597806D01*
X138662238Y149597806D02*
X138662238Y149407330D01*
X138662238Y149407330D02*
X138567000Y149121615D01*
X138567000Y149121615D02*
X138376523Y148931139D01*
X138376523Y148931139D02*
X138186047Y148835901D01*
X138186047Y148835901D02*
X137805095Y148740663D01*
X137805095Y148740663D02*
X137519380Y148740663D01*
X137519380Y148740663D02*
X137138428Y148835901D01*
X137138428Y148835901D02*
X136947952Y148931139D01*
X136947952Y148931139D02*
X136757476Y149121615D01*
X136757476Y149121615D02*
X136662238Y149407330D01*
X136662238Y149407330D02*
X136662238Y149597806D01*
X136662238Y149597806D02*
X136757476Y149883520D01*
X136757476Y149883520D02*
X136852714Y149978758D01*
X136662238Y151216853D02*
X136662238Y151597806D01*
X136662238Y151597806D02*
X136757476Y151788282D01*
X136757476Y151788282D02*
X136947952Y151978758D01*
X136947952Y151978758D02*
X137328904Y152073996D01*
X137328904Y152073996D02*
X137995571Y152073996D01*
X137995571Y152073996D02*
X138376523Y151978758D01*
X138376523Y151978758D02*
X138567000Y151788282D01*
X138567000Y151788282D02*
X138662238Y151597806D01*
X138662238Y151597806D02*
X138662238Y151216853D01*
X138662238Y151216853D02*
X138567000Y151026377D01*
X138567000Y151026377D02*
X138376523Y150835901D01*
X138376523Y150835901D02*
X137995571Y150740663D01*
X137995571Y150740663D02*
X137328904Y150740663D01*
X137328904Y150740663D02*
X136947952Y150835901D01*
X136947952Y150835901D02*
X136757476Y151026377D01*
X136757476Y151026377D02*
X136662238Y151216853D01*
X138662238Y154073996D02*
X137709857Y153407329D01*
X138662238Y152931139D02*
X136662238Y152931139D01*
X136662238Y152931139D02*
X136662238Y153693044D01*
X136662238Y153693044D02*
X136757476Y153883520D01*
X136757476Y153883520D02*
X136852714Y153978758D01*
X136852714Y153978758D02*
X137043190Y154073996D01*
X137043190Y154073996D02*
X137328904Y154073996D01*
X137328904Y154073996D02*
X137519380Y153978758D01*
X137519380Y153978758D02*
X137614619Y153883520D01*
X137614619Y153883520D02*
X137709857Y153693044D01*
X137709857Y153693044D02*
X137709857Y152931139D01*
X137614619Y154931139D02*
X137614619Y155597806D01*
X138662238Y155883520D02*
X138662238Y154931139D01*
X138662238Y154931139D02*
X136662238Y154931139D01*
X136662238Y154931139D02*
X136662238Y155883520D01*
D12*
X137750000Y140100000D02*
X137750000Y-7100000D01*
D11*
X102162238Y142454949D02*
X104162238Y143121615D01*
X104162238Y143121615D02*
X102162238Y143788282D01*
X103400333Y144454949D02*
X103400333Y145978759D01*
X104067000Y146835901D02*
X104162238Y147121615D01*
X104162238Y147121615D02*
X104162238Y147597806D01*
X104162238Y147597806D02*
X104067000Y147788282D01*
X104067000Y147788282D02*
X103971761Y147883520D01*
X103971761Y147883520D02*
X103781285Y147978758D01*
X103781285Y147978758D02*
X103590809Y147978758D01*
X103590809Y147978758D02*
X103400333Y147883520D01*
X103400333Y147883520D02*
X103305095Y147788282D01*
X103305095Y147788282D02*
X103209857Y147597806D01*
X103209857Y147597806D02*
X103114619Y147216853D01*
X103114619Y147216853D02*
X103019380Y147026377D01*
X103019380Y147026377D02*
X102924142Y146931139D01*
X102924142Y146931139D02*
X102733666Y146835901D01*
X102733666Y146835901D02*
X102543190Y146835901D01*
X102543190Y146835901D02*
X102352714Y146931139D01*
X102352714Y146931139D02*
X102257476Y147026377D01*
X102257476Y147026377D02*
X102162238Y147216853D01*
X102162238Y147216853D02*
X102162238Y147693044D01*
X102162238Y147693044D02*
X102257476Y147978758D01*
X103971761Y149978758D02*
X104067000Y149883520D01*
X104067000Y149883520D02*
X104162238Y149597806D01*
X104162238Y149597806D02*
X104162238Y149407330D01*
X104162238Y149407330D02*
X104067000Y149121615D01*
X104067000Y149121615D02*
X103876523Y148931139D01*
X103876523Y148931139D02*
X103686047Y148835901D01*
X103686047Y148835901D02*
X103305095Y148740663D01*
X103305095Y148740663D02*
X103019380Y148740663D01*
X103019380Y148740663D02*
X102638428Y148835901D01*
X102638428Y148835901D02*
X102447952Y148931139D01*
X102447952Y148931139D02*
X102257476Y149121615D01*
X102257476Y149121615D02*
X102162238Y149407330D01*
X102162238Y149407330D02*
X102162238Y149597806D01*
X102162238Y149597806D02*
X102257476Y149883520D01*
X102257476Y149883520D02*
X102352714Y149978758D01*
X102162238Y151216853D02*
X102162238Y151597806D01*
X102162238Y151597806D02*
X102257476Y151788282D01*
X102257476Y151788282D02*
X102447952Y151978758D01*
X102447952Y151978758D02*
X102828904Y152073996D01*
X102828904Y152073996D02*
X103495571Y152073996D01*
X103495571Y152073996D02*
X103876523Y151978758D01*
X103876523Y151978758D02*
X104067000Y151788282D01*
X104067000Y151788282D02*
X104162238Y151597806D01*
X104162238Y151597806D02*
X104162238Y151216853D01*
X104162238Y151216853D02*
X104067000Y151026377D01*
X104067000Y151026377D02*
X103876523Y150835901D01*
X103876523Y150835901D02*
X103495571Y150740663D01*
X103495571Y150740663D02*
X102828904Y150740663D01*
X102828904Y150740663D02*
X102447952Y150835901D01*
X102447952Y150835901D02*
X102257476Y151026377D01*
X102257476Y151026377D02*
X102162238Y151216853D01*
X104162238Y154073996D02*
X103209857Y153407329D01*
X104162238Y152931139D02*
X102162238Y152931139D01*
X102162238Y152931139D02*
X102162238Y153693044D01*
X102162238Y153693044D02*
X102257476Y153883520D01*
X102257476Y153883520D02*
X102352714Y153978758D01*
X102352714Y153978758D02*
X102543190Y154073996D01*
X102543190Y154073996D02*
X102828904Y154073996D01*
X102828904Y154073996D02*
X103019380Y153978758D01*
X103019380Y153978758D02*
X103114619Y153883520D01*
X103114619Y153883520D02*
X103209857Y153693044D01*
X103209857Y153693044D02*
X103209857Y152931139D01*
X103114619Y154931139D02*
X103114619Y155597806D01*
X104162238Y155883520D02*
X104162238Y154931139D01*
X104162238Y154931139D02*
X102162238Y154931139D01*
X102162238Y154931139D02*
X102162238Y155883520D01*
D12*
X103250000Y140100000D02*
X103250000Y-7100000D01*
D11*
X67662238Y142454949D02*
X69662238Y143121615D01*
X69662238Y143121615D02*
X67662238Y143788282D01*
X68900333Y144454949D02*
X68900333Y145978759D01*
X69567000Y146835901D02*
X69662238Y147121615D01*
X69662238Y147121615D02*
X69662238Y147597806D01*
X69662238Y147597806D02*
X69567000Y147788282D01*
X69567000Y147788282D02*
X69471761Y147883520D01*
X69471761Y147883520D02*
X69281285Y147978758D01*
X69281285Y147978758D02*
X69090809Y147978758D01*
X69090809Y147978758D02*
X68900333Y147883520D01*
X68900333Y147883520D02*
X68805095Y147788282D01*
X68805095Y147788282D02*
X68709857Y147597806D01*
X68709857Y147597806D02*
X68614619Y147216853D01*
X68614619Y147216853D02*
X68519380Y147026377D01*
X68519380Y147026377D02*
X68424142Y146931139D01*
X68424142Y146931139D02*
X68233666Y146835901D01*
X68233666Y146835901D02*
X68043190Y146835901D01*
X68043190Y146835901D02*
X67852714Y146931139D01*
X67852714Y146931139D02*
X67757476Y147026377D01*
X67757476Y147026377D02*
X67662238Y147216853D01*
X67662238Y147216853D02*
X67662238Y147693044D01*
X67662238Y147693044D02*
X67757476Y147978758D01*
X69471761Y149978758D02*
X69567000Y149883520D01*
X69567000Y149883520D02*
X69662238Y149597806D01*
X69662238Y149597806D02*
X69662238Y149407330D01*
X69662238Y149407330D02*
X69567000Y149121615D01*
X69567000Y149121615D02*
X69376523Y148931139D01*
X69376523Y148931139D02*
X69186047Y148835901D01*
X69186047Y148835901D02*
X68805095Y148740663D01*
X68805095Y148740663D02*
X68519380Y148740663D01*
X68519380Y148740663D02*
X68138428Y148835901D01*
X68138428Y148835901D02*
X67947952Y148931139D01*
X67947952Y148931139D02*
X67757476Y149121615D01*
X67757476Y149121615D02*
X67662238Y149407330D01*
X67662238Y149407330D02*
X67662238Y149597806D01*
X67662238Y149597806D02*
X67757476Y149883520D01*
X67757476Y149883520D02*
X67852714Y149978758D01*
X67662238Y151216853D02*
X67662238Y151597806D01*
X67662238Y151597806D02*
X67757476Y151788282D01*
X67757476Y151788282D02*
X67947952Y151978758D01*
X67947952Y151978758D02*
X68328904Y152073996D01*
X68328904Y152073996D02*
X68995571Y152073996D01*
X68995571Y152073996D02*
X69376523Y151978758D01*
X69376523Y151978758D02*
X69567000Y151788282D01*
X69567000Y151788282D02*
X69662238Y151597806D01*
X69662238Y151597806D02*
X69662238Y151216853D01*
X69662238Y151216853D02*
X69567000Y151026377D01*
X69567000Y151026377D02*
X69376523Y150835901D01*
X69376523Y150835901D02*
X68995571Y150740663D01*
X68995571Y150740663D02*
X68328904Y150740663D01*
X68328904Y150740663D02*
X67947952Y150835901D01*
X67947952Y150835901D02*
X67757476Y151026377D01*
X67757476Y151026377D02*
X67662238Y151216853D01*
X69662238Y154073996D02*
X68709857Y153407329D01*
X69662238Y152931139D02*
X67662238Y152931139D01*
X67662238Y152931139D02*
X67662238Y153693044D01*
X67662238Y153693044D02*
X67757476Y153883520D01*
X67757476Y153883520D02*
X67852714Y153978758D01*
X67852714Y153978758D02*
X68043190Y154073996D01*
X68043190Y154073996D02*
X68328904Y154073996D01*
X68328904Y154073996D02*
X68519380Y153978758D01*
X68519380Y153978758D02*
X68614619Y153883520D01*
X68614619Y153883520D02*
X68709857Y153693044D01*
X68709857Y153693044D02*
X68709857Y152931139D01*
X68614619Y154931139D02*
X68614619Y155597806D01*
X69662238Y155883520D02*
X69662238Y154931139D01*
X69662238Y154931139D02*
X67662238Y154931139D01*
X67662238Y154931139D02*
X67662238Y155883520D01*
D12*
X68750000Y140100000D02*
X68750000Y-7100000D01*
D11*
X33162238Y142454949D02*
X35162238Y143121615D01*
X35162238Y143121615D02*
X33162238Y143788282D01*
X34400333Y144454949D02*
X34400333Y145978759D01*
X35067000Y146835901D02*
X35162238Y147121615D01*
X35162238Y147121615D02*
X35162238Y147597806D01*
X35162238Y147597806D02*
X35067000Y147788282D01*
X35067000Y147788282D02*
X34971761Y147883520D01*
X34971761Y147883520D02*
X34781285Y147978758D01*
X34781285Y147978758D02*
X34590809Y147978758D01*
X34590809Y147978758D02*
X34400333Y147883520D01*
X34400333Y147883520D02*
X34305095Y147788282D01*
X34305095Y147788282D02*
X34209857Y147597806D01*
X34209857Y147597806D02*
X34114619Y147216853D01*
X34114619Y147216853D02*
X34019380Y147026377D01*
X34019380Y147026377D02*
X33924142Y146931139D01*
X33924142Y146931139D02*
X33733666Y146835901D01*
X33733666Y146835901D02*
X33543190Y146835901D01*
X33543190Y146835901D02*
X33352714Y146931139D01*
X33352714Y146931139D02*
X33257476Y147026377D01*
X33257476Y147026377D02*
X33162238Y147216853D01*
X33162238Y147216853D02*
X33162238Y147693044D01*
X33162238Y147693044D02*
X33257476Y147978758D01*
X34971761Y149978758D02*
X35067000Y149883520D01*
X35067000Y149883520D02*
X35162238Y149597806D01*
X35162238Y149597806D02*
X35162238Y149407330D01*
X35162238Y149407330D02*
X35067000Y149121615D01*
X35067000Y149121615D02*
X34876523Y148931139D01*
X34876523Y148931139D02*
X34686047Y148835901D01*
X34686047Y148835901D02*
X34305095Y148740663D01*
X34305095Y148740663D02*
X34019380Y148740663D01*
X34019380Y148740663D02*
X33638428Y148835901D01*
X33638428Y148835901D02*
X33447952Y148931139D01*
X33447952Y148931139D02*
X33257476Y149121615D01*
X33257476Y149121615D02*
X33162238Y149407330D01*
X33162238Y149407330D02*
X33162238Y149597806D01*
X33162238Y149597806D02*
X33257476Y149883520D01*
X33257476Y149883520D02*
X33352714Y149978758D01*
X33162238Y151216853D02*
X33162238Y151597806D01*
X33162238Y151597806D02*
X33257476Y151788282D01*
X33257476Y151788282D02*
X33447952Y151978758D01*
X33447952Y151978758D02*
X33828904Y152073996D01*
X33828904Y152073996D02*
X34495571Y152073996D01*
X34495571Y152073996D02*
X34876523Y151978758D01*
X34876523Y151978758D02*
X35067000Y151788282D01*
X35067000Y151788282D02*
X35162238Y151597806D01*
X35162238Y151597806D02*
X35162238Y151216853D01*
X35162238Y151216853D02*
X35067000Y151026377D01*
X35067000Y151026377D02*
X34876523Y150835901D01*
X34876523Y150835901D02*
X34495571Y150740663D01*
X34495571Y150740663D02*
X33828904Y150740663D01*
X33828904Y150740663D02*
X33447952Y150835901D01*
X33447952Y150835901D02*
X33257476Y151026377D01*
X33257476Y151026377D02*
X33162238Y151216853D01*
X35162238Y154073996D02*
X34209857Y153407329D01*
X35162238Y152931139D02*
X33162238Y152931139D01*
X33162238Y152931139D02*
X33162238Y153693044D01*
X33162238Y153693044D02*
X33257476Y153883520D01*
X33257476Y153883520D02*
X33352714Y153978758D01*
X33352714Y153978758D02*
X33543190Y154073996D01*
X33543190Y154073996D02*
X33828904Y154073996D01*
X33828904Y154073996D02*
X34019380Y153978758D01*
X34019380Y153978758D02*
X34114619Y153883520D01*
X34114619Y153883520D02*
X34209857Y153693044D01*
X34209857Y153693044D02*
X34209857Y152931139D01*
X34114619Y154931139D02*
X34114619Y155597806D01*
X35162238Y155883520D02*
X35162238Y154931139D01*
X35162238Y154931139D02*
X33162238Y154931139D01*
X33162238Y154931139D02*
X33162238Y155883520D01*
D12*
X34250000Y140100000D02*
X34250000Y-7100000D01*
D11*
X-1337762Y142454949D02*
X662238Y143121615D01*
X662238Y143121615D02*
X-1337762Y143788282D01*
X-99667Y144454949D02*
X-99667Y145978759D01*
X567000Y146835901D02*
X662238Y147121615D01*
X662238Y147121615D02*
X662238Y147597806D01*
X662238Y147597806D02*
X567000Y147788282D01*
X567000Y147788282D02*
X471761Y147883520D01*
X471761Y147883520D02*
X281285Y147978758D01*
X281285Y147978758D02*
X90809Y147978758D01*
X90809Y147978758D02*
X-99667Y147883520D01*
X-99667Y147883520D02*
X-194905Y147788282D01*
X-194905Y147788282D02*
X-290143Y147597806D01*
X-290143Y147597806D02*
X-385381Y147216853D01*
X-385381Y147216853D02*
X-480620Y147026377D01*
X-480620Y147026377D02*
X-575858Y146931139D01*
X-575858Y146931139D02*
X-766334Y146835901D01*
X-766334Y146835901D02*
X-956810Y146835901D01*
X-956810Y146835901D02*
X-1147286Y146931139D01*
X-1147286Y146931139D02*
X-1242524Y147026377D01*
X-1242524Y147026377D02*
X-1337762Y147216853D01*
X-1337762Y147216853D02*
X-1337762Y147693044D01*
X-1337762Y147693044D02*
X-1242524Y147978758D01*
X471761Y149978758D02*
X567000Y149883520D01*
X567000Y149883520D02*
X662238Y149597806D01*
X662238Y149597806D02*
X662238Y149407330D01*
X662238Y149407330D02*
X567000Y149121615D01*
X567000Y149121615D02*
X376523Y148931139D01*
X376523Y148931139D02*
X186047Y148835901D01*
X186047Y148835901D02*
X-194905Y148740663D01*
X-194905Y148740663D02*
X-480620Y148740663D01*
X-480620Y148740663D02*
X-861572Y148835901D01*
X-861572Y148835901D02*
X-1052048Y148931139D01*
X-1052048Y148931139D02*
X-1242524Y149121615D01*
X-1242524Y149121615D02*
X-1337762Y149407330D01*
X-1337762Y149407330D02*
X-1337762Y149597806D01*
X-1337762Y149597806D02*
X-1242524Y149883520D01*
X-1242524Y149883520D02*
X-1147286Y149978758D01*
X-1337762Y151216853D02*
X-1337762Y151597806D01*
X-1337762Y151597806D02*
X-1242524Y151788282D01*
X-1242524Y151788282D02*
X-1052048Y151978758D01*
X-1052048Y151978758D02*
X-671096Y152073996D01*
X-671096Y152073996D02*
X-4429Y152073996D01*
X-4429Y152073996D02*
X376523Y151978758D01*
X376523Y151978758D02*
X567000Y151788282D01*
X567000Y151788282D02*
X662238Y151597806D01*
X662238Y151597806D02*
X662238Y151216853D01*
X662238Y151216853D02*
X567000Y151026377D01*
X567000Y151026377D02*
X376523Y150835901D01*
X376523Y150835901D02*
X-4429Y150740663D01*
X-4429Y150740663D02*
X-671096Y150740663D01*
X-671096Y150740663D02*
X-1052048Y150835901D01*
X-1052048Y150835901D02*
X-1242524Y151026377D01*
X-1242524Y151026377D02*
X-1337762Y151216853D01*
X662238Y154073996D02*
X-290143Y153407329D01*
X662238Y152931139D02*
X-1337762Y152931139D01*
X-1337762Y152931139D02*
X-1337762Y153693044D01*
X-1337762Y153693044D02*
X-1242524Y153883520D01*
X-1242524Y153883520D02*
X-1147286Y153978758D01*
X-1147286Y153978758D02*
X-956810Y154073996D01*
X-956810Y154073996D02*
X-671096Y154073996D01*
X-671096Y154073996D02*
X-480620Y153978758D01*
X-480620Y153978758D02*
X-385381Y153883520D01*
X-385381Y153883520D02*
X-290143Y153693044D01*
X-290143Y153693044D02*
X-290143Y152931139D01*
X-385381Y154931139D02*
X-385381Y155597806D01*
X662238Y155883520D02*
X662238Y154931139D01*
X662238Y154931139D02*
X-1337762Y154931139D01*
X-1337762Y154931139D02*
X-1337762Y155883520D01*
D12*
X-250000Y140100000D02*
X-250000Y-7100000D01*
M02*
