%TF.GenerationSoftware,KiCad,Pcbnew,9.0.1*%
%TF.CreationDate,2025-04-16T09:37:59-06:00*%
%TF.ProjectId,SparkFun_GNSS_Flex_Module_DAN-F10N_panelized,53706172-6b46-4756-9e5f-474e53535f46,v10*%
%TF.SameCoordinates,Original*%
%TF.FileFunction,Paste,Bot*%
%TF.FilePolarity,Positive*%
%FSLAX46Y46*%
G04 Gerber Fmt 4.6, Leading zero omitted, Abs format (unit mm)*
G04 Created by KiCad (PCBNEW 9.0.1) date 2025-04-16 09:37:59*
%MOMM*%
%LPD*%
G01*
G04 APERTURE LIST*
%ADD10R,0.850000X2.100000*%
G04 APERTURE END LIST*
D10*
%TO.C,J3*%
X111500000Y126350000D03*
X111500000Y131650000D03*
X113500000Y126350000D03*
X113500000Y131650000D03*
X115500000Y126350000D03*
X115500000Y131650000D03*
X117500000Y126350000D03*
X117500000Y131650000D03*
X119500000Y126350000D03*
X119500000Y131650000D03*
X121500000Y126350000D03*
X121500000Y131650000D03*
X123500000Y126350000D03*
X123500000Y131650000D03*
X125500000Y126350000D03*
X125500000Y131650000D03*
X127500000Y126350000D03*
X127500000Y131650000D03*
X129500000Y126350000D03*
X129500000Y131650000D03*
%TD*%
%TO.C,J3*%
X111500000Y81850000D03*
X111500000Y87150000D03*
X113500000Y81850000D03*
X113500000Y87150000D03*
X115500000Y81850000D03*
X115500000Y87150000D03*
X117500000Y81850000D03*
X117500000Y87150000D03*
X119500000Y81850000D03*
X119500000Y87150000D03*
X121500000Y81850000D03*
X121500000Y87150000D03*
X123500000Y81850000D03*
X123500000Y87150000D03*
X125500000Y81850000D03*
X125500000Y87150000D03*
X127500000Y81850000D03*
X127500000Y87150000D03*
X129500000Y81850000D03*
X129500000Y87150000D03*
%TD*%
%TO.C,J3*%
X111500000Y37350000D03*
X111500000Y42650000D03*
X113500000Y37350000D03*
X113500000Y42650000D03*
X115500000Y37350000D03*
X115500000Y42650000D03*
X117500000Y37350000D03*
X117500000Y42650000D03*
X119500000Y37350000D03*
X119500000Y42650000D03*
X121500000Y37350000D03*
X121500000Y42650000D03*
X123500000Y37350000D03*
X123500000Y42650000D03*
X125500000Y37350000D03*
X125500000Y42650000D03*
X127500000Y37350000D03*
X127500000Y42650000D03*
X129500000Y37350000D03*
X129500000Y42650000D03*
%TD*%
%TO.C,J3*%
X77000000Y126350000D03*
X77000000Y131650000D03*
X79000000Y126350000D03*
X79000000Y131650000D03*
X81000000Y126350000D03*
X81000000Y131650000D03*
X83000000Y126350000D03*
X83000000Y131650000D03*
X85000000Y126350000D03*
X85000000Y131650000D03*
X87000000Y126350000D03*
X87000000Y131650000D03*
X89000000Y126350000D03*
X89000000Y131650000D03*
X91000000Y126350000D03*
X91000000Y131650000D03*
X93000000Y126350000D03*
X93000000Y131650000D03*
X95000000Y126350000D03*
X95000000Y131650000D03*
%TD*%
%TO.C,J3*%
X77000000Y81850000D03*
X77000000Y87150000D03*
X79000000Y81850000D03*
X79000000Y87150000D03*
X81000000Y81850000D03*
X81000000Y87150000D03*
X83000000Y81850000D03*
X83000000Y87150000D03*
X85000000Y81850000D03*
X85000000Y87150000D03*
X87000000Y81850000D03*
X87000000Y87150000D03*
X89000000Y81850000D03*
X89000000Y87150000D03*
X91000000Y81850000D03*
X91000000Y87150000D03*
X93000000Y81850000D03*
X93000000Y87150000D03*
X95000000Y81850000D03*
X95000000Y87150000D03*
%TD*%
%TO.C,J3*%
X77000000Y37350000D03*
X77000000Y42650000D03*
X79000000Y37350000D03*
X79000000Y42650000D03*
X81000000Y37350000D03*
X81000000Y42650000D03*
X83000000Y37350000D03*
X83000000Y42650000D03*
X85000000Y37350000D03*
X85000000Y42650000D03*
X87000000Y37350000D03*
X87000000Y42650000D03*
X89000000Y37350000D03*
X89000000Y42650000D03*
X91000000Y37350000D03*
X91000000Y42650000D03*
X93000000Y37350000D03*
X93000000Y42650000D03*
X95000000Y37350000D03*
X95000000Y42650000D03*
%TD*%
%TO.C,J3*%
X42500000Y126350000D03*
X42500000Y131650000D03*
X44500000Y126350000D03*
X44500000Y131650000D03*
X46500000Y126350000D03*
X46500000Y131650000D03*
X48500000Y126350000D03*
X48500000Y131650000D03*
X50500000Y126350000D03*
X50500000Y131650000D03*
X52500000Y126350000D03*
X52500000Y131650000D03*
X54500000Y126350000D03*
X54500000Y131650000D03*
X56500000Y126350000D03*
X56500000Y131650000D03*
X58500000Y126350000D03*
X58500000Y131650000D03*
X60500000Y126350000D03*
X60500000Y131650000D03*
%TD*%
%TO.C,J3*%
X42500000Y81850000D03*
X42500000Y87150000D03*
X44500000Y81850000D03*
X44500000Y87150000D03*
X46500000Y81850000D03*
X46500000Y87150000D03*
X48500000Y81850000D03*
X48500000Y87150000D03*
X50500000Y81850000D03*
X50500000Y87150000D03*
X52500000Y81850000D03*
X52500000Y87150000D03*
X54500000Y81850000D03*
X54500000Y87150000D03*
X56500000Y81850000D03*
X56500000Y87150000D03*
X58500000Y81850000D03*
X58500000Y87150000D03*
X60500000Y81850000D03*
X60500000Y87150000D03*
%TD*%
%TO.C,J3*%
X42500000Y37350000D03*
X42500000Y42650000D03*
X44500000Y37350000D03*
X44500000Y42650000D03*
X46500000Y37350000D03*
X46500000Y42650000D03*
X48500000Y37350000D03*
X48500000Y42650000D03*
X50500000Y37350000D03*
X50500000Y42650000D03*
X52500000Y37350000D03*
X52500000Y42650000D03*
X54500000Y37350000D03*
X54500000Y42650000D03*
X56500000Y37350000D03*
X56500000Y42650000D03*
X58500000Y37350000D03*
X58500000Y42650000D03*
X60500000Y37350000D03*
X60500000Y42650000D03*
%TD*%
%TO.C,J3*%
X8000000Y126350000D03*
X8000000Y131650000D03*
X10000000Y126350000D03*
X10000000Y131650000D03*
X12000000Y126350000D03*
X12000000Y131650000D03*
X14000000Y126350000D03*
X14000000Y131650000D03*
X16000000Y126350000D03*
X16000000Y131650000D03*
X18000000Y126350000D03*
X18000000Y131650000D03*
X20000000Y126350000D03*
X20000000Y131650000D03*
X22000000Y126350000D03*
X22000000Y131650000D03*
X24000000Y126350000D03*
X24000000Y131650000D03*
X26000000Y126350000D03*
X26000000Y131650000D03*
%TD*%
%TO.C,J3*%
X8000000Y81850000D03*
X8000000Y87150000D03*
X10000000Y81850000D03*
X10000000Y87150000D03*
X12000000Y81850000D03*
X12000000Y87150000D03*
X14000000Y81850000D03*
X14000000Y87150000D03*
X16000000Y81850000D03*
X16000000Y87150000D03*
X18000000Y81850000D03*
X18000000Y87150000D03*
X20000000Y81850000D03*
X20000000Y87150000D03*
X22000000Y81850000D03*
X22000000Y87150000D03*
X24000000Y81850000D03*
X24000000Y87150000D03*
X26000000Y81850000D03*
X26000000Y87150000D03*
%TD*%
%TO.C,J1*%
X111500000Y90350000D03*
X111500000Y95650000D03*
X113500000Y90350000D03*
X113500000Y95650000D03*
X115500000Y90350000D03*
X115500000Y95650000D03*
X117500000Y90350000D03*
X117500000Y95650000D03*
X119500000Y90350000D03*
X119500000Y95650000D03*
X121500000Y90350000D03*
X121500000Y95650000D03*
X123500000Y90350000D03*
X123500000Y95650000D03*
X125500000Y90350000D03*
X125500000Y95650000D03*
X127500000Y90350000D03*
X127500000Y95650000D03*
X129500000Y90350000D03*
X129500000Y95650000D03*
%TD*%
%TO.C,J1*%
X111500000Y45850000D03*
X111500000Y51150000D03*
X113500000Y45850000D03*
X113500000Y51150000D03*
X115500000Y45850000D03*
X115500000Y51150000D03*
X117500000Y45850000D03*
X117500000Y51150000D03*
X119500000Y45850000D03*
X119500000Y51150000D03*
X121500000Y45850000D03*
X121500000Y51150000D03*
X123500000Y45850000D03*
X123500000Y51150000D03*
X125500000Y45850000D03*
X125500000Y51150000D03*
X127500000Y45850000D03*
X127500000Y51150000D03*
X129500000Y45850000D03*
X129500000Y51150000D03*
%TD*%
%TO.C,J1*%
X111500000Y1350000D03*
X111500000Y6650000D03*
X113500000Y1350000D03*
X113500000Y6650000D03*
X115500000Y1350000D03*
X115500000Y6650000D03*
X117500000Y1350000D03*
X117500000Y6650000D03*
X119500000Y1350000D03*
X119500000Y6650000D03*
X121500000Y1350000D03*
X121500000Y6650000D03*
X123500000Y1350000D03*
X123500000Y6650000D03*
X125500000Y1350000D03*
X125500000Y6650000D03*
X127500000Y1350000D03*
X127500000Y6650000D03*
X129500000Y1350000D03*
X129500000Y6650000D03*
%TD*%
%TO.C,J1*%
X77000000Y90350000D03*
X77000000Y95650000D03*
X79000000Y90350000D03*
X79000000Y95650000D03*
X81000000Y90350000D03*
X81000000Y95650000D03*
X83000000Y90350000D03*
X83000000Y95650000D03*
X85000000Y90350000D03*
X85000000Y95650000D03*
X87000000Y90350000D03*
X87000000Y95650000D03*
X89000000Y90350000D03*
X89000000Y95650000D03*
X91000000Y90350000D03*
X91000000Y95650000D03*
X93000000Y90350000D03*
X93000000Y95650000D03*
X95000000Y90350000D03*
X95000000Y95650000D03*
%TD*%
%TO.C,J1*%
X77000000Y45850000D03*
X77000000Y51150000D03*
X79000000Y45850000D03*
X79000000Y51150000D03*
X81000000Y45850000D03*
X81000000Y51150000D03*
X83000000Y45850000D03*
X83000000Y51150000D03*
X85000000Y45850000D03*
X85000000Y51150000D03*
X87000000Y45850000D03*
X87000000Y51150000D03*
X89000000Y45850000D03*
X89000000Y51150000D03*
X91000000Y45850000D03*
X91000000Y51150000D03*
X93000000Y45850000D03*
X93000000Y51150000D03*
X95000000Y45850000D03*
X95000000Y51150000D03*
%TD*%
%TO.C,J1*%
X77000000Y1350000D03*
X77000000Y6650000D03*
X79000000Y1350000D03*
X79000000Y6650000D03*
X81000000Y1350000D03*
X81000000Y6650000D03*
X83000000Y1350000D03*
X83000000Y6650000D03*
X85000000Y1350000D03*
X85000000Y6650000D03*
X87000000Y1350000D03*
X87000000Y6650000D03*
X89000000Y1350000D03*
X89000000Y6650000D03*
X91000000Y1350000D03*
X91000000Y6650000D03*
X93000000Y1350000D03*
X93000000Y6650000D03*
X95000000Y1350000D03*
X95000000Y6650000D03*
%TD*%
%TO.C,J1*%
X42500000Y90350000D03*
X42500000Y95650000D03*
X44500000Y90350000D03*
X44500000Y95650000D03*
X46500000Y90350000D03*
X46500000Y95650000D03*
X48500000Y90350000D03*
X48500000Y95650000D03*
X50500000Y90350000D03*
X50500000Y95650000D03*
X52500000Y90350000D03*
X52500000Y95650000D03*
X54500000Y90350000D03*
X54500000Y95650000D03*
X56500000Y90350000D03*
X56500000Y95650000D03*
X58500000Y90350000D03*
X58500000Y95650000D03*
X60500000Y90350000D03*
X60500000Y95650000D03*
%TD*%
%TO.C,J1*%
X42500000Y45850000D03*
X42500000Y51150000D03*
X44500000Y45850000D03*
X44500000Y51150000D03*
X46500000Y45850000D03*
X46500000Y51150000D03*
X48500000Y45850000D03*
X48500000Y51150000D03*
X50500000Y45850000D03*
X50500000Y51150000D03*
X52500000Y45850000D03*
X52500000Y51150000D03*
X54500000Y45850000D03*
X54500000Y51150000D03*
X56500000Y45850000D03*
X56500000Y51150000D03*
X58500000Y45850000D03*
X58500000Y51150000D03*
X60500000Y45850000D03*
X60500000Y51150000D03*
%TD*%
%TO.C,J1*%
X42500000Y1350000D03*
X42500000Y6650000D03*
X44500000Y1350000D03*
X44500000Y6650000D03*
X46500000Y1350000D03*
X46500000Y6650000D03*
X48500000Y1350000D03*
X48500000Y6650000D03*
X50500000Y1350000D03*
X50500000Y6650000D03*
X52500000Y1350000D03*
X52500000Y6650000D03*
X54500000Y1350000D03*
X54500000Y6650000D03*
X56500000Y1350000D03*
X56500000Y6650000D03*
X58500000Y1350000D03*
X58500000Y6650000D03*
X60500000Y1350000D03*
X60500000Y6650000D03*
%TD*%
%TO.C,J1*%
X8000000Y90350000D03*
X8000000Y95650000D03*
X10000000Y90350000D03*
X10000000Y95650000D03*
X12000000Y90350000D03*
X12000000Y95650000D03*
X14000000Y90350000D03*
X14000000Y95650000D03*
X16000000Y90350000D03*
X16000000Y95650000D03*
X18000000Y90350000D03*
X18000000Y95650000D03*
X20000000Y90350000D03*
X20000000Y95650000D03*
X22000000Y90350000D03*
X22000000Y95650000D03*
X24000000Y90350000D03*
X24000000Y95650000D03*
X26000000Y90350000D03*
X26000000Y95650000D03*
%TD*%
%TO.C,J1*%
X8000000Y45850000D03*
X8000000Y51150000D03*
X10000000Y45850000D03*
X10000000Y51150000D03*
X12000000Y45850000D03*
X12000000Y51150000D03*
X14000000Y45850000D03*
X14000000Y51150000D03*
X16000000Y45850000D03*
X16000000Y51150000D03*
X18000000Y45850000D03*
X18000000Y51150000D03*
X20000000Y45850000D03*
X20000000Y51150000D03*
X22000000Y45850000D03*
X22000000Y51150000D03*
X24000000Y45850000D03*
X24000000Y51150000D03*
X26000000Y45850000D03*
X26000000Y51150000D03*
%TD*%
%TO.C,J1*%
X8000000Y1350000D03*
X8000000Y6650000D03*
X10000000Y1350000D03*
X10000000Y6650000D03*
X12000000Y1350000D03*
X12000000Y6650000D03*
X14000000Y1350000D03*
X14000000Y6650000D03*
X16000000Y1350000D03*
X16000000Y6650000D03*
X18000000Y1350000D03*
X18000000Y6650000D03*
X20000000Y1350000D03*
X20000000Y6650000D03*
X22000000Y1350000D03*
X22000000Y6650000D03*
X24000000Y1350000D03*
X24000000Y6650000D03*
X26000000Y1350000D03*
X26000000Y6650000D03*
%TD*%
%TO.C,J3*%
X8000000Y37350000D03*
X8000000Y42650000D03*
X10000000Y37350000D03*
X10000000Y42650000D03*
X12000000Y37350000D03*
X12000000Y42650000D03*
X14000000Y37350000D03*
X14000000Y42650000D03*
X16000000Y37350000D03*
X16000000Y42650000D03*
X18000000Y37350000D03*
X18000000Y42650000D03*
X20000000Y37350000D03*
X20000000Y42650000D03*
X22000000Y37350000D03*
X22000000Y42650000D03*
X24000000Y37350000D03*
X24000000Y42650000D03*
X26000000Y37350000D03*
X26000000Y42650000D03*
%TD*%
M02*
