%TF.GenerationSoftware,KiCad,Pcbnew,9.0.1*%
%TF.CreationDate,2025-04-16T09:37:59-06:00*%
%TF.ProjectId,SparkFun_GNSS_Flex_Module_DAN-F10N_panelized,53706172-6b46-4756-9e5f-474e53535f46,v10*%
%TF.SameCoordinates,Original*%
%TF.FileFunction,Soldermask,Bot*%
%TF.FilePolarity,Negative*%
%FSLAX46Y46*%
G04 Gerber Fmt 4.6, Leading zero omitted, Abs format (unit mm)*
G04 Created by KiCad (PCBNEW 9.0.1) date 2025-04-16 09:37:59*
%MOMM*%
%LPD*%
G01*
G04 APERTURE LIST*
G04 Aperture macros list*
%AMRoundRect*
0 Rectangle with rounded corners*
0 $1 Rounding radius*
0 $2 $3 $4 $5 $6 $7 $8 $9 X,Y pos of 4 corners*
0 Add a 4 corners polygon primitive as box body*
4,1,4,$2,$3,$4,$5,$6,$7,$8,$9,$2,$3,0*
0 Add four circle primitives for the rounded corners*
1,1,$1+$1,$2,$3*
1,1,$1+$1,$4,$5*
1,1,$1+$1,$6,$7*
1,1,$1+$1,$8,$9*
0 Add four rect primitives between the rounded corners*
20,1,$1+$1,$2,$3,$4,$5,0*
20,1,$1+$1,$4,$5,$6,$7,0*
20,1,$1+$1,$6,$7,$8,$9,0*
20,1,$1+$1,$8,$9,$2,$3,0*%
G04 Aperture macros list end*
%ADD10C,3.000000*%
%ADD11C,1.300000*%
%ADD12RoundRect,0.050000X-0.425000X1.050000X-0.425000X-1.050000X0.425000X-1.050000X0.425000X1.050000X0*%
%ADD13C,0.600000*%
%ADD14C,3.200000*%
G04 APERTURE END LIST*
D10*
%TO.C,*%
X139587500Y131000000D03*
%TD*%
%TO.C,*%
X-2087500Y131000000D03*
%TD*%
%TO.C,*%
X-2087500Y2000000D03*
%TD*%
D11*
%TO.C,J3*%
X128500000Y129000000D03*
X112500000Y129000000D03*
D12*
X111500000Y126350000D03*
X111500000Y131650000D03*
X113500000Y126350000D03*
X113500000Y131650000D03*
X115500000Y126350000D03*
X115500000Y131650000D03*
X117500000Y126350000D03*
X117500000Y131650000D03*
X119500000Y126350000D03*
X119500000Y131650000D03*
X121500000Y126350000D03*
X121500000Y131650000D03*
X123500000Y126350000D03*
X123500000Y131650000D03*
X125500000Y126350000D03*
X125500000Y131650000D03*
X127500000Y126350000D03*
X127500000Y131650000D03*
X129500000Y126350000D03*
X129500000Y131650000D03*
%TD*%
D11*
%TO.C,J3*%
X128500000Y84500000D03*
X112500000Y84500000D03*
D12*
X111500000Y81850000D03*
X111500000Y87150000D03*
X113500000Y81850000D03*
X113500000Y87150000D03*
X115500000Y81850000D03*
X115500000Y87150000D03*
X117500000Y81850000D03*
X117500000Y87150000D03*
X119500000Y81850000D03*
X119500000Y87150000D03*
X121500000Y81850000D03*
X121500000Y87150000D03*
X123500000Y81850000D03*
X123500000Y87150000D03*
X125500000Y81850000D03*
X125500000Y87150000D03*
X127500000Y81850000D03*
X127500000Y87150000D03*
X129500000Y81850000D03*
X129500000Y87150000D03*
%TD*%
D11*
%TO.C,J3*%
X128500000Y40000000D03*
X112500000Y40000000D03*
D12*
X111500000Y37350000D03*
X111500000Y42650000D03*
X113500000Y37350000D03*
X113500000Y42650000D03*
X115500000Y37350000D03*
X115500000Y42650000D03*
X117500000Y37350000D03*
X117500000Y42650000D03*
X119500000Y37350000D03*
X119500000Y42650000D03*
X121500000Y37350000D03*
X121500000Y42650000D03*
X123500000Y37350000D03*
X123500000Y42650000D03*
X125500000Y37350000D03*
X125500000Y42650000D03*
X127500000Y37350000D03*
X127500000Y42650000D03*
X129500000Y37350000D03*
X129500000Y42650000D03*
%TD*%
D11*
%TO.C,J3*%
X94000000Y129000000D03*
X78000000Y129000000D03*
D12*
X77000000Y126350000D03*
X77000000Y131650000D03*
X79000000Y126350000D03*
X79000000Y131650000D03*
X81000000Y126350000D03*
X81000000Y131650000D03*
X83000000Y126350000D03*
X83000000Y131650000D03*
X85000000Y126350000D03*
X85000000Y131650000D03*
X87000000Y126350000D03*
X87000000Y131650000D03*
X89000000Y126350000D03*
X89000000Y131650000D03*
X91000000Y126350000D03*
X91000000Y131650000D03*
X93000000Y126350000D03*
X93000000Y131650000D03*
X95000000Y126350000D03*
X95000000Y131650000D03*
%TD*%
D11*
%TO.C,J3*%
X94000000Y84500000D03*
X78000000Y84500000D03*
D12*
X77000000Y81850000D03*
X77000000Y87150000D03*
X79000000Y81850000D03*
X79000000Y87150000D03*
X81000000Y81850000D03*
X81000000Y87150000D03*
X83000000Y81850000D03*
X83000000Y87150000D03*
X85000000Y81850000D03*
X85000000Y87150000D03*
X87000000Y81850000D03*
X87000000Y87150000D03*
X89000000Y81850000D03*
X89000000Y87150000D03*
X91000000Y81850000D03*
X91000000Y87150000D03*
X93000000Y81850000D03*
X93000000Y87150000D03*
X95000000Y81850000D03*
X95000000Y87150000D03*
%TD*%
D11*
%TO.C,J3*%
X94000000Y40000000D03*
X78000000Y40000000D03*
D12*
X77000000Y37350000D03*
X77000000Y42650000D03*
X79000000Y37350000D03*
X79000000Y42650000D03*
X81000000Y37350000D03*
X81000000Y42650000D03*
X83000000Y37350000D03*
X83000000Y42650000D03*
X85000000Y37350000D03*
X85000000Y42650000D03*
X87000000Y37350000D03*
X87000000Y42650000D03*
X89000000Y37350000D03*
X89000000Y42650000D03*
X91000000Y37350000D03*
X91000000Y42650000D03*
X93000000Y37350000D03*
X93000000Y42650000D03*
X95000000Y37350000D03*
X95000000Y42650000D03*
%TD*%
D11*
%TO.C,J3*%
X59500000Y129000000D03*
X43500000Y129000000D03*
D12*
X42500000Y126350000D03*
X42500000Y131650000D03*
X44500000Y126350000D03*
X44500000Y131650000D03*
X46500000Y126350000D03*
X46500000Y131650000D03*
X48500000Y126350000D03*
X48500000Y131650000D03*
X50500000Y126350000D03*
X50500000Y131650000D03*
X52500000Y126350000D03*
X52500000Y131650000D03*
X54500000Y126350000D03*
X54500000Y131650000D03*
X56500000Y126350000D03*
X56500000Y131650000D03*
X58500000Y126350000D03*
X58500000Y131650000D03*
X60500000Y126350000D03*
X60500000Y131650000D03*
%TD*%
D11*
%TO.C,J3*%
X59500000Y84500000D03*
X43500000Y84500000D03*
D12*
X42500000Y81850000D03*
X42500000Y87150000D03*
X44500000Y81850000D03*
X44500000Y87150000D03*
X46500000Y81850000D03*
X46500000Y87150000D03*
X48500000Y81850000D03*
X48500000Y87150000D03*
X50500000Y81850000D03*
X50500000Y87150000D03*
X52500000Y81850000D03*
X52500000Y87150000D03*
X54500000Y81850000D03*
X54500000Y87150000D03*
X56500000Y81850000D03*
X56500000Y87150000D03*
X58500000Y81850000D03*
X58500000Y87150000D03*
X60500000Y81850000D03*
X60500000Y87150000D03*
%TD*%
D11*
%TO.C,J3*%
X59500000Y40000000D03*
X43500000Y40000000D03*
D12*
X42500000Y37350000D03*
X42500000Y42650000D03*
X44500000Y37350000D03*
X44500000Y42650000D03*
X46500000Y37350000D03*
X46500000Y42650000D03*
X48500000Y37350000D03*
X48500000Y42650000D03*
X50500000Y37350000D03*
X50500000Y42650000D03*
X52500000Y37350000D03*
X52500000Y42650000D03*
X54500000Y37350000D03*
X54500000Y42650000D03*
X56500000Y37350000D03*
X56500000Y42650000D03*
X58500000Y37350000D03*
X58500000Y42650000D03*
X60500000Y37350000D03*
X60500000Y42650000D03*
%TD*%
D11*
%TO.C,J3*%
X25000000Y129000000D03*
X9000000Y129000000D03*
D12*
X8000000Y126350000D03*
X8000000Y131650000D03*
X10000000Y126350000D03*
X10000000Y131650000D03*
X12000000Y126350000D03*
X12000000Y131650000D03*
X14000000Y126350000D03*
X14000000Y131650000D03*
X16000000Y126350000D03*
X16000000Y131650000D03*
X18000000Y126350000D03*
X18000000Y131650000D03*
X20000000Y126350000D03*
X20000000Y131650000D03*
X22000000Y126350000D03*
X22000000Y131650000D03*
X24000000Y126350000D03*
X24000000Y131650000D03*
X26000000Y126350000D03*
X26000000Y131650000D03*
%TD*%
D11*
%TO.C,J3*%
X25000000Y84500000D03*
X9000000Y84500000D03*
D12*
X8000000Y81850000D03*
X8000000Y87150000D03*
X10000000Y81850000D03*
X10000000Y87150000D03*
X12000000Y81850000D03*
X12000000Y87150000D03*
X14000000Y81850000D03*
X14000000Y87150000D03*
X16000000Y81850000D03*
X16000000Y87150000D03*
X18000000Y81850000D03*
X18000000Y87150000D03*
X20000000Y81850000D03*
X20000000Y87150000D03*
X22000000Y81850000D03*
X22000000Y87150000D03*
X24000000Y81850000D03*
X24000000Y87150000D03*
X26000000Y81850000D03*
X26000000Y87150000D03*
%TD*%
D11*
%TO.C,J1*%
X128500000Y93000000D03*
X112500000Y93000000D03*
D12*
X111500000Y90350000D03*
X111500000Y95650000D03*
X113500000Y90350000D03*
X113500000Y95650000D03*
X115500000Y90350000D03*
X115500000Y95650000D03*
X117500000Y90350000D03*
X117500000Y95650000D03*
X119500000Y90350000D03*
X119500000Y95650000D03*
X121500000Y90350000D03*
X121500000Y95650000D03*
X123500000Y90350000D03*
X123500000Y95650000D03*
X125500000Y90350000D03*
X125500000Y95650000D03*
X127500000Y90350000D03*
X127500000Y95650000D03*
X129500000Y90350000D03*
X129500000Y95650000D03*
%TD*%
D11*
%TO.C,J1*%
X128500000Y48500000D03*
X112500000Y48500000D03*
D12*
X111500000Y45850000D03*
X111500000Y51150000D03*
X113500000Y45850000D03*
X113500000Y51150000D03*
X115500000Y45850000D03*
X115500000Y51150000D03*
X117500000Y45850000D03*
X117500000Y51150000D03*
X119500000Y45850000D03*
X119500000Y51150000D03*
X121500000Y45850000D03*
X121500000Y51150000D03*
X123500000Y45850000D03*
X123500000Y51150000D03*
X125500000Y45850000D03*
X125500000Y51150000D03*
X127500000Y45850000D03*
X127500000Y51150000D03*
X129500000Y45850000D03*
X129500000Y51150000D03*
%TD*%
D11*
%TO.C,J1*%
X128500000Y4000000D03*
X112500000Y4000000D03*
D12*
X111500000Y1350000D03*
X111500000Y6650000D03*
X113500000Y1350000D03*
X113500000Y6650000D03*
X115500000Y1350000D03*
X115500000Y6650000D03*
X117500000Y1350000D03*
X117500000Y6650000D03*
X119500000Y1350000D03*
X119500000Y6650000D03*
X121500000Y1350000D03*
X121500000Y6650000D03*
X123500000Y1350000D03*
X123500000Y6650000D03*
X125500000Y1350000D03*
X125500000Y6650000D03*
X127500000Y1350000D03*
X127500000Y6650000D03*
X129500000Y1350000D03*
X129500000Y6650000D03*
%TD*%
D11*
%TO.C,J1*%
X94000000Y93000000D03*
X78000000Y93000000D03*
D12*
X77000000Y90350000D03*
X77000000Y95650000D03*
X79000000Y90350000D03*
X79000000Y95650000D03*
X81000000Y90350000D03*
X81000000Y95650000D03*
X83000000Y90350000D03*
X83000000Y95650000D03*
X85000000Y90350000D03*
X85000000Y95650000D03*
X87000000Y90350000D03*
X87000000Y95650000D03*
X89000000Y90350000D03*
X89000000Y95650000D03*
X91000000Y90350000D03*
X91000000Y95650000D03*
X93000000Y90350000D03*
X93000000Y95650000D03*
X95000000Y90350000D03*
X95000000Y95650000D03*
%TD*%
D11*
%TO.C,J1*%
X94000000Y48500000D03*
X78000000Y48500000D03*
D12*
X77000000Y45850000D03*
X77000000Y51150000D03*
X79000000Y45850000D03*
X79000000Y51150000D03*
X81000000Y45850000D03*
X81000000Y51150000D03*
X83000000Y45850000D03*
X83000000Y51150000D03*
X85000000Y45850000D03*
X85000000Y51150000D03*
X87000000Y45850000D03*
X87000000Y51150000D03*
X89000000Y45850000D03*
X89000000Y51150000D03*
X91000000Y45850000D03*
X91000000Y51150000D03*
X93000000Y45850000D03*
X93000000Y51150000D03*
X95000000Y45850000D03*
X95000000Y51150000D03*
%TD*%
D11*
%TO.C,J1*%
X94000000Y4000000D03*
X78000000Y4000000D03*
D12*
X77000000Y1350000D03*
X77000000Y6650000D03*
X79000000Y1350000D03*
X79000000Y6650000D03*
X81000000Y1350000D03*
X81000000Y6650000D03*
X83000000Y1350000D03*
X83000000Y6650000D03*
X85000000Y1350000D03*
X85000000Y6650000D03*
X87000000Y1350000D03*
X87000000Y6650000D03*
X89000000Y1350000D03*
X89000000Y6650000D03*
X91000000Y1350000D03*
X91000000Y6650000D03*
X93000000Y1350000D03*
X93000000Y6650000D03*
X95000000Y1350000D03*
X95000000Y6650000D03*
%TD*%
D11*
%TO.C,J1*%
X59500000Y93000000D03*
X43500000Y93000000D03*
D12*
X42500000Y90350000D03*
X42500000Y95650000D03*
X44500000Y90350000D03*
X44500000Y95650000D03*
X46500000Y90350000D03*
X46500000Y95650000D03*
X48500000Y90350000D03*
X48500000Y95650000D03*
X50500000Y90350000D03*
X50500000Y95650000D03*
X52500000Y90350000D03*
X52500000Y95650000D03*
X54500000Y90350000D03*
X54500000Y95650000D03*
X56500000Y90350000D03*
X56500000Y95650000D03*
X58500000Y90350000D03*
X58500000Y95650000D03*
X60500000Y90350000D03*
X60500000Y95650000D03*
%TD*%
D11*
%TO.C,J1*%
X59500000Y48500000D03*
X43500000Y48500000D03*
D12*
X42500000Y45850000D03*
X42500000Y51150000D03*
X44500000Y45850000D03*
X44500000Y51150000D03*
X46500000Y45850000D03*
X46500000Y51150000D03*
X48500000Y45850000D03*
X48500000Y51150000D03*
X50500000Y45850000D03*
X50500000Y51150000D03*
X52500000Y45850000D03*
X52500000Y51150000D03*
X54500000Y45850000D03*
X54500000Y51150000D03*
X56500000Y45850000D03*
X56500000Y51150000D03*
X58500000Y45850000D03*
X58500000Y51150000D03*
X60500000Y45850000D03*
X60500000Y51150000D03*
%TD*%
D11*
%TO.C,J1*%
X59500000Y4000000D03*
X43500000Y4000000D03*
D12*
X42500000Y1350000D03*
X42500000Y6650000D03*
X44500000Y1350000D03*
X44500000Y6650000D03*
X46500000Y1350000D03*
X46500000Y6650000D03*
X48500000Y1350000D03*
X48500000Y6650000D03*
X50500000Y1350000D03*
X50500000Y6650000D03*
X52500000Y1350000D03*
X52500000Y6650000D03*
X54500000Y1350000D03*
X54500000Y6650000D03*
X56500000Y1350000D03*
X56500000Y6650000D03*
X58500000Y1350000D03*
X58500000Y6650000D03*
X60500000Y1350000D03*
X60500000Y6650000D03*
%TD*%
D11*
%TO.C,J1*%
X25000000Y93000000D03*
X9000000Y93000000D03*
D12*
X8000000Y90350000D03*
X8000000Y95650000D03*
X10000000Y90350000D03*
X10000000Y95650000D03*
X12000000Y90350000D03*
X12000000Y95650000D03*
X14000000Y90350000D03*
X14000000Y95650000D03*
X16000000Y90350000D03*
X16000000Y95650000D03*
X18000000Y90350000D03*
X18000000Y95650000D03*
X20000000Y90350000D03*
X20000000Y95650000D03*
X22000000Y90350000D03*
X22000000Y95650000D03*
X24000000Y90350000D03*
X24000000Y95650000D03*
X26000000Y90350000D03*
X26000000Y95650000D03*
%TD*%
D11*
%TO.C,J1*%
X25000000Y48500000D03*
X9000000Y48500000D03*
D12*
X8000000Y45850000D03*
X8000000Y51150000D03*
X10000000Y45850000D03*
X10000000Y51150000D03*
X12000000Y45850000D03*
X12000000Y51150000D03*
X14000000Y45850000D03*
X14000000Y51150000D03*
X16000000Y45850000D03*
X16000000Y51150000D03*
X18000000Y45850000D03*
X18000000Y51150000D03*
X20000000Y45850000D03*
X20000000Y51150000D03*
X22000000Y45850000D03*
X22000000Y51150000D03*
X24000000Y45850000D03*
X24000000Y51150000D03*
X26000000Y45850000D03*
X26000000Y51150000D03*
%TD*%
D13*
%TO.C,FID2*%
X132000000Y132000000D03*
%TD*%
%TO.C,FID2*%
X132000000Y87500000D03*
%TD*%
%TO.C,FID2*%
X132000000Y43000000D03*
%TD*%
%TO.C,FID2*%
X97500000Y132000000D03*
%TD*%
%TO.C,FID2*%
X97500000Y87500000D03*
%TD*%
%TO.C,FID2*%
X97500000Y43000000D03*
%TD*%
%TO.C,FID2*%
X63000000Y132000000D03*
%TD*%
%TO.C,FID2*%
X63000000Y87500000D03*
%TD*%
%TO.C,FID2*%
X63000000Y43000000D03*
%TD*%
%TO.C,FID2*%
X28500000Y132000000D03*
%TD*%
%TO.C,FID2*%
X28500000Y87500000D03*
%TD*%
%TO.C,FID3*%
X109000000Y90000000D03*
%TD*%
%TO.C,FID3*%
X109000000Y45500000D03*
%TD*%
%TO.C,FID3*%
X109000000Y1000000D03*
%TD*%
%TO.C,FID3*%
X74500000Y90000000D03*
%TD*%
%TO.C,FID3*%
X74500000Y45500000D03*
%TD*%
%TO.C,FID3*%
X74500000Y1000000D03*
%TD*%
%TO.C,FID3*%
X40000000Y90000000D03*
%TD*%
%TO.C,FID3*%
X40000000Y45500000D03*
%TD*%
%TO.C,FID3*%
X40000000Y1000000D03*
%TD*%
%TO.C,FID3*%
X5500000Y90000000D03*
%TD*%
%TO.C,FID3*%
X5500000Y45500000D03*
%TD*%
D14*
%TO.C,ST2*%
X135000000Y91500000D03*
%TD*%
%TO.C,ST2*%
X135000000Y47000000D03*
%TD*%
%TO.C,ST2*%
X135000000Y2500000D03*
%TD*%
%TO.C,ST2*%
X100500000Y91500000D03*
%TD*%
%TO.C,ST2*%
X100500000Y47000000D03*
%TD*%
%TO.C,ST2*%
X100500000Y2500000D03*
%TD*%
%TO.C,ST2*%
X66000000Y91500000D03*
%TD*%
%TO.C,ST2*%
X66000000Y47000000D03*
%TD*%
%TO.C,ST2*%
X66000000Y2500000D03*
%TD*%
%TO.C,ST2*%
X31500000Y91500000D03*
%TD*%
%TO.C,ST2*%
X31500000Y47000000D03*
%TD*%
%TO.C,ST1*%
X106000000Y91500000D03*
%TD*%
%TO.C,ST1*%
X106000000Y47000000D03*
%TD*%
%TO.C,ST1*%
X106000000Y2500000D03*
%TD*%
%TO.C,ST1*%
X71500000Y91500000D03*
%TD*%
%TO.C,ST1*%
X71500000Y47000000D03*
%TD*%
%TO.C,ST1*%
X71500000Y2500000D03*
%TD*%
%TO.C,ST1*%
X37000000Y91500000D03*
%TD*%
%TO.C,ST1*%
X37000000Y47000000D03*
%TD*%
%TO.C,ST1*%
X37000000Y2500000D03*
%TD*%
%TO.C,ST1*%
X2500000Y91500000D03*
%TD*%
%TO.C,ST1*%
X2500000Y47000000D03*
%TD*%
%TO.C,ST3*%
X106000000Y130500000D03*
%TD*%
%TO.C,ST3*%
X106000000Y86000000D03*
%TD*%
%TO.C,ST3*%
X106000000Y41500000D03*
%TD*%
%TO.C,ST3*%
X71500000Y130500000D03*
%TD*%
%TO.C,ST3*%
X71500000Y86000000D03*
%TD*%
%TO.C,ST3*%
X71500000Y41500000D03*
%TD*%
%TO.C,ST3*%
X37000000Y130500000D03*
%TD*%
%TO.C,ST3*%
X37000000Y86000000D03*
%TD*%
%TO.C,ST3*%
X37000000Y41500000D03*
%TD*%
%TO.C,ST3*%
X2500000Y130500000D03*
%TD*%
%TO.C,ST3*%
X2500000Y86000000D03*
%TD*%
%TO.C,ST4*%
X135000000Y130500000D03*
%TD*%
%TO.C,ST4*%
X135000000Y86000000D03*
%TD*%
%TO.C,ST4*%
X135000000Y41500000D03*
%TD*%
%TO.C,ST4*%
X100500000Y130500000D03*
%TD*%
%TO.C,ST4*%
X100500000Y86000000D03*
%TD*%
%TO.C,ST4*%
X100500000Y41500000D03*
%TD*%
%TO.C,ST4*%
X66000000Y130500000D03*
%TD*%
%TO.C,ST4*%
X66000000Y86000000D03*
%TD*%
%TO.C,ST4*%
X66000000Y41500000D03*
%TD*%
%TO.C,ST4*%
X31500000Y130500000D03*
%TD*%
%TO.C,ST4*%
X31500000Y86000000D03*
%TD*%
%TO.C,ST4*%
X31500000Y41500000D03*
%TD*%
%TO.C,ST3*%
X2500000Y41500000D03*
%TD*%
%TO.C,ST1*%
X2500000Y2500000D03*
%TD*%
%TO.C,ST2*%
X31500000Y2500000D03*
%TD*%
D13*
%TO.C,FID3*%
X5500000Y1000000D03*
%TD*%
%TO.C,FID2*%
X28500000Y43000000D03*
%TD*%
D11*
%TO.C,J1*%
X25000000Y4000000D03*
X9000000Y4000000D03*
D12*
X8000000Y1350000D03*
X8000000Y6650000D03*
X10000000Y1350000D03*
X10000000Y6650000D03*
X12000000Y1350000D03*
X12000000Y6650000D03*
X14000000Y1350000D03*
X14000000Y6650000D03*
X16000000Y1350000D03*
X16000000Y6650000D03*
X18000000Y1350000D03*
X18000000Y6650000D03*
X20000000Y1350000D03*
X20000000Y6650000D03*
X22000000Y1350000D03*
X22000000Y6650000D03*
X24000000Y1350000D03*
X24000000Y6650000D03*
X26000000Y1350000D03*
X26000000Y6650000D03*
%TD*%
D11*
%TO.C,J3*%
X25000000Y40000000D03*
X9000000Y40000000D03*
D12*
X8000000Y37350000D03*
X8000000Y42650000D03*
X10000000Y37350000D03*
X10000000Y42650000D03*
X12000000Y37350000D03*
X12000000Y42650000D03*
X14000000Y37350000D03*
X14000000Y42650000D03*
X16000000Y37350000D03*
X16000000Y42650000D03*
X18000000Y37350000D03*
X18000000Y42650000D03*
X20000000Y37350000D03*
X20000000Y42650000D03*
X22000000Y37350000D03*
X22000000Y42650000D03*
X24000000Y37350000D03*
X24000000Y42650000D03*
X26000000Y37350000D03*
X26000000Y42650000D03*
%TD*%
M02*
