%TF.GenerationSoftware,KiCad,Pcbnew,9.0.1*%
%TF.CreationDate,2025-05-21T12:48:52+01:00*%
%TF.ProjectId,mosaic-G5_P3_Tilt_panelized,6d6f7361-6963-42d4-9735-5f50335f5469,v01*%
%TF.SameCoordinates,Original*%
%TF.FileFunction,Paste,Top*%
%TF.FilePolarity,Positive*%
%FSLAX46Y46*%
G04 Gerber Fmt 4.6, Leading zero omitted, Abs format (unit mm)*
G04 Created by KiCad (PCBNEW 9.0.1) date 2025-05-21 12:48:52*
%MOMM*%
%LPD*%
G01*
G04 APERTURE LIST*
G04 Aperture macros list*
%AMRoundRect*
0 Rectangle with rounded corners*
0 $1 Rounding radius*
0 $2 $3 $4 $5 $6 $7 $8 $9 X,Y pos of 4 corners*
0 Add a 4 corners polygon primitive as box body*
4,1,4,$2,$3,$4,$5,$6,$7,$8,$9,$2,$3,0*
0 Add four circle primitives for the rounded corners*
1,1,$1+$1,$2,$3*
1,1,$1+$1,$4,$5*
1,1,$1+$1,$6,$7*
1,1,$1+$1,$8,$9*
0 Add four rect primitives between the rounded corners*
20,1,$1+$1,$2,$3,$4,$5,0*
20,1,$1+$1,$4,$5,$6,$7,0*
20,1,$1+$1,$6,$7,$8,$9,0*
20,1,$1+$1,$8,$9,$2,$3,0*%
G04 Aperture macros list end*
%ADD10RoundRect,0.200000X0.200000X0.275000X-0.200000X0.275000X-0.200000X-0.275000X0.200000X-0.275000X0*%
%ADD11RoundRect,0.140000X0.140000X0.170000X-0.140000X0.170000X-0.140000X-0.170000X0.140000X-0.170000X0*%
%ADD12RoundRect,0.225000X-0.225000X-0.250000X0.225000X-0.250000X0.225000X0.250000X-0.225000X0.250000X0*%
%ADD13RoundRect,0.140000X0.170000X-0.140000X0.170000X0.140000X-0.170000X0.140000X-0.170000X-0.140000X0*%
%ADD14RoundRect,0.140000X-0.140000X-0.170000X0.140000X-0.170000X0.140000X0.170000X-0.140000X0.170000X0*%
%ADD15RoundRect,0.043750X-0.656250X-0.306250X0.656250X-0.306250X0.656250X0.306250X-0.656250X0.306250X0*%
%ADD16RoundRect,0.043750X0.306250X-0.656250X0.306250X0.656250X-0.306250X0.656250X-0.306250X-0.656250X0*%
%ADD17RoundRect,0.040909X-0.409091X-0.409091X0.409091X-0.409091X0.409091X0.409091X-0.409091X0.409091X0*%
%ADD18R,1.050000X1.000000*%
%ADD19R,2.200000X0.850000*%
%ADD20RoundRect,0.225000X0.225000X0.250000X-0.225000X0.250000X-0.225000X-0.250000X0.225000X-0.250000X0*%
G04 APERTURE END LIST*
D10*
%TO.C,R1*%
X39025000Y165600000D03*
X37375000Y165600000D03*
%TD*%
%TO.C,R1*%
X83525000Y96600000D03*
X81875000Y96600000D03*
%TD*%
%TO.C,R1*%
X39025000Y96600000D03*
X37375000Y96600000D03*
%TD*%
%TO.C,R1*%
X83525000Y27600000D03*
X81875000Y27600000D03*
%TD*%
%TO.C,R1*%
X39025000Y62100000D03*
X37375000Y62100000D03*
%TD*%
%TO.C,R1*%
X128025000Y96600000D03*
X126375000Y96600000D03*
%TD*%
%TO.C,R1*%
X39025000Y131100000D03*
X37375000Y131100000D03*
%TD*%
%TO.C,R1*%
X83525000Y62100000D03*
X81875000Y62100000D03*
%TD*%
%TO.C,R1*%
X128025000Y27600000D03*
X126375000Y27600000D03*
%TD*%
%TO.C,R1*%
X83525000Y131100000D03*
X81875000Y131100000D03*
%TD*%
%TO.C,R1*%
X83525000Y165600000D03*
X81875000Y165600000D03*
%TD*%
%TO.C,R1*%
X128025000Y62100000D03*
X126375000Y62100000D03*
%TD*%
%TO.C,R1*%
X128025000Y165600000D03*
X126375000Y165600000D03*
%TD*%
%TO.C,R1*%
X128025000Y131100000D03*
X126375000Y131100000D03*
%TD*%
%TO.C,R1*%
X39025000Y27600000D03*
X37375000Y27600000D03*
%TD*%
D11*
%TO.C,C6*%
X12480000Y86600000D03*
X11520000Y86600000D03*
%TD*%
%TO.C,C6*%
X56980000Y17600000D03*
X56020000Y17600000D03*
%TD*%
%TO.C,C6*%
X56980000Y86600000D03*
X56020000Y86600000D03*
%TD*%
%TO.C,C6*%
X101480000Y52100000D03*
X100520000Y52100000D03*
%TD*%
%TO.C,C6*%
X12480000Y52100000D03*
X11520000Y52100000D03*
%TD*%
%TO.C,C6*%
X56980000Y121100000D03*
X56020000Y121100000D03*
%TD*%
%TO.C,C6*%
X101480000Y17600000D03*
X100520000Y17600000D03*
%TD*%
%TO.C,C6*%
X12480000Y121100000D03*
X11520000Y121100000D03*
%TD*%
%TO.C,C6*%
X12480000Y155600000D03*
X11520000Y155600000D03*
%TD*%
%TO.C,C6*%
X56980000Y52100000D03*
X56020000Y52100000D03*
%TD*%
%TO.C,C6*%
X56980000Y155600000D03*
X56020000Y155600000D03*
%TD*%
%TO.C,C6*%
X101480000Y86600000D03*
X100520000Y86600000D03*
%TD*%
%TO.C,C6*%
X101480000Y155600000D03*
X100520000Y155600000D03*
%TD*%
%TO.C,C6*%
X101480000Y121100000D03*
X100520000Y121100000D03*
%TD*%
%TO.C,C6*%
X12480000Y17600000D03*
X11520000Y17600000D03*
%TD*%
D12*
%TO.C,C1*%
X27625000Y100900000D03*
X29175000Y100900000D03*
%TD*%
%TO.C,C1*%
X72125000Y100900000D03*
X73675000Y100900000D03*
%TD*%
%TO.C,C1*%
X27625000Y169900000D03*
X29175000Y169900000D03*
%TD*%
%TO.C,C1*%
X27625000Y66400000D03*
X29175000Y66400000D03*
%TD*%
%TO.C,C1*%
X72125000Y31900000D03*
X73675000Y31900000D03*
%TD*%
%TO.C,C1*%
X27625000Y135400000D03*
X29175000Y135400000D03*
%TD*%
%TO.C,C1*%
X72125000Y66400000D03*
X73675000Y66400000D03*
%TD*%
%TO.C,C1*%
X116625000Y66400000D03*
X118175000Y66400000D03*
%TD*%
%TO.C,C1*%
X72125000Y169900000D03*
X73675000Y169900000D03*
%TD*%
%TO.C,C1*%
X116625000Y100900000D03*
X118175000Y100900000D03*
%TD*%
%TO.C,C1*%
X116625000Y135400000D03*
X118175000Y135400000D03*
%TD*%
%TO.C,C1*%
X72125000Y135400000D03*
X73675000Y135400000D03*
%TD*%
%TO.C,C1*%
X116625000Y31900000D03*
X118175000Y31900000D03*
%TD*%
%TO.C,C1*%
X116625000Y169900000D03*
X118175000Y169900000D03*
%TD*%
%TO.C,C1*%
X27625000Y31900000D03*
X29175000Y31900000D03*
%TD*%
%TO.C,L1*%
X10650000Y96400000D03*
X12200000Y96400000D03*
%TD*%
%TO.C,L1*%
X10650000Y130900000D03*
X12200000Y130900000D03*
%TD*%
%TO.C,L1*%
X55150000Y96400000D03*
X56700000Y96400000D03*
%TD*%
%TO.C,L1*%
X10650000Y61900000D03*
X12200000Y61900000D03*
%TD*%
%TO.C,L1*%
X10650000Y165400000D03*
X12200000Y165400000D03*
%TD*%
%TO.C,L1*%
X55150000Y27400000D03*
X56700000Y27400000D03*
%TD*%
%TO.C,L1*%
X55150000Y61900000D03*
X56700000Y61900000D03*
%TD*%
%TO.C,L1*%
X99650000Y27400000D03*
X101200000Y27400000D03*
%TD*%
%TO.C,L1*%
X55150000Y130900000D03*
X56700000Y130900000D03*
%TD*%
%TO.C,L1*%
X99650000Y96400000D03*
X101200000Y96400000D03*
%TD*%
%TO.C,L1*%
X99650000Y61900000D03*
X101200000Y61900000D03*
%TD*%
%TO.C,L1*%
X55150000Y165400000D03*
X56700000Y165400000D03*
%TD*%
%TO.C,L1*%
X99650000Y130900000D03*
X101200000Y130900000D03*
%TD*%
%TO.C,L1*%
X99650000Y165400000D03*
X101200000Y165400000D03*
%TD*%
%TO.C,L1*%
X10650000Y27400000D03*
X12200000Y27400000D03*
%TD*%
D13*
%TO.C,D1*%
X12000000Y92220000D03*
X12000000Y93180000D03*
%TD*%
%TO.C,D1*%
X12000000Y57720000D03*
X12000000Y58680000D03*
%TD*%
%TO.C,D1*%
X56500000Y23220000D03*
X56500000Y24180000D03*
%TD*%
%TO.C,D1*%
X56500000Y92220000D03*
X56500000Y93180000D03*
%TD*%
%TO.C,D1*%
X12000000Y126720000D03*
X12000000Y127680000D03*
%TD*%
%TO.C,D1*%
X12000000Y161220000D03*
X12000000Y162180000D03*
%TD*%
%TO.C,D1*%
X56500000Y57720000D03*
X56500000Y58680000D03*
%TD*%
%TO.C,D1*%
X56500000Y126720000D03*
X56500000Y127680000D03*
%TD*%
%TO.C,D1*%
X101000000Y23220000D03*
X101000000Y24180000D03*
%TD*%
%TO.C,D1*%
X101000000Y57720000D03*
X101000000Y58680000D03*
%TD*%
%TO.C,D1*%
X56500000Y161220000D03*
X56500000Y162180000D03*
%TD*%
%TO.C,D1*%
X101000000Y126720000D03*
X101000000Y127680000D03*
%TD*%
%TO.C,D1*%
X101000000Y92220000D03*
X101000000Y93180000D03*
%TD*%
%TO.C,D1*%
X101000000Y161220000D03*
X101000000Y162180000D03*
%TD*%
%TO.C,D1*%
X12000000Y23220000D03*
X12000000Y24180000D03*
%TD*%
D14*
%TO.C,C3*%
X27420000Y167600000D03*
X28380000Y167600000D03*
%TD*%
%TO.C,C3*%
X71920000Y64100000D03*
X72880000Y64100000D03*
%TD*%
%TO.C,C3*%
X27420000Y64100000D03*
X28380000Y64100000D03*
%TD*%
%TO.C,C3*%
X27420000Y98600000D03*
X28380000Y98600000D03*
%TD*%
%TO.C,C3*%
X27420000Y133100000D03*
X28380000Y133100000D03*
%TD*%
%TO.C,C3*%
X71920000Y29600000D03*
X72880000Y29600000D03*
%TD*%
%TO.C,C3*%
X71920000Y98600000D03*
X72880000Y98600000D03*
%TD*%
%TO.C,C3*%
X116420000Y29600000D03*
X117380000Y29600000D03*
%TD*%
%TO.C,C3*%
X116420000Y64100000D03*
X117380000Y64100000D03*
%TD*%
%TO.C,C3*%
X116420000Y98600000D03*
X117380000Y98600000D03*
%TD*%
%TO.C,C3*%
X71920000Y167600000D03*
X72880000Y167600000D03*
%TD*%
%TO.C,C3*%
X71920000Y133100000D03*
X72880000Y133100000D03*
%TD*%
%TO.C,C3*%
X116420000Y133100000D03*
X117380000Y133100000D03*
%TD*%
%TO.C,C3*%
X116420000Y167600000D03*
X117380000Y167600000D03*
%TD*%
%TO.C,C3*%
X27420000Y29600000D03*
X28380000Y29600000D03*
%TD*%
D11*
%TO.C,C5*%
X56980000Y154600000D03*
X56020000Y154600000D03*
%TD*%
%TO.C,C5*%
X56980000Y120100000D03*
X56020000Y120100000D03*
%TD*%
%TO.C,C5*%
X101480000Y85600000D03*
X100520000Y85600000D03*
%TD*%
%TO.C,C5*%
X56980000Y85600000D03*
X56020000Y85600000D03*
%TD*%
%TO.C,C5*%
X101480000Y16600000D03*
X100520000Y16600000D03*
%TD*%
%TO.C,C5*%
X101480000Y51100000D03*
X100520000Y51100000D03*
%TD*%
%TO.C,C5*%
X101480000Y120100000D03*
X100520000Y120100000D03*
%TD*%
%TO.C,C5*%
X101480000Y154600000D03*
X100520000Y154600000D03*
%TD*%
%TO.C,C5*%
X12480000Y16600000D03*
X11520000Y16600000D03*
%TD*%
%TO.C,C5*%
X12480000Y85600000D03*
X11520000Y85600000D03*
%TD*%
%TO.C,C5*%
X56980000Y51100000D03*
X56020000Y51100000D03*
%TD*%
%TO.C,C5*%
X12480000Y51100000D03*
X11520000Y51100000D03*
%TD*%
%TO.C,C5*%
X56980000Y16600000D03*
X56020000Y16600000D03*
%TD*%
%TO.C,C5*%
X12480000Y154600000D03*
X11520000Y154600000D03*
%TD*%
%TO.C,C5*%
X12480000Y120100000D03*
X11520000Y120100000D03*
%TD*%
D10*
%TO.C,R2*%
X131625000Y27600000D03*
X129975000Y27600000D03*
%TD*%
%TO.C,R2*%
X87125000Y62100000D03*
X85475000Y62100000D03*
%TD*%
%TO.C,R2*%
X131625000Y96600000D03*
X129975000Y96600000D03*
%TD*%
%TO.C,R2*%
X87125000Y131100000D03*
X85475000Y131100000D03*
%TD*%
%TO.C,R2*%
X87125000Y165600000D03*
X85475000Y165600000D03*
%TD*%
%TO.C,R2*%
X87125000Y96600000D03*
X85475000Y96600000D03*
%TD*%
%TO.C,R2*%
X131625000Y165600000D03*
X129975000Y165600000D03*
%TD*%
%TO.C,R2*%
X131625000Y62100000D03*
X129975000Y62100000D03*
%TD*%
%TO.C,R2*%
X131625000Y131100000D03*
X129975000Y131100000D03*
%TD*%
%TO.C,R2*%
X42625000Y131100000D03*
X40975000Y131100000D03*
%TD*%
%TO.C,R2*%
X42625000Y165600000D03*
X40975000Y165600000D03*
%TD*%
%TO.C,R2*%
X87125000Y27600000D03*
X85475000Y27600000D03*
%TD*%
%TO.C,R2*%
X42625000Y96600000D03*
X40975000Y96600000D03*
%TD*%
%TO.C,R2*%
X42625000Y62100000D03*
X40975000Y62100000D03*
%TD*%
%TO.C,R2*%
X42625000Y27600000D03*
X40975000Y27600000D03*
%TD*%
D15*
%TO.C,U1*%
X59350000Y163399998D03*
X59350000Y162199998D03*
X59350000Y160999998D03*
X59350000Y159800001D03*
X59350000Y158600000D03*
X59350000Y157400000D03*
X59350000Y156200000D03*
X59350000Y155000000D03*
X59350000Y153800000D03*
X59350000Y152600000D03*
X59350000Y151400000D03*
X59350000Y150199999D03*
X59350000Y148999999D03*
X59350000Y147799999D03*
X59350000Y146600002D03*
D16*
X59900001Y144650000D03*
X61100001Y144650000D03*
X62300001Y144650000D03*
X63500001Y144650000D03*
X64700001Y144650000D03*
X65900001Y144650000D03*
X67099999Y144650000D03*
X68299999Y144650000D03*
X69499999Y144650000D03*
X70699999Y144650000D03*
X71899999Y144650000D03*
X73099999Y144650000D03*
D15*
X73650000Y146600002D03*
X73650000Y147800002D03*
X73650000Y149000002D03*
X73650000Y150200002D03*
X73650000Y151400000D03*
X73650000Y152600000D03*
X73650000Y153800000D03*
X73650000Y155000000D03*
X73650000Y156200000D03*
X73650000Y157400000D03*
X73650000Y158600000D03*
X73650000Y159800001D03*
X73650000Y161000001D03*
X73650000Y162200001D03*
X73650000Y163400001D03*
D16*
X73099999Y165350000D03*
X71899999Y165350000D03*
X70699999Y165350000D03*
X69499999Y165350000D03*
X68299999Y165350000D03*
X67099999Y165350000D03*
X65900001Y165350000D03*
X64700001Y165350000D03*
X63500001Y165350000D03*
X62300001Y165350000D03*
X61100001Y165350000D03*
X59900001Y165350000D03*
D17*
X65750000Y161750000D03*
X67250000Y161750000D03*
X62750000Y160250000D03*
X64250000Y160250000D03*
X65750000Y160250000D03*
X67250000Y160250000D03*
X68750000Y160250000D03*
X70250000Y160250000D03*
X62750000Y158750000D03*
X64250000Y158750000D03*
X68750000Y158750000D03*
X70250000Y158750000D03*
X62750000Y157250000D03*
X64250000Y157250000D03*
X68750000Y157250000D03*
X70250000Y157250000D03*
X62750000Y155750000D03*
X64250000Y155750000D03*
X68750000Y155750000D03*
X70250000Y155750000D03*
X62750000Y154250000D03*
X64250000Y154250000D03*
X68750000Y154250000D03*
X70250000Y154250000D03*
X62750000Y152750000D03*
X64250000Y152750000D03*
X68750000Y152750000D03*
X70250000Y152750000D03*
X62750000Y151250000D03*
X64250000Y151250000D03*
X68750000Y151250000D03*
X70250000Y151250000D03*
X62750000Y149750000D03*
X64250000Y149750000D03*
X65750000Y149750000D03*
X67250000Y149750000D03*
X68750000Y149750000D03*
X70250000Y149750000D03*
X65750000Y148250000D03*
X67250000Y148250000D03*
%TD*%
D15*
%TO.C,U1*%
X59350000Y94399998D03*
X59350000Y93199998D03*
X59350000Y91999998D03*
X59350000Y90800001D03*
X59350000Y89600000D03*
X59350000Y88400000D03*
X59350000Y87200000D03*
X59350000Y86000000D03*
X59350000Y84800000D03*
X59350000Y83600000D03*
X59350000Y82400000D03*
X59350000Y81199999D03*
X59350000Y79999999D03*
X59350000Y78799999D03*
X59350000Y77600002D03*
D16*
X59900001Y75650000D03*
X61100001Y75650000D03*
X62300001Y75650000D03*
X63500001Y75650000D03*
X64700001Y75650000D03*
X65900001Y75650000D03*
X67099999Y75650000D03*
X68299999Y75650000D03*
X69499999Y75650000D03*
X70699999Y75650000D03*
X71899999Y75650000D03*
X73099999Y75650000D03*
D15*
X73650000Y77600002D03*
X73650000Y78800002D03*
X73650000Y80000002D03*
X73650000Y81200002D03*
X73650000Y82400000D03*
X73650000Y83600000D03*
X73650000Y84800000D03*
X73650000Y86000000D03*
X73650000Y87200000D03*
X73650000Y88400000D03*
X73650000Y89600000D03*
X73650000Y90800001D03*
X73650000Y92000001D03*
X73650000Y93200001D03*
X73650000Y94400001D03*
D16*
X73099999Y96350000D03*
X71899999Y96350000D03*
X70699999Y96350000D03*
X69499999Y96350000D03*
X68299999Y96350000D03*
X67099999Y96350000D03*
X65900001Y96350000D03*
X64700001Y96350000D03*
X63500001Y96350000D03*
X62300001Y96350000D03*
X61100001Y96350000D03*
X59900001Y96350000D03*
D17*
X65750000Y92750000D03*
X67250000Y92750000D03*
X62750000Y91250000D03*
X64250000Y91250000D03*
X65750000Y91250000D03*
X67250000Y91250000D03*
X68750000Y91250000D03*
X70250000Y91250000D03*
X62750000Y89750000D03*
X64250000Y89750000D03*
X68750000Y89750000D03*
X70250000Y89750000D03*
X62750000Y88250000D03*
X64250000Y88250000D03*
X68750000Y88250000D03*
X70250000Y88250000D03*
X62750000Y86750000D03*
X64250000Y86750000D03*
X68750000Y86750000D03*
X70250000Y86750000D03*
X62750000Y85250000D03*
X64250000Y85250000D03*
X68750000Y85250000D03*
X70250000Y85250000D03*
X62750000Y83750000D03*
X64250000Y83750000D03*
X68750000Y83750000D03*
X70250000Y83750000D03*
X62750000Y82250000D03*
X64250000Y82250000D03*
X68750000Y82250000D03*
X70250000Y82250000D03*
X62750000Y80750000D03*
X64250000Y80750000D03*
X65750000Y80750000D03*
X67250000Y80750000D03*
X68750000Y80750000D03*
X70250000Y80750000D03*
X65750000Y79250000D03*
X67250000Y79250000D03*
%TD*%
D15*
%TO.C,U1*%
X59350000Y59899998D03*
X59350000Y58699998D03*
X59350000Y57499998D03*
X59350000Y56300001D03*
X59350000Y55100000D03*
X59350000Y53900000D03*
X59350000Y52700000D03*
X59350000Y51500000D03*
X59350000Y50300000D03*
X59350000Y49100000D03*
X59350000Y47900000D03*
X59350000Y46699999D03*
X59350000Y45499999D03*
X59350000Y44299999D03*
X59350000Y43100002D03*
D16*
X59900001Y41150000D03*
X61100001Y41150000D03*
X62300001Y41150000D03*
X63500001Y41150000D03*
X64700001Y41150000D03*
X65900001Y41150000D03*
X67099999Y41150000D03*
X68299999Y41150000D03*
X69499999Y41150000D03*
X70699999Y41150000D03*
X71899999Y41150000D03*
X73099999Y41150000D03*
D15*
X73650000Y43100002D03*
X73650000Y44300002D03*
X73650000Y45500002D03*
X73650000Y46700002D03*
X73650000Y47900000D03*
X73650000Y49100000D03*
X73650000Y50300000D03*
X73650000Y51500000D03*
X73650000Y52700000D03*
X73650000Y53900000D03*
X73650000Y55100000D03*
X73650000Y56300001D03*
X73650000Y57500001D03*
X73650000Y58700001D03*
X73650000Y59900001D03*
D16*
X73099999Y61850000D03*
X71899999Y61850000D03*
X70699999Y61850000D03*
X69499999Y61850000D03*
X68299999Y61850000D03*
X67099999Y61850000D03*
X65900001Y61850000D03*
X64700001Y61850000D03*
X63500001Y61850000D03*
X62300001Y61850000D03*
X61100001Y61850000D03*
X59900001Y61850000D03*
D17*
X65750000Y58250000D03*
X67250000Y58250000D03*
X62750000Y56750000D03*
X64250000Y56750000D03*
X65750000Y56750000D03*
X67250000Y56750000D03*
X68750000Y56750000D03*
X70250000Y56750000D03*
X62750000Y55250000D03*
X64250000Y55250000D03*
X68750000Y55250000D03*
X70250000Y55250000D03*
X62750000Y53750000D03*
X64250000Y53750000D03*
X68750000Y53750000D03*
X70250000Y53750000D03*
X62750000Y52250000D03*
X64250000Y52250000D03*
X68750000Y52250000D03*
X70250000Y52250000D03*
X62750000Y50750000D03*
X64250000Y50750000D03*
X68750000Y50750000D03*
X70250000Y50750000D03*
X62750000Y49250000D03*
X64250000Y49250000D03*
X68750000Y49250000D03*
X70250000Y49250000D03*
X62750000Y47750000D03*
X64250000Y47750000D03*
X68750000Y47750000D03*
X70250000Y47750000D03*
X62750000Y46250000D03*
X64250000Y46250000D03*
X65750000Y46250000D03*
X67250000Y46250000D03*
X68750000Y46250000D03*
X70250000Y46250000D03*
X65750000Y44750000D03*
X67250000Y44750000D03*
%TD*%
D15*
%TO.C,U1*%
X14850000Y59899998D03*
X14850000Y58699998D03*
X14850000Y57499998D03*
X14850000Y56300001D03*
X14850000Y55100000D03*
X14850000Y53900000D03*
X14850000Y52700000D03*
X14850000Y51500000D03*
X14850000Y50300000D03*
X14850000Y49100000D03*
X14850000Y47900000D03*
X14850000Y46699999D03*
X14850000Y45499999D03*
X14850000Y44299999D03*
X14850000Y43100002D03*
D16*
X15400001Y41150000D03*
X16600001Y41150000D03*
X17800001Y41150000D03*
X19000001Y41150000D03*
X20200001Y41150000D03*
X21400001Y41150000D03*
X22599999Y41150000D03*
X23799999Y41150000D03*
X24999999Y41150000D03*
X26199999Y41150000D03*
X27399999Y41150000D03*
X28599999Y41150000D03*
D15*
X29150000Y43100002D03*
X29150000Y44300002D03*
X29150000Y45500002D03*
X29150000Y46700002D03*
X29150000Y47900000D03*
X29150000Y49100000D03*
X29150000Y50300000D03*
X29150000Y51500000D03*
X29150000Y52700000D03*
X29150000Y53900000D03*
X29150000Y55100000D03*
X29150000Y56300001D03*
X29150000Y57500001D03*
X29150000Y58700001D03*
X29150000Y59900001D03*
D16*
X28599999Y61850000D03*
X27399999Y61850000D03*
X26199999Y61850000D03*
X24999999Y61850000D03*
X23799999Y61850000D03*
X22599999Y61850000D03*
X21400001Y61850000D03*
X20200001Y61850000D03*
X19000001Y61850000D03*
X17800001Y61850000D03*
X16600001Y61850000D03*
X15400001Y61850000D03*
D17*
X21250000Y58250000D03*
X22750000Y58250000D03*
X18250000Y56750000D03*
X19750000Y56750000D03*
X21250000Y56750000D03*
X22750000Y56750000D03*
X24250000Y56750000D03*
X25750000Y56750000D03*
X18250000Y55250000D03*
X19750000Y55250000D03*
X24250000Y55250000D03*
X25750000Y55250000D03*
X18250000Y53750000D03*
X19750000Y53750000D03*
X24250000Y53750000D03*
X25750000Y53750000D03*
X18250000Y52250000D03*
X19750000Y52250000D03*
X24250000Y52250000D03*
X25750000Y52250000D03*
X18250000Y50750000D03*
X19750000Y50750000D03*
X24250000Y50750000D03*
X25750000Y50750000D03*
X18250000Y49250000D03*
X19750000Y49250000D03*
X24250000Y49250000D03*
X25750000Y49250000D03*
X18250000Y47750000D03*
X19750000Y47750000D03*
X24250000Y47750000D03*
X25750000Y47750000D03*
X18250000Y46250000D03*
X19750000Y46250000D03*
X21250000Y46250000D03*
X22750000Y46250000D03*
X24250000Y46250000D03*
X25750000Y46250000D03*
X21250000Y44750000D03*
X22750000Y44750000D03*
%TD*%
D15*
%TO.C,U1*%
X59350000Y128899998D03*
X59350000Y127699998D03*
X59350000Y126499998D03*
X59350000Y125300001D03*
X59350000Y124100000D03*
X59350000Y122900000D03*
X59350000Y121700000D03*
X59350000Y120500000D03*
X59350000Y119300000D03*
X59350000Y118100000D03*
X59350000Y116900000D03*
X59350000Y115699999D03*
X59350000Y114499999D03*
X59350000Y113299999D03*
X59350000Y112100002D03*
D16*
X59900001Y110150000D03*
X61100001Y110150000D03*
X62300001Y110150000D03*
X63500001Y110150000D03*
X64700001Y110150000D03*
X65900001Y110150000D03*
X67099999Y110150000D03*
X68299999Y110150000D03*
X69499999Y110150000D03*
X70699999Y110150000D03*
X71899999Y110150000D03*
X73099999Y110150000D03*
D15*
X73650000Y112100002D03*
X73650000Y113300002D03*
X73650000Y114500002D03*
X73650000Y115700002D03*
X73650000Y116900000D03*
X73650000Y118100000D03*
X73650000Y119300000D03*
X73650000Y120500000D03*
X73650000Y121700000D03*
X73650000Y122900000D03*
X73650000Y124100000D03*
X73650000Y125300001D03*
X73650000Y126500001D03*
X73650000Y127700001D03*
X73650000Y128900001D03*
D16*
X73099999Y130850000D03*
X71899999Y130850000D03*
X70699999Y130850000D03*
X69499999Y130850000D03*
X68299999Y130850000D03*
X67099999Y130850000D03*
X65900001Y130850000D03*
X64700001Y130850000D03*
X63500001Y130850000D03*
X62300001Y130850000D03*
X61100001Y130850000D03*
X59900001Y130850000D03*
D17*
X65750000Y127250000D03*
X67250000Y127250000D03*
X62750000Y125750000D03*
X64250000Y125750000D03*
X65750000Y125750000D03*
X67250000Y125750000D03*
X68750000Y125750000D03*
X70250000Y125750000D03*
X62750000Y124250000D03*
X64250000Y124250000D03*
X68750000Y124250000D03*
X70250000Y124250000D03*
X62750000Y122750000D03*
X64250000Y122750000D03*
X68750000Y122750000D03*
X70250000Y122750000D03*
X62750000Y121250000D03*
X64250000Y121250000D03*
X68750000Y121250000D03*
X70250000Y121250000D03*
X62750000Y119750000D03*
X64250000Y119750000D03*
X68750000Y119750000D03*
X70250000Y119750000D03*
X62750000Y118250000D03*
X64250000Y118250000D03*
X68750000Y118250000D03*
X70250000Y118250000D03*
X62750000Y116750000D03*
X64250000Y116750000D03*
X68750000Y116750000D03*
X70250000Y116750000D03*
X62750000Y115250000D03*
X64250000Y115250000D03*
X65750000Y115250000D03*
X67250000Y115250000D03*
X68750000Y115250000D03*
X70250000Y115250000D03*
X65750000Y113750000D03*
X67250000Y113750000D03*
%TD*%
D15*
%TO.C,U1*%
X14850000Y128899998D03*
X14850000Y127699998D03*
X14850000Y126499998D03*
X14850000Y125300001D03*
X14850000Y124100000D03*
X14850000Y122900000D03*
X14850000Y121700000D03*
X14850000Y120500000D03*
X14850000Y119300000D03*
X14850000Y118100000D03*
X14850000Y116900000D03*
X14850000Y115699999D03*
X14850000Y114499999D03*
X14850000Y113299999D03*
X14850000Y112100002D03*
D16*
X15400001Y110150000D03*
X16600001Y110150000D03*
X17800001Y110150000D03*
X19000001Y110150000D03*
X20200001Y110150000D03*
X21400001Y110150000D03*
X22599999Y110150000D03*
X23799999Y110150000D03*
X24999999Y110150000D03*
X26199999Y110150000D03*
X27399999Y110150000D03*
X28599999Y110150000D03*
D15*
X29150000Y112100002D03*
X29150000Y113300002D03*
X29150000Y114500002D03*
X29150000Y115700002D03*
X29150000Y116900000D03*
X29150000Y118100000D03*
X29150000Y119300000D03*
X29150000Y120500000D03*
X29150000Y121700000D03*
X29150000Y122900000D03*
X29150000Y124100000D03*
X29150000Y125300001D03*
X29150000Y126500001D03*
X29150000Y127700001D03*
X29150000Y128900001D03*
D16*
X28599999Y130850000D03*
X27399999Y130850000D03*
X26199999Y130850000D03*
X24999999Y130850000D03*
X23799999Y130850000D03*
X22599999Y130850000D03*
X21400001Y130850000D03*
X20200001Y130850000D03*
X19000001Y130850000D03*
X17800001Y130850000D03*
X16600001Y130850000D03*
X15400001Y130850000D03*
D17*
X21250000Y127250000D03*
X22750000Y127250000D03*
X18250000Y125750000D03*
X19750000Y125750000D03*
X21250000Y125750000D03*
X22750000Y125750000D03*
X24250000Y125750000D03*
X25750000Y125750000D03*
X18250000Y124250000D03*
X19750000Y124250000D03*
X24250000Y124250000D03*
X25750000Y124250000D03*
X18250000Y122750000D03*
X19750000Y122750000D03*
X24250000Y122750000D03*
X25750000Y122750000D03*
X18250000Y121250000D03*
X19750000Y121250000D03*
X24250000Y121250000D03*
X25750000Y121250000D03*
X18250000Y119750000D03*
X19750000Y119750000D03*
X24250000Y119750000D03*
X25750000Y119750000D03*
X18250000Y118250000D03*
X19750000Y118250000D03*
X24250000Y118250000D03*
X25750000Y118250000D03*
X18250000Y116750000D03*
X19750000Y116750000D03*
X24250000Y116750000D03*
X25750000Y116750000D03*
X18250000Y115250000D03*
X19750000Y115250000D03*
X21250000Y115250000D03*
X22750000Y115250000D03*
X24250000Y115250000D03*
X25750000Y115250000D03*
X21250000Y113750000D03*
X22750000Y113750000D03*
%TD*%
D15*
%TO.C,U1*%
X14850000Y163399998D03*
X14850000Y162199998D03*
X14850000Y160999998D03*
X14850000Y159800001D03*
X14850000Y158600000D03*
X14850000Y157400000D03*
X14850000Y156200000D03*
X14850000Y155000000D03*
X14850000Y153800000D03*
X14850000Y152600000D03*
X14850000Y151400000D03*
X14850000Y150199999D03*
X14850000Y148999999D03*
X14850000Y147799999D03*
X14850000Y146600002D03*
D16*
X15400001Y144650000D03*
X16600001Y144650000D03*
X17800001Y144650000D03*
X19000001Y144650000D03*
X20200001Y144650000D03*
X21400001Y144650000D03*
X22599999Y144650000D03*
X23799999Y144650000D03*
X24999999Y144650000D03*
X26199999Y144650000D03*
X27399999Y144650000D03*
X28599999Y144650000D03*
D15*
X29150000Y146600002D03*
X29150000Y147800002D03*
X29150000Y149000002D03*
X29150000Y150200002D03*
X29150000Y151400000D03*
X29150000Y152600000D03*
X29150000Y153800000D03*
X29150000Y155000000D03*
X29150000Y156200000D03*
X29150000Y157400000D03*
X29150000Y158600000D03*
X29150000Y159800001D03*
X29150000Y161000001D03*
X29150000Y162200001D03*
X29150000Y163400001D03*
D16*
X28599999Y165350000D03*
X27399999Y165350000D03*
X26199999Y165350000D03*
X24999999Y165350000D03*
X23799999Y165350000D03*
X22599999Y165350000D03*
X21400001Y165350000D03*
X20200001Y165350000D03*
X19000001Y165350000D03*
X17800001Y165350000D03*
X16600001Y165350000D03*
X15400001Y165350000D03*
D17*
X21250000Y161750000D03*
X22750000Y161750000D03*
X18250000Y160250000D03*
X19750000Y160250000D03*
X21250000Y160250000D03*
X22750000Y160250000D03*
X24250000Y160250000D03*
X25750000Y160250000D03*
X18250000Y158750000D03*
X19750000Y158750000D03*
X24250000Y158750000D03*
X25750000Y158750000D03*
X18250000Y157250000D03*
X19750000Y157250000D03*
X24250000Y157250000D03*
X25750000Y157250000D03*
X18250000Y155750000D03*
X19750000Y155750000D03*
X24250000Y155750000D03*
X25750000Y155750000D03*
X18250000Y154250000D03*
X19750000Y154250000D03*
X24250000Y154250000D03*
X25750000Y154250000D03*
X18250000Y152750000D03*
X19750000Y152750000D03*
X24250000Y152750000D03*
X25750000Y152750000D03*
X18250000Y151250000D03*
X19750000Y151250000D03*
X24250000Y151250000D03*
X25750000Y151250000D03*
X18250000Y149750000D03*
X19750000Y149750000D03*
X21250000Y149750000D03*
X22750000Y149750000D03*
X24250000Y149750000D03*
X25750000Y149750000D03*
X21250000Y148250000D03*
X22750000Y148250000D03*
%TD*%
D15*
%TO.C,U1*%
X14850000Y94399998D03*
X14850000Y93199998D03*
X14850000Y91999998D03*
X14850000Y90800001D03*
X14850000Y89600000D03*
X14850000Y88400000D03*
X14850000Y87200000D03*
X14850000Y86000000D03*
X14850000Y84800000D03*
X14850000Y83600000D03*
X14850000Y82400000D03*
X14850000Y81199999D03*
X14850000Y79999999D03*
X14850000Y78799999D03*
X14850000Y77600002D03*
D16*
X15400001Y75650000D03*
X16600001Y75650000D03*
X17800001Y75650000D03*
X19000001Y75650000D03*
X20200001Y75650000D03*
X21400001Y75650000D03*
X22599999Y75650000D03*
X23799999Y75650000D03*
X24999999Y75650000D03*
X26199999Y75650000D03*
X27399999Y75650000D03*
X28599999Y75650000D03*
D15*
X29150000Y77600002D03*
X29150000Y78800002D03*
X29150000Y80000002D03*
X29150000Y81200002D03*
X29150000Y82400000D03*
X29150000Y83600000D03*
X29150000Y84800000D03*
X29150000Y86000000D03*
X29150000Y87200000D03*
X29150000Y88400000D03*
X29150000Y89600000D03*
X29150000Y90800001D03*
X29150000Y92000001D03*
X29150000Y93200001D03*
X29150000Y94400001D03*
D16*
X28599999Y96350000D03*
X27399999Y96350000D03*
X26199999Y96350000D03*
X24999999Y96350000D03*
X23799999Y96350000D03*
X22599999Y96350000D03*
X21400001Y96350000D03*
X20200001Y96350000D03*
X19000001Y96350000D03*
X17800001Y96350000D03*
X16600001Y96350000D03*
X15400001Y96350000D03*
D17*
X21250000Y92750000D03*
X22750000Y92750000D03*
X18250000Y91250000D03*
X19750000Y91250000D03*
X21250000Y91250000D03*
X22750000Y91250000D03*
X24250000Y91250000D03*
X25750000Y91250000D03*
X18250000Y89750000D03*
X19750000Y89750000D03*
X24250000Y89750000D03*
X25750000Y89750000D03*
X18250000Y88250000D03*
X19750000Y88250000D03*
X24250000Y88250000D03*
X25750000Y88250000D03*
X18250000Y86750000D03*
X19750000Y86750000D03*
X24250000Y86750000D03*
X25750000Y86750000D03*
X18250000Y85250000D03*
X19750000Y85250000D03*
X24250000Y85250000D03*
X25750000Y85250000D03*
X18250000Y83750000D03*
X19750000Y83750000D03*
X24250000Y83750000D03*
X25750000Y83750000D03*
X18250000Y82250000D03*
X19750000Y82250000D03*
X24250000Y82250000D03*
X25750000Y82250000D03*
X18250000Y80750000D03*
X19750000Y80750000D03*
X21250000Y80750000D03*
X22750000Y80750000D03*
X24250000Y80750000D03*
X25750000Y80750000D03*
X21250000Y79250000D03*
X22750000Y79250000D03*
%TD*%
D15*
%TO.C,U1*%
X59350000Y25399998D03*
X59350000Y24199998D03*
X59350000Y22999998D03*
X59350000Y21800001D03*
X59350000Y20600000D03*
X59350000Y19400000D03*
X59350000Y18200000D03*
X59350000Y17000000D03*
X59350000Y15800000D03*
X59350000Y14600000D03*
X59350000Y13400000D03*
X59350000Y12199999D03*
X59350000Y10999999D03*
X59350000Y9799999D03*
X59350000Y8600002D03*
D16*
X59900001Y6650000D03*
X61100001Y6650000D03*
X62300001Y6650000D03*
X63500001Y6650000D03*
X64700001Y6650000D03*
X65900001Y6650000D03*
X67099999Y6650000D03*
X68299999Y6650000D03*
X69499999Y6650000D03*
X70699999Y6650000D03*
X71899999Y6650000D03*
X73099999Y6650000D03*
D15*
X73650000Y8600002D03*
X73650000Y9800002D03*
X73650000Y11000002D03*
X73650000Y12200002D03*
X73650000Y13400000D03*
X73650000Y14600000D03*
X73650000Y15800000D03*
X73650000Y17000000D03*
X73650000Y18200000D03*
X73650000Y19400000D03*
X73650000Y20600000D03*
X73650000Y21800001D03*
X73650000Y23000001D03*
X73650000Y24200001D03*
X73650000Y25400001D03*
D16*
X73099999Y27350000D03*
X71899999Y27350000D03*
X70699999Y27350000D03*
X69499999Y27350000D03*
X68299999Y27350000D03*
X67099999Y27350000D03*
X65900001Y27350000D03*
X64700001Y27350000D03*
X63500001Y27350000D03*
X62300001Y27350000D03*
X61100001Y27350000D03*
X59900001Y27350000D03*
D17*
X65750000Y23750000D03*
X67250000Y23750000D03*
X62750000Y22250000D03*
X64250000Y22250000D03*
X65750000Y22250000D03*
X67250000Y22250000D03*
X68750000Y22250000D03*
X70250000Y22250000D03*
X62750000Y20750000D03*
X64250000Y20750000D03*
X68750000Y20750000D03*
X70250000Y20750000D03*
X62750000Y19250000D03*
X64250000Y19250000D03*
X68750000Y19250000D03*
X70250000Y19250000D03*
X62750000Y17750000D03*
X64250000Y17750000D03*
X68750000Y17750000D03*
X70250000Y17750000D03*
X62750000Y16250000D03*
X64250000Y16250000D03*
X68750000Y16250000D03*
X70250000Y16250000D03*
X62750000Y14750000D03*
X64250000Y14750000D03*
X68750000Y14750000D03*
X70250000Y14750000D03*
X62750000Y13250000D03*
X64250000Y13250000D03*
X68750000Y13250000D03*
X70250000Y13250000D03*
X62750000Y11750000D03*
X64250000Y11750000D03*
X65750000Y11750000D03*
X67250000Y11750000D03*
X68750000Y11750000D03*
X70250000Y11750000D03*
X65750000Y10250000D03*
X67250000Y10250000D03*
%TD*%
D15*
%TO.C,U1*%
X103850000Y59899998D03*
X103850000Y58699998D03*
X103850000Y57499998D03*
X103850000Y56300001D03*
X103850000Y55100000D03*
X103850000Y53900000D03*
X103850000Y52700000D03*
X103850000Y51500000D03*
X103850000Y50300000D03*
X103850000Y49100000D03*
X103850000Y47900000D03*
X103850000Y46699999D03*
X103850000Y45499999D03*
X103850000Y44299999D03*
X103850000Y43100002D03*
D16*
X104400001Y41150000D03*
X105600001Y41150000D03*
X106800001Y41150000D03*
X108000001Y41150000D03*
X109200001Y41150000D03*
X110400001Y41150000D03*
X111599999Y41150000D03*
X112799999Y41150000D03*
X113999999Y41150000D03*
X115199999Y41150000D03*
X116399999Y41150000D03*
X117599999Y41150000D03*
D15*
X118150000Y43100002D03*
X118150000Y44300002D03*
X118150000Y45500002D03*
X118150000Y46700002D03*
X118150000Y47900000D03*
X118150000Y49100000D03*
X118150000Y50300000D03*
X118150000Y51500000D03*
X118150000Y52700000D03*
X118150000Y53900000D03*
X118150000Y55100000D03*
X118150000Y56300001D03*
X118150000Y57500001D03*
X118150000Y58700001D03*
X118150000Y59900001D03*
D16*
X117599999Y61850000D03*
X116399999Y61850000D03*
X115199999Y61850000D03*
X113999999Y61850000D03*
X112799999Y61850000D03*
X111599999Y61850000D03*
X110400001Y61850000D03*
X109200001Y61850000D03*
X108000001Y61850000D03*
X106800001Y61850000D03*
X105600001Y61850000D03*
X104400001Y61850000D03*
D17*
X110250000Y58250000D03*
X111750000Y58250000D03*
X107250000Y56750000D03*
X108750000Y56750000D03*
X110250000Y56750000D03*
X111750000Y56750000D03*
X113250000Y56750000D03*
X114750000Y56750000D03*
X107250000Y55250000D03*
X108750000Y55250000D03*
X113250000Y55250000D03*
X114750000Y55250000D03*
X107250000Y53750000D03*
X108750000Y53750000D03*
X113250000Y53750000D03*
X114750000Y53750000D03*
X107250000Y52250000D03*
X108750000Y52250000D03*
X113250000Y52250000D03*
X114750000Y52250000D03*
X107250000Y50750000D03*
X108750000Y50750000D03*
X113250000Y50750000D03*
X114750000Y50750000D03*
X107250000Y49250000D03*
X108750000Y49250000D03*
X113250000Y49250000D03*
X114750000Y49250000D03*
X107250000Y47750000D03*
X108750000Y47750000D03*
X113250000Y47750000D03*
X114750000Y47750000D03*
X107250000Y46250000D03*
X108750000Y46250000D03*
X110250000Y46250000D03*
X111750000Y46250000D03*
X113250000Y46250000D03*
X114750000Y46250000D03*
X110250000Y44750000D03*
X111750000Y44750000D03*
%TD*%
D15*
%TO.C,U1*%
X103850000Y25399998D03*
X103850000Y24199998D03*
X103850000Y22999998D03*
X103850000Y21800001D03*
X103850000Y20600000D03*
X103850000Y19400000D03*
X103850000Y18200000D03*
X103850000Y17000000D03*
X103850000Y15800000D03*
X103850000Y14600000D03*
X103850000Y13400000D03*
X103850000Y12199999D03*
X103850000Y10999999D03*
X103850000Y9799999D03*
X103850000Y8600002D03*
D16*
X104400001Y6650000D03*
X105600001Y6650000D03*
X106800001Y6650000D03*
X108000001Y6650000D03*
X109200001Y6650000D03*
X110400001Y6650000D03*
X111599999Y6650000D03*
X112799999Y6650000D03*
X113999999Y6650000D03*
X115199999Y6650000D03*
X116399999Y6650000D03*
X117599999Y6650000D03*
D15*
X118150000Y8600002D03*
X118150000Y9800002D03*
X118150000Y11000002D03*
X118150000Y12200002D03*
X118150000Y13400000D03*
X118150000Y14600000D03*
X118150000Y15800000D03*
X118150000Y17000000D03*
X118150000Y18200000D03*
X118150000Y19400000D03*
X118150000Y20600000D03*
X118150000Y21800001D03*
X118150000Y23000001D03*
X118150000Y24200001D03*
X118150000Y25400001D03*
D16*
X117599999Y27350000D03*
X116399999Y27350000D03*
X115199999Y27350000D03*
X113999999Y27350000D03*
X112799999Y27350000D03*
X111599999Y27350000D03*
X110400001Y27350000D03*
X109200001Y27350000D03*
X108000001Y27350000D03*
X106800001Y27350000D03*
X105600001Y27350000D03*
X104400001Y27350000D03*
D17*
X110250000Y23750000D03*
X111750000Y23750000D03*
X107250000Y22250000D03*
X108750000Y22250000D03*
X110250000Y22250000D03*
X111750000Y22250000D03*
X113250000Y22250000D03*
X114750000Y22250000D03*
X107250000Y20750000D03*
X108750000Y20750000D03*
X113250000Y20750000D03*
X114750000Y20750000D03*
X107250000Y19250000D03*
X108750000Y19250000D03*
X113250000Y19250000D03*
X114750000Y19250000D03*
X107250000Y17750000D03*
X108750000Y17750000D03*
X113250000Y17750000D03*
X114750000Y17750000D03*
X107250000Y16250000D03*
X108750000Y16250000D03*
X113250000Y16250000D03*
X114750000Y16250000D03*
X107250000Y14750000D03*
X108750000Y14750000D03*
X113250000Y14750000D03*
X114750000Y14750000D03*
X107250000Y13250000D03*
X108750000Y13250000D03*
X113250000Y13250000D03*
X114750000Y13250000D03*
X107250000Y11750000D03*
X108750000Y11750000D03*
X110250000Y11750000D03*
X111750000Y11750000D03*
X113250000Y11750000D03*
X114750000Y11750000D03*
X110250000Y10250000D03*
X111750000Y10250000D03*
%TD*%
D15*
%TO.C,U1*%
X103850000Y94399998D03*
X103850000Y93199998D03*
X103850000Y91999998D03*
X103850000Y90800001D03*
X103850000Y89600000D03*
X103850000Y88400000D03*
X103850000Y87200000D03*
X103850000Y86000000D03*
X103850000Y84800000D03*
X103850000Y83600000D03*
X103850000Y82400000D03*
X103850000Y81199999D03*
X103850000Y79999999D03*
X103850000Y78799999D03*
X103850000Y77600002D03*
D16*
X104400001Y75650000D03*
X105600001Y75650000D03*
X106800001Y75650000D03*
X108000001Y75650000D03*
X109200001Y75650000D03*
X110400001Y75650000D03*
X111599999Y75650000D03*
X112799999Y75650000D03*
X113999999Y75650000D03*
X115199999Y75650000D03*
X116399999Y75650000D03*
X117599999Y75650000D03*
D15*
X118150000Y77600002D03*
X118150000Y78800002D03*
X118150000Y80000002D03*
X118150000Y81200002D03*
X118150000Y82400000D03*
X118150000Y83600000D03*
X118150000Y84800000D03*
X118150000Y86000000D03*
X118150000Y87200000D03*
X118150000Y88400000D03*
X118150000Y89600000D03*
X118150000Y90800001D03*
X118150000Y92000001D03*
X118150000Y93200001D03*
X118150000Y94400001D03*
D16*
X117599999Y96350000D03*
X116399999Y96350000D03*
X115199999Y96350000D03*
X113999999Y96350000D03*
X112799999Y96350000D03*
X111599999Y96350000D03*
X110400001Y96350000D03*
X109200001Y96350000D03*
X108000001Y96350000D03*
X106800001Y96350000D03*
X105600001Y96350000D03*
X104400001Y96350000D03*
D17*
X110250000Y92750000D03*
X111750000Y92750000D03*
X107250000Y91250000D03*
X108750000Y91250000D03*
X110250000Y91250000D03*
X111750000Y91250000D03*
X113250000Y91250000D03*
X114750000Y91250000D03*
X107250000Y89750000D03*
X108750000Y89750000D03*
X113250000Y89750000D03*
X114750000Y89750000D03*
X107250000Y88250000D03*
X108750000Y88250000D03*
X113250000Y88250000D03*
X114750000Y88250000D03*
X107250000Y86750000D03*
X108750000Y86750000D03*
X113250000Y86750000D03*
X114750000Y86750000D03*
X107250000Y85250000D03*
X108750000Y85250000D03*
X113250000Y85250000D03*
X114750000Y85250000D03*
X107250000Y83750000D03*
X108750000Y83750000D03*
X113250000Y83750000D03*
X114750000Y83750000D03*
X107250000Y82250000D03*
X108750000Y82250000D03*
X113250000Y82250000D03*
X114750000Y82250000D03*
X107250000Y80750000D03*
X108750000Y80750000D03*
X110250000Y80750000D03*
X111750000Y80750000D03*
X113250000Y80750000D03*
X114750000Y80750000D03*
X110250000Y79250000D03*
X111750000Y79250000D03*
%TD*%
D15*
%TO.C,U1*%
X103850000Y128899998D03*
X103850000Y127699998D03*
X103850000Y126499998D03*
X103850000Y125300001D03*
X103850000Y124100000D03*
X103850000Y122900000D03*
X103850000Y121700000D03*
X103850000Y120500000D03*
X103850000Y119300000D03*
X103850000Y118100000D03*
X103850000Y116900000D03*
X103850000Y115699999D03*
X103850000Y114499999D03*
X103850000Y113299999D03*
X103850000Y112100002D03*
D16*
X104400001Y110150000D03*
X105600001Y110150000D03*
X106800001Y110150000D03*
X108000001Y110150000D03*
X109200001Y110150000D03*
X110400001Y110150000D03*
X111599999Y110150000D03*
X112799999Y110150000D03*
X113999999Y110150000D03*
X115199999Y110150000D03*
X116399999Y110150000D03*
X117599999Y110150000D03*
D15*
X118150000Y112100002D03*
X118150000Y113300002D03*
X118150000Y114500002D03*
X118150000Y115700002D03*
X118150000Y116900000D03*
X118150000Y118100000D03*
X118150000Y119300000D03*
X118150000Y120500000D03*
X118150000Y121700000D03*
X118150000Y122900000D03*
X118150000Y124100000D03*
X118150000Y125300001D03*
X118150000Y126500001D03*
X118150000Y127700001D03*
X118150000Y128900001D03*
D16*
X117599999Y130850000D03*
X116399999Y130850000D03*
X115199999Y130850000D03*
X113999999Y130850000D03*
X112799999Y130850000D03*
X111599999Y130850000D03*
X110400001Y130850000D03*
X109200001Y130850000D03*
X108000001Y130850000D03*
X106800001Y130850000D03*
X105600001Y130850000D03*
X104400001Y130850000D03*
D17*
X110250000Y127250000D03*
X111750000Y127250000D03*
X107250000Y125750000D03*
X108750000Y125750000D03*
X110250000Y125750000D03*
X111750000Y125750000D03*
X113250000Y125750000D03*
X114750000Y125750000D03*
X107250000Y124250000D03*
X108750000Y124250000D03*
X113250000Y124250000D03*
X114750000Y124250000D03*
X107250000Y122750000D03*
X108750000Y122750000D03*
X113250000Y122750000D03*
X114750000Y122750000D03*
X107250000Y121250000D03*
X108750000Y121250000D03*
X113250000Y121250000D03*
X114750000Y121250000D03*
X107250000Y119750000D03*
X108750000Y119750000D03*
X113250000Y119750000D03*
X114750000Y119750000D03*
X107250000Y118250000D03*
X108750000Y118250000D03*
X113250000Y118250000D03*
X114750000Y118250000D03*
X107250000Y116750000D03*
X108750000Y116750000D03*
X113250000Y116750000D03*
X114750000Y116750000D03*
X107250000Y115250000D03*
X108750000Y115250000D03*
X110250000Y115250000D03*
X111750000Y115250000D03*
X113250000Y115250000D03*
X114750000Y115250000D03*
X110250000Y113750000D03*
X111750000Y113750000D03*
%TD*%
D15*
%TO.C,U1*%
X103850000Y163399998D03*
X103850000Y162199998D03*
X103850000Y160999998D03*
X103850000Y159800001D03*
X103850000Y158600000D03*
X103850000Y157400000D03*
X103850000Y156200000D03*
X103850000Y155000000D03*
X103850000Y153800000D03*
X103850000Y152600000D03*
X103850000Y151400000D03*
X103850000Y150199999D03*
X103850000Y148999999D03*
X103850000Y147799999D03*
X103850000Y146600002D03*
D16*
X104400001Y144650000D03*
X105600001Y144650000D03*
X106800001Y144650000D03*
X108000001Y144650000D03*
X109200001Y144650000D03*
X110400001Y144650000D03*
X111599999Y144650000D03*
X112799999Y144650000D03*
X113999999Y144650000D03*
X115199999Y144650000D03*
X116399999Y144650000D03*
X117599999Y144650000D03*
D15*
X118150000Y146600002D03*
X118150000Y147800002D03*
X118150000Y149000002D03*
X118150000Y150200002D03*
X118150000Y151400000D03*
X118150000Y152600000D03*
X118150000Y153800000D03*
X118150000Y155000000D03*
X118150000Y156200000D03*
X118150000Y157400000D03*
X118150000Y158600000D03*
X118150000Y159800001D03*
X118150000Y161000001D03*
X118150000Y162200001D03*
X118150000Y163400001D03*
D16*
X117599999Y165350000D03*
X116399999Y165350000D03*
X115199999Y165350000D03*
X113999999Y165350000D03*
X112799999Y165350000D03*
X111599999Y165350000D03*
X110400001Y165350000D03*
X109200001Y165350000D03*
X108000001Y165350000D03*
X106800001Y165350000D03*
X105600001Y165350000D03*
X104400001Y165350000D03*
D17*
X110250000Y161750000D03*
X111750000Y161750000D03*
X107250000Y160250000D03*
X108750000Y160250000D03*
X110250000Y160250000D03*
X111750000Y160250000D03*
X113250000Y160250000D03*
X114750000Y160250000D03*
X107250000Y158750000D03*
X108750000Y158750000D03*
X113250000Y158750000D03*
X114750000Y158750000D03*
X107250000Y157250000D03*
X108750000Y157250000D03*
X113250000Y157250000D03*
X114750000Y157250000D03*
X107250000Y155750000D03*
X108750000Y155750000D03*
X113250000Y155750000D03*
X114750000Y155750000D03*
X107250000Y154250000D03*
X108750000Y154250000D03*
X113250000Y154250000D03*
X114750000Y154250000D03*
X107250000Y152750000D03*
X108750000Y152750000D03*
X113250000Y152750000D03*
X114750000Y152750000D03*
X107250000Y151250000D03*
X108750000Y151250000D03*
X113250000Y151250000D03*
X114750000Y151250000D03*
X107250000Y149750000D03*
X108750000Y149750000D03*
X110250000Y149750000D03*
X111750000Y149750000D03*
X113250000Y149750000D03*
X114750000Y149750000D03*
X110250000Y148250000D03*
X111750000Y148250000D03*
%TD*%
D15*
%TO.C,U1*%
X14850000Y25399998D03*
X14850000Y24199998D03*
X14850000Y22999998D03*
X14850000Y21800001D03*
X14850000Y20600000D03*
X14850000Y19400000D03*
X14850000Y18200000D03*
X14850000Y17000000D03*
X14850000Y15800000D03*
X14850000Y14600000D03*
X14850000Y13400000D03*
X14850000Y12199999D03*
X14850000Y10999999D03*
X14850000Y9799999D03*
X14850000Y8600002D03*
D16*
X15400001Y6650000D03*
X16600001Y6650000D03*
X17800001Y6650000D03*
X19000001Y6650000D03*
X20200001Y6650000D03*
X21400001Y6650000D03*
X22599999Y6650000D03*
X23799999Y6650000D03*
X24999999Y6650000D03*
X26199999Y6650000D03*
X27399999Y6650000D03*
X28599999Y6650000D03*
D15*
X29150000Y8600002D03*
X29150000Y9800002D03*
X29150000Y11000002D03*
X29150000Y12200002D03*
X29150000Y13400000D03*
X29150000Y14600000D03*
X29150000Y15800000D03*
X29150000Y17000000D03*
X29150000Y18200000D03*
X29150000Y19400000D03*
X29150000Y20600000D03*
X29150000Y21800001D03*
X29150000Y23000001D03*
X29150000Y24200001D03*
X29150000Y25400001D03*
D16*
X28599999Y27350000D03*
X27399999Y27350000D03*
X26199999Y27350000D03*
X24999999Y27350000D03*
X23799999Y27350000D03*
X22599999Y27350000D03*
X21400001Y27350000D03*
X20200001Y27350000D03*
X19000001Y27350000D03*
X17800001Y27350000D03*
X16600001Y27350000D03*
X15400001Y27350000D03*
D17*
X21250000Y23750000D03*
X22750000Y23750000D03*
X18250000Y22250000D03*
X19750000Y22250000D03*
X21250000Y22250000D03*
X22750000Y22250000D03*
X24250000Y22250000D03*
X25750000Y22250000D03*
X18250000Y20750000D03*
X19750000Y20750000D03*
X24250000Y20750000D03*
X25750000Y20750000D03*
X18250000Y19250000D03*
X19750000Y19250000D03*
X24250000Y19250000D03*
X25750000Y19250000D03*
X18250000Y17750000D03*
X19750000Y17750000D03*
X24250000Y17750000D03*
X25750000Y17750000D03*
X18250000Y16250000D03*
X19750000Y16250000D03*
X24250000Y16250000D03*
X25750000Y16250000D03*
X18250000Y14750000D03*
X19750000Y14750000D03*
X24250000Y14750000D03*
X25750000Y14750000D03*
X18250000Y13250000D03*
X19750000Y13250000D03*
X24250000Y13250000D03*
X25750000Y13250000D03*
X18250000Y11750000D03*
X19750000Y11750000D03*
X21250000Y11750000D03*
X22750000Y11750000D03*
X24250000Y11750000D03*
X25750000Y11750000D03*
X21250000Y10250000D03*
X22750000Y10250000D03*
%TD*%
D18*
%TO.C,J4*%
X48525000Y86000000D03*
D19*
X47000000Y87375000D03*
X47000000Y84625000D03*
%TD*%
D18*
%TO.C,J4*%
X48525000Y155000000D03*
D19*
X47000000Y156375000D03*
X47000000Y153625000D03*
%TD*%
D18*
%TO.C,J4*%
X4025000Y51500000D03*
D19*
X2500000Y52875000D03*
X2500000Y50125000D03*
%TD*%
D18*
%TO.C,J4*%
X4025000Y120500000D03*
D19*
X2500000Y121875000D03*
X2500000Y119125000D03*
%TD*%
D18*
%TO.C,J4*%
X4025000Y86000000D03*
D19*
X2500000Y87375000D03*
X2500000Y84625000D03*
%TD*%
D18*
%TO.C,J4*%
X4025000Y155000000D03*
D19*
X2500000Y156375000D03*
X2500000Y153625000D03*
%TD*%
D18*
%TO.C,J4*%
X48525000Y17000000D03*
D19*
X47000000Y18375000D03*
X47000000Y15625000D03*
%TD*%
D18*
%TO.C,J4*%
X48525000Y51500000D03*
D19*
X47000000Y52875000D03*
X47000000Y50125000D03*
%TD*%
D18*
%TO.C,J4*%
X48525000Y120500000D03*
D19*
X47000000Y121875000D03*
X47000000Y119125000D03*
%TD*%
D18*
%TO.C,J4*%
X93025000Y17000000D03*
D19*
X91500000Y18375000D03*
X91500000Y15625000D03*
%TD*%
D18*
%TO.C,J4*%
X93025000Y155000000D03*
D19*
X91500000Y156375000D03*
X91500000Y153625000D03*
%TD*%
D18*
%TO.C,J4*%
X93025000Y51500000D03*
D19*
X91500000Y52875000D03*
X91500000Y50125000D03*
%TD*%
D18*
%TO.C,J4*%
X93025000Y120500000D03*
D19*
X91500000Y121875000D03*
X91500000Y119125000D03*
%TD*%
D18*
%TO.C,J4*%
X93025000Y86000000D03*
D19*
X91500000Y87375000D03*
X91500000Y84625000D03*
%TD*%
D18*
%TO.C,J4*%
X4025000Y17000000D03*
D19*
X2500000Y18375000D03*
X2500000Y15625000D03*
%TD*%
D14*
%TO.C,C2*%
X71940000Y65100000D03*
X72900000Y65100000D03*
%TD*%
%TO.C,C2*%
X27440000Y99600000D03*
X28400000Y99600000D03*
%TD*%
%TO.C,C2*%
X27440000Y134100000D03*
X28400000Y134100000D03*
%TD*%
%TO.C,C2*%
X27440000Y168600000D03*
X28400000Y168600000D03*
%TD*%
%TO.C,C2*%
X27440000Y65100000D03*
X28400000Y65100000D03*
%TD*%
%TO.C,C2*%
X71940000Y30600000D03*
X72900000Y30600000D03*
%TD*%
%TO.C,C2*%
X71940000Y99600000D03*
X72900000Y99600000D03*
%TD*%
%TO.C,C2*%
X116440000Y99600000D03*
X117400000Y99600000D03*
%TD*%
%TO.C,C2*%
X71940000Y134100000D03*
X72900000Y134100000D03*
%TD*%
%TO.C,C2*%
X71940000Y168600000D03*
X72900000Y168600000D03*
%TD*%
%TO.C,C2*%
X116440000Y30600000D03*
X117400000Y30600000D03*
%TD*%
%TO.C,C2*%
X116440000Y134100000D03*
X117400000Y134100000D03*
%TD*%
%TO.C,C2*%
X116440000Y65100000D03*
X117400000Y65100000D03*
%TD*%
%TO.C,C2*%
X116440000Y168600000D03*
X117400000Y168600000D03*
%TD*%
%TO.C,C2*%
X27440000Y30600000D03*
X28400000Y30600000D03*
%TD*%
D20*
%TO.C,C4*%
X12275000Y153300000D03*
X10725000Y153300000D03*
%TD*%
%TO.C,C4*%
X56775000Y49800000D03*
X55225000Y49800000D03*
%TD*%
%TO.C,C4*%
X12275000Y49800000D03*
X10725000Y49800000D03*
%TD*%
%TO.C,C4*%
X56775000Y15300000D03*
X55225000Y15300000D03*
%TD*%
%TO.C,C4*%
X12275000Y84300000D03*
X10725000Y84300000D03*
%TD*%
%TO.C,C4*%
X101275000Y15300000D03*
X99725000Y15300000D03*
%TD*%
%TO.C,C4*%
X12275000Y118800000D03*
X10725000Y118800000D03*
%TD*%
%TO.C,C4*%
X56775000Y84300000D03*
X55225000Y84300000D03*
%TD*%
%TO.C,C4*%
X101275000Y118800000D03*
X99725000Y118800000D03*
%TD*%
%TO.C,C4*%
X101275000Y84300000D03*
X99725000Y84300000D03*
%TD*%
%TO.C,C4*%
X56775000Y118800000D03*
X55225000Y118800000D03*
%TD*%
%TO.C,C4*%
X56775000Y153300000D03*
X55225000Y153300000D03*
%TD*%
%TO.C,C4*%
X101275000Y153300000D03*
X99725000Y153300000D03*
%TD*%
%TO.C,C4*%
X101275000Y49800000D03*
X99725000Y49800000D03*
%TD*%
%TO.C,C4*%
X12275000Y15300000D03*
X10725000Y15300000D03*
%TD*%
M02*
