%TF.GenerationSoftware,KiCad,Pcbnew,9.0.1*%
%TF.CreationDate,2025-06-10T11:44:45+01:00*%
%TF.ProjectId,SparkFun_GNSS_Flex_Module_mosaic-X5_IM19_panelized,53706172-6b46-4756-9e5f-474e53535f46,v10*%
%TF.SameCoordinates,Original*%
%TF.FileFunction,Soldermask,Bot*%
%TF.FilePolarity,Negative*%
%FSLAX46Y46*%
G04 Gerber Fmt 4.6, Leading zero omitted, Abs format (unit mm)*
G04 Created by KiCad (PCBNEW 9.0.1) date 2025-06-10 11:44:45*
%MOMM*%
%LPD*%
G01*
G04 APERTURE LIST*
G04 Aperture macros list*
%AMRoundRect*
0 Rectangle with rounded corners*
0 $1 Rounding radius*
0 $2 $3 $4 $5 $6 $7 $8 $9 X,Y pos of 4 corners*
0 Add a 4 corners polygon primitive as box body*
4,1,4,$2,$3,$4,$5,$6,$7,$8,$9,$2,$3,0*
0 Add four circle primitives for the rounded corners*
1,1,$1+$1,$2,$3*
1,1,$1+$1,$4,$5*
1,1,$1+$1,$6,$7*
1,1,$1+$1,$8,$9*
0 Add four rect primitives between the rounded corners*
20,1,$1+$1,$2,$3,$4,$5,0*
20,1,$1+$1,$4,$5,$6,$7,0*
20,1,$1+$1,$6,$7,$8,$9,0*
20,1,$1+$1,$8,$9,$2,$3,0*%
G04 Aperture macros list end*
%ADD10C,0.000000*%
%ADD11C,3.200000*%
%ADD12RoundRect,0.040000X-0.160000X0.285000X-0.160000X-0.285000X0.160000X-0.285000X0.160000X0.285000X0*%
%ADD13C,0.600000*%
%ADD14C,3.000000*%
%ADD15RoundRect,0.225000X0.225000X0.300000X-0.225000X0.300000X-0.225000X-0.300000X0.225000X-0.300000X0*%
%ADD16RoundRect,0.050000X0.330200X0.635000X-0.330200X0.635000X-0.330200X-0.635000X0.330200X-0.635000X0*%
%ADD17RoundRect,0.165000X0.195000X-0.165000X0.195000X0.165000X-0.195000X0.165000X-0.195000X-0.165000X0*%
%ADD18RoundRect,0.250000X0.275000X-0.250000X0.275000X0.250000X-0.275000X0.250000X-0.275000X-0.250000X0*%
%ADD19RoundRect,0.050000X-0.635000X0.330200X-0.635000X-0.330200X0.635000X-0.330200X0.635000X0.330200X0*%
%ADD20RoundRect,0.050000X-0.800000X-0.400000X0.800000X-0.400000X0.800000X0.400000X-0.800000X0.400000X0*%
%ADD21RoundRect,0.050000X-1.500000X-1.500000X1.500000X-1.500000X1.500000X1.500000X-1.500000X1.500000X0*%
%ADD22RoundRect,0.165000X0.165000X0.195000X-0.165000X0.195000X-0.165000X-0.195000X0.165000X-0.195000X0*%
%ADD23RoundRect,0.250000X0.250000X0.275000X-0.250000X0.275000X-0.250000X-0.275000X0.250000X-0.275000X0*%
%ADD24RoundRect,0.160000X0.210000X-0.160000X0.210000X0.160000X-0.210000X0.160000X-0.210000X-0.160000X0*%
%ADD25RoundRect,0.558000X0.000010X0.000010X-0.000010X0.000010X-0.000010X-0.000010X0.000010X-0.000010X0*%
%ADD26C,1.300000*%
%ADD27RoundRect,0.050000X1.050000X0.425000X-1.050000X0.425000X-1.050000X-0.425000X1.050000X-0.425000X0*%
%ADD28RoundRect,0.160000X-0.160000X-0.210000X0.160000X-0.210000X0.160000X0.210000X-0.160000X0.210000X0*%
%ADD29RoundRect,0.165000X-0.195000X0.165000X-0.195000X-0.165000X0.195000X-0.165000X0.195000X0.165000X0*%
G04 APERTURE END LIST*
D10*
%TO.C,JP1*%
G36*
X16510000Y31128500D02*
G01*
X16002000Y31128500D01*
X16002000Y31609500D01*
X16510000Y31609500D01*
X16510000Y31128500D01*
G37*
G36*
X16510000Y65628500D02*
G01*
X16002000Y65628500D01*
X16002000Y66109500D01*
X16510000Y66109500D01*
X16510000Y65628500D01*
G37*
G36*
X61010000Y31128500D02*
G01*
X60502000Y31128500D01*
X60502000Y31609500D01*
X61010000Y31609500D01*
X61010000Y31128500D01*
G37*
G36*
X16510000Y100128500D02*
G01*
X16002000Y100128500D01*
X16002000Y100609500D01*
X16510000Y100609500D01*
X16510000Y100128500D01*
G37*
G36*
X61010000Y100128500D02*
G01*
X60502000Y100128500D01*
X60502000Y100609500D01*
X61010000Y100609500D01*
X61010000Y100128500D01*
G37*
G36*
X61010000Y65628500D02*
G01*
X60502000Y65628500D01*
X60502000Y66109500D01*
X61010000Y66109500D01*
X61010000Y65628500D01*
G37*
%TO.C,JP2*%
G36*
X11924500Y17894300D02*
G01*
X11443500Y17894300D01*
X11443500Y18402300D01*
X11924500Y18402300D01*
X11924500Y17894300D01*
G37*
G36*
X56424500Y52394300D02*
G01*
X55943500Y52394300D01*
X55943500Y52902300D01*
X56424500Y52902300D01*
X56424500Y52394300D01*
G37*
G36*
X56424500Y17894300D02*
G01*
X55943500Y17894300D01*
X55943500Y18402300D01*
X56424500Y18402300D01*
X56424500Y17894300D01*
G37*
G36*
X56424500Y86894300D02*
G01*
X55943500Y86894300D01*
X55943500Y87402300D01*
X56424500Y87402300D01*
X56424500Y86894300D01*
G37*
G36*
X11924500Y86894300D02*
G01*
X11443500Y86894300D01*
X11443500Y87402300D01*
X11924500Y87402300D01*
X11924500Y86894300D01*
G37*
G36*
X11924500Y52394300D02*
G01*
X11443500Y52394300D01*
X11443500Y52902300D01*
X11924500Y52902300D01*
X11924500Y52394300D01*
G37*
%TD*%
D11*
%TO.C,ST4*%
X41500000Y2500000D03*
%TD*%
%TO.C,ST4*%
X41500000Y71500000D03*
%TD*%
%TO.C,ST4*%
X41500000Y37000000D03*
%TD*%
%TO.C,ST4*%
X86000000Y2500000D03*
%TD*%
%TO.C,ST4*%
X86000000Y71500000D03*
%TD*%
%TO.C,ST4*%
X86000000Y37000000D03*
%TD*%
%TO.C,ST3*%
X41500000Y31500000D03*
%TD*%
%TO.C,ST3*%
X86000000Y100500000D03*
%TD*%
%TO.C,ST3*%
X86000000Y31500000D03*
%TD*%
%TO.C,ST3*%
X86000000Y66000000D03*
%TD*%
%TO.C,ST3*%
X41500000Y66000000D03*
%TD*%
%TO.C,ST3*%
X41500000Y100500000D03*
%TD*%
%TO.C,ST1*%
X2500000Y31500000D03*
%TD*%
%TO.C,ST1*%
X47000000Y31500000D03*
%TD*%
%TO.C,ST1*%
X2500000Y66000000D03*
%TD*%
%TO.C,ST1*%
X2500000Y100500000D03*
%TD*%
%TO.C,ST1*%
X47000000Y66000000D03*
%TD*%
%TO.C,ST1*%
X47000000Y100500000D03*
%TD*%
%TO.C,ST2*%
X2540000Y2540000D03*
%TD*%
%TO.C,ST2*%
X47040000Y2540000D03*
%TD*%
%TO.C,ST2*%
X47040000Y37040000D03*
%TD*%
%TO.C,ST2*%
X2540000Y37040000D03*
%TD*%
%TO.C,ST2*%
X2540000Y71540000D03*
%TD*%
%TO.C,ST2*%
X47040000Y71540000D03*
%TD*%
D12*
%TO.C,U2*%
X29095000Y30304000D03*
X29595000Y30304000D03*
X30095000Y30304000D03*
X30595000Y30304000D03*
X30595000Y27354000D03*
X30095000Y27354000D03*
X29595000Y27354000D03*
X29095000Y27354000D03*
%TD*%
%TO.C,U2*%
X29095000Y99304000D03*
X29595000Y99304000D03*
X30095000Y99304000D03*
X30595000Y99304000D03*
X30595000Y96354000D03*
X30095000Y96354000D03*
X29595000Y96354000D03*
X29095000Y96354000D03*
%TD*%
%TO.C,U2*%
X73595000Y64804000D03*
X74095000Y64804000D03*
X74595000Y64804000D03*
X75095000Y64804000D03*
X75095000Y61854000D03*
X74595000Y61854000D03*
X74095000Y61854000D03*
X73595000Y61854000D03*
%TD*%
%TO.C,U2*%
X29095000Y64804000D03*
X29595000Y64804000D03*
X30095000Y64804000D03*
X30595000Y64804000D03*
X30595000Y61854000D03*
X30095000Y61854000D03*
X29595000Y61854000D03*
X29095000Y61854000D03*
%TD*%
%TO.C,U2*%
X73595000Y30304000D03*
X74095000Y30304000D03*
X74595000Y30304000D03*
X75095000Y30304000D03*
X75095000Y27354000D03*
X74595000Y27354000D03*
X74095000Y27354000D03*
X73595000Y27354000D03*
%TD*%
%TO.C,U2*%
X73595000Y99304000D03*
X74095000Y99304000D03*
X74595000Y99304000D03*
X75095000Y99304000D03*
X75095000Y96354000D03*
X74595000Y96354000D03*
X74095000Y96354000D03*
X73595000Y96354000D03*
%TD*%
D13*
%TO.C,FID3*%
X1000000Y28500000D03*
%TD*%
%TO.C,FID3*%
X45500000Y28500000D03*
%TD*%
%TO.C,FID3*%
X45500000Y63000000D03*
%TD*%
%TO.C,FID3*%
X1000000Y63000000D03*
%TD*%
%TO.C,FID3*%
X1000000Y97500000D03*
%TD*%
%TO.C,FID3*%
X45500000Y97500000D03*
%TD*%
D14*
%TO.C,*%
X2000000Y-2087500D03*
%TD*%
D15*
%TO.C,R4*%
X25336000Y30988000D03*
X23686000Y30988000D03*
%TD*%
%TO.C,R4*%
X25336000Y65488000D03*
X23686000Y65488000D03*
%TD*%
%TO.C,R4*%
X25336000Y99988000D03*
X23686000Y99988000D03*
%TD*%
%TO.C,R4*%
X69836000Y30988000D03*
X68186000Y30988000D03*
%TD*%
%TO.C,R4*%
X69836000Y65488000D03*
X68186000Y65488000D03*
%TD*%
%TO.C,R4*%
X69836000Y99988000D03*
X68186000Y99988000D03*
%TD*%
D16*
%TO.C,JP1*%
X16776700Y31369000D03*
X15735300Y31369000D03*
%TD*%
%TO.C,JP1*%
X16776700Y65869000D03*
X15735300Y65869000D03*
%TD*%
%TO.C,JP1*%
X61276700Y31369000D03*
X60235300Y31369000D03*
%TD*%
%TO.C,JP1*%
X16776700Y100369000D03*
X15735300Y100369000D03*
%TD*%
%TO.C,JP1*%
X61276700Y100369000D03*
X60235300Y100369000D03*
%TD*%
%TO.C,JP1*%
X61276700Y65869000D03*
X60235300Y65869000D03*
%TD*%
D13*
%TO.C,FID2*%
X43000000Y5500000D03*
%TD*%
%TO.C,FID2*%
X87500000Y5500000D03*
%TD*%
%TO.C,FID2*%
X87500000Y74500000D03*
%TD*%
%TO.C,FID2*%
X43000000Y40000000D03*
%TD*%
%TO.C,FID2*%
X43000000Y74500000D03*
%TD*%
%TO.C,FID2*%
X87500000Y40000000D03*
%TD*%
D17*
%TO.C,C6*%
X27686000Y27333000D03*
X27686000Y28293000D03*
%TD*%
%TO.C,C6*%
X27686000Y61833000D03*
X27686000Y62793000D03*
%TD*%
%TO.C,C6*%
X27686000Y96333000D03*
X27686000Y97293000D03*
%TD*%
%TO.C,C6*%
X72186000Y27333000D03*
X72186000Y28293000D03*
%TD*%
%TO.C,C6*%
X72186000Y61833000D03*
X72186000Y62793000D03*
%TD*%
%TO.C,C6*%
X72186000Y96333000D03*
X72186000Y97293000D03*
%TD*%
D18*
%TO.C,C1*%
X12446000Y6083000D03*
X12446000Y7633000D03*
%TD*%
%TO.C,C1*%
X12446000Y40583000D03*
X12446000Y42133000D03*
%TD*%
%TO.C,C1*%
X56946000Y6083000D03*
X56946000Y7633000D03*
%TD*%
%TO.C,C1*%
X12446000Y75083000D03*
X12446000Y76633000D03*
%TD*%
%TO.C,C1*%
X56946000Y40583000D03*
X56946000Y42133000D03*
%TD*%
%TO.C,C1*%
X56946000Y75083000D03*
X56946000Y76633000D03*
%TD*%
D19*
%TO.C,JP2*%
X11684000Y18669000D03*
X11684000Y17627600D03*
%TD*%
%TO.C,JP2*%
X56184000Y53169000D03*
X56184000Y52127600D03*
%TD*%
%TO.C,JP2*%
X56184000Y18669000D03*
X56184000Y17627600D03*
%TD*%
%TO.C,JP2*%
X56184000Y87669000D03*
X56184000Y86627600D03*
%TD*%
%TO.C,JP2*%
X11684000Y87669000D03*
X11684000Y86627600D03*
%TD*%
%TO.C,JP2*%
X11684000Y53169000D03*
X11684000Y52127600D03*
%TD*%
D20*
%TO.C,U3*%
X14600000Y11285000D03*
X14600000Y12555000D03*
X14600000Y13825000D03*
X14600000Y15095000D03*
X14600000Y16365000D03*
X14600000Y17635000D03*
X14600000Y18905000D03*
X14600000Y20175000D03*
X14600000Y21445000D03*
X14600000Y22715000D03*
X29400000Y22715000D03*
X29400000Y21445000D03*
X29400000Y20175000D03*
X29400000Y18905000D03*
X29400000Y17635000D03*
X29400000Y16365000D03*
X29400000Y15095000D03*
X29400000Y13825000D03*
X29400000Y12555000D03*
X29400000Y11285000D03*
D21*
X22520000Y15480000D03*
%TD*%
D20*
%TO.C,U3*%
X14600000Y80285000D03*
X14600000Y81555000D03*
X14600000Y82825000D03*
X14600000Y84095000D03*
X14600000Y85365000D03*
X14600000Y86635000D03*
X14600000Y87905000D03*
X14600000Y89175000D03*
X14600000Y90445000D03*
X14600000Y91715000D03*
X29400000Y91715000D03*
X29400000Y90445000D03*
X29400000Y89175000D03*
X29400000Y87905000D03*
X29400000Y86635000D03*
X29400000Y85365000D03*
X29400000Y84095000D03*
X29400000Y82825000D03*
X29400000Y81555000D03*
X29400000Y80285000D03*
D21*
X22520000Y84480000D03*
%TD*%
D20*
%TO.C,U3*%
X14600000Y45785000D03*
X14600000Y47055000D03*
X14600000Y48325000D03*
X14600000Y49595000D03*
X14600000Y50865000D03*
X14600000Y52135000D03*
X14600000Y53405000D03*
X14600000Y54675000D03*
X14600000Y55945000D03*
X14600000Y57215000D03*
X29400000Y57215000D03*
X29400000Y55945000D03*
X29400000Y54675000D03*
X29400000Y53405000D03*
X29400000Y52135000D03*
X29400000Y50865000D03*
X29400000Y49595000D03*
X29400000Y48325000D03*
X29400000Y47055000D03*
X29400000Y45785000D03*
D21*
X22520000Y49980000D03*
%TD*%
D20*
%TO.C,U3*%
X59100000Y80285000D03*
X59100000Y81555000D03*
X59100000Y82825000D03*
X59100000Y84095000D03*
X59100000Y85365000D03*
X59100000Y86635000D03*
X59100000Y87905000D03*
X59100000Y89175000D03*
X59100000Y90445000D03*
X59100000Y91715000D03*
X73900000Y91715000D03*
X73900000Y90445000D03*
X73900000Y89175000D03*
X73900000Y87905000D03*
X73900000Y86635000D03*
X73900000Y85365000D03*
X73900000Y84095000D03*
X73900000Y82825000D03*
X73900000Y81555000D03*
X73900000Y80285000D03*
D21*
X67020000Y84480000D03*
%TD*%
D20*
%TO.C,U3*%
X59100000Y11285000D03*
X59100000Y12555000D03*
X59100000Y13825000D03*
X59100000Y15095000D03*
X59100000Y16365000D03*
X59100000Y17635000D03*
X59100000Y18905000D03*
X59100000Y20175000D03*
X59100000Y21445000D03*
X59100000Y22715000D03*
X73900000Y22715000D03*
X73900000Y21445000D03*
X73900000Y20175000D03*
X73900000Y18905000D03*
X73900000Y17635000D03*
X73900000Y16365000D03*
X73900000Y15095000D03*
X73900000Y13825000D03*
X73900000Y12555000D03*
X73900000Y11285000D03*
D21*
X67020000Y15480000D03*
%TD*%
D20*
%TO.C,U3*%
X59100000Y45785000D03*
X59100000Y47055000D03*
X59100000Y48325000D03*
X59100000Y49595000D03*
X59100000Y50865000D03*
X59100000Y52135000D03*
X59100000Y53405000D03*
X59100000Y54675000D03*
X59100000Y55945000D03*
X59100000Y57215000D03*
X73900000Y57215000D03*
X73900000Y55945000D03*
X73900000Y54675000D03*
X73900000Y53405000D03*
X73900000Y52135000D03*
X73900000Y50865000D03*
X73900000Y49595000D03*
X73900000Y48325000D03*
X73900000Y47055000D03*
X73900000Y45785000D03*
D21*
X67020000Y49980000D03*
%TD*%
D22*
%TO.C,C3*%
X10894000Y3683000D03*
X9934000Y3683000D03*
%TD*%
%TO.C,C3*%
X10894000Y38183000D03*
X9934000Y38183000D03*
%TD*%
%TO.C,C3*%
X55394000Y72683000D03*
X54434000Y72683000D03*
%TD*%
%TO.C,C3*%
X55394000Y38183000D03*
X54434000Y38183000D03*
%TD*%
%TO.C,C3*%
X10894000Y72683000D03*
X9934000Y72683000D03*
%TD*%
%TO.C,C3*%
X55394000Y3683000D03*
X54434000Y3683000D03*
%TD*%
D17*
%TO.C,C8*%
X18796000Y27333000D03*
X18796000Y28293000D03*
%TD*%
%TO.C,C8*%
X63296000Y96333000D03*
X63296000Y97293000D03*
%TD*%
%TO.C,C8*%
X63296000Y27333000D03*
X63296000Y28293000D03*
%TD*%
%TO.C,C8*%
X18796000Y96333000D03*
X18796000Y97293000D03*
%TD*%
%TO.C,C8*%
X63296000Y61833000D03*
X63296000Y62793000D03*
%TD*%
%TO.C,C8*%
X18796000Y61833000D03*
X18796000Y62793000D03*
%TD*%
D23*
%TO.C,L1*%
X11316000Y20320000D03*
X9766000Y20320000D03*
%TD*%
%TO.C,L1*%
X11316000Y89320000D03*
X9766000Y89320000D03*
%TD*%
%TO.C,L1*%
X55816000Y54820000D03*
X54266000Y54820000D03*
%TD*%
%TO.C,L1*%
X11316000Y54820000D03*
X9766000Y54820000D03*
%TD*%
%TO.C,L1*%
X55816000Y20320000D03*
X54266000Y20320000D03*
%TD*%
%TO.C,L1*%
X55816000Y89320000D03*
X54266000Y89320000D03*
%TD*%
D24*
%TO.C,R1*%
X31115000Y7999000D03*
X31115000Y9019000D03*
%TD*%
%TO.C,R1*%
X31115000Y42499000D03*
X31115000Y43519000D03*
%TD*%
%TO.C,R1*%
X31115000Y76999000D03*
X31115000Y78019000D03*
%TD*%
%TO.C,R1*%
X75615000Y76999000D03*
X75615000Y78019000D03*
%TD*%
%TO.C,R1*%
X75615000Y7999000D03*
X75615000Y9019000D03*
%TD*%
%TO.C,R1*%
X75615000Y42499000D03*
X75615000Y43519000D03*
%TD*%
D25*
%TO.C,TP2*%
X16256000Y33020000D03*
%TD*%
%TO.C,TP2*%
X60756000Y33020000D03*
%TD*%
%TO.C,TP2*%
X60756000Y102020000D03*
%TD*%
%TO.C,TP2*%
X16256000Y67520000D03*
%TD*%
%TO.C,TP2*%
X16256000Y102020000D03*
%TD*%
%TO.C,TP2*%
X60756000Y67520000D03*
%TD*%
D17*
%TO.C,C10*%
X17526000Y27333000D03*
X17526000Y28293000D03*
%TD*%
%TO.C,C10*%
X62026000Y96333000D03*
X62026000Y97293000D03*
%TD*%
%TO.C,C10*%
X62026000Y61833000D03*
X62026000Y62793000D03*
%TD*%
%TO.C,C10*%
X17526000Y61833000D03*
X17526000Y62793000D03*
%TD*%
%TO.C,C10*%
X62026000Y27333000D03*
X62026000Y28293000D03*
%TD*%
%TO.C,C10*%
X17526000Y96333000D03*
X17526000Y97293000D03*
%TD*%
D26*
%TO.C,J1*%
X4000000Y9000000D03*
X4000000Y25000000D03*
D27*
X1350000Y26000000D03*
X6650000Y26000000D03*
X1350000Y24000000D03*
X6650000Y24000000D03*
X1350000Y22000000D03*
X6650000Y22000000D03*
X1350000Y20000000D03*
X6650000Y20000000D03*
X1350000Y18000000D03*
X6650000Y18000000D03*
X1350000Y16000000D03*
X6650000Y16000000D03*
X1350000Y14000000D03*
X6650000Y14000000D03*
X1350000Y12000000D03*
X6650000Y12000000D03*
X1350000Y10000000D03*
X6650000Y10000000D03*
X1350000Y8000000D03*
X6650000Y8000000D03*
%TD*%
D26*
%TO.C,J1*%
X4000000Y78000000D03*
X4000000Y94000000D03*
D27*
X1350000Y95000000D03*
X6650000Y95000000D03*
X1350000Y93000000D03*
X6650000Y93000000D03*
X1350000Y91000000D03*
X6650000Y91000000D03*
X1350000Y89000000D03*
X6650000Y89000000D03*
X1350000Y87000000D03*
X6650000Y87000000D03*
X1350000Y85000000D03*
X6650000Y85000000D03*
X1350000Y83000000D03*
X6650000Y83000000D03*
X1350000Y81000000D03*
X6650000Y81000000D03*
X1350000Y79000000D03*
X6650000Y79000000D03*
X1350000Y77000000D03*
X6650000Y77000000D03*
%TD*%
D26*
%TO.C,J1*%
X4000000Y43500000D03*
X4000000Y59500000D03*
D27*
X1350000Y60500000D03*
X6650000Y60500000D03*
X1350000Y58500000D03*
X6650000Y58500000D03*
X1350000Y56500000D03*
X6650000Y56500000D03*
X1350000Y54500000D03*
X6650000Y54500000D03*
X1350000Y52500000D03*
X6650000Y52500000D03*
X1350000Y50500000D03*
X6650000Y50500000D03*
X1350000Y48500000D03*
X6650000Y48500000D03*
X1350000Y46500000D03*
X6650000Y46500000D03*
X1350000Y44500000D03*
X6650000Y44500000D03*
X1350000Y42500000D03*
X6650000Y42500000D03*
%TD*%
D26*
%TO.C,J1*%
X48500000Y43500000D03*
X48500000Y59500000D03*
D27*
X45850000Y60500000D03*
X51150000Y60500000D03*
X45850000Y58500000D03*
X51150000Y58500000D03*
X45850000Y56500000D03*
X51150000Y56500000D03*
X45850000Y54500000D03*
X51150000Y54500000D03*
X45850000Y52500000D03*
X51150000Y52500000D03*
X45850000Y50500000D03*
X51150000Y50500000D03*
X45850000Y48500000D03*
X51150000Y48500000D03*
X45850000Y46500000D03*
X51150000Y46500000D03*
X45850000Y44500000D03*
X51150000Y44500000D03*
X45850000Y42500000D03*
X51150000Y42500000D03*
%TD*%
D26*
%TO.C,J1*%
X48500000Y9000000D03*
X48500000Y25000000D03*
D27*
X45850000Y26000000D03*
X51150000Y26000000D03*
X45850000Y24000000D03*
X51150000Y24000000D03*
X45850000Y22000000D03*
X51150000Y22000000D03*
X45850000Y20000000D03*
X51150000Y20000000D03*
X45850000Y18000000D03*
X51150000Y18000000D03*
X45850000Y16000000D03*
X51150000Y16000000D03*
X45850000Y14000000D03*
X51150000Y14000000D03*
X45850000Y12000000D03*
X51150000Y12000000D03*
X45850000Y10000000D03*
X51150000Y10000000D03*
X45850000Y8000000D03*
X51150000Y8000000D03*
%TD*%
D26*
%TO.C,J1*%
X48500000Y78000000D03*
X48500000Y94000000D03*
D27*
X45850000Y95000000D03*
X51150000Y95000000D03*
X45850000Y93000000D03*
X51150000Y93000000D03*
X45850000Y91000000D03*
X51150000Y91000000D03*
X45850000Y89000000D03*
X51150000Y89000000D03*
X45850000Y87000000D03*
X51150000Y87000000D03*
X45850000Y85000000D03*
X51150000Y85000000D03*
X45850000Y83000000D03*
X51150000Y83000000D03*
X45850000Y81000000D03*
X51150000Y81000000D03*
X45850000Y79000000D03*
X51150000Y79000000D03*
X45850000Y77000000D03*
X51150000Y77000000D03*
%TD*%
D26*
%TO.C,J3*%
X40000000Y9000000D03*
X40000000Y25000000D03*
D27*
X37350000Y26000000D03*
X42650000Y26000000D03*
X37350000Y24000000D03*
X42650000Y24000000D03*
X37350000Y22000000D03*
X42650000Y22000000D03*
X37350000Y20000000D03*
X42650000Y20000000D03*
X37350000Y18000000D03*
X42650000Y18000000D03*
X37350000Y16000000D03*
X42650000Y16000000D03*
X37350000Y14000000D03*
X42650000Y14000000D03*
X37350000Y12000000D03*
X42650000Y12000000D03*
X37350000Y10000000D03*
X42650000Y10000000D03*
X37350000Y8000000D03*
X42650000Y8000000D03*
%TD*%
D26*
%TO.C,J3*%
X84500000Y9000000D03*
X84500000Y25000000D03*
D27*
X81850000Y26000000D03*
X87150000Y26000000D03*
X81850000Y24000000D03*
X87150000Y24000000D03*
X81850000Y22000000D03*
X87150000Y22000000D03*
X81850000Y20000000D03*
X87150000Y20000000D03*
X81850000Y18000000D03*
X87150000Y18000000D03*
X81850000Y16000000D03*
X87150000Y16000000D03*
X81850000Y14000000D03*
X87150000Y14000000D03*
X81850000Y12000000D03*
X87150000Y12000000D03*
X81850000Y10000000D03*
X87150000Y10000000D03*
X81850000Y8000000D03*
X87150000Y8000000D03*
%TD*%
D26*
%TO.C,J3*%
X40000000Y43500000D03*
X40000000Y59500000D03*
D27*
X37350000Y60500000D03*
X42650000Y60500000D03*
X37350000Y58500000D03*
X42650000Y58500000D03*
X37350000Y56500000D03*
X42650000Y56500000D03*
X37350000Y54500000D03*
X42650000Y54500000D03*
X37350000Y52500000D03*
X42650000Y52500000D03*
X37350000Y50500000D03*
X42650000Y50500000D03*
X37350000Y48500000D03*
X42650000Y48500000D03*
X37350000Y46500000D03*
X42650000Y46500000D03*
X37350000Y44500000D03*
X42650000Y44500000D03*
X37350000Y42500000D03*
X42650000Y42500000D03*
%TD*%
D26*
%TO.C,J3*%
X40000000Y78000000D03*
X40000000Y94000000D03*
D27*
X37350000Y95000000D03*
X42650000Y95000000D03*
X37350000Y93000000D03*
X42650000Y93000000D03*
X37350000Y91000000D03*
X42650000Y91000000D03*
X37350000Y89000000D03*
X42650000Y89000000D03*
X37350000Y87000000D03*
X42650000Y87000000D03*
X37350000Y85000000D03*
X42650000Y85000000D03*
X37350000Y83000000D03*
X42650000Y83000000D03*
X37350000Y81000000D03*
X42650000Y81000000D03*
X37350000Y79000000D03*
X42650000Y79000000D03*
X37350000Y77000000D03*
X42650000Y77000000D03*
%TD*%
D26*
%TO.C,J3*%
X84500000Y78000000D03*
X84500000Y94000000D03*
D27*
X81850000Y95000000D03*
X87150000Y95000000D03*
X81850000Y93000000D03*
X87150000Y93000000D03*
X81850000Y91000000D03*
X87150000Y91000000D03*
X81850000Y89000000D03*
X87150000Y89000000D03*
X81850000Y87000000D03*
X87150000Y87000000D03*
X81850000Y85000000D03*
X87150000Y85000000D03*
X81850000Y83000000D03*
X87150000Y83000000D03*
X81850000Y81000000D03*
X87150000Y81000000D03*
X81850000Y79000000D03*
X87150000Y79000000D03*
X81850000Y77000000D03*
X87150000Y77000000D03*
%TD*%
D26*
%TO.C,J3*%
X84500000Y43500000D03*
X84500000Y59500000D03*
D27*
X81850000Y60500000D03*
X87150000Y60500000D03*
X81850000Y58500000D03*
X87150000Y58500000D03*
X81850000Y56500000D03*
X87150000Y56500000D03*
X81850000Y54500000D03*
X87150000Y54500000D03*
X81850000Y52500000D03*
X87150000Y52500000D03*
X81850000Y50500000D03*
X87150000Y50500000D03*
X81850000Y48500000D03*
X87150000Y48500000D03*
X81850000Y46500000D03*
X87150000Y46500000D03*
X81850000Y44500000D03*
X87150000Y44500000D03*
X81850000Y42500000D03*
X87150000Y42500000D03*
%TD*%
D28*
%TO.C,R2*%
X33145000Y31750000D03*
X34165000Y31750000D03*
%TD*%
%TO.C,R2*%
X77645000Y100750000D03*
X78665000Y100750000D03*
%TD*%
%TO.C,R2*%
X33145000Y66250000D03*
X34165000Y66250000D03*
%TD*%
%TO.C,R2*%
X33145000Y100750000D03*
X34165000Y100750000D03*
%TD*%
%TO.C,R2*%
X77645000Y31750000D03*
X78665000Y31750000D03*
%TD*%
%TO.C,R2*%
X77645000Y66250000D03*
X78665000Y66250000D03*
%TD*%
D22*
%TO.C,C7*%
X30325000Y31750000D03*
X29365000Y31750000D03*
%TD*%
%TO.C,C7*%
X74825000Y31750000D03*
X73865000Y31750000D03*
%TD*%
%TO.C,C7*%
X30325000Y66250000D03*
X29365000Y66250000D03*
%TD*%
%TO.C,C7*%
X30325000Y100750000D03*
X29365000Y100750000D03*
%TD*%
%TO.C,C7*%
X74825000Y100750000D03*
X73865000Y100750000D03*
%TD*%
%TO.C,C7*%
X74825000Y66250000D03*
X73865000Y66250000D03*
%TD*%
D15*
%TO.C,R3*%
X11366000Y21844000D03*
X9716000Y21844000D03*
%TD*%
%TO.C,R3*%
X11366000Y90844000D03*
X9716000Y90844000D03*
%TD*%
%TO.C,R3*%
X55866000Y56344000D03*
X54216000Y56344000D03*
%TD*%
%TO.C,R3*%
X55866000Y21844000D03*
X54216000Y21844000D03*
%TD*%
%TO.C,R3*%
X11366000Y56344000D03*
X9716000Y56344000D03*
%TD*%
%TO.C,R3*%
X55866000Y90844000D03*
X54216000Y90844000D03*
%TD*%
D25*
%TO.C,TP1*%
X31750000Y31750000D03*
%TD*%
%TO.C,TP1*%
X31750000Y66250000D03*
%TD*%
%TO.C,TP1*%
X76250000Y100750000D03*
%TD*%
%TO.C,TP1*%
X76250000Y31750000D03*
%TD*%
%TO.C,TP1*%
X76250000Y66250000D03*
%TD*%
%TO.C,TP1*%
X31750000Y100750000D03*
%TD*%
D18*
%TO.C,C9*%
X21082000Y27546000D03*
X21082000Y29096000D03*
%TD*%
%TO.C,C9*%
X65582000Y96546000D03*
X65582000Y98096000D03*
%TD*%
%TO.C,C9*%
X21082000Y62046000D03*
X21082000Y63596000D03*
%TD*%
%TO.C,C9*%
X21082000Y96546000D03*
X21082000Y98096000D03*
%TD*%
%TO.C,C9*%
X65582000Y27546000D03*
X65582000Y29096000D03*
%TD*%
%TO.C,C9*%
X65582000Y62046000D03*
X65582000Y63596000D03*
%TD*%
D14*
%TO.C,*%
X86500000Y105087500D03*
%TD*%
D17*
%TO.C,C2*%
X13716000Y5870000D03*
X13716000Y6830000D03*
%TD*%
%TO.C,C2*%
X13716000Y40370000D03*
X13716000Y41330000D03*
%TD*%
%TO.C,C2*%
X13716000Y74870000D03*
X13716000Y75830000D03*
%TD*%
%TO.C,C2*%
X58216000Y5870000D03*
X58216000Y6830000D03*
%TD*%
%TO.C,C2*%
X58216000Y40370000D03*
X58216000Y41330000D03*
%TD*%
%TO.C,C2*%
X58216000Y74870000D03*
X58216000Y75830000D03*
%TD*%
D29*
%TO.C,C4*%
X32131000Y8989000D03*
X32131000Y8029000D03*
%TD*%
%TO.C,C4*%
X76631000Y43489000D03*
X76631000Y42529000D03*
%TD*%
%TO.C,C4*%
X76631000Y8989000D03*
X76631000Y8029000D03*
%TD*%
%TO.C,C4*%
X32131000Y77989000D03*
X32131000Y77029000D03*
%TD*%
%TO.C,C4*%
X32131000Y43489000D03*
X32131000Y42529000D03*
%TD*%
%TO.C,C4*%
X76631000Y77989000D03*
X76631000Y77029000D03*
%TD*%
D14*
%TO.C,*%
X2000000Y105087500D03*
%TD*%
M02*
