%TF.GenerationSoftware,KiCad,Pcbnew,8.0.7*%
%TF.CreationDate,2025-03-20T17:22:03+00:00*%
%TF.ProjectId,SparkFun_GNSS_Flex_Module_LG290P_panelized,53706172-6b46-4756-9e5f-474e53535f46,v10*%
%TF.SameCoordinates,Original*%
%TF.FileFunction,Paste,Top*%
%TF.FilePolarity,Positive*%
%FSLAX46Y46*%
G04 Gerber Fmt 4.6, Leading zero omitted, Abs format (unit mm)*
G04 Created by KiCad (PCBNEW 8.0.7) date 2025-03-20 17:22:03*
%MOMM*%
%LPD*%
G01*
G04 APERTURE LIST*
G04 Aperture macros list*
%AMRoundRect*
0 Rectangle with rounded corners*
0 $1 Rounding radius*
0 $2 $3 $4 $5 $6 $7 $8 $9 X,Y pos of 4 corners*
0 Add a 4 corners polygon primitive as box body*
4,1,4,$2,$3,$4,$5,$6,$7,$8,$9,$2,$3,0*
0 Add four circle primitives for the rounded corners*
1,1,$1+$1,$2,$3*
1,1,$1+$1,$4,$5*
1,1,$1+$1,$6,$7*
1,1,$1+$1,$8,$9*
0 Add four rect primitives between the rounded corners*
20,1,$1+$1,$2,$3,$4,$5,0*
20,1,$1+$1,$4,$5,$6,$7,0*
20,1,$1+$1,$6,$7,$8,$9,0*
20,1,$1+$1,$8,$9,$2,$3,0*%
G04 Aperture macros list end*
%ADD10RoundRect,0.225000X-0.225000X-0.250000X0.225000X-0.250000X0.225000X0.250000X-0.225000X0.250000X0*%
%ADD11RoundRect,0.140000X-0.170000X0.140000X-0.170000X-0.140000X0.170000X-0.140000X0.170000X0.140000X0*%
%ADD12RoundRect,0.140000X-0.140000X-0.170000X0.140000X-0.170000X0.140000X0.170000X-0.140000X0.170000X0*%
%ADD13RoundRect,0.140000X0.140000X0.170000X-0.140000X0.170000X-0.140000X-0.170000X0.140000X-0.170000X0*%
%ADD14RoundRect,0.135000X0.135000X0.185000X-0.135000X0.185000X-0.135000X-0.185000X0.135000X-0.185000X0*%
%ADD15R,1.350000X0.720000*%
%ADD16C,0.900000*%
%ADD17R,0.900000X0.900000*%
%ADD18RoundRect,0.200000X-0.275000X0.200000X-0.275000X-0.200000X0.275000X-0.200000X0.275000X0.200000X0*%
%ADD19R,1.000000X1.050000*%
%ADD20R,0.850000X2.200000*%
%ADD21RoundRect,0.200000X0.275000X-0.200000X0.275000X0.200000X-0.275000X0.200000X-0.275000X-0.200000X0*%
G04 APERTURE END LIST*
D10*
%TO.C,C1*%
X30213000Y25146000D03*
X31763000Y25146000D03*
%TD*%
%TO.C,C1*%
X74713000Y128646000D03*
X76263000Y128646000D03*
%TD*%
%TO.C,C1*%
X30213000Y163146000D03*
X31763000Y163146000D03*
%TD*%
%TO.C,C1*%
X30213000Y59646000D03*
X31763000Y59646000D03*
%TD*%
%TO.C,C1*%
X30213000Y94146000D03*
X31763000Y94146000D03*
%TD*%
%TO.C,C1*%
X74713000Y94146000D03*
X76263000Y94146000D03*
%TD*%
%TO.C,C1*%
X74713000Y59646000D03*
X76263000Y59646000D03*
%TD*%
%TO.C,C1*%
X74713000Y25146000D03*
X76263000Y25146000D03*
%TD*%
%TO.C,C1*%
X30213000Y128646000D03*
X31763000Y128646000D03*
%TD*%
%TO.C,C1*%
X74713000Y163146000D03*
X76263000Y163146000D03*
%TD*%
%TO.C,C1*%
X119213000Y25146000D03*
X120763000Y25146000D03*
%TD*%
%TO.C,C1*%
X119213000Y59646000D03*
X120763000Y59646000D03*
%TD*%
%TO.C,C1*%
X119213000Y163146000D03*
X120763000Y163146000D03*
%TD*%
%TO.C,C1*%
X119213000Y94146000D03*
X120763000Y94146000D03*
%TD*%
%TO.C,C1*%
X119213000Y128646000D03*
X120763000Y128646000D03*
%TD*%
D11*
%TO.C,D1*%
X10541000Y11910000D03*
X10541000Y10950000D03*
%TD*%
%TO.C,D1*%
X10541000Y115410000D03*
X10541000Y114450000D03*
%TD*%
%TO.C,D1*%
X10541000Y46410000D03*
X10541000Y45450000D03*
%TD*%
%TO.C,D1*%
X10541000Y80910000D03*
X10541000Y79950000D03*
%TD*%
%TO.C,D1*%
X99541000Y46410000D03*
X99541000Y45450000D03*
%TD*%
%TO.C,D1*%
X99541000Y115410000D03*
X99541000Y114450000D03*
%TD*%
%TO.C,D1*%
X55041000Y149910000D03*
X55041000Y148950000D03*
%TD*%
%TO.C,D1*%
X99541000Y11910000D03*
X99541000Y10950000D03*
%TD*%
%TO.C,D1*%
X55041000Y11910000D03*
X55041000Y10950000D03*
%TD*%
%TO.C,D1*%
X10541000Y149910000D03*
X10541000Y148950000D03*
%TD*%
%TO.C,D1*%
X55041000Y46410000D03*
X55041000Y45450000D03*
%TD*%
%TO.C,D1*%
X55041000Y80910000D03*
X55041000Y79950000D03*
%TD*%
%TO.C,D1*%
X55041000Y115410000D03*
X55041000Y114450000D03*
%TD*%
%TO.C,D1*%
X99541000Y80910000D03*
X99541000Y79950000D03*
%TD*%
%TO.C,D1*%
X99541000Y149910000D03*
X99541000Y148950000D03*
%TD*%
D12*
%TO.C,C3*%
X30000000Y22860000D03*
X30960000Y22860000D03*
%TD*%
%TO.C,C3*%
X74500000Y91860000D03*
X75460000Y91860000D03*
%TD*%
%TO.C,C3*%
X74500000Y57360000D03*
X75460000Y57360000D03*
%TD*%
%TO.C,C3*%
X30000000Y91860000D03*
X30960000Y91860000D03*
%TD*%
%TO.C,C3*%
X30000000Y57360000D03*
X30960000Y57360000D03*
%TD*%
%TO.C,C3*%
X30000000Y126360000D03*
X30960000Y126360000D03*
%TD*%
%TO.C,C3*%
X74500000Y22860000D03*
X75460000Y22860000D03*
%TD*%
%TO.C,C3*%
X119000000Y22860000D03*
X119960000Y22860000D03*
%TD*%
%TO.C,C3*%
X30000000Y160860000D03*
X30960000Y160860000D03*
%TD*%
%TO.C,C3*%
X74500000Y126360000D03*
X75460000Y126360000D03*
%TD*%
%TO.C,C3*%
X119000000Y160860000D03*
X119960000Y160860000D03*
%TD*%
%TO.C,C3*%
X119000000Y91860000D03*
X119960000Y91860000D03*
%TD*%
%TO.C,C3*%
X74500000Y160860000D03*
X75460000Y160860000D03*
%TD*%
%TO.C,C3*%
X119000000Y126360000D03*
X119960000Y126360000D03*
%TD*%
%TO.C,C3*%
X119000000Y57360000D03*
X119960000Y57360000D03*
%TD*%
D11*
%TO.C,L1*%
X11684000Y11910000D03*
X11684000Y10950000D03*
%TD*%
%TO.C,L1*%
X11684000Y46410000D03*
X11684000Y45450000D03*
%TD*%
%TO.C,L1*%
X56184000Y115410000D03*
X56184000Y114450000D03*
%TD*%
%TO.C,L1*%
X11684000Y149910000D03*
X11684000Y148950000D03*
%TD*%
%TO.C,L1*%
X100684000Y80910000D03*
X100684000Y79950000D03*
%TD*%
%TO.C,L1*%
X11684000Y80910000D03*
X11684000Y79950000D03*
%TD*%
%TO.C,L1*%
X56184000Y80910000D03*
X56184000Y79950000D03*
%TD*%
%TO.C,L1*%
X56184000Y46410000D03*
X56184000Y45450000D03*
%TD*%
%TO.C,L1*%
X11684000Y115410000D03*
X11684000Y114450000D03*
%TD*%
%TO.C,L1*%
X56184000Y11910000D03*
X56184000Y10950000D03*
%TD*%
%TO.C,L1*%
X56184000Y149910000D03*
X56184000Y148950000D03*
%TD*%
%TO.C,L1*%
X100684000Y46410000D03*
X100684000Y45450000D03*
%TD*%
%TO.C,L1*%
X100684000Y11910000D03*
X100684000Y10950000D03*
%TD*%
%TO.C,L1*%
X100684000Y149910000D03*
X100684000Y148950000D03*
%TD*%
%TO.C,L1*%
X100684000Y115410000D03*
X100684000Y114450000D03*
%TD*%
D13*
%TO.C,C6*%
X11656000Y12954000D03*
X10696000Y12954000D03*
%TD*%
%TO.C,C6*%
X56156000Y81954000D03*
X55196000Y81954000D03*
%TD*%
%TO.C,C6*%
X11656000Y116454000D03*
X10696000Y116454000D03*
%TD*%
%TO.C,C6*%
X11656000Y47454000D03*
X10696000Y47454000D03*
%TD*%
%TO.C,C6*%
X56156000Y12954000D03*
X55196000Y12954000D03*
%TD*%
%TO.C,C6*%
X56156000Y47454000D03*
X55196000Y47454000D03*
%TD*%
%TO.C,C6*%
X11656000Y81954000D03*
X10696000Y81954000D03*
%TD*%
%TO.C,C6*%
X11656000Y150954000D03*
X10696000Y150954000D03*
%TD*%
%TO.C,C6*%
X56156000Y116454000D03*
X55196000Y116454000D03*
%TD*%
%TO.C,C6*%
X100656000Y81954000D03*
X99696000Y81954000D03*
%TD*%
%TO.C,C6*%
X100656000Y12954000D03*
X99696000Y12954000D03*
%TD*%
%TO.C,C6*%
X100656000Y47454000D03*
X99696000Y47454000D03*
%TD*%
%TO.C,C6*%
X100656000Y150954000D03*
X99696000Y150954000D03*
%TD*%
%TO.C,C6*%
X56156000Y150954000D03*
X55196000Y150954000D03*
%TD*%
%TO.C,C6*%
X100656000Y116454000D03*
X99696000Y116454000D03*
%TD*%
D14*
%TO.C,R1*%
X14099000Y13970000D03*
X13079000Y13970000D03*
%TD*%
%TO.C,R1*%
X14099000Y117470000D03*
X13079000Y117470000D03*
%TD*%
%TO.C,R1*%
X14099000Y48470000D03*
X13079000Y48470000D03*
%TD*%
%TO.C,R1*%
X14099000Y82970000D03*
X13079000Y82970000D03*
%TD*%
%TO.C,R1*%
X103099000Y48470000D03*
X102079000Y48470000D03*
%TD*%
%TO.C,R1*%
X103099000Y82970000D03*
X102079000Y82970000D03*
%TD*%
%TO.C,R1*%
X14099000Y151970000D03*
X13079000Y151970000D03*
%TD*%
%TO.C,R1*%
X58599000Y82970000D03*
X57579000Y82970000D03*
%TD*%
%TO.C,R1*%
X58599000Y151970000D03*
X57579000Y151970000D03*
%TD*%
%TO.C,R1*%
X58599000Y13970000D03*
X57579000Y13970000D03*
%TD*%
%TO.C,R1*%
X58599000Y117470000D03*
X57579000Y117470000D03*
%TD*%
%TO.C,R1*%
X58599000Y48470000D03*
X57579000Y48470000D03*
%TD*%
%TO.C,R1*%
X103099000Y13970000D03*
X102079000Y13970000D03*
%TD*%
%TO.C,R1*%
X103099000Y151970000D03*
X102079000Y151970000D03*
%TD*%
%TO.C,R1*%
X103099000Y117470000D03*
X102079000Y117470000D03*
%TD*%
D15*
%TO.C,U1*%
X16950000Y24000000D03*
X16950000Y22900000D03*
X16950000Y21800000D03*
X16950000Y20700000D03*
X16950000Y19600000D03*
X16950000Y18500000D03*
X16950000Y17400000D03*
X16950000Y14400000D03*
X16950000Y13300000D03*
X16950000Y12200000D03*
X16950000Y11100000D03*
X16950000Y10000000D03*
X27050000Y10000000D03*
X27050000Y11100000D03*
X27050000Y12200000D03*
X27050000Y13300000D03*
X27050000Y14400000D03*
X27050000Y17400000D03*
X27050000Y18500000D03*
X27050000Y19600000D03*
X27050000Y20700000D03*
X27050000Y21800000D03*
X27050000Y22900000D03*
X27050000Y24000000D03*
D16*
X19000000Y24100000D03*
D17*
X19000000Y22700000D03*
X19000000Y21300000D03*
X19000000Y19900000D03*
X19000000Y18500000D03*
X19000000Y17000000D03*
X19000000Y15600000D03*
X19000000Y14200000D03*
X19000000Y12800000D03*
X19000000Y11400000D03*
X19000000Y10000000D03*
X20500000Y24100000D03*
X20500000Y22700000D03*
X20500000Y21300000D03*
X20500000Y19900000D03*
X20500000Y18500000D03*
X20500000Y17000000D03*
X20500000Y15600000D03*
X20500000Y14200000D03*
X20500000Y12800000D03*
X20500000Y11400000D03*
X20500000Y10000000D03*
X22000000Y24100000D03*
X22000000Y22700000D03*
X22000000Y21300000D03*
X22000000Y19900000D03*
X22000000Y18500000D03*
X22000000Y17000000D03*
X22000000Y15600000D03*
X22000000Y14200000D03*
X22000000Y12800000D03*
X22000000Y11400000D03*
X22000000Y10000000D03*
X23500000Y24100000D03*
X23500000Y22700000D03*
X23500000Y21300000D03*
X23500000Y19900000D03*
X23500000Y18500000D03*
X23500000Y17000000D03*
X23500000Y15600000D03*
X23500000Y14200000D03*
X23500000Y12800000D03*
X23500000Y11400000D03*
X23500000Y10000000D03*
X25000000Y24100000D03*
X25000000Y22700000D03*
X25000000Y21300000D03*
X25000000Y19900000D03*
X25000000Y18500000D03*
X25000000Y17000000D03*
X25000000Y15600000D03*
X25000000Y14200000D03*
X25000000Y12800000D03*
X25000000Y11400000D03*
X25000000Y10000000D03*
%TD*%
D15*
%TO.C,U1*%
X105950000Y93000000D03*
X105950000Y91900000D03*
X105950000Y90800000D03*
X105950000Y89700000D03*
X105950000Y88600000D03*
X105950000Y87500000D03*
X105950000Y86400000D03*
X105950000Y83400000D03*
X105950000Y82300000D03*
X105950000Y81200000D03*
X105950000Y80100000D03*
X105950000Y79000000D03*
X116050000Y79000000D03*
X116050000Y80100000D03*
X116050000Y81200000D03*
X116050000Y82300000D03*
X116050000Y83400000D03*
X116050000Y86400000D03*
X116050000Y87500000D03*
X116050000Y88600000D03*
X116050000Y89700000D03*
X116050000Y90800000D03*
X116050000Y91900000D03*
X116050000Y93000000D03*
D16*
X108000000Y93100000D03*
D17*
X108000000Y91700000D03*
X108000000Y90300000D03*
X108000000Y88900000D03*
X108000000Y87500000D03*
X108000000Y86000000D03*
X108000000Y84600000D03*
X108000000Y83200000D03*
X108000000Y81800000D03*
X108000000Y80400000D03*
X108000000Y79000000D03*
X109500000Y93100000D03*
X109500000Y91700000D03*
X109500000Y90300000D03*
X109500000Y88900000D03*
X109500000Y87500000D03*
X109500000Y86000000D03*
X109500000Y84600000D03*
X109500000Y83200000D03*
X109500000Y81800000D03*
X109500000Y80400000D03*
X109500000Y79000000D03*
X111000000Y93100000D03*
X111000000Y91700000D03*
X111000000Y90300000D03*
X111000000Y88900000D03*
X111000000Y87500000D03*
X111000000Y86000000D03*
X111000000Y84600000D03*
X111000000Y83200000D03*
X111000000Y81800000D03*
X111000000Y80400000D03*
X111000000Y79000000D03*
X112500000Y93100000D03*
X112500000Y91700000D03*
X112500000Y90300000D03*
X112500000Y88900000D03*
X112500000Y87500000D03*
X112500000Y86000000D03*
X112500000Y84600000D03*
X112500000Y83200000D03*
X112500000Y81800000D03*
X112500000Y80400000D03*
X112500000Y79000000D03*
X114000000Y93100000D03*
X114000000Y91700000D03*
X114000000Y90300000D03*
X114000000Y88900000D03*
X114000000Y87500000D03*
X114000000Y86000000D03*
X114000000Y84600000D03*
X114000000Y83200000D03*
X114000000Y81800000D03*
X114000000Y80400000D03*
X114000000Y79000000D03*
%TD*%
D15*
%TO.C,U1*%
X105950000Y127500000D03*
X105950000Y126400000D03*
X105950000Y125300000D03*
X105950000Y124200000D03*
X105950000Y123100000D03*
X105950000Y122000000D03*
X105950000Y120900000D03*
X105950000Y117900000D03*
X105950000Y116800000D03*
X105950000Y115700000D03*
X105950000Y114600000D03*
X105950000Y113500000D03*
X116050000Y113500000D03*
X116050000Y114600000D03*
X116050000Y115700000D03*
X116050000Y116800000D03*
X116050000Y117900000D03*
X116050000Y120900000D03*
X116050000Y122000000D03*
X116050000Y123100000D03*
X116050000Y124200000D03*
X116050000Y125300000D03*
X116050000Y126400000D03*
X116050000Y127500000D03*
D16*
X108000000Y127600000D03*
D17*
X108000000Y126200000D03*
X108000000Y124800000D03*
X108000000Y123400000D03*
X108000000Y122000000D03*
X108000000Y120500000D03*
X108000000Y119100000D03*
X108000000Y117700000D03*
X108000000Y116300000D03*
X108000000Y114900000D03*
X108000000Y113500000D03*
X109500000Y127600000D03*
X109500000Y126200000D03*
X109500000Y124800000D03*
X109500000Y123400000D03*
X109500000Y122000000D03*
X109500000Y120500000D03*
X109500000Y119100000D03*
X109500000Y117700000D03*
X109500000Y116300000D03*
X109500000Y114900000D03*
X109500000Y113500000D03*
X111000000Y127600000D03*
X111000000Y126200000D03*
X111000000Y124800000D03*
X111000000Y123400000D03*
X111000000Y122000000D03*
X111000000Y120500000D03*
X111000000Y119100000D03*
X111000000Y117700000D03*
X111000000Y116300000D03*
X111000000Y114900000D03*
X111000000Y113500000D03*
X112500000Y127600000D03*
X112500000Y126200000D03*
X112500000Y124800000D03*
X112500000Y123400000D03*
X112500000Y122000000D03*
X112500000Y120500000D03*
X112500000Y119100000D03*
X112500000Y117700000D03*
X112500000Y116300000D03*
X112500000Y114900000D03*
X112500000Y113500000D03*
X114000000Y127600000D03*
X114000000Y126200000D03*
X114000000Y124800000D03*
X114000000Y123400000D03*
X114000000Y122000000D03*
X114000000Y120500000D03*
X114000000Y119100000D03*
X114000000Y117700000D03*
X114000000Y116300000D03*
X114000000Y114900000D03*
X114000000Y113500000D03*
%TD*%
D15*
%TO.C,U1*%
X105950000Y162000000D03*
X105950000Y160900000D03*
X105950000Y159800000D03*
X105950000Y158700000D03*
X105950000Y157600000D03*
X105950000Y156500000D03*
X105950000Y155400000D03*
X105950000Y152400000D03*
X105950000Y151300000D03*
X105950000Y150200000D03*
X105950000Y149100000D03*
X105950000Y148000000D03*
X116050000Y148000000D03*
X116050000Y149100000D03*
X116050000Y150200000D03*
X116050000Y151300000D03*
X116050000Y152400000D03*
X116050000Y155400000D03*
X116050000Y156500000D03*
X116050000Y157600000D03*
X116050000Y158700000D03*
X116050000Y159800000D03*
X116050000Y160900000D03*
X116050000Y162000000D03*
D16*
X108000000Y162100000D03*
D17*
X108000000Y160700000D03*
X108000000Y159300000D03*
X108000000Y157900000D03*
X108000000Y156500000D03*
X108000000Y155000000D03*
X108000000Y153600000D03*
X108000000Y152200000D03*
X108000000Y150800000D03*
X108000000Y149400000D03*
X108000000Y148000000D03*
X109500000Y162100000D03*
X109500000Y160700000D03*
X109500000Y159300000D03*
X109500000Y157900000D03*
X109500000Y156500000D03*
X109500000Y155000000D03*
X109500000Y153600000D03*
X109500000Y152200000D03*
X109500000Y150800000D03*
X109500000Y149400000D03*
X109500000Y148000000D03*
X111000000Y162100000D03*
X111000000Y160700000D03*
X111000000Y159300000D03*
X111000000Y157900000D03*
X111000000Y156500000D03*
X111000000Y155000000D03*
X111000000Y153600000D03*
X111000000Y152200000D03*
X111000000Y150800000D03*
X111000000Y149400000D03*
X111000000Y148000000D03*
X112500000Y162100000D03*
X112500000Y160700000D03*
X112500000Y159300000D03*
X112500000Y157900000D03*
X112500000Y156500000D03*
X112500000Y155000000D03*
X112500000Y153600000D03*
X112500000Y152200000D03*
X112500000Y150800000D03*
X112500000Y149400000D03*
X112500000Y148000000D03*
X114000000Y162100000D03*
X114000000Y160700000D03*
X114000000Y159300000D03*
X114000000Y157900000D03*
X114000000Y156500000D03*
X114000000Y155000000D03*
X114000000Y153600000D03*
X114000000Y152200000D03*
X114000000Y150800000D03*
X114000000Y149400000D03*
X114000000Y148000000D03*
%TD*%
D15*
%TO.C,U1*%
X61450000Y58500000D03*
X61450000Y57400000D03*
X61450000Y56300000D03*
X61450000Y55200000D03*
X61450000Y54100000D03*
X61450000Y53000000D03*
X61450000Y51900000D03*
X61450000Y48900000D03*
X61450000Y47800000D03*
X61450000Y46700000D03*
X61450000Y45600000D03*
X61450000Y44500000D03*
X71550000Y44500000D03*
X71550000Y45600000D03*
X71550000Y46700000D03*
X71550000Y47800000D03*
X71550000Y48900000D03*
X71550000Y51900000D03*
X71550000Y53000000D03*
X71550000Y54100000D03*
X71550000Y55200000D03*
X71550000Y56300000D03*
X71550000Y57400000D03*
X71550000Y58500000D03*
D16*
X63500000Y58600000D03*
D17*
X63500000Y57200000D03*
X63500000Y55800000D03*
X63500000Y54400000D03*
X63500000Y53000000D03*
X63500000Y51500000D03*
X63500000Y50100000D03*
X63500000Y48700000D03*
X63500000Y47300000D03*
X63500000Y45900000D03*
X63500000Y44500000D03*
X65000000Y58600000D03*
X65000000Y57200000D03*
X65000000Y55800000D03*
X65000000Y54400000D03*
X65000000Y53000000D03*
X65000000Y51500000D03*
X65000000Y50100000D03*
X65000000Y48700000D03*
X65000000Y47300000D03*
X65000000Y45900000D03*
X65000000Y44500000D03*
X66500000Y58600000D03*
X66500000Y57200000D03*
X66500000Y55800000D03*
X66500000Y54400000D03*
X66500000Y53000000D03*
X66500000Y51500000D03*
X66500000Y50100000D03*
X66500000Y48700000D03*
X66500000Y47300000D03*
X66500000Y45900000D03*
X66500000Y44500000D03*
X68000000Y58600000D03*
X68000000Y57200000D03*
X68000000Y55800000D03*
X68000000Y54400000D03*
X68000000Y53000000D03*
X68000000Y51500000D03*
X68000000Y50100000D03*
X68000000Y48700000D03*
X68000000Y47300000D03*
X68000000Y45900000D03*
X68000000Y44500000D03*
X69500000Y58600000D03*
X69500000Y57200000D03*
X69500000Y55800000D03*
X69500000Y54400000D03*
X69500000Y53000000D03*
X69500000Y51500000D03*
X69500000Y50100000D03*
X69500000Y48700000D03*
X69500000Y47300000D03*
X69500000Y45900000D03*
X69500000Y44500000D03*
%TD*%
D15*
%TO.C,U1*%
X61450000Y162000000D03*
X61450000Y160900000D03*
X61450000Y159800000D03*
X61450000Y158700000D03*
X61450000Y157600000D03*
X61450000Y156500000D03*
X61450000Y155400000D03*
X61450000Y152400000D03*
X61450000Y151300000D03*
X61450000Y150200000D03*
X61450000Y149100000D03*
X61450000Y148000000D03*
X71550000Y148000000D03*
X71550000Y149100000D03*
X71550000Y150200000D03*
X71550000Y151300000D03*
X71550000Y152400000D03*
X71550000Y155400000D03*
X71550000Y156500000D03*
X71550000Y157600000D03*
X71550000Y158700000D03*
X71550000Y159800000D03*
X71550000Y160900000D03*
X71550000Y162000000D03*
D16*
X63500000Y162100000D03*
D17*
X63500000Y160700000D03*
X63500000Y159300000D03*
X63500000Y157900000D03*
X63500000Y156500000D03*
X63500000Y155000000D03*
X63500000Y153600000D03*
X63500000Y152200000D03*
X63500000Y150800000D03*
X63500000Y149400000D03*
X63500000Y148000000D03*
X65000000Y162100000D03*
X65000000Y160700000D03*
X65000000Y159300000D03*
X65000000Y157900000D03*
X65000000Y156500000D03*
X65000000Y155000000D03*
X65000000Y153600000D03*
X65000000Y152200000D03*
X65000000Y150800000D03*
X65000000Y149400000D03*
X65000000Y148000000D03*
X66500000Y162100000D03*
X66500000Y160700000D03*
X66500000Y159300000D03*
X66500000Y157900000D03*
X66500000Y156500000D03*
X66500000Y155000000D03*
X66500000Y153600000D03*
X66500000Y152200000D03*
X66500000Y150800000D03*
X66500000Y149400000D03*
X66500000Y148000000D03*
X68000000Y162100000D03*
X68000000Y160700000D03*
X68000000Y159300000D03*
X68000000Y157900000D03*
X68000000Y156500000D03*
X68000000Y155000000D03*
X68000000Y153600000D03*
X68000000Y152200000D03*
X68000000Y150800000D03*
X68000000Y149400000D03*
X68000000Y148000000D03*
X69500000Y162100000D03*
X69500000Y160700000D03*
X69500000Y159300000D03*
X69500000Y157900000D03*
X69500000Y156500000D03*
X69500000Y155000000D03*
X69500000Y153600000D03*
X69500000Y152200000D03*
X69500000Y150800000D03*
X69500000Y149400000D03*
X69500000Y148000000D03*
%TD*%
D15*
%TO.C,U1*%
X16950000Y127500000D03*
X16950000Y126400000D03*
X16950000Y125300000D03*
X16950000Y124200000D03*
X16950000Y123100000D03*
X16950000Y122000000D03*
X16950000Y120900000D03*
X16950000Y117900000D03*
X16950000Y116800000D03*
X16950000Y115700000D03*
X16950000Y114600000D03*
X16950000Y113500000D03*
X27050000Y113500000D03*
X27050000Y114600000D03*
X27050000Y115700000D03*
X27050000Y116800000D03*
X27050000Y117900000D03*
X27050000Y120900000D03*
X27050000Y122000000D03*
X27050000Y123100000D03*
X27050000Y124200000D03*
X27050000Y125300000D03*
X27050000Y126400000D03*
X27050000Y127500000D03*
D16*
X19000000Y127600000D03*
D17*
X19000000Y126200000D03*
X19000000Y124800000D03*
X19000000Y123400000D03*
X19000000Y122000000D03*
X19000000Y120500000D03*
X19000000Y119100000D03*
X19000000Y117700000D03*
X19000000Y116300000D03*
X19000000Y114900000D03*
X19000000Y113500000D03*
X20500000Y127600000D03*
X20500000Y126200000D03*
X20500000Y124800000D03*
X20500000Y123400000D03*
X20500000Y122000000D03*
X20500000Y120500000D03*
X20500000Y119100000D03*
X20500000Y117700000D03*
X20500000Y116300000D03*
X20500000Y114900000D03*
X20500000Y113500000D03*
X22000000Y127600000D03*
X22000000Y126200000D03*
X22000000Y124800000D03*
X22000000Y123400000D03*
X22000000Y122000000D03*
X22000000Y120500000D03*
X22000000Y119100000D03*
X22000000Y117700000D03*
X22000000Y116300000D03*
X22000000Y114900000D03*
X22000000Y113500000D03*
X23500000Y127600000D03*
X23500000Y126200000D03*
X23500000Y124800000D03*
X23500000Y123400000D03*
X23500000Y122000000D03*
X23500000Y120500000D03*
X23500000Y119100000D03*
X23500000Y117700000D03*
X23500000Y116300000D03*
X23500000Y114900000D03*
X23500000Y113500000D03*
X25000000Y127600000D03*
X25000000Y126200000D03*
X25000000Y124800000D03*
X25000000Y123400000D03*
X25000000Y122000000D03*
X25000000Y120500000D03*
X25000000Y119100000D03*
X25000000Y117700000D03*
X25000000Y116300000D03*
X25000000Y114900000D03*
X25000000Y113500000D03*
%TD*%
D15*
%TO.C,U1*%
X16950000Y58500000D03*
X16950000Y57400000D03*
X16950000Y56300000D03*
X16950000Y55200000D03*
X16950000Y54100000D03*
X16950000Y53000000D03*
X16950000Y51900000D03*
X16950000Y48900000D03*
X16950000Y47800000D03*
X16950000Y46700000D03*
X16950000Y45600000D03*
X16950000Y44500000D03*
X27050000Y44500000D03*
X27050000Y45600000D03*
X27050000Y46700000D03*
X27050000Y47800000D03*
X27050000Y48900000D03*
X27050000Y51900000D03*
X27050000Y53000000D03*
X27050000Y54100000D03*
X27050000Y55200000D03*
X27050000Y56300000D03*
X27050000Y57400000D03*
X27050000Y58500000D03*
D16*
X19000000Y58600000D03*
D17*
X19000000Y57200000D03*
X19000000Y55800000D03*
X19000000Y54400000D03*
X19000000Y53000000D03*
X19000000Y51500000D03*
X19000000Y50100000D03*
X19000000Y48700000D03*
X19000000Y47300000D03*
X19000000Y45900000D03*
X19000000Y44500000D03*
X20500000Y58600000D03*
X20500000Y57200000D03*
X20500000Y55800000D03*
X20500000Y54400000D03*
X20500000Y53000000D03*
X20500000Y51500000D03*
X20500000Y50100000D03*
X20500000Y48700000D03*
X20500000Y47300000D03*
X20500000Y45900000D03*
X20500000Y44500000D03*
X22000000Y58600000D03*
X22000000Y57200000D03*
X22000000Y55800000D03*
X22000000Y54400000D03*
X22000000Y53000000D03*
X22000000Y51500000D03*
X22000000Y50100000D03*
X22000000Y48700000D03*
X22000000Y47300000D03*
X22000000Y45900000D03*
X22000000Y44500000D03*
X23500000Y58600000D03*
X23500000Y57200000D03*
X23500000Y55800000D03*
X23500000Y54400000D03*
X23500000Y53000000D03*
X23500000Y51500000D03*
X23500000Y50100000D03*
X23500000Y48700000D03*
X23500000Y47300000D03*
X23500000Y45900000D03*
X23500000Y44500000D03*
X25000000Y58600000D03*
X25000000Y57200000D03*
X25000000Y55800000D03*
X25000000Y54400000D03*
X25000000Y53000000D03*
X25000000Y51500000D03*
X25000000Y50100000D03*
X25000000Y48700000D03*
X25000000Y47300000D03*
X25000000Y45900000D03*
X25000000Y44500000D03*
%TD*%
D15*
%TO.C,U1*%
X16950000Y93000000D03*
X16950000Y91900000D03*
X16950000Y90800000D03*
X16950000Y89700000D03*
X16950000Y88600000D03*
X16950000Y87500000D03*
X16950000Y86400000D03*
X16950000Y83400000D03*
X16950000Y82300000D03*
X16950000Y81200000D03*
X16950000Y80100000D03*
X16950000Y79000000D03*
X27050000Y79000000D03*
X27050000Y80100000D03*
X27050000Y81200000D03*
X27050000Y82300000D03*
X27050000Y83400000D03*
X27050000Y86400000D03*
X27050000Y87500000D03*
X27050000Y88600000D03*
X27050000Y89700000D03*
X27050000Y90800000D03*
X27050000Y91900000D03*
X27050000Y93000000D03*
D16*
X19000000Y93100000D03*
D17*
X19000000Y91700000D03*
X19000000Y90300000D03*
X19000000Y88900000D03*
X19000000Y87500000D03*
X19000000Y86000000D03*
X19000000Y84600000D03*
X19000000Y83200000D03*
X19000000Y81800000D03*
X19000000Y80400000D03*
X19000000Y79000000D03*
X20500000Y93100000D03*
X20500000Y91700000D03*
X20500000Y90300000D03*
X20500000Y88900000D03*
X20500000Y87500000D03*
X20500000Y86000000D03*
X20500000Y84600000D03*
X20500000Y83200000D03*
X20500000Y81800000D03*
X20500000Y80400000D03*
X20500000Y79000000D03*
X22000000Y93100000D03*
X22000000Y91700000D03*
X22000000Y90300000D03*
X22000000Y88900000D03*
X22000000Y87500000D03*
X22000000Y86000000D03*
X22000000Y84600000D03*
X22000000Y83200000D03*
X22000000Y81800000D03*
X22000000Y80400000D03*
X22000000Y79000000D03*
X23500000Y93100000D03*
X23500000Y91700000D03*
X23500000Y90300000D03*
X23500000Y88900000D03*
X23500000Y87500000D03*
X23500000Y86000000D03*
X23500000Y84600000D03*
X23500000Y83200000D03*
X23500000Y81800000D03*
X23500000Y80400000D03*
X23500000Y79000000D03*
X25000000Y93100000D03*
X25000000Y91700000D03*
X25000000Y90300000D03*
X25000000Y88900000D03*
X25000000Y87500000D03*
X25000000Y86000000D03*
X25000000Y84600000D03*
X25000000Y83200000D03*
X25000000Y81800000D03*
X25000000Y80400000D03*
X25000000Y79000000D03*
%TD*%
D15*
%TO.C,U1*%
X16950000Y162000000D03*
X16950000Y160900000D03*
X16950000Y159800000D03*
X16950000Y158700000D03*
X16950000Y157600000D03*
X16950000Y156500000D03*
X16950000Y155400000D03*
X16950000Y152400000D03*
X16950000Y151300000D03*
X16950000Y150200000D03*
X16950000Y149100000D03*
X16950000Y148000000D03*
X27050000Y148000000D03*
X27050000Y149100000D03*
X27050000Y150200000D03*
X27050000Y151300000D03*
X27050000Y152400000D03*
X27050000Y155400000D03*
X27050000Y156500000D03*
X27050000Y157600000D03*
X27050000Y158700000D03*
X27050000Y159800000D03*
X27050000Y160900000D03*
X27050000Y162000000D03*
D16*
X19000000Y162100000D03*
D17*
X19000000Y160700000D03*
X19000000Y159300000D03*
X19000000Y157900000D03*
X19000000Y156500000D03*
X19000000Y155000000D03*
X19000000Y153600000D03*
X19000000Y152200000D03*
X19000000Y150800000D03*
X19000000Y149400000D03*
X19000000Y148000000D03*
X20500000Y162100000D03*
X20500000Y160700000D03*
X20500000Y159300000D03*
X20500000Y157900000D03*
X20500000Y156500000D03*
X20500000Y155000000D03*
X20500000Y153600000D03*
X20500000Y152200000D03*
X20500000Y150800000D03*
X20500000Y149400000D03*
X20500000Y148000000D03*
X22000000Y162100000D03*
X22000000Y160700000D03*
X22000000Y159300000D03*
X22000000Y157900000D03*
X22000000Y156500000D03*
X22000000Y155000000D03*
X22000000Y153600000D03*
X22000000Y152200000D03*
X22000000Y150800000D03*
X22000000Y149400000D03*
X22000000Y148000000D03*
X23500000Y162100000D03*
X23500000Y160700000D03*
X23500000Y159300000D03*
X23500000Y157900000D03*
X23500000Y156500000D03*
X23500000Y155000000D03*
X23500000Y153600000D03*
X23500000Y152200000D03*
X23500000Y150800000D03*
X23500000Y149400000D03*
X23500000Y148000000D03*
X25000000Y162100000D03*
X25000000Y160700000D03*
X25000000Y159300000D03*
X25000000Y157900000D03*
X25000000Y156500000D03*
X25000000Y155000000D03*
X25000000Y153600000D03*
X25000000Y152200000D03*
X25000000Y150800000D03*
X25000000Y149400000D03*
X25000000Y148000000D03*
%TD*%
D15*
%TO.C,U1*%
X61450000Y24000000D03*
X61450000Y22900000D03*
X61450000Y21800000D03*
X61450000Y20700000D03*
X61450000Y19600000D03*
X61450000Y18500000D03*
X61450000Y17400000D03*
X61450000Y14400000D03*
X61450000Y13300000D03*
X61450000Y12200000D03*
X61450000Y11100000D03*
X61450000Y10000000D03*
X71550000Y10000000D03*
X71550000Y11100000D03*
X71550000Y12200000D03*
X71550000Y13300000D03*
X71550000Y14400000D03*
X71550000Y17400000D03*
X71550000Y18500000D03*
X71550000Y19600000D03*
X71550000Y20700000D03*
X71550000Y21800000D03*
X71550000Y22900000D03*
X71550000Y24000000D03*
D16*
X63500000Y24100000D03*
D17*
X63500000Y22700000D03*
X63500000Y21300000D03*
X63500000Y19900000D03*
X63500000Y18500000D03*
X63500000Y17000000D03*
X63500000Y15600000D03*
X63500000Y14200000D03*
X63500000Y12800000D03*
X63500000Y11400000D03*
X63500000Y10000000D03*
X65000000Y24100000D03*
X65000000Y22700000D03*
X65000000Y21300000D03*
X65000000Y19900000D03*
X65000000Y18500000D03*
X65000000Y17000000D03*
X65000000Y15600000D03*
X65000000Y14200000D03*
X65000000Y12800000D03*
X65000000Y11400000D03*
X65000000Y10000000D03*
X66500000Y24100000D03*
X66500000Y22700000D03*
X66500000Y21300000D03*
X66500000Y19900000D03*
X66500000Y18500000D03*
X66500000Y17000000D03*
X66500000Y15600000D03*
X66500000Y14200000D03*
X66500000Y12800000D03*
X66500000Y11400000D03*
X66500000Y10000000D03*
X68000000Y24100000D03*
X68000000Y22700000D03*
X68000000Y21300000D03*
X68000000Y19900000D03*
X68000000Y18500000D03*
X68000000Y17000000D03*
X68000000Y15600000D03*
X68000000Y14200000D03*
X68000000Y12800000D03*
X68000000Y11400000D03*
X68000000Y10000000D03*
X69500000Y24100000D03*
X69500000Y22700000D03*
X69500000Y21300000D03*
X69500000Y19900000D03*
X69500000Y18500000D03*
X69500000Y17000000D03*
X69500000Y15600000D03*
X69500000Y14200000D03*
X69500000Y12800000D03*
X69500000Y11400000D03*
X69500000Y10000000D03*
%TD*%
D15*
%TO.C,U1*%
X61450000Y93000000D03*
X61450000Y91900000D03*
X61450000Y90800000D03*
X61450000Y89700000D03*
X61450000Y88600000D03*
X61450000Y87500000D03*
X61450000Y86400000D03*
X61450000Y83400000D03*
X61450000Y82300000D03*
X61450000Y81200000D03*
X61450000Y80100000D03*
X61450000Y79000000D03*
X71550000Y79000000D03*
X71550000Y80100000D03*
X71550000Y81200000D03*
X71550000Y82300000D03*
X71550000Y83400000D03*
X71550000Y86400000D03*
X71550000Y87500000D03*
X71550000Y88600000D03*
X71550000Y89700000D03*
X71550000Y90800000D03*
X71550000Y91900000D03*
X71550000Y93000000D03*
D16*
X63500000Y93100000D03*
D17*
X63500000Y91700000D03*
X63500000Y90300000D03*
X63500000Y88900000D03*
X63500000Y87500000D03*
X63500000Y86000000D03*
X63500000Y84600000D03*
X63500000Y83200000D03*
X63500000Y81800000D03*
X63500000Y80400000D03*
X63500000Y79000000D03*
X65000000Y93100000D03*
X65000000Y91700000D03*
X65000000Y90300000D03*
X65000000Y88900000D03*
X65000000Y87500000D03*
X65000000Y86000000D03*
X65000000Y84600000D03*
X65000000Y83200000D03*
X65000000Y81800000D03*
X65000000Y80400000D03*
X65000000Y79000000D03*
X66500000Y93100000D03*
X66500000Y91700000D03*
X66500000Y90300000D03*
X66500000Y88900000D03*
X66500000Y87500000D03*
X66500000Y86000000D03*
X66500000Y84600000D03*
X66500000Y83200000D03*
X66500000Y81800000D03*
X66500000Y80400000D03*
X66500000Y79000000D03*
X68000000Y93100000D03*
X68000000Y91700000D03*
X68000000Y90300000D03*
X68000000Y88900000D03*
X68000000Y87500000D03*
X68000000Y86000000D03*
X68000000Y84600000D03*
X68000000Y83200000D03*
X68000000Y81800000D03*
X68000000Y80400000D03*
X68000000Y79000000D03*
X69500000Y93100000D03*
X69500000Y91700000D03*
X69500000Y90300000D03*
X69500000Y88900000D03*
X69500000Y87500000D03*
X69500000Y86000000D03*
X69500000Y84600000D03*
X69500000Y83200000D03*
X69500000Y81800000D03*
X69500000Y80400000D03*
X69500000Y79000000D03*
%TD*%
D15*
%TO.C,U1*%
X61450000Y127500000D03*
X61450000Y126400000D03*
X61450000Y125300000D03*
X61450000Y124200000D03*
X61450000Y123100000D03*
X61450000Y122000000D03*
X61450000Y120900000D03*
X61450000Y117900000D03*
X61450000Y116800000D03*
X61450000Y115700000D03*
X61450000Y114600000D03*
X61450000Y113500000D03*
X71550000Y113500000D03*
X71550000Y114600000D03*
X71550000Y115700000D03*
X71550000Y116800000D03*
X71550000Y117900000D03*
X71550000Y120900000D03*
X71550000Y122000000D03*
X71550000Y123100000D03*
X71550000Y124200000D03*
X71550000Y125300000D03*
X71550000Y126400000D03*
X71550000Y127500000D03*
D16*
X63500000Y127600000D03*
D17*
X63500000Y126200000D03*
X63500000Y124800000D03*
X63500000Y123400000D03*
X63500000Y122000000D03*
X63500000Y120500000D03*
X63500000Y119100000D03*
X63500000Y117700000D03*
X63500000Y116300000D03*
X63500000Y114900000D03*
X63500000Y113500000D03*
X65000000Y127600000D03*
X65000000Y126200000D03*
X65000000Y124800000D03*
X65000000Y123400000D03*
X65000000Y122000000D03*
X65000000Y120500000D03*
X65000000Y119100000D03*
X65000000Y117700000D03*
X65000000Y116300000D03*
X65000000Y114900000D03*
X65000000Y113500000D03*
X66500000Y127600000D03*
X66500000Y126200000D03*
X66500000Y124800000D03*
X66500000Y123400000D03*
X66500000Y122000000D03*
X66500000Y120500000D03*
X66500000Y119100000D03*
X66500000Y117700000D03*
X66500000Y116300000D03*
X66500000Y114900000D03*
X66500000Y113500000D03*
X68000000Y127600000D03*
X68000000Y126200000D03*
X68000000Y124800000D03*
X68000000Y123400000D03*
X68000000Y122000000D03*
X68000000Y120500000D03*
X68000000Y119100000D03*
X68000000Y117700000D03*
X68000000Y116300000D03*
X68000000Y114900000D03*
X68000000Y113500000D03*
X69500000Y127600000D03*
X69500000Y126200000D03*
X69500000Y124800000D03*
X69500000Y123400000D03*
X69500000Y122000000D03*
X69500000Y120500000D03*
X69500000Y119100000D03*
X69500000Y117700000D03*
X69500000Y116300000D03*
X69500000Y114900000D03*
X69500000Y113500000D03*
%TD*%
D15*
%TO.C,U1*%
X105950000Y58500000D03*
X105950000Y57400000D03*
X105950000Y56300000D03*
X105950000Y55200000D03*
X105950000Y54100000D03*
X105950000Y53000000D03*
X105950000Y51900000D03*
X105950000Y48900000D03*
X105950000Y47800000D03*
X105950000Y46700000D03*
X105950000Y45600000D03*
X105950000Y44500000D03*
X116050000Y44500000D03*
X116050000Y45600000D03*
X116050000Y46700000D03*
X116050000Y47800000D03*
X116050000Y48900000D03*
X116050000Y51900000D03*
X116050000Y53000000D03*
X116050000Y54100000D03*
X116050000Y55200000D03*
X116050000Y56300000D03*
X116050000Y57400000D03*
X116050000Y58500000D03*
D16*
X108000000Y58600000D03*
D17*
X108000000Y57200000D03*
X108000000Y55800000D03*
X108000000Y54400000D03*
X108000000Y53000000D03*
X108000000Y51500000D03*
X108000000Y50100000D03*
X108000000Y48700000D03*
X108000000Y47300000D03*
X108000000Y45900000D03*
X108000000Y44500000D03*
X109500000Y58600000D03*
X109500000Y57200000D03*
X109500000Y55800000D03*
X109500000Y54400000D03*
X109500000Y53000000D03*
X109500000Y51500000D03*
X109500000Y50100000D03*
X109500000Y48700000D03*
X109500000Y47300000D03*
X109500000Y45900000D03*
X109500000Y44500000D03*
X111000000Y58600000D03*
X111000000Y57200000D03*
X111000000Y55800000D03*
X111000000Y54400000D03*
X111000000Y53000000D03*
X111000000Y51500000D03*
X111000000Y50100000D03*
X111000000Y48700000D03*
X111000000Y47300000D03*
X111000000Y45900000D03*
X111000000Y44500000D03*
X112500000Y58600000D03*
X112500000Y57200000D03*
X112500000Y55800000D03*
X112500000Y54400000D03*
X112500000Y53000000D03*
X112500000Y51500000D03*
X112500000Y50100000D03*
X112500000Y48700000D03*
X112500000Y47300000D03*
X112500000Y45900000D03*
X112500000Y44500000D03*
X114000000Y58600000D03*
X114000000Y57200000D03*
X114000000Y55800000D03*
X114000000Y54400000D03*
X114000000Y53000000D03*
X114000000Y51500000D03*
X114000000Y50100000D03*
X114000000Y48700000D03*
X114000000Y47300000D03*
X114000000Y45900000D03*
X114000000Y44500000D03*
%TD*%
D15*
%TO.C,U1*%
X105950000Y24000000D03*
X105950000Y22900000D03*
X105950000Y21800000D03*
X105950000Y20700000D03*
X105950000Y19600000D03*
X105950000Y18500000D03*
X105950000Y17400000D03*
X105950000Y14400000D03*
X105950000Y13300000D03*
X105950000Y12200000D03*
X105950000Y11100000D03*
X105950000Y10000000D03*
X116050000Y10000000D03*
X116050000Y11100000D03*
X116050000Y12200000D03*
X116050000Y13300000D03*
X116050000Y14400000D03*
X116050000Y17400000D03*
X116050000Y18500000D03*
X116050000Y19600000D03*
X116050000Y20700000D03*
X116050000Y21800000D03*
X116050000Y22900000D03*
X116050000Y24000000D03*
D16*
X108000000Y24100000D03*
D17*
X108000000Y22700000D03*
X108000000Y21300000D03*
X108000000Y19900000D03*
X108000000Y18500000D03*
X108000000Y17000000D03*
X108000000Y15600000D03*
X108000000Y14200000D03*
X108000000Y12800000D03*
X108000000Y11400000D03*
X108000000Y10000000D03*
X109500000Y24100000D03*
X109500000Y22700000D03*
X109500000Y21300000D03*
X109500000Y19900000D03*
X109500000Y18500000D03*
X109500000Y17000000D03*
X109500000Y15600000D03*
X109500000Y14200000D03*
X109500000Y12800000D03*
X109500000Y11400000D03*
X109500000Y10000000D03*
X111000000Y24100000D03*
X111000000Y22700000D03*
X111000000Y21300000D03*
X111000000Y19900000D03*
X111000000Y18500000D03*
X111000000Y17000000D03*
X111000000Y15600000D03*
X111000000Y14200000D03*
X111000000Y12800000D03*
X111000000Y11400000D03*
X111000000Y10000000D03*
X112500000Y24100000D03*
X112500000Y22700000D03*
X112500000Y21300000D03*
X112500000Y19900000D03*
X112500000Y18500000D03*
X112500000Y17000000D03*
X112500000Y15600000D03*
X112500000Y14200000D03*
X112500000Y12800000D03*
X112500000Y11400000D03*
X112500000Y10000000D03*
X114000000Y24100000D03*
X114000000Y22700000D03*
X114000000Y21300000D03*
X114000000Y19900000D03*
X114000000Y18500000D03*
X114000000Y17000000D03*
X114000000Y15600000D03*
X114000000Y14200000D03*
X114000000Y12800000D03*
X114000000Y11400000D03*
X114000000Y10000000D03*
%TD*%
D18*
%TO.C,R3*%
X30226000Y28384000D03*
X30226000Y26734000D03*
%TD*%
%TO.C,R3*%
X30226000Y131884000D03*
X30226000Y130234000D03*
%TD*%
%TO.C,R3*%
X74726000Y131884000D03*
X74726000Y130234000D03*
%TD*%
%TO.C,R3*%
X30226000Y97384000D03*
X30226000Y95734000D03*
%TD*%
%TO.C,R3*%
X74726000Y97384000D03*
X74726000Y95734000D03*
%TD*%
%TO.C,R3*%
X30226000Y62884000D03*
X30226000Y61234000D03*
%TD*%
%TO.C,R3*%
X30226000Y166384000D03*
X30226000Y164734000D03*
%TD*%
%TO.C,R3*%
X74726000Y28384000D03*
X74726000Y26734000D03*
%TD*%
%TO.C,R3*%
X74726000Y62884000D03*
X74726000Y61234000D03*
%TD*%
%TO.C,R3*%
X119226000Y28384000D03*
X119226000Y26734000D03*
%TD*%
%TO.C,R3*%
X119226000Y166384000D03*
X119226000Y164734000D03*
%TD*%
%TO.C,R3*%
X74726000Y166384000D03*
X74726000Y164734000D03*
%TD*%
%TO.C,R3*%
X119226000Y62884000D03*
X119226000Y61234000D03*
%TD*%
%TO.C,R3*%
X119226000Y131884000D03*
X119226000Y130234000D03*
%TD*%
%TO.C,R3*%
X119226000Y97384000D03*
X119226000Y95734000D03*
%TD*%
D13*
%TO.C,C5*%
X11656000Y13970000D03*
X10696000Y13970000D03*
%TD*%
%TO.C,C5*%
X11656000Y117470000D03*
X10696000Y117470000D03*
%TD*%
%TO.C,C5*%
X11656000Y48470000D03*
X10696000Y48470000D03*
%TD*%
%TO.C,C5*%
X11656000Y82970000D03*
X10696000Y82970000D03*
%TD*%
%TO.C,C5*%
X56156000Y117470000D03*
X55196000Y117470000D03*
%TD*%
%TO.C,C5*%
X56156000Y151970000D03*
X55196000Y151970000D03*
%TD*%
%TO.C,C5*%
X100656000Y151970000D03*
X99696000Y151970000D03*
%TD*%
%TO.C,C5*%
X100656000Y13970000D03*
X99696000Y13970000D03*
%TD*%
%TO.C,C5*%
X100656000Y48470000D03*
X99696000Y48470000D03*
%TD*%
%TO.C,C5*%
X56156000Y13970000D03*
X55196000Y13970000D03*
%TD*%
%TO.C,C5*%
X56156000Y82970000D03*
X55196000Y82970000D03*
%TD*%
%TO.C,C5*%
X11656000Y151970000D03*
X10696000Y151970000D03*
%TD*%
%TO.C,C5*%
X56156000Y48470000D03*
X55196000Y48470000D03*
%TD*%
%TO.C,C5*%
X100656000Y82970000D03*
X99696000Y82970000D03*
%TD*%
%TO.C,C5*%
X100656000Y117470000D03*
X99696000Y117470000D03*
%TD*%
D19*
%TO.C,J4*%
X2500000Y15475000D03*
D20*
X3875000Y17000000D03*
X1125000Y17000000D03*
%TD*%
D19*
%TO.C,J4*%
X47000000Y153475000D03*
D20*
X48375000Y155000000D03*
X45625000Y155000000D03*
%TD*%
D19*
%TO.C,J4*%
X47000000Y15475000D03*
D20*
X48375000Y17000000D03*
X45625000Y17000000D03*
%TD*%
D19*
%TO.C,J4*%
X2500000Y49975000D03*
D20*
X3875000Y51500000D03*
X1125000Y51500000D03*
%TD*%
D19*
%TO.C,J4*%
X2500000Y84475000D03*
D20*
X3875000Y86000000D03*
X1125000Y86000000D03*
%TD*%
D19*
%TO.C,J4*%
X47000000Y118975000D03*
D20*
X48375000Y120500000D03*
X45625000Y120500000D03*
%TD*%
D19*
%TO.C,J4*%
X47000000Y84475000D03*
D20*
X48375000Y86000000D03*
X45625000Y86000000D03*
%TD*%
D19*
%TO.C,J4*%
X2500000Y153475000D03*
D20*
X3875000Y155000000D03*
X1125000Y155000000D03*
%TD*%
D19*
%TO.C,J4*%
X2500000Y118975000D03*
D20*
X3875000Y120500000D03*
X1125000Y120500000D03*
%TD*%
D19*
%TO.C,J4*%
X47000000Y49975000D03*
D20*
X48375000Y51500000D03*
X45625000Y51500000D03*
%TD*%
D19*
%TO.C,J4*%
X91500000Y118975000D03*
D20*
X92875000Y120500000D03*
X90125000Y120500000D03*
%TD*%
D19*
%TO.C,J4*%
X91500000Y15475000D03*
D20*
X92875000Y17000000D03*
X90125000Y17000000D03*
%TD*%
D19*
%TO.C,J4*%
X91500000Y49975000D03*
D20*
X92875000Y51500000D03*
X90125000Y51500000D03*
%TD*%
D19*
%TO.C,J4*%
X91500000Y84475000D03*
D20*
X92875000Y86000000D03*
X90125000Y86000000D03*
%TD*%
D19*
%TO.C,J4*%
X91500000Y153475000D03*
D20*
X92875000Y155000000D03*
X90125000Y155000000D03*
%TD*%
D12*
%TO.C,C2*%
X30000000Y23876000D03*
X30960000Y23876000D03*
%TD*%
%TO.C,C2*%
X30000000Y127376000D03*
X30960000Y127376000D03*
%TD*%
%TO.C,C2*%
X74500000Y23876000D03*
X75460000Y23876000D03*
%TD*%
%TO.C,C2*%
X30000000Y58376000D03*
X30960000Y58376000D03*
%TD*%
%TO.C,C2*%
X30000000Y92876000D03*
X30960000Y92876000D03*
%TD*%
%TO.C,C2*%
X30000000Y161876000D03*
X30960000Y161876000D03*
%TD*%
%TO.C,C2*%
X74500000Y161876000D03*
X75460000Y161876000D03*
%TD*%
%TO.C,C2*%
X119000000Y127376000D03*
X119960000Y127376000D03*
%TD*%
%TO.C,C2*%
X74500000Y92876000D03*
X75460000Y92876000D03*
%TD*%
%TO.C,C2*%
X74500000Y58376000D03*
X75460000Y58376000D03*
%TD*%
%TO.C,C2*%
X119000000Y58376000D03*
X119960000Y58376000D03*
%TD*%
%TO.C,C2*%
X74500000Y127376000D03*
X75460000Y127376000D03*
%TD*%
%TO.C,C2*%
X119000000Y23876000D03*
X119960000Y23876000D03*
%TD*%
%TO.C,C2*%
X119000000Y92876000D03*
X119960000Y92876000D03*
%TD*%
%TO.C,C2*%
X119000000Y161876000D03*
X119960000Y161876000D03*
%TD*%
%TO.C,C4*%
X13109000Y10998200D03*
X14069000Y10998200D03*
%TD*%
%TO.C,C4*%
X13109000Y45498200D03*
X14069000Y45498200D03*
%TD*%
%TO.C,C4*%
X57609000Y45498200D03*
X58569000Y45498200D03*
%TD*%
%TO.C,C4*%
X57609000Y148998200D03*
X58569000Y148998200D03*
%TD*%
%TO.C,C4*%
X13109000Y79998200D03*
X14069000Y79998200D03*
%TD*%
%TO.C,C4*%
X13109000Y114498200D03*
X14069000Y114498200D03*
%TD*%
%TO.C,C4*%
X102109000Y148998200D03*
X103069000Y148998200D03*
%TD*%
%TO.C,C4*%
X13109000Y148998200D03*
X14069000Y148998200D03*
%TD*%
%TO.C,C4*%
X57609000Y10998200D03*
X58569000Y10998200D03*
%TD*%
%TO.C,C4*%
X102109000Y10998200D03*
X103069000Y10998200D03*
%TD*%
%TO.C,C4*%
X57609000Y79998200D03*
X58569000Y79998200D03*
%TD*%
%TO.C,C4*%
X57609000Y114498200D03*
X58569000Y114498200D03*
%TD*%
%TO.C,C4*%
X102109000Y45498200D03*
X103069000Y45498200D03*
%TD*%
%TO.C,C4*%
X102109000Y79998200D03*
X103069000Y79998200D03*
%TD*%
%TO.C,C4*%
X102109000Y114498200D03*
X103069000Y114498200D03*
%TD*%
D21*
%TO.C,R4*%
X31750000Y26734000D03*
X31750000Y28384000D03*
%TD*%
%TO.C,R4*%
X31750000Y61234000D03*
X31750000Y62884000D03*
%TD*%
%TO.C,R4*%
X31750000Y164734000D03*
X31750000Y166384000D03*
%TD*%
%TO.C,R4*%
X31750000Y130234000D03*
X31750000Y131884000D03*
%TD*%
%TO.C,R4*%
X76250000Y61234000D03*
X76250000Y62884000D03*
%TD*%
%TO.C,R4*%
X120750000Y130234000D03*
X120750000Y131884000D03*
%TD*%
%TO.C,R4*%
X76250000Y164734000D03*
X76250000Y166384000D03*
%TD*%
%TO.C,R4*%
X120750000Y26734000D03*
X120750000Y28384000D03*
%TD*%
%TO.C,R4*%
X120750000Y95734000D03*
X120750000Y97384000D03*
%TD*%
%TO.C,R4*%
X31750000Y95734000D03*
X31750000Y97384000D03*
%TD*%
%TO.C,R4*%
X76250000Y95734000D03*
X76250000Y97384000D03*
%TD*%
%TO.C,R4*%
X76250000Y130234000D03*
X76250000Y131884000D03*
%TD*%
%TO.C,R4*%
X76250000Y26734000D03*
X76250000Y28384000D03*
%TD*%
%TO.C,R4*%
X120750000Y61234000D03*
X120750000Y62884000D03*
%TD*%
%TO.C,R4*%
X120750000Y164734000D03*
X120750000Y166384000D03*
%TD*%
M02*
