%TF.GenerationSoftware,KiCad,Pcbnew,8.0.7*%
%TF.CreationDate,2025-03-20T17:22:03+00:00*%
%TF.ProjectId,SparkFun_GNSS_Flex_Module_LG290P_panelized,53706172-6b46-4756-9e5f-474e53535f46,v10*%
%TF.SameCoordinates,Original*%
%TF.FileFunction,Paste,Bot*%
%TF.FilePolarity,Positive*%
%FSLAX46Y46*%
G04 Gerber Fmt 4.6, Leading zero omitted, Abs format (unit mm)*
G04 Created by KiCad (PCBNEW 8.0.7) date 2025-03-20 17:22:03*
%MOMM*%
%LPD*%
G01*
G04 APERTURE LIST*
%ADD10R,2.100000X0.850000*%
G04 APERTURE END LIST*
D10*
%TO.C,J1*%
X1350000Y26000000D03*
X6650000Y26000000D03*
X1350000Y24000000D03*
X6650000Y24000000D03*
X1350000Y22000000D03*
X6650000Y22000000D03*
X1350000Y20000000D03*
X6650000Y20000000D03*
X1350000Y18000000D03*
X6650000Y18000000D03*
X1350000Y16000000D03*
X6650000Y16000000D03*
X1350000Y14000000D03*
X6650000Y14000000D03*
X1350000Y12000000D03*
X6650000Y12000000D03*
X1350000Y10000000D03*
X6650000Y10000000D03*
X1350000Y8000000D03*
X6650000Y8000000D03*
%TD*%
%TO.C,J1*%
X45850000Y26000000D03*
X51150000Y26000000D03*
X45850000Y24000000D03*
X51150000Y24000000D03*
X45850000Y22000000D03*
X51150000Y22000000D03*
X45850000Y20000000D03*
X51150000Y20000000D03*
X45850000Y18000000D03*
X51150000Y18000000D03*
X45850000Y16000000D03*
X51150000Y16000000D03*
X45850000Y14000000D03*
X51150000Y14000000D03*
X45850000Y12000000D03*
X51150000Y12000000D03*
X45850000Y10000000D03*
X51150000Y10000000D03*
X45850000Y8000000D03*
X51150000Y8000000D03*
%TD*%
%TO.C,J1*%
X1350000Y60500000D03*
X6650000Y60500000D03*
X1350000Y58500000D03*
X6650000Y58500000D03*
X1350000Y56500000D03*
X6650000Y56500000D03*
X1350000Y54500000D03*
X6650000Y54500000D03*
X1350000Y52500000D03*
X6650000Y52500000D03*
X1350000Y50500000D03*
X6650000Y50500000D03*
X1350000Y48500000D03*
X6650000Y48500000D03*
X1350000Y46500000D03*
X6650000Y46500000D03*
X1350000Y44500000D03*
X6650000Y44500000D03*
X1350000Y42500000D03*
X6650000Y42500000D03*
%TD*%
%TO.C,J1*%
X1350000Y95000000D03*
X6650000Y95000000D03*
X1350000Y93000000D03*
X6650000Y93000000D03*
X1350000Y91000000D03*
X6650000Y91000000D03*
X1350000Y89000000D03*
X6650000Y89000000D03*
X1350000Y87000000D03*
X6650000Y87000000D03*
X1350000Y85000000D03*
X6650000Y85000000D03*
X1350000Y83000000D03*
X6650000Y83000000D03*
X1350000Y81000000D03*
X6650000Y81000000D03*
X1350000Y79000000D03*
X6650000Y79000000D03*
X1350000Y77000000D03*
X6650000Y77000000D03*
%TD*%
%TO.C,J1*%
X90350000Y26000000D03*
X95650000Y26000000D03*
X90350000Y24000000D03*
X95650000Y24000000D03*
X90350000Y22000000D03*
X95650000Y22000000D03*
X90350000Y20000000D03*
X95650000Y20000000D03*
X90350000Y18000000D03*
X95650000Y18000000D03*
X90350000Y16000000D03*
X95650000Y16000000D03*
X90350000Y14000000D03*
X95650000Y14000000D03*
X90350000Y12000000D03*
X95650000Y12000000D03*
X90350000Y10000000D03*
X95650000Y10000000D03*
X90350000Y8000000D03*
X95650000Y8000000D03*
%TD*%
%TO.C,J1*%
X1350000Y164000000D03*
X6650000Y164000000D03*
X1350000Y162000000D03*
X6650000Y162000000D03*
X1350000Y160000000D03*
X6650000Y160000000D03*
X1350000Y158000000D03*
X6650000Y158000000D03*
X1350000Y156000000D03*
X6650000Y156000000D03*
X1350000Y154000000D03*
X6650000Y154000000D03*
X1350000Y152000000D03*
X6650000Y152000000D03*
X1350000Y150000000D03*
X6650000Y150000000D03*
X1350000Y148000000D03*
X6650000Y148000000D03*
X1350000Y146000000D03*
X6650000Y146000000D03*
%TD*%
%TO.C,J1*%
X45850000Y95000000D03*
X51150000Y95000000D03*
X45850000Y93000000D03*
X51150000Y93000000D03*
X45850000Y91000000D03*
X51150000Y91000000D03*
X45850000Y89000000D03*
X51150000Y89000000D03*
X45850000Y87000000D03*
X51150000Y87000000D03*
X45850000Y85000000D03*
X51150000Y85000000D03*
X45850000Y83000000D03*
X51150000Y83000000D03*
X45850000Y81000000D03*
X51150000Y81000000D03*
X45850000Y79000000D03*
X51150000Y79000000D03*
X45850000Y77000000D03*
X51150000Y77000000D03*
%TD*%
%TO.C,J1*%
X1350000Y129500000D03*
X6650000Y129500000D03*
X1350000Y127500000D03*
X6650000Y127500000D03*
X1350000Y125500000D03*
X6650000Y125500000D03*
X1350000Y123500000D03*
X6650000Y123500000D03*
X1350000Y121500000D03*
X6650000Y121500000D03*
X1350000Y119500000D03*
X6650000Y119500000D03*
X1350000Y117500000D03*
X6650000Y117500000D03*
X1350000Y115500000D03*
X6650000Y115500000D03*
X1350000Y113500000D03*
X6650000Y113500000D03*
X1350000Y111500000D03*
X6650000Y111500000D03*
%TD*%
%TO.C,J1*%
X45850000Y60500000D03*
X51150000Y60500000D03*
X45850000Y58500000D03*
X51150000Y58500000D03*
X45850000Y56500000D03*
X51150000Y56500000D03*
X45850000Y54500000D03*
X51150000Y54500000D03*
X45850000Y52500000D03*
X51150000Y52500000D03*
X45850000Y50500000D03*
X51150000Y50500000D03*
X45850000Y48500000D03*
X51150000Y48500000D03*
X45850000Y46500000D03*
X51150000Y46500000D03*
X45850000Y44500000D03*
X51150000Y44500000D03*
X45850000Y42500000D03*
X51150000Y42500000D03*
%TD*%
%TO.C,J1*%
X90350000Y60500000D03*
X95650000Y60500000D03*
X90350000Y58500000D03*
X95650000Y58500000D03*
X90350000Y56500000D03*
X95650000Y56500000D03*
X90350000Y54500000D03*
X95650000Y54500000D03*
X90350000Y52500000D03*
X95650000Y52500000D03*
X90350000Y50500000D03*
X95650000Y50500000D03*
X90350000Y48500000D03*
X95650000Y48500000D03*
X90350000Y46500000D03*
X95650000Y46500000D03*
X90350000Y44500000D03*
X95650000Y44500000D03*
X90350000Y42500000D03*
X95650000Y42500000D03*
%TD*%
%TO.C,J1*%
X45850000Y129500000D03*
X51150000Y129500000D03*
X45850000Y127500000D03*
X51150000Y127500000D03*
X45850000Y125500000D03*
X51150000Y125500000D03*
X45850000Y123500000D03*
X51150000Y123500000D03*
X45850000Y121500000D03*
X51150000Y121500000D03*
X45850000Y119500000D03*
X51150000Y119500000D03*
X45850000Y117500000D03*
X51150000Y117500000D03*
X45850000Y115500000D03*
X51150000Y115500000D03*
X45850000Y113500000D03*
X51150000Y113500000D03*
X45850000Y111500000D03*
X51150000Y111500000D03*
%TD*%
%TO.C,J1*%
X45850000Y164000000D03*
X51150000Y164000000D03*
X45850000Y162000000D03*
X51150000Y162000000D03*
X45850000Y160000000D03*
X51150000Y160000000D03*
X45850000Y158000000D03*
X51150000Y158000000D03*
X45850000Y156000000D03*
X51150000Y156000000D03*
X45850000Y154000000D03*
X51150000Y154000000D03*
X45850000Y152000000D03*
X51150000Y152000000D03*
X45850000Y150000000D03*
X51150000Y150000000D03*
X45850000Y148000000D03*
X51150000Y148000000D03*
X45850000Y146000000D03*
X51150000Y146000000D03*
%TD*%
%TO.C,J1*%
X90350000Y164000000D03*
X95650000Y164000000D03*
X90350000Y162000000D03*
X95650000Y162000000D03*
X90350000Y160000000D03*
X95650000Y160000000D03*
X90350000Y158000000D03*
X95650000Y158000000D03*
X90350000Y156000000D03*
X95650000Y156000000D03*
X90350000Y154000000D03*
X95650000Y154000000D03*
X90350000Y152000000D03*
X95650000Y152000000D03*
X90350000Y150000000D03*
X95650000Y150000000D03*
X90350000Y148000000D03*
X95650000Y148000000D03*
X90350000Y146000000D03*
X95650000Y146000000D03*
%TD*%
%TO.C,J1*%
X90350000Y95000000D03*
X95650000Y95000000D03*
X90350000Y93000000D03*
X95650000Y93000000D03*
X90350000Y91000000D03*
X95650000Y91000000D03*
X90350000Y89000000D03*
X95650000Y89000000D03*
X90350000Y87000000D03*
X95650000Y87000000D03*
X90350000Y85000000D03*
X95650000Y85000000D03*
X90350000Y83000000D03*
X95650000Y83000000D03*
X90350000Y81000000D03*
X95650000Y81000000D03*
X90350000Y79000000D03*
X95650000Y79000000D03*
X90350000Y77000000D03*
X95650000Y77000000D03*
%TD*%
%TO.C,J1*%
X90350000Y129500000D03*
X95650000Y129500000D03*
X90350000Y127500000D03*
X95650000Y127500000D03*
X90350000Y125500000D03*
X95650000Y125500000D03*
X90350000Y123500000D03*
X95650000Y123500000D03*
X90350000Y121500000D03*
X95650000Y121500000D03*
X90350000Y119500000D03*
X95650000Y119500000D03*
X90350000Y117500000D03*
X95650000Y117500000D03*
X90350000Y115500000D03*
X95650000Y115500000D03*
X90350000Y113500000D03*
X95650000Y113500000D03*
X90350000Y111500000D03*
X95650000Y111500000D03*
%TD*%
%TO.C,J3*%
X37350000Y26000000D03*
X42650000Y26000000D03*
X37350000Y24000000D03*
X42650000Y24000000D03*
X37350000Y22000000D03*
X42650000Y22000000D03*
X37350000Y20000000D03*
X42650000Y20000000D03*
X37350000Y18000000D03*
X42650000Y18000000D03*
X37350000Y16000000D03*
X42650000Y16000000D03*
X37350000Y14000000D03*
X42650000Y14000000D03*
X37350000Y12000000D03*
X42650000Y12000000D03*
X37350000Y10000000D03*
X42650000Y10000000D03*
X37350000Y8000000D03*
X42650000Y8000000D03*
%TD*%
%TO.C,J3*%
X37350000Y60500000D03*
X42650000Y60500000D03*
X37350000Y58500000D03*
X42650000Y58500000D03*
X37350000Y56500000D03*
X42650000Y56500000D03*
X37350000Y54500000D03*
X42650000Y54500000D03*
X37350000Y52500000D03*
X42650000Y52500000D03*
X37350000Y50500000D03*
X42650000Y50500000D03*
X37350000Y48500000D03*
X42650000Y48500000D03*
X37350000Y46500000D03*
X42650000Y46500000D03*
X37350000Y44500000D03*
X42650000Y44500000D03*
X37350000Y42500000D03*
X42650000Y42500000D03*
%TD*%
%TO.C,J3*%
X81850000Y164000000D03*
X87150000Y164000000D03*
X81850000Y162000000D03*
X87150000Y162000000D03*
X81850000Y160000000D03*
X87150000Y160000000D03*
X81850000Y158000000D03*
X87150000Y158000000D03*
X81850000Y156000000D03*
X87150000Y156000000D03*
X81850000Y154000000D03*
X87150000Y154000000D03*
X81850000Y152000000D03*
X87150000Y152000000D03*
X81850000Y150000000D03*
X87150000Y150000000D03*
X81850000Y148000000D03*
X87150000Y148000000D03*
X81850000Y146000000D03*
X87150000Y146000000D03*
%TD*%
%TO.C,J3*%
X81850000Y95000000D03*
X87150000Y95000000D03*
X81850000Y93000000D03*
X87150000Y93000000D03*
X81850000Y91000000D03*
X87150000Y91000000D03*
X81850000Y89000000D03*
X87150000Y89000000D03*
X81850000Y87000000D03*
X87150000Y87000000D03*
X81850000Y85000000D03*
X87150000Y85000000D03*
X81850000Y83000000D03*
X87150000Y83000000D03*
X81850000Y81000000D03*
X87150000Y81000000D03*
X81850000Y79000000D03*
X87150000Y79000000D03*
X81850000Y77000000D03*
X87150000Y77000000D03*
%TD*%
%TO.C,J3*%
X126350000Y95000000D03*
X131650000Y95000000D03*
X126350000Y93000000D03*
X131650000Y93000000D03*
X126350000Y91000000D03*
X131650000Y91000000D03*
X126350000Y89000000D03*
X131650000Y89000000D03*
X126350000Y87000000D03*
X131650000Y87000000D03*
X126350000Y85000000D03*
X131650000Y85000000D03*
X126350000Y83000000D03*
X131650000Y83000000D03*
X126350000Y81000000D03*
X131650000Y81000000D03*
X126350000Y79000000D03*
X131650000Y79000000D03*
X126350000Y77000000D03*
X131650000Y77000000D03*
%TD*%
%TO.C,J3*%
X37350000Y95000000D03*
X42650000Y95000000D03*
X37350000Y93000000D03*
X42650000Y93000000D03*
X37350000Y91000000D03*
X42650000Y91000000D03*
X37350000Y89000000D03*
X42650000Y89000000D03*
X37350000Y87000000D03*
X42650000Y87000000D03*
X37350000Y85000000D03*
X42650000Y85000000D03*
X37350000Y83000000D03*
X42650000Y83000000D03*
X37350000Y81000000D03*
X42650000Y81000000D03*
X37350000Y79000000D03*
X42650000Y79000000D03*
X37350000Y77000000D03*
X42650000Y77000000D03*
%TD*%
%TO.C,J3*%
X81850000Y26000000D03*
X87150000Y26000000D03*
X81850000Y24000000D03*
X87150000Y24000000D03*
X81850000Y22000000D03*
X87150000Y22000000D03*
X81850000Y20000000D03*
X87150000Y20000000D03*
X81850000Y18000000D03*
X87150000Y18000000D03*
X81850000Y16000000D03*
X87150000Y16000000D03*
X81850000Y14000000D03*
X87150000Y14000000D03*
X81850000Y12000000D03*
X87150000Y12000000D03*
X81850000Y10000000D03*
X87150000Y10000000D03*
X81850000Y8000000D03*
X87150000Y8000000D03*
%TD*%
%TO.C,J3*%
X81850000Y60500000D03*
X87150000Y60500000D03*
X81850000Y58500000D03*
X87150000Y58500000D03*
X81850000Y56500000D03*
X87150000Y56500000D03*
X81850000Y54500000D03*
X87150000Y54500000D03*
X81850000Y52500000D03*
X87150000Y52500000D03*
X81850000Y50500000D03*
X87150000Y50500000D03*
X81850000Y48500000D03*
X87150000Y48500000D03*
X81850000Y46500000D03*
X87150000Y46500000D03*
X81850000Y44500000D03*
X87150000Y44500000D03*
X81850000Y42500000D03*
X87150000Y42500000D03*
%TD*%
%TO.C,J3*%
X37350000Y129500000D03*
X42650000Y129500000D03*
X37350000Y127500000D03*
X42650000Y127500000D03*
X37350000Y125500000D03*
X42650000Y125500000D03*
X37350000Y123500000D03*
X42650000Y123500000D03*
X37350000Y121500000D03*
X42650000Y121500000D03*
X37350000Y119500000D03*
X42650000Y119500000D03*
X37350000Y117500000D03*
X42650000Y117500000D03*
X37350000Y115500000D03*
X42650000Y115500000D03*
X37350000Y113500000D03*
X42650000Y113500000D03*
X37350000Y111500000D03*
X42650000Y111500000D03*
%TD*%
%TO.C,J3*%
X81850000Y129500000D03*
X87150000Y129500000D03*
X81850000Y127500000D03*
X87150000Y127500000D03*
X81850000Y125500000D03*
X87150000Y125500000D03*
X81850000Y123500000D03*
X87150000Y123500000D03*
X81850000Y121500000D03*
X87150000Y121500000D03*
X81850000Y119500000D03*
X87150000Y119500000D03*
X81850000Y117500000D03*
X87150000Y117500000D03*
X81850000Y115500000D03*
X87150000Y115500000D03*
X81850000Y113500000D03*
X87150000Y113500000D03*
X81850000Y111500000D03*
X87150000Y111500000D03*
%TD*%
%TO.C,J3*%
X37350000Y164000000D03*
X42650000Y164000000D03*
X37350000Y162000000D03*
X42650000Y162000000D03*
X37350000Y160000000D03*
X42650000Y160000000D03*
X37350000Y158000000D03*
X42650000Y158000000D03*
X37350000Y156000000D03*
X42650000Y156000000D03*
X37350000Y154000000D03*
X42650000Y154000000D03*
X37350000Y152000000D03*
X42650000Y152000000D03*
X37350000Y150000000D03*
X42650000Y150000000D03*
X37350000Y148000000D03*
X42650000Y148000000D03*
X37350000Y146000000D03*
X42650000Y146000000D03*
%TD*%
%TO.C,J3*%
X126350000Y26000000D03*
X131650000Y26000000D03*
X126350000Y24000000D03*
X131650000Y24000000D03*
X126350000Y22000000D03*
X131650000Y22000000D03*
X126350000Y20000000D03*
X131650000Y20000000D03*
X126350000Y18000000D03*
X131650000Y18000000D03*
X126350000Y16000000D03*
X131650000Y16000000D03*
X126350000Y14000000D03*
X131650000Y14000000D03*
X126350000Y12000000D03*
X131650000Y12000000D03*
X126350000Y10000000D03*
X131650000Y10000000D03*
X126350000Y8000000D03*
X131650000Y8000000D03*
%TD*%
%TO.C,J3*%
X126350000Y60500000D03*
X131650000Y60500000D03*
X126350000Y58500000D03*
X131650000Y58500000D03*
X126350000Y56500000D03*
X131650000Y56500000D03*
X126350000Y54500000D03*
X131650000Y54500000D03*
X126350000Y52500000D03*
X131650000Y52500000D03*
X126350000Y50500000D03*
X131650000Y50500000D03*
X126350000Y48500000D03*
X131650000Y48500000D03*
X126350000Y46500000D03*
X131650000Y46500000D03*
X126350000Y44500000D03*
X131650000Y44500000D03*
X126350000Y42500000D03*
X131650000Y42500000D03*
%TD*%
%TO.C,J3*%
X126350000Y129500000D03*
X131650000Y129500000D03*
X126350000Y127500000D03*
X131650000Y127500000D03*
X126350000Y125500000D03*
X131650000Y125500000D03*
X126350000Y123500000D03*
X131650000Y123500000D03*
X126350000Y121500000D03*
X131650000Y121500000D03*
X126350000Y119500000D03*
X131650000Y119500000D03*
X126350000Y117500000D03*
X131650000Y117500000D03*
X126350000Y115500000D03*
X131650000Y115500000D03*
X126350000Y113500000D03*
X131650000Y113500000D03*
X126350000Y111500000D03*
X131650000Y111500000D03*
%TD*%
%TO.C,J3*%
X126350000Y164000000D03*
X131650000Y164000000D03*
X126350000Y162000000D03*
X131650000Y162000000D03*
X126350000Y160000000D03*
X131650000Y160000000D03*
X126350000Y158000000D03*
X131650000Y158000000D03*
X126350000Y156000000D03*
X131650000Y156000000D03*
X126350000Y154000000D03*
X131650000Y154000000D03*
X126350000Y152000000D03*
X131650000Y152000000D03*
X126350000Y150000000D03*
X131650000Y150000000D03*
X126350000Y148000000D03*
X131650000Y148000000D03*
X126350000Y146000000D03*
X131650000Y146000000D03*
%TD*%
M02*
